<?xml version="1.0" standalone="no"?>
<!DOCTYPE svg PUBLIC "-//W3C//DTD SVG 1.1//EN" "http://www.w3.org/Graphics/SVG/1.1/DTD/svg11.dtd">
<svg xmlns="http://www.w3.org/2000/svg">
<defs >
<font id="IBMPlexSans" horiz-adv-x="564" ><font-face
    font-family="IBM Plex Sans ExtraLight"
    units-per-em="1000"
    panose-1="2 11 3 3 5 2 3 0 2 3"
    ascent="1025"
    descent="-275"
    alphabetic="0" />
<glyph unicode=" " glyph-name="space" horiz-adv-x="236" />
<glyph unicode="!" glyph-name="exclam" horiz-adv-x="253" d="M102 178L144 434L196 698H233L181 434L120 178H102ZM77 -7Q60 -7 53 0T46 17Q46 22 47 28T49 39Q51 50 59 59T87 68Q104 68 111 61T118 44Q118 39 117 33T115 22Q113 11 105 2T77 -7Z" />
<glyph unicode="&quot;" glyph-name="quotedbl" horiz-adv-x="382" d="M141 483L192 740H224L173 483H141ZM299 483L350 740H382L331 483H299Z" />
<glyph unicode="#" glyph-name="numbersign" horiz-adv-x="703" d="M394 216H220L140 0H108L188 216H45L50 245H200L276 453H131L137 482H286L367 698H399L318 482H492L572 698H604L524 482H667L662 453H513L436 245H581L575 216H426L345 0H313L394 216ZM404 245L481
453H308L231 245H404Z" />
<glyph unicode="$" glyph-name="dollar" horiz-adv-x="546" d="M208 1Q136 6 89 36T13 115L41 136Q67 91 108 65T214 33L277 344L246 352Q175 370 142 408T108 510Q108 548 122 582T164 642T234 683T333 698H348L364 780H392L375 697Q440 691 476 666T536 597L508
577Q485 618 454 639T368 665L310 369L334 363Q409 344 444 306T479 205Q479 163 465 126T422 61T348 17T243 0H235L219 -82H191L208 1ZM303 338L241 32Q295 32 333 46T396 83T432 138T443 203Q443 255 416 286T327 332L303 338ZM144 511Q144 459 170 428T256 382L283
375L341 666H329Q282 666 248 654T190 621T156 572T144 511Z" />
<glyph unicode="%" glyph-name="percent" horiz-adv-x="887" d="M140 0L745 698H782L177 0H140ZM237 324Q180 324 150 362T119 458Q119 499 128 543T159 625T214 686T299 710Q356 710 386 672T417 576Q417 535 408 491T377 409T322 348T237 324ZM239 349Q293 349
326 386T374 492L383 533Q385 544 386 556T387 579Q387 624 366 654T297 685Q243 685 210 648T162 542L153 501Q151 490 150 478T149 455Q149 410 170 380T239 349ZM622 -12Q565 -12 534 26T503 123Q503 164 512 208T543 289T599 350T684 374Q741 374 771 336T802
239Q802 198 793 154T762 73T707 12T622 -12ZM624 13Q678 13 711 50T759 156L768 197Q770 208 771 220T772 243Q772 288 750 318T682 349Q628 349 594 312T546 207L538 165Q536 154 535 142T534 119Q534 74 555 44T624 13Z" />
<glyph unicode="&amp;" glyph-name="ampersand" horiz-adv-x="675" d="M462 108Q419 54 358 21T225 -12Q144 -12 95 26T46 140Q46 174 57 204T94 264T158 320T254 375Q219 421 206 456T192 521Q192 559 205 593T242 654T303 695T385 710Q452 710 491 678T530 590Q530
555 518 528T478 475T407 423T301 366L463 160Q488 200 505 252T534 355H649L642 324H557Q545 273 527 224T482 135L587 0H547L462 108ZM381 680Q321 680 282 648T232 564Q229 547 228 539T226 522Q226 499 237 468T283 389Q341 417 381 440T446 486T483 533T495
586Q495 631 465 655T381 680ZM271 352Q225 329 192 309T137 267T102 222T84 170Q81 153 81 140Q81 78 122 49T232 19Q298 19 352 50T444 132L271 352Z" />
<glyph unicode="&apos;" glyph-name="quotesingle" horiz-adv-x="223" d="M141 483L192 740H224L173 483H141Z" />
<glyph unicode="(" glyph-name="parenleft" horiz-adv-x="330" d="M100 224Q100 309 121 389T179 538T264 664T367 760H405Q358 726 316 682T240 585T182 475T147 357L139 311Q134 288 133 267T131 222Q131 114 159 25T247 -138H215Q164 -75 132 17T100 224Z" />
<glyph unicode=")" glyph-name="parenright" horiz-adv-x="330" d="M249 398Q249 313 228 233T170 84T85 -42T-18 -138H-56Q-9 -104 33 -60T109 37T167 147T202 265L210 311Q215 334 216 355T218 400Q218 508 190 597T102 760H134Q185 697 217 605T249 398Z" />
<glyph unicode="*" glyph-name="asterisk" horiz-adv-x="384" d="M137 423L113 442L232 569L95 612L108 642L244 592L272 747H304L272 591L425 642L431 612L276 566L344 441L318 424L252 552L137 423Z" />
<glyph unicode="+" glyph-name="plus" horiz-adv-x="600" d="M245 62L291 290H72L78 320H297L343 549H376L330 320H548L542 290H324L278 62H245Z" />
<glyph unicode="," glyph-name="comma" horiz-adv-x="248" d="M83 68Q100 68 107 61T114 44Q114 39 113 33T111 22Q106 2 96 -20T72 -65T40 -107T2 -144H-30Q14 -107 37 -71T71 -5Q54 -4 48 2T42 18Q42 23 43 29T45 39Q48 50 55 59T83 68Z" />
<glyph unicode="-" glyph-name="hyphen" horiz-adv-x="388" d="M83 287L90 322H325L318 287H83Z" />
<glyph unicode="." glyph-name="period" horiz-adv-x="248" d="M73 -7Q56 -7 49 0T42 17Q42 22 43 28T45 39Q47 50 55 59T83 68Q100 68 107 61T114 44Q114 39 113 33T111 22Q109 11 101 2T73 -7Z" />
<glyph unicode="/" glyph-name="slash" horiz-adv-x="319" d="M-75 -151L352 740H384L-43 -151H-75Z" />
<glyph unicode="0" glyph-name="zero" horiz-adv-x="600" d="M377 710Q469 710 513 651T558 477Q558 426 551 370T528 259T488 155T430 69T352 10T254 -12Q162 -12 118 47T73 221Q73 272 80 328T103 439T143 543T201 629T278 688T377 710ZM375 678Q284 678 222
604T133 395L119 325Q114 296 112 269T109 218Q109 125 142 73T256 20Q347 20 409 94T498 303L512 373Q517 402 519 429T522 480Q522 573 489 625T375 678Z" />
<glyph unicode="1" glyph-name="one" horiz-adv-x="600" d="M47 0L53 32H267L394 671H390L151 494L132 519L374 698H436L303 32H509L502 0H47Z" />
<glyph unicode="2" glyph-name="two" horiz-adv-x="600" d="M468 0H33L41 40L353 301Q411 349 448 396T495 489Q500 515 501 528T503 551Q503 577 495 600T471 640T428 667T365 677Q296 677 249 645T173 542L142 554Q205 710 368 710Q411 710 443 698T497 665T529
614T540 551Q540 511 530 477T500 409T448 344T376 278L80 32H474L468 0Z" />
<glyph unicode="3" glyph-name="three" horiz-adv-x="600" d="M304 382Q380 382 428 415T490 514Q494 531 495 539T496 555Q496 613 459 645T357 677Q291 677 249 655T177 581L150 599Q181 650 232 680T362 710Q399 710 430 700T485 670T521 622T534 559Q534 479
488 429T366 366L365 363Q417 356 450 317T484 217Q484 165 467 123T419 50T343 4T245 -12Q169 -12 116 16T39 99L68 117Q90 67 133 44T248 21Q328 21 377 59T441 167Q445 189 446 200T448 219Q448 278 411 314T299 350H209L216 382H304Z" />
<glyph unicode="4" glyph-name="four" horiz-adv-x="600" d="M349 0L380 155H27L33 189L474 698H524L421 185H533L527 155H415L384 0H349ZM69 185H386L480 656H477L69 185Z" />
<glyph unicode="5" glyph-name="five" horiz-adv-x="600" d="M568 666H252L167 346L171 345Q203 384 241 401T334 418Q419 418 464 373T509 248Q509 188 491 140T441 59T363 7T261 -12Q190 -12 137 16T60 99L88 117Q111 66 156 44T262 21Q350 21 399 64T464 185Q469
211 470 224T472 248Q472 312 437 349T327 386Q299 386 277 382T236 369T199 347T164 317L129 321L228 698H574L568 666Z" />
<glyph unicode="6" glyph-name="six" horiz-adv-x="600" d="M267 -12Q172 -12 127 39T81 176Q81 255 109 331T187 475T303 600T445 698H498Q355 615 267 521T137 306L140 305Q174 368 226 394T338 420Q420 420 469 374T518 245Q518 191 500 144T448 63T368 8T267
-12ZM267 20Q308 20 343 32T405 67T450 120T475 187Q480 211 481 222T482 242Q482 308 445 348T331 388Q290 388 255 376T193 341T148 288T123 221Q118 197 117 186T116 166Q116 100 153 60T267 20Z" />
<glyph unicode="7" glyph-name="seven" horiz-adv-x="600" d="M140 0L562 666H199L167 507H133L171 698H607L600 664L180 0H140Z" />
<glyph unicode="8" glyph-name="eight" horiz-adv-x="600" d="M250 -12Q153 -12 101 34T49 158Q49 198 62 233T100 296T160 342T239 367V372Q139 400 139 506Q139 552 156 589T205 654T278 695T372 710Q459 710 506 669T553 559Q553 523 542 491T509 434T459 392T394
366L393 362Q509 331 509 212Q509 162 490 121T437 51T355 5T250 -12ZM251 20Q293 20 330 30T395 60T442 107T467 169Q471 190 472 199T473 217Q473 277 431 313T307 350Q265 350 228 340T163 310T116 263T91 201Q87 180 86 171T85 153Q85 93 127 57T251 20ZM324
382Q400 382 449 417T511 515Q515 535 516 544T517 560Q517 615 479 646T368 678Q292 678 243 643T181 545Q177 525 176 516T175 500Q175 445 213 414T324 382Z" />
<glyph unicode="9" glyph-name="nine" horiz-adv-x="600" d="M551 522Q551 443 523 367T445 223T329 98T187 0H134Q277 83 365 177T495 392L492 393Q458 330 406 304T294 278Q212 278 163 324T114 453Q114 507 132 554T184 635T264 690T365 710Q460 710 505 659T551
522ZM301 310Q342 310 377 322T439 357T484 410T509 477Q514 501 515 512T516 532Q516 598 479 638T365 678Q324 678 289 666T227 631T182 578T157 511Q152 487 151 476T150 456Q150 390 187 350T301 310Z" />
<glyph unicode=":" glyph-name="colon" horiz-adv-x="268" d="M83 -7Q66 -7 59 0T52 17Q52 22 53 28T55 39Q57 50 65 59T93 68Q110 68 117 61T124 44Q124 39 123 33T121 22Q119 11 111 2T83 -7ZM175 440Q158 440 151 447T144 464Q144 469 145 475T147 486Q149
497 157 506T185 515Q202 515 209 508T216 491Q216 486 215 480T213 469Q211 458 203 449T175 440Z" />
<glyph unicode=";" glyph-name="semicolon" horiz-adv-x="268" d="M93 68Q110 68 117 61T124 44Q124 39 123 33T121 22Q116 2 106 -20T82 -65T50 -107T12 -144H-20Q24 -107 47 -71T81 -5Q64 -4 58 2T52 18Q52 23 53 29T55 39Q58 50 65 59T93 68ZM175 440Q158 440
151 447T144 464Q144 469 145 475T147 486Q149 497 157 506T185 515Q202 515 209 508T216 491Q216 486 215 480T213 469Q211 458 203 449T175 440Z" />
<glyph unicode="&lt;" glyph-name="less" horiz-adv-x="600" d="M96 283L102 315L577 571L570 531L134 299L133 295L476 61L469 26L96 283Z" />
<glyph unicode="=" glyph-name="equal" horiz-adv-x="600" d="M83 382L89 412H559L553 382H83ZM46 199L52 229H522L516 199H46Z" />
<glyph unicode="&gt;" glyph-name="greater" horiz-adv-x="600" d="M48 66L484 300V303L142 536L149 571L522 315L515 283L40 26L48 66Z" />
<glyph unicode="?" glyph-name="question" horiz-adv-x="457" d="M177 184L210 355Q411 368 432 508Q434 517 435 530T437 552Q437 611 402 644T299 678Q228 678 187 643T120 546L90 557Q118 627 168 668T302 710Q381 710 427 668T473 553Q473 461 416 401T239
327L211 184H177ZM159 -7Q142 -7 135 0T128 17Q128 22 129 28T131 39Q133 50 141 59T169 68Q186 68 193 61T200 44Q200 39 199 33T197 22Q195 11 187 2T159 -7Z" />
<glyph unicode="@" glyph-name="at" horiz-adv-x="876" d="M363 -121Q294 -121 239 -101T145 -41T87 56T66 188Q66 213 68 241T78 301Q96 392 137 467T237 597T370 680T528 710Q594 710 649 691T745 633T807 540T830 413Q830 370 820 320Q811 267 794 221T752
142T695 89T624 69Q586 69 565 88T543 143V155H540Q530 139 516 124T483 96T442 77T392 69Q329 69 293 107T257 214Q257 230 258 249T265 291Q285 400 340 454T476 508Q523 508 554 484T593 425H596L610 497H641L577 172Q574 157 574 143Q574 97 628 97Q680 97
723 150T784 297L793 345Q800 380 800 414Q800 477 781 527T725 611T638 664T524 682Q450 682 383 655T262 581T170 468T116 325L104 271Q95 226 95 188Q95 122 114 70T168 -18T253 -74T366 -93H601L595 -121H363ZM400 98Q427 98 452 108T499 134T534 173T554 220L583
362Q588 387 582 408T562 445T525 470T476 479Q409 479 365 435T305 314L295 263Q292 249 291 237T290 212Q290 158 318 128T400 98Z" />
<glyph unicode="A" glyph-name="A" horiz-adv-x="601" d="M489 0L449 227H142L23 0H-16L352 698H400L526 0H489ZM372 661H368L158 259H444L372 661Z" />
<glyph unicode="B" glyph-name="B" horiz-adv-x="611" d="M190 698H419Q494 698 533 662T573 558Q573 527 566 497T543 441T501 396T437 369L436 366Q486 355 512 319T538 230Q538 177 523 135T480 62T413 16T324 0H52L190 698ZM325 32Q397 32 438 68T492 165Q498
194 499 208T501 231Q501 256 494 277T471 315T432 340T376 350H156L94 32H325ZM367 382Q434 382 475 411T528 495Q533 525 534 538T536 559Q536 608 508 637T416 666H219L163 382H367Z" />
<glyph unicode="C" glyph-name="C" horiz-adv-x="597" d="M291 -12Q241 -12 200 3T129 50T83 126T66 231Q66 309 85 393T144 548T247 664T396 710Q481 710 528 672T595 565L562 553Q545 611 507 644T394 677Q344 677 301 657T222 600T163 511T125 394L111 325Q105
296 104 271T102 226Q102 132 151 77T292 21Q363 21 411 56T497 160L528 145Q481 62 425 25T291 -12Z" />
<glyph unicode="D" glyph-name="D" horiz-adv-x="649" d="M190 698H379Q494 698 553 636T612 458Q612 374 592 292T531 145T428 40T280 0H50L190 698ZM281 32Q337 32 382 53T462 110T520 195T554 300L567 367Q572 394 574 419T576 465Q576 559 526 612T376 666H219L93
32H281Z" />
<glyph unicode="E" glyph-name="E" horiz-adv-x="556" d="M50 0L190 698H576L570 666H220L160 370H493L487 338H153L92 32H447L440 0H50Z" />
<glyph unicode="F" glyph-name="F" horiz-adv-x="531" d="M50 0L190 698H568L561 666H219L159 370H484L478 338H153L86 0H50Z" />
<glyph unicode="G" glyph-name="G" horiz-adv-x="660" d="M515 111H512Q477 49 421 19T291 -12Q241 -12 200 3T129 50T83 126T66 231Q66 282 74 338T99 447T144 548T208 632T294 689T403 710Q494 710 546 672T617 565L584 553Q566 611 524 644T400 677Q347 677
303 657T223 600T162 510T124 392L111 325Q106 297 104 273T102 228Q102 131 152 76T297 21Q336 21 374 32T444 66T499 125T533 211L552 306H382L389 339H594L527 0H493L515 111Z" />
<glyph unicode="H" glyph-name="H" horiz-adv-x="681" d="M560 338H154L86 0H50L190 698H226L160 370H566L632 698H668L528 0H492L560 338Z" />
<glyph unicode="I" glyph-name="I" horiz-adv-x="373" d="M15 0L21 31H124L252 667H148L154 698H397L391 667H288L160 31H264L258 0H15Z" />
<glyph unicode="J" glyph-name="J" horiz-adv-x="465" d="M458 698L355 180Q336 87 283 38T149 -12Q76 -12 35 26T-10 126L23 134Q28 78 60 50T150 21Q219 21 261 64T320 187L416 666H173L178 698H458Z" />
<glyph unicode="K" glyph-name="K" horiz-adv-x="576" d="M290 377L134 234L86 0H50L190 698H226L145 288H148L303 431L594 698H641L318 400L509 0H471L290 377Z" />
<glyph unicode="L" glyph-name="L" horiz-adv-x="473" d="M50 0L190 698H226L93 32H409L403 0H50Z" />
<glyph unicode="M" glyph-name="M" horiz-adv-x="781" d="M724 652H721L384 219L220 652H216L85 0H50L190 698H240L394 288H397L715 698H768L628 0H593L724 652Z" />
<glyph unicode="N" glyph-name="N" horiz-adv-x="681" d="M217 649H214L85 0H50L190 698H235L501 49H504L633 698H668L528 0H483L217 649Z" />
<glyph unicode="O" glyph-name="O" horiz-adv-x="663" d="M293 -12Q243 -12 201 3T129 50T83 125T66 229Q66 280 74 336T100 445T145 547T209 631T295 688T403 710Q453 710 495 695T567 648T613 572T630 469Q630 418 622 362T596 253T551 151T487 67T401 10T293
-12ZM295 21Q347 21 392 41T472 98T533 189T572 309L585 375Q590 404 592 429T594 474Q594 568 545 622T401 677Q349 677 304 657T224 599T163 508T124 389L111 323Q106 294 104 269T102 224Q102 130 151 76T295 21Z" />
<glyph unicode="P" glyph-name="P" horiz-adv-x="583" d="M50 0L190 698H441Q518 698 557 655T596 545Q596 492 581 450T539 378T471 332T381 316H150L86 0H50ZM156 348H385Q456 348 497 384T551 479Q557 509 558 524T560 549Q560 598 532 632T438 666H219L156 348Z" />
<glyph unicode="Q" glyph-name="Q" horiz-adv-x="663" d="M236 -122Q236 -117 237 -110T240 -94L259 -10Q216 -5 181 13T120 61T80 133T66 229Q66 280 74 336T100 445T145 547T209 631T295 688T403 710Q453 710 495 695T567 648T613 572T630 469Q630 418 622 362T596
253T551 152T487 68T401 10T293 -12L270 -118H373L366 -151H271Q251 -151 244 -143T236 -122ZM295 21Q347 21 392 41T472 98T533 189T572 309L585 375Q590 404 592 429T594 474Q594 568 545 622T401 677Q348 677 304 657T224 599T163 508T124 389L111 323Q105 294
103 269T101 224Q101 130 151 76T295 21Z" />
<glyph unicode="R" glyph-name="R" horiz-adv-x="629" d="M86 0H50L190 698H441Q518 698 557 655T596 545Q596 443 543 383T390 318L510 0H472L354 316H149L86 0ZM385 348Q456 348 497 384T551 479Q557 509 558 524T560 549Q560 598 532 632T438 666H219L156 348H385Z" />
<glyph unicode="S" glyph-name="S" horiz-adv-x="546" d="M238 -12Q151 -12 98 18T13 102L42 123Q71 73 116 47T240 21Q293 21 331 36T393 76T428 134T440 205Q440 257 413 287T323 333L241 353Q172 370 140 409T107 511Q107 551 121 587T162 651T231 694T329
710Q414 710 462 684T538 610L510 590Q483 636 441 656T327 677Q280 677 246 664T189 629T155 577T143 512Q143 459 169 429T255 384L335 364Q477 330 477 206Q477 161 463 122T419 53T344 6T238 -12Z" />
<glyph unicode="T" glyph-name="T" horiz-adv-x="550" d="M375 666L242 0H206L339 666H99L105 698H622L616 666H375Z" />
<glyph unicode="U" glyph-name="U" horiz-adv-x="643" d="M218 698L133 271Q125 231 122 206T118 160Q118 94 157 58T277 21Q330 21 369 34T435 76T482 154T516 274L601 698H637L552 272Q536 192 514 138T460 50T382 3T275 -12Q184 -12 133 31T82 158Q82 184 86
212T99 280L182 698H218Z" />
<glyph unicode="V" glyph-name="V" horiz-adv-x="572" d="M212 0L116 698H152L240 39H243L596 698H635L258 0H212Z" />
<glyph unicode="W" glyph-name="W" horiz-adv-x="864" d="M154 0L117 698H153L186 48H189L497 698H544L590 49H593L892 698H930L605 0H560L514 653H511L200 0H154Z" />
<glyph unicode="X" glyph-name="X" horiz-adv-x="562" d="M481 0H443L295 324H291L16 0H-28L275 356L118 698H157L301 384H304L570 698H614L319 352L481 0Z" />
<glyph unicode="Y" glyph-name="Y" horiz-adv-x="549" d="M205 0L263 289L108 698H145L285 329H289L577 698H619L299 289L241 0H205Z" />
<glyph unicode="Z" glyph-name="Z" horiz-adv-x="548" d="M464 0H-20L-13 35L536 666H133L139 698H586L579 663L29 32H471L464 0Z" />
<glyph unicode="[" glyph-name="bracketleft" horiz-adv-x="306" d="M27 -138L207 760H340L333 732H233L65 -110H165L159 -138H27Z" />
<glyph unicode="\" glyph-name="backslash" horiz-adv-x="319" d="M202 -151L130 740H160L232 -151H202Z" />
<glyph unicode="]" glyph-name="bracketright" horiz-adv-x="306" d="M301 760L121 -138H-11L-5 -110H95L264 732H163L169 760H301Z" />
<glyph unicode="^" glyph-name="asciicircum" horiz-adv-x="600" d="M514 316L378 663H376L101 316L74 332L363 698H400L542 330L514 316Z" />
<glyph unicode="_" glyph-name="underscore" horiz-adv-x="556" d="M-55 -146L-48 -117H455L449 -146H-55Z" />
<glyph unicode="`" glyph-name="grave" horiz-adv-x="600" d="M233 741L264 757L340 598L317 587L233 741Z" />
<glyph unicode="a" glyph-name="a" horiz-adv-x="571" d="M419 0Q385 0 385 29Q385 34 385 38T387 48L400 111H397Q365 53 324 21T220 -12Q181 -12 151 2T101 41T69 101T58 178Q58 244 74 305T121 415T200 491T308 520Q368 520 406 493T459 417H462L480 508H514L419
31H501L495 0H419ZM225 19Q257 19 282 29T334 61Q363 86 386 123T420 211L447 344Q452 369 447 394T426 441T380 475T309 489Q228 489 177 435T107 286L99 242Q96 226 95 211T93 175Q93 143 100 115T124 65T165 32T225 19Z" />
<glyph unicode="b" glyph-name="b" horiz-adv-x="563" d="M197 740H231L163 397H166Q198 455 239 487T343 520Q382 520 412 506T462 467T494 407T505 330Q505 264 489 203T442 93T363 17T255 -12Q195 -12 157 15T104 91H101L83 0H49L197 740ZM254 19Q335 19 386
73T456 222L464 266Q467 282 468 297T470 333Q470 365 463 393T439 443T397 476T338 489Q306 489 281 479T229 447Q200 422 177 385T143 297L116 164Q111 139 116 114T137 67T183 33T254 19Z" />
<glyph unicode="c" glyph-name="c" horiz-adv-x="481" d="M226 -12Q185 -12 154 2T101 43T69 107T58 189Q58 258 74 318T121 424T197 494T301 520Q363 520 404 488T456 404L427 393Q414 441 381 465T299 489Q226 489 175 438T108 301L97 243Q94 226 93 215T92
186Q92 151 100 121T125 68T167 32T228 19Q282 19 323 48T398 131L426 117Q390 57 341 23T226 -12Z" />
<glyph unicode="d" glyph-name="d" horiz-adv-x="571" d="M419 0Q385 0 385 29Q385 34 385 38T387 48L400 111H397Q365 53 324 21T220 -12Q181 -12 151 2T101 41T69 101T58 178Q58 244 74 305T121 415T200 491T308 520Q368 520 406 493T459 417H462L526 740H560L418
31H501L495 0H419ZM225 19Q257 19 282 29T334 61Q363 86 386 123T420 211L447 344Q452 369 447 394T426 441T380 475T309 489Q228 489 177 435T107 286L99 242Q96 226 95 211T93 175Q93 143 100 115T124 65T165 32T225 19Z" />
<glyph unicode="e" glyph-name="e" horiz-adv-x="506" d="M239 -12Q151 -12 105 38T58 191Q58 259 76 319T128 423T208 494T311 520Q381 520 426 487T471 394Q471 365 457 337T402 286T287 248T95 230Q94 222 93 209T92 187Q92 101 130 60T240 19Q299 19 345 49T421
134L448 117Q407 49 354 19T239 -12ZM307 490Q268 490 235 475T175 431T130 364T103 279L99 259Q205 261 270 273T372 303T422 345T435 394Q435 439 404 464T307 490Z" />
<glyph unicode="f" glyph-name="f" horiz-adv-x="288" d="M74 -148Q69 -175 57 -187T15 -200H-65L-59 -169H36L164 477H68L74 508H170L205 688Q210 715 222 727T265 740H355L349 709H243L204 508H308L302 477H198L74 -148Z" />
<glyph unicode="g" glyph-name="g" horiz-adv-x="490" d="M445 -51Q445 -128 381 -170T185 -212Q91 -212 42 -181T-7 -93Q-7 -48 21 -17T100 32V36Q81 43 71 59T61 96Q61 134 89 156T160 190L161 195Q126 212 107 244T88 314Q88 361 103 399T144 464T206 505T286
520Q318 520 344 511T390 486L398 532Q401 550 410 558T438 567H527L521 536H423L411 466Q437 431 437 384Q437 337 422 299T381 234T318 193T239 178Q215 178 194 184Q141 170 117 151T93 103Q93 84 106 72T158 59H292Q373 59 409 30T445 -51ZM409 -55Q409 -16
383 5T288 27H133Q85 13 57 -14T28 -86Q28 -136 67 -159T173 -183H209Q300 -183 354 -152T409 -55ZM242 207Q307 207 346 241T395 330Q400 356 401 367T403 386Q403 432 373 461T283 491Q218 491 179 457T130 368Q125 342 124 331T122 312Q122 266 152 237T242
207Z" />
<glyph unicode="h" glyph-name="h" horiz-adv-x="552" d="M196 740H230L164 404H167Q196 461 238 490T340 520Q405 520 439 485T473 386Q473 371 471 354T466 320L408 31H490L484 0H407Q375 0 375 28Q375 36 378 51L432 320Q435 336 437 353T439 380Q439 489 332
489Q300 489 268 477T208 432Q189 411 171 380T144 306L83 0H49L196 740Z" />
<glyph unicode="i" glyph-name="i" horiz-adv-x="242" d="M200 664Q186 664 181 670T175 685Q175 688 175 691T178 702Q180 713 187 719T211 726Q225 726 230 720T236 705Q236 701 233 688Q231 677 224 671T200 664ZM89 0Q56 0 56 28Q56 36 59 51L150 508H184L89
31H171L165 0H89Z" />
<glyph unicode="j" glyph-name="j" horiz-adv-x="234" d="M151 508H185L53 -151Q48 -178 36 -189T-5 -200H-76L-69 -169H15L151 508ZM201 664Q187 664 181 670T175 685Q175 688 175 691T178 702Q183 726 211 726Q225 726 231 720T237 706Q237 703 237 700T234
688Q229 664 201 664Z" />
<glyph unicode="k" glyph-name="k" horiz-adv-x="488" d="M197 740H231L130 234H134L241 326L449 508H492L252 296L385 31H444L438 0H391Q374 0 366 6T349 29L226 276L121 187L83 0H49L197 740Z" />
<glyph unicode="l" glyph-name="l" horiz-adv-x="242" d="M90 0Q57 0 57 28Q57 36 60 51L197 740H231L90 31H173L167 0H90Z" />
<glyph unicode="m" glyph-name="m" horiz-adv-x="844" d="M49 0L151 508H185L164 404H167Q194 458 234 489T334 520Q394 520 425 486T459 399H463Q489 456 533 488T638 520Q700 520 732 485T765 386Q765 371 763 354T758 321L700 31H783L776 0H700Q666 0 666 28Q666
38 669 52L724 320Q727 336 729 353T731 381Q731 489 629 489Q598 489 567 476T510 432Q490 409 475 380T451 312L388 0H354L418 320Q421 336 423 353T425 381Q425 489 325 489Q294 489 265 476T209 432Q189 410 171 377T144 306L83 0H49Z" />
<glyph unicode="n" glyph-name="n" horiz-adv-x="552" d="M49 0L151 508H185L164 404H167Q196 461 238 490T341 520Q406 520 439 485T473 386Q473 371 471 354T466 320L408 31H490L484 0H407Q375 0 375 28Q375 36 378 51L432 320Q435 336 436 353T438 380Q438
489 332 489Q300 489 269 477T208 432Q190 411 171 380T144 306L83 0H49Z" />
<glyph unicode="o" glyph-name="o" horiz-adv-x="538" d="M227 -12Q187 -12 156 2T102 41T69 100T57 176Q57 245 73 307T122 417T202 492T311 520Q351 520 382 506T436 467T469 408T481 332Q481 263 465 201T416 91T336 16T227 -12ZM231 19Q309 19 361 72T433
223L442 271Q445 287 446 303T447 337Q447 368 439 396T413 444T370 477T307 489Q229 489 177 436T105 285L96 237Q93 221 92 205T91 171Q91 139 99 112T125 64T168 31T231 19Z" />
<glyph unicode="p" glyph-name="p" d="M151 508H186L163 397H166Q198 455 239 487T343 520Q382 520 412 506T462 467T494 407T505 330Q505 264 489 203T442 93T363 17T255 -12Q195 -12 157 15T104 91H102L44 -200H10L151 508ZM254 19Q335 19 386 73T456 222L464
266Q467 282 468 297T470 333Q470 365 463 393T439 443T397 476T338 489Q306 489 281 479T229 447Q200 422 177 385T143 297L116 164Q111 139 116 114T137 67T183 33T254 19Z" />
<glyph unicode="q" glyph-name="q" horiz-adv-x="563" d="M400 111H397Q365 53 324 21T220 -12Q181 -12 151 2T101 41T69 101T58 178Q58 244 74 305T121 415T200 491T308 520Q368 520 406 493T459 417H462L480 508H514L372 -200H338L400 111ZM225 19Q257 19 282
29T334 61Q363 86 386 123T420 211L447 344Q452 369 447 394T426 441T380 475T309 489Q228 489 177 435T107 286L99 242Q96 226 95 211T93 175Q93 143 100 115T124 65T165 32T225 19Z" />
<glyph unicode="r" glyph-name="r" horiz-adv-x="344" d="M49 0L151 508H185L162 397H166Q178 420 193 440T228 476T274 499T334 508H365L358 475H328Q291 475 261 461T206 423T166 366T142 296L83 0H49Z" />
<glyph unicode="s" glyph-name="s" horiz-adv-x="453" d="M201 -12Q139 -12 92 13T13 85L40 105Q97 18 201 18Q267 18 307 49T347 141Q347 184 323 204T251 237L203 249Q177 255 155 264T116 288T91 324T82 375Q82 409 95 436T131 481T185 510T255 520Q318 520
356 497T418 442L393 420Q383 434 371 447T342 469T303 484T253 490Q190 490 153 461T116 377Q116 335 139 313T211 280L258 268Q285 261 307 252T346 229T372 194T381 143Q381 105 367 76T329 28T272 -2T201 -12Z" />
<glyph unicode="t" glyph-name="t" horiz-adv-x="306" d="M109 0Q75 0 75 30Q75 35 76 41T78 53L163 477H72L78 508H141Q158 508 165 515T175 539L198 652H232L203 508H321L315 477H197L108 31H218L212 0H109Z" />
<glyph unicode="u" glyph-name="u" horiz-adv-x="551" d="M176 508L112 189Q109 172 107 155T105 128Q105 19 211 19Q243 19 275 31T335 76Q354 98 372 129T399 202L460 508H494L399 31H481L475 0H399Q366 0 366 29Q366 34 366 38T368 49L379 104H376Q347 47 306
18T203 -12Q139 -12 105 23T71 123Q71 137 73 154T78 188L142 508H176Z" />
<glyph unicode="v" glyph-name="v" horiz-adv-x="466" d="M159 0L72 508H105L184 38H187L450 508H487L200 0H159Z" />
<glyph unicode="w" glyph-name="w" horiz-adv-x="723" d="M78 508H111L151 40H154L390 508H425L472 41H475L704 508H739L488 0H446L400 455H397L167 0H124L78 508Z" />
<glyph unicode="x" glyph-name="x" horiz-adv-x="478" d="M-10 0L217 259L86 508H123L242 282H245L442 508H484L260 255L393 0H356L235 232H232L32 0H-10Z" />
<glyph unicode="y" glyph-name="y" horiz-adv-x="466" d="M450 508H487L108 -161Q96 -183 85 -191T53 -200H-23L-17 -170H69L161 -6L72 508H105L184 38H188L450 508Z" />
<glyph unicode="z" glyph-name="z" horiz-adv-x="434" d="M-2 0L4 31L391 478H90L96 508H436L430 477L44 31H357L351 0H-2Z" />
<glyph unicode="{" glyph-name="braceleft" horiz-adv-x="319" d="M81 -138Q50 -138 50 -110Q50 -105 54 -85L110 196Q113 211 113 223Q113 257 92 270T32 283L44 339Q92 339 120 361T156 426L215 720Q222 760 259 760H356L350 731H249L188 427Q178 378 148 349T69
318L65 302Q103 300 124 281T145 225Q145 211 142 195L81 -109H183L176 -138H81Z" />
<glyph unicode="|" glyph-name="bar" horiz-adv-x="249" d="M31 -138L211 760H241L61 -138H31Z" />
<glyph unicode="}" glyph-name="braceright" horiz-adv-x="319" d="M-8 -109H93L154 195Q163 244 193 272T272 303L276 319Q238 321 218 340T197 397Q197 410 200 427L261 731H159L165 760H260Q292 760 292 732Q292 727 288 707L231 426Q228 411 228 399Q228 365
250 352T309 339L298 283Q250 283 222 261T186 196L126 -98Q119 -138 83 -138H-14L-8 -109Z" />
<glyph unicode="~" glyph-name="asciitilde" horiz-adv-x="600" d="M422 251Q407 251 394 253T367 261T338 273T302 290Q266 308 243 317T192 326Q164 326 142 317T91 286L76 308Q105 333 134 345T198 357Q213 357 226 355T253 347T282 335T318 318Q354 300 377
291T428 282Q456 282 478 291T529 322L544 300Q515 275 486 263T422 251Z" />
<glyph unicode="&#xa0;" glyph-name="uni00A0" horiz-adv-x="236" />
<glyph unicode="&#xa1;" glyph-name="exclamdown" horiz-adv-x="253" d="M19 -190L71 74L132 330H150L108 74L56 -190H19ZM165 440Q148 440 141 447T134 464Q134 469 135 475T137 486Q139 497 147 506T175 515Q192 515 199 508T206 491Q206 486 205 480T203 469Q201
458 193 449T165 440Z" />
<glyph unicode="&#xa2;" glyph-name="cent" horiz-adv-x="492" d="M194 -9Q126 2 92 56T58 189Q58 258 73 317T119 422T195 493T299 520L319 622H351L330 518Q381 510 413 480T457 404L426 393Q416 434 389 458T324 488L230 18Q284 20 323 47T398 131L425 117Q383
51 335 20T224 -12L204 -114H173L194 -9ZM91 185Q91 154 97 126T117 77T150 40T200 21L293 489Q221 487 173 437T108 301L97 243Q94 227 93 215T91 185Z" />
<glyph unicode="&#xa3;" glyph-name="sterling" horiz-adv-x="579" d="M31 0L40 43Q109 75 143 133T177 264Q177 275 177 285T175 306H80L86 337H172Q167 375 164 413T160 486Q160 538 178 579T227 650T300 694T391 710Q459 710 506 681T580 592L548 574Q526 628
487 653T389 678Q348 678 313 665T252 628T211 567T196 484Q196 449 199 412T208 337H420L414 306H210Q213 285 213 264Q211 185 174 125T77 35L75 32H467L460 0H31Z" />
<glyph unicode="&#xa4;" glyph-name="currency" horiz-adv-x="589" d="M272 127Q183 127 143 182L22 82L1 107L126 210Q112 243 112 283Q112 314 120 352Q130 400 145 434T182 494L91 607L116 627L205 517Q265 571 355 571Q444 571 484 516L605 616L626 591L501
488Q515 455 515 415Q515 384 507 346Q497 298 482 264T445 204L536 91L511 71L422 181Q362 127 272 127ZM275 157Q351 157 400 201T466 324L476 374Q478 386 479 398T481 422Q481 478 449 509T352 541Q276 541 227 497T161 374L151 324Q149 312 148 300T146 276Q146
220 178 189T275 157Z" />
<glyph unicode="&#xa5;" glyph-name="yen" horiz-adv-x="573" d="M286 163L253 0H217L250 163H59L66 193H256L282 321H92L98 351H270L131 698H169L303 357H306L578 698H620L342 351H516L510 321H318L292 193H484L477 163H286Z" />
<glyph unicode="&#xa6;" glyph-name="brokenbar" horiz-adv-x="249" d="M139 402L211 760H241L169 402H139ZM31 -138L103 220H133L61 -138H31Z" />
<glyph unicode="&#xa7;" glyph-name="section" horiz-adv-x="562" d="M393 8Q393 -31 379 -61T339 -112T277 -143T199 -154Q148 -154 111 -140T47 -100L71 -76Q94 -99 126 -111T202 -124Q272 -124 315 -91T359 6Q359 51 336 77T267 118L195 142Q138 162 111 189T84
268Q84 331 123 369T229 428V432Q171 471 171 548Q171 587 185 617T226 668T287 699T365 710Q416 710 453 696T517 656L493 632Q470 655 438 667T362 679Q292 679 249 646T205 550Q205 504 228 478T297 437L369 413Q426 394 453 366T480 287Q480 225 441 186T335
128L334 124Q365 104 379 75T393 8ZM445 281Q445 324 424 347T351 387L278 411Q264 414 252 420Q190 398 155 364T119 275Q119 232 140 209T213 169L286 145Q293 143 299 141T312 136Q374 158 409 192T445 281Z" />
<glyph unicode="&#xa8;" glyph-name="dieresis" horiz-adv-x="600" d="M230 636Q216 636 211 642T205 657Q205 662 208 674Q211 685 217 691T239 698Q253 698 258 692T264 677Q264 672 261 660Q258 649 252 643T230 636ZM412 636Q398 636 393 642T387 657Q387
662 390 674Q393 685 399 691T421 698Q435 698 440 692T446 677Q446 672 443 660Q440 649 434 643T412 636Z" />
<glyph unicode="&#xa9;" glyph-name="copyright" horiz-adv-x="721" d="M327 -12Q262 -12 209 9T119 68T61 162T40 285Q40 379 69 457T150 591T271 679T421 710Q486 710 539 689T629 629T687 535T708 412Q708 318 679 240T598 106T477 19T327 -12ZM328 15Q393
15 449 37T548 97T621 187T662 295Q671 342 674 367T677 412Q677 472 660 521T609 607T529 662T420 682Q355 682 299 660T200 600T128 511T86 402Q77 357 74 331T71 285Q71 225 88 176T139 91T219 35T328 15ZM348 150Q290 150 253 188T216 301Q216 354 230 398T269
475T330 525T407 543Q455 543 485 518T526 460L499 450Q488 479 466 497T405 516Q351 516 312 479T258 371L252 341Q249 315 249 299Q249 243 275 211T351 179Q386 179 414 197T463 248L486 233Q466 199 430 175T348 150Z" />
<glyph unicode="&#xaa;" glyph-name="ordfeminine" horiz-adv-x="363" d="M353 364H309Q285 364 285 382Q285 386 287 394L291 413H289Q273 392 244 375T168 358Q123 358 100 378T76 434Q76 481 110 512T226 543H317L326 592Q327 597 327 603T328 614Q328 649
308 664T250 679Q217 679 190 666T143 623L123 637Q143 668 175 686T253 704Q304 704 330 682T357 614Q357 609 357 603T354 590L314 390H359L353 364ZM222 519Q194 519 174 515T141 502T121 484T110 460Q106 443 106 435Q106 383 173 383Q195 383 216 388T255
404T284 430T301 466L312 519H222Z" />
<glyph unicode="&#xab;" glyph-name="guillemotleft" horiz-adv-x="472" d="M200 99L40 276L46 309L276 483L284 456L78 288L216 121L200 99ZM382 99L222 276L228 309L458 483L466 456L260 288L398 121L382 99Z" />
<glyph unicode="&#xac;" glyph-name="logicalnot" horiz-adv-x="601" d="M460 98L499 290H72L78 320H537L492 98H460Z" />
<glyph unicode="&#xad;" glyph-name="uni00AD" horiz-adv-x="388" d="M83 287L90 322H325L318 287H83Z" />
<glyph unicode="&#xae;" glyph-name="registered" horiz-adv-x="467" d="M254 298Q216 298 184 310T130 345T95 398T82 466Q82 507 95 550T136 628T207 687T311 710Q349 710 381 698T436 663T471 610T484 542Q484 501 471 458T429 380T358 321T254 298ZM257 319Q296
319 328 331T386 366T428 418T453 483Q458 506 459 519T460 541Q460 607 419 648T308 689Q269 689 237 677T179 642T137 590T113 525Q108 502 107 489T105 467Q105 401 146 360T257 319ZM218 398H196L238 609H318Q344 609 358 597T372 561Q372 527 355 509T313
488L348 398H325L292 486H235L218 398ZM296 505Q317 505 329 512T346 540Q349 556 349 562Q349 590 314 590H256L239 505H296Z" />
<glyph unicode="&#xaf;" glyph-name="overscore" horiz-adv-x="600" d="M197 683H458L452 653H191L197 683Z" />
<glyph unicode="&#xb0;" glyph-name="degree" horiz-adv-x="463" d="M269 372Q238 372 212 383T167 414T138 461T127 522Q127 563 141 597T179 657T237 696T308 710Q339 710 365 699T410 668T439 621T450 560Q450 519 436 485T398 425T340 386T269 372ZM273 402Q304
402 330 414T376 447T406 496T417 558Q417 611 388 645T304 680Q273 680 247 668T201 635T171 586T160 524Q160 471 189 437T273 402Z" />
<glyph unicode="&#xb1;" glyph-name="plusminus" horiz-adv-x="600" d="M258 124L303 350H84L90 380H308L354 606H387L342 380H560L554 350H336L291 124H258ZM14 0L20 30H490L484 0H14Z" />
<glyph unicode="&#xb2;" glyph-name="twosuperior" horiz-adv-x="338" d="M309 329H52L58 358L213 468Q259 500 285 527T318 583Q320 592 320 597T321 607Q321 639 300 659T239 679Q196 679 170 658T129 605L104 615Q122 653 154 678T242 704Q293 704 322 677T352
608Q352 561 319 526T229 450L90 354H314L309 329Z" />
<glyph unicode="&#xb3;" glyph-name="threesuperior" horiz-adv-x="344" d="M215 533Q269 533 293 551T323 598Q325 606 325 609T325 616Q325 645 306 662T247 679Q211 679 187 668T143 633L124 649Q145 675 176 689T250 704Q302 704 328 680T355 616Q355 577
331 552T265 521V519Q327 509 327 444Q327 389 290 356T188 323Q137 323 109 340T67 383L88 398Q101 375 123 362T189 348Q238 348 263 368T296 424Q298 432 298 435T298 444Q298 475 279 491T215 508H165L169 533H215Z" />
<glyph unicode="&#xb4;" glyph-name="acute" horiz-adv-x="600" d="M298 587L276 601L410 758L439 739L298 587Z" />
<glyph unicode="&#xb5;" glyph-name="mu" horiz-adv-x="560" d="M10 -200L151 508H185L121 189Q118 172 116 155T114 128Q114 19 220 19Q252 19 285 32T344 76Q364 99 382 131T408 202L469 508H503L408 31H490L484 0H408Q375 0 375 29Q375 34 375 38T377 49L388
105H385Q356 49 317 19T214 -12Q166 -12 136 11T95 85H93L75 -44L44 -200H10Z" />
<glyph unicode="&#xb6;" glyph-name="paragraph" horiz-adv-x="599" d="M261 323Q226 323 197 334T145 367T111 417T98 483Q98 532 116 572T168 640T246 683T344 698H595L589 669H521L357 -149H325L488 669H363L199 -149H166L261 323Z" />
<glyph unicode="&#xb7;" glyph-name="middot" horiz-adv-x="302" d="M152 267Q135 267 128 274T121 291Q121 296 122 302T124 313Q126 324 134 333T162 342Q179 342 186 335T193 318Q193 313 192 307T190 296Q188 285 180 276T152 267Z" />
<glyph unicode="&#xb8;" glyph-name="cedilla" horiz-adv-x="600" d="M275 -203Q245 -203 224 -194T194 -170L214 -150Q223 -162 238 -169T275 -177Q305 -177 323 -162T342 -124Q342 -107 331 -97T289 -84L254 -82L290 7H316L284 -70L286 -72Q292 -71 300 -70T315
-69Q342 -69 357 -83T373 -123Q373 -157 347 -180T275 -203Z" />
<glyph unicode="&#xb9;" glyph-name="onesuperior" horiz-adv-x="335" d="M58 329L63 354H186L250 676H247L112 577L97 596L237 698H283L215 354H328L323 329H58Z" />
<glyph unicode="&#xba;" glyph-name="ordmasculine" horiz-adv-x="370" d="M210 356Q157 356 126 391T94 485Q94 526 105 565T138 635T192 685T268 704Q321 704 352 669T384 575Q384 534 373 495T340 425T286 375T210 356ZM213 381Q266 381 299 416T343 504L351
545Q353 553 354 561T355 577Q355 621 334 650T265 679Q212 679 179 644T135 556L127 515Q125 507 124 499T123 483Q123 439 144 410T213 381Z" />
<glyph unicode="&#xbb;" glyph-name="guillemotright" horiz-adv-x="472" d="M199 126L405 294L267 462L284 483L444 307L437 274L207 99L199 126ZM17 126L223 294L85 462L102 483L262 307L255 274L25 99L17 126Z" />
<glyph unicode="&#xbc;" glyph-name="onequarter" horiz-adv-x="839" d="M58 329L63 354H186L250 676H247L112 577L97 596L237 698H283L215 354H328L323 329H58ZM145 0L751 698H785L179 0H145ZM679 0L696 85H491L496 112L742 369H781L730 109H792L787 85H724L707
0H679ZM747 337H744L527 109H701L747 337Z" />
<glyph unicode="&#xbd;" glyph-name="onehalf" horiz-adv-x="856" d="M58 329L63 354H186L250 676H247L112 577L97 596L237 698H283L215 354H328L323 329H58ZM145 0L751 698H785L179 0H145ZM763 0H506L512 29L667 139Q713 171 739 198T772 254Q774 263 774 268T775
278Q775 310 754 330T693 350Q650 350 624 329T583 276L558 286Q576 324 608 349T696 375Q747 375 776 348T806 279Q806 232 773 197T683 121L544 25H768L763 0Z" />
<glyph unicode="&#xbe;" glyph-name="threequarters" horiz-adv-x="814" d="M215 533Q269 533 293 551T323 598Q325 606 325 609T325 616Q325 645 306 662T247 679Q211 679 187 668T143 633L124 649Q145 675 176 689T250 704Q302 704 328 680T355 616Q355 577
331 552T265 521V519Q327 509 327 444Q327 389 290 356T188 323Q137 323 109 340T67 383L88 398Q101 375 123 362T189 348Q238 348 263 368T296 424Q298 432 298 435T298 444Q298 475 279 491T215 508H165L169 533H215ZM120 0L726 698H760L154 0H120ZM654 0L671
85H466L471 112L717 369H756L705 109H767L762 85H699L682 0H654ZM722 337H719L502 109H676L722 337Z" />
<glyph unicode="&#xbf;" glyph-name="questiondown" horiz-adv-x="457" d="M159 -202Q80 -202 34 -160T-12 -45Q-12 47 45 107T222 181L250 324H284L251 153Q50 140 29 0Q27 -9 26 -22T24 -44Q24 -103 59 -136T162 -170Q233 -170 274 -135T341 -38L371 -49Q343
-119 293 -160T159 -202ZM292 440Q275 440 268 447T261 464Q261 469 262 475T264 486Q266 497 274 506T302 515Q319 515 326 508T333 491Q333 486 332 480T330 469Q328 458 320 449T292 440Z" />
<glyph unicode="&#xc0;" glyph-name="Agrave" horiz-adv-x="601" d="M489 0L449 227H142L23 0H-16L352 698H400L526 0H489ZM372 661H368L158 259H444L372 661ZM309 920L340 936L416 777L393 765L309 920Z" />
<glyph unicode="&#xc1;" glyph-name="Aacute" horiz-adv-x="601" d="M489 0L449 227H142L23 0H-16L352 698H400L526 0H489ZM372 661H368L158 259H444L372 661ZM387 764L365 779L499 936L528 917L387 764Z" />
<glyph unicode="&#xc2;" glyph-name="Acircumflex" horiz-adv-x="601" d="M489 0L449 227H142L23 0H-16L352 698H400L526 0H489ZM372 661H368L158 259H444L372 661ZM439 926L540 790L518 775L417 899L271 775L251 791L399 926H439Z" />
<glyph unicode="&#xc3;" glyph-name="Atilde" horiz-adv-x="601" d="M489 0L449 227H142L23 0H-16L352 698H400L526 0H489ZM372 661H368L158 259H444L372 661ZM478 802Q457 802 442 809T406 831Q386 845 372 851T341 857Q324 857 309 849T275 825L260 843Q302
886 348 886Q369 886 384 879T420 857Q440 843 454 837T485 831Q502 831 517 839T551 863L566 845Q524 802 478 802Z" />
<glyph unicode="&#xc4;" glyph-name="Adieresis" horiz-adv-x="601" d="M489 0L449 227H142L23 0H-16L352 698H400L526 0H489ZM372 661H368L158 259H444L372 661ZM309 814Q295 814 290 820T284 835Q284 840 287 852Q290 863 296 869T318 876Q332 876 337 870T343
855Q343 850 340 838Q337 827 331 821T309 814ZM491 814Q477 814 472 820T466 835Q466 840 469 852Q472 863 478 869T500 876Q514 876 519 870T525 855Q525 850 522 838Q519 827 513 821T491 814Z" />
<glyph unicode="&#xc5;" glyph-name="Aring" horiz-adv-x="601" d="M489 0L449 227H142L23 0H-16L352 698H400L526 0H489ZM372 661H368L158 259H444L372 661ZM395 764Q372 764 357 771T331 789T317 814T312 842Q312 894 342 925T423 957Q445 957 461 950T487 932T501
907T506 879Q506 827 476 796T395 764ZM399 789Q428 789 448 805T475 853Q477 865 478 870T479 881Q479 904 464 918T419 932Q390 932 370 916T343 868Q341 856 340 851T339 840Q339 817 354 803T399 789Z" />
<glyph unicode="&#xc6;" glyph-name="AE" horiz-adv-x="884" d="M425 227H182L15 0H-26L487 698H905L898 666H549L489 370H822L816 338H482L421 32H775L769 0H379L425 227ZM503 667L205 258H431L513 667H503Z" />
<glyph unicode="&#xc7;" glyph-name="Ccedilla" horiz-adv-x="597" d="M394 677Q344 677 301 657T222 600T163 511T125 394L111 325Q105 296 104 271T102 226Q102 132 151 77T292 21Q363 21 411 56T497 160L528 145Q482 64 428 27T297 -12L273 -70L275 -72Q282
-71 289 -70T305 -69Q331 -69 346 -83T362 -123Q362 -157 336 -180T265 -203Q235 -203 214 -194T183 -170L204 -150Q213 -162 228 -169T264 -177Q294 -177 312 -162T331 -124Q331 -107 320 -97T278 -84L244 -82L273 -12Q180 -5 123 56T66 231Q66 309 85 393T144
548T247 664T396 710Q481 710 528 672T595 565L562 553Q545 611 507 644T394 677Z" />
<glyph unicode="&#xc8;" glyph-name="Egrave" horiz-adv-x="556" d="M50 0L190 698H576L570 666H220L160 370H493L487 338H153L92 32H447L440 0H50ZM313 920L344 936L420 777L397 765L313 920Z" />
<glyph unicode="&#xc9;" glyph-name="Eacute" horiz-adv-x="556" d="M50 0L190 698H576L570 666H220L160 370H493L487 338H153L92 32H447L440 0H50ZM391 764L369 779L503 936L532 917L391 764Z" />
<glyph unicode="&#xca;" glyph-name="Ecircumflex" horiz-adv-x="556" d="M50 0L190 698H576L570 666H220L160 370H493L487 338H153L92 32H447L440 0H50ZM443 926L544 790L522 775L421 899L275 775L255 791L403 926H443Z" />
<glyph unicode="&#xcb;" glyph-name="Edieresis" horiz-adv-x="556" d="M50 0L190 698H576L570 666H220L160 370H493L487 338H153L92 32H447L440 0H50ZM313 814Q299 814 294 820T288 835Q288 840 291 852Q294 863 300 869T322 876Q336 876 341 870T347 855Q347
850 344 838Q341 827 335 821T313 814ZM495 814Q481 814 476 820T470 835Q470 840 473 852Q476 863 482 869T504 876Q518 876 523 870T529 855Q529 850 526 838Q523 827 517 821T495 814Z" />
<glyph unicode="&#xcc;" glyph-name="Igrave" horiz-adv-x="373" d="M15 0L21 31H124L252 667H148L154 698H397L391 667H288L160 31H264L258 0H15ZM465 920L496 936L572 777L549 765L465 920Z" />
<glyph unicode="&#xcd;" glyph-name="Iacute" horiz-adv-x="373" d="M15 0L21 31H124L252 667H148L154 698H397L391 667H288L160 31H264L258 0H15ZM543 764L521 779L655 936L684 917L543 764Z" />
<glyph unicode="&#xce;" glyph-name="Icircumflex" horiz-adv-x="373" d="M15 0L21 31H124L252 667H148L154 698H397L391 667H288L160 31H264L258 0H15ZM595 926L696 790L674 775L573 899L427 775L407 791L555 926H595Z" />
<glyph unicode="&#xcf;" glyph-name="Idieresis" horiz-adv-x="373" d="M15 0L21 31H124L252 667H148L154 698H397L391 667H288L160 31H264L258 0H15ZM465 814Q451 814 446 820T440 835Q440 840 443 852Q446 863 452 869T474 876Q488 876 493 870T499 855Q499
850 496 838Q493 827 487 821T465 814ZM647 814Q633 814 628 820T622 835Q622 840 625 852Q628 863 634 869T656 876Q670 876 675 870T681 855Q681 850 678 838Q675 827 669 821T647 814Z" />
<glyph unicode="&#xd0;" glyph-name="Eth" horiz-adv-x="652" d="M124 353H40L46 383H130L193 698H382Q496 698 555 636T615 458Q615 374 595 292T534 145T431 40T283 0H53L124 353ZM284 32Q340 32 385 53T465 110T523 195T557 300L570 367Q575 394 577 419T579
465Q579 559 529 612T379 666H222L166 383H325L319 353H160L96 32H284Z" />
<glyph unicode="&#xd1;" glyph-name="Ntilde" horiz-adv-x="681" d="M217 649H214L85 0H50L190 698H235L501 49H504L633 698H668L528 0H483L217 649ZM539 802Q518 802 503 809T467 831Q447 845 433 851T402 857Q385 857 370 849T336 825L321 843Q363 886 409 886Q430
886 445 879T481 857Q501 843 515 837T546 831Q563 831 578 839T612 863L627 845Q585 802 539 802Z" />
<glyph unicode="&#xd2;" glyph-name="Ograve" horiz-adv-x="663" d="M293 -12Q243 -12 201 3T129 50T83 125T66 229Q66 280 74 336T100 445T145 547T209 631T295 688T403 710Q453 710 495 695T567 648T613 572T630 469Q630 418 622 362T596 253T551 151T487 67T401
10T293 -12ZM295 21Q347 21 392 41T472 98T533 189T572 309L585 375Q590 404 592 429T594 474Q594 568 545 622T401 677Q349 677 304 657T224 599T163 508T124 389L111 323Q106 294 104 269T102 224Q102 130 151 76T295 21ZM351 920L382 936L458 777L435 765L351
920Z" />
<glyph unicode="&#xd3;" glyph-name="Oacute" horiz-adv-x="663" d="M293 -12Q243 -12 201 3T129 50T83 125T66 229Q66 280 74 336T100 445T145 547T209 631T295 688T403 710Q453 710 495 695T567 648T613 572T630 469Q630 418 622 362T596 253T551 151T487 67T401
10T293 -12ZM295 21Q347 21 392 41T472 98T533 189T572 309L585 375Q590 404 592 429T594 474Q594 568 545 622T401 677Q349 677 304 657T224 599T163 508T124 389L111 323Q106 294 104 269T102 224Q102 130 151 76T295 21ZM429 764L407 779L541 936L570 917L429
764Z" />
<glyph unicode="&#xd4;" glyph-name="Ocircumflex" horiz-adv-x="663" d="M293 -12Q243 -12 201 3T129 50T83 125T66 229Q66 280 74 336T100 445T145 547T209 631T295 688T403 710Q453 710 495 695T567 648T613 572T630 469Q630 418 622 362T596 253T551 151T487
67T401 10T293 -12ZM295 21Q347 21 392 41T472 98T533 189T572 309L585 375Q590 404 592 429T594 474Q594 568 545 622T401 677Q349 677 304 657T224 599T163 508T124 389L111 323Q106 294 104 269T102 224Q102 130 151 76T295 21ZM481 926L582 790L560 775L459
899L313 775L293 791L441 926H481Z" />
<glyph unicode="&#xd5;" glyph-name="Otilde" horiz-adv-x="663" d="M293 -12Q243 -12 201 3T129 50T83 125T66 229Q66 280 74 336T100 445T145 547T209 631T295 688T403 710Q453 710 495 695T567 648T613 572T630 469Q630 418 622 362T596 253T551 151T487 67T401
10T293 -12ZM295 21Q347 21 392 41T472 98T533 189T572 309L585 375Q590 404 592 429T594 474Q594 568 545 622T401 677Q349 677 304 657T224 599T163 508T124 389L111 323Q106 294 104 269T102 224Q102 130 151 76T295 21ZM520 802Q499 802 484 809T448 831Q428
845 414 851T383 857Q366 857 351 849T317 825L302 843Q344 886 390 886Q411 886 426 879T462 857Q482 843 496 837T527 831Q544 831 559 839T593 863L608 845Q566 802 520 802Z" />
<glyph unicode="&#xd6;" glyph-name="Odieresis" horiz-adv-x="663" d="M293 -12Q243 -12 201 3T129 50T83 125T66 229Q66 280 74 336T100 445T145 547T209 631T295 688T403 710Q453 710 495 695T567 648T613 572T630 469Q630 418 622 362T596 253T551 151T487
67T401 10T293 -12ZM295 21Q347 21 392 41T472 98T533 189T572 309L585 375Q590 404 592 429T594 474Q594 568 545 622T401 677Q349 677 304 657T224 599T163 508T124 389L111 323Q106 294 104 269T102 224Q102 130 151 76T295 21ZM351 814Q337 814 332 820T326
835Q326 840 329 852Q332 863 338 869T360 876Q374 876 379 870T385 855Q385 850 382 838Q379 827 373 821T351 814ZM533 814Q519 814 514 820T508 835Q508 840 511 852Q514 863 520 869T542 876Q556 876 561 870T567 855Q567 850 564 838Q561 827 555 821T533
814Z" />
<glyph unicode="&#xd7;" glyph-name="multiply" horiz-adv-x="600" d="M307 283L96 105L77 128L288 307L149 483L174 504L312 328L522 504L540 481L331 304L470 126L446 106L307 283Z" />
<glyph unicode="&#xd8;" glyph-name="Oslash" horiz-adv-x="663" d="M293 -12Q178 -12 116 65L27 -36L3 -16L98 91Q83 119 75 153T66 229Q66 280 74 336T100 445T145 547T209 631T295 688T403 710Q518 710 580 633L669 734L693 714L598 607Q613 579 621 545T630
469Q630 418 622 362T596 253T551 151T487 67T401 10T293 -12ZM111 323Q106 294 104 269T102 224Q102 162 123 119L556 607Q532 641 493 659T401 677Q349 677 304 657T224 599T163 508T124 389L111 323ZM585 375Q590 404 592 429T594 474Q594 535 573 579L140 91Q164
57 203 39T295 21Q347 21 392 41T472 98T533 189T572 309L585 375Z" />
<glyph unicode="&#xd9;" glyph-name="Ugrave" horiz-adv-x="643" d="M218 698L133 271Q125 231 122 206T118 160Q118 94 157 58T277 21Q330 21 369 34T435 76T482 154T516 274L601 698H637L552 272Q536 192 514 138T460 50T382 3T275 -12Q184 -12 133 31T82 158Q82
184 86 212T99 280L182 698H218ZM342 920L373 936L449 777L426 765L342 920Z" />
<glyph unicode="&#xda;" glyph-name="Uacute" horiz-adv-x="643" d="M218 698L133 271Q125 231 122 206T118 160Q118 94 157 58T277 21Q330 21 369 34T435 76T482 154T516 274L601 698H637L552 272Q536 192 514 138T460 50T382 3T275 -12Q184 -12 133 31T82 158Q82
184 86 212T99 280L182 698H218ZM420 764L398 779L532 936L561 917L420 764Z" />
<glyph unicode="&#xdb;" glyph-name="Ucircumflex" horiz-adv-x="643" d="M218 698L133 271Q125 231 122 206T118 160Q118 94 157 58T277 21Q330 21 369 34T435 76T482 154T516 274L601 698H637L552 272Q536 192 514 138T460 50T382 3T275 -12Q184 -12 133 31T82
158Q82 184 86 212T99 280L182 698H218ZM472 926L573 790L551 775L450 899L304 775L284 791L432 926H472Z" />
<glyph unicode="&#xdc;" glyph-name="Udieresis" horiz-adv-x="643" d="M218 698L133 271Q125 231 122 206T118 160Q118 94 157 58T277 21Q330 21 369 34T435 76T482 154T516 274L601 698H637L552 272Q536 192 514 138T460 50T382 3T275 -12Q184 -12 133 31T82
158Q82 184 86 212T99 280L182 698H218ZM342 814Q328 814 323 820T317 835Q317 840 320 852Q323 863 329 869T351 876Q365 876 370 870T376 855Q376 850 373 838Q370 827 364 821T342 814ZM524 814Q510 814 505 820T499 835Q499 840 502 852Q505 863 511 869T533
876Q547 876 552 870T558 855Q558 850 555 838Q552 827 546 821T524 814Z" />
<glyph unicode="&#xdd;" glyph-name="Yacute" horiz-adv-x="549" d="M205 0L263 289L108 698H145L285 329H289L577 698H619L299 289L241 0H205ZM371 764L349 779L483 936L512 917L371 764Z" />
<glyph unicode="&#xde;" glyph-name="Thorn" horiz-adv-x="591" d="M50 0L190 698H226L195 545H410Q449 545 478 534T527 502T557 454T567 393Q567 340 552 298T509 225T441 179T351 163H119L86 0H50ZM125 195H355Q427 195 468 231T520 326Q526 356 528 371T530
396Q530 445 501 479T407 513H189L125 195Z" />
<glyph unicode="&#xdf;" glyph-name="germandbls" horiz-adv-x="631" d="M568 143Q568 105 555 77T517 28T461 -2T391 -12Q328 -12 281 13T203 85L229 105Q286 18 391 18Q455 18 494 50T534 142Q534 180 516 199T458 232L411 249Q388 256 370 265T338 287T317
319T309 367Q309 402 325 428T370 473T439 500T528 510L531 522Q535 540 536 557T538 589Q538 652 506 687T407 722Q321 722 273 669T206 522L102 0H69L163 478H70L76 508H169L172 523Q182 575 202 617T252 690T321 736T411 752Q487 752 529 709T571 589Q571 555
565 521L557 481H534Q493 481 458 475T398 456T358 421T343 368Q343 329 361 311T418 279L465 263Q487 255 506 246T539 224T560 191T568 143Z" />
<glyph unicode="&#xe0;" glyph-name="agrave" horiz-adv-x="571" d="M419 0Q385 0 385 29Q385 34 385 38T387 48L400 111H397Q365 53 324 21T220 -12Q181 -12 151 2T101 41T69 101T58 178Q58 244 74 305T121 415T200 491T308 520Q368 520 406 493T459 417H462L480
508H514L419 31H501L495 0H419ZM225 19Q257 19 282 29T334 61Q363 86 386 123T420 211L447 344Q452 369 447 394T426 441T380 475T309 489Q228 489 177 435T107 286L99 242Q96 226 95 211T93 175Q93 143 100 115T124 65T165 32T225 19ZM263 741L294 757L370 598L347
587L263 741Z" />
<glyph unicode="&#xe1;" glyph-name="aacute" horiz-adv-x="571" d="M419 0Q385 0 385 29Q385 34 385 38T387 48L400 111H397Q365 53 324 21T220 -12Q181 -12 151 2T101 41T69 101T58 178Q58 244 74 305T121 415T200 491T308 520Q368 520 406 493T459 417H462L480
508H514L419 31H501L495 0H419ZM225 19Q257 19 282 29T334 61Q363 86 386 123T420 211L447 344Q452 369 447 394T426 441T380 475T309 489Q228 489 177 435T107 286L99 242Q96 226 95 211T93 175Q93 143 100 115T124 65T165 32T225 19ZM327 587L305 601L439 758L468
739L327 587Z" />
<glyph unicode="&#xe2;" glyph-name="acircumflex" horiz-adv-x="571" d="M419 0Q385 0 385 29Q385 34 385 38T387 48L400 111H397Q365 53 324 21T220 -12Q181 -12 151 2T101 41T69 101T58 178Q58 244 74 305T121 415T200 491T308 520Q368 520 406 493T459 417H462L480
508H514L419 31H501L495 0H419ZM225 19Q257 19 282 29T334 61Q363 86 386 123T420 211L447 344Q452 369 447 394T426 441T380 475T309 489Q228 489 177 435T107 286L99 242Q96 226 95 211T93 175Q93 143 100 115T124 65T165 32T225 19ZM390 748L491 612L469 597L367
721L222 597L202 614L350 748H390Z" />
<glyph unicode="&#xe3;" glyph-name="atilde" horiz-adv-x="571" d="M419 0Q385 0 385 29Q385 34 385 38T387 48L400 111H397Q365 53 324 21T220 -12Q181 -12 151 2T101 41T69 101T58 178Q58 244 74 305T121 415T200 491T308 520Q368 520 406 493T459 417H462L480
508H514L419 31H501L495 0H419ZM225 19Q257 19 282 29T334 61Q363 86 386 123T420 211L447 344Q452 369 447 394T426 441T380 475T309 489Q228 489 177 435T107 286L99 242Q96 226 95 211T93 175Q93 143 100 115T124 65T165 32T225 19ZM418 624Q397 624 382 631T346
653Q326 667 312 673T281 679Q264 679 249 671T215 647L200 665Q242 708 288 708Q309 708 324 701T360 679Q380 665 394 659T425 653Q442 653 457 661T491 685L506 667Q464 624 418 624Z" />
<glyph unicode="&#xe4;" glyph-name="adieresis" horiz-adv-x="571" d="M419 0Q385 0 385 29Q385 34 385 38T387 48L400 111H397Q365 53 324 21T220 -12Q181 -12 151 2T101 41T69 101T58 178Q58 244 74 305T121 415T200 491T308 520Q368 520 406 493T459 417H462L480
508H514L419 31H501L495 0H419ZM225 19Q257 19 282 29T334 61Q363 86 386 123T420 211L447 344Q452 369 447 394T426 441T380 475T309 489Q228 489 177 435T107 286L99 242Q96 226 95 211T93 175Q93 143 100 115T124 65T165 32T225 19ZM260 636Q246 636 241 642T235
657Q235 662 238 674Q241 685 247 691T269 698Q283 698 288 692T294 677Q294 672 291 660Q288 649 282 643T260 636ZM442 636Q428 636 423 642T417 657Q417 662 420 674Q423 685 429 691T451 698Q465 698 470 692T476 677Q476 672 473 660Q470 649 464 643T442
636Z" />
<glyph unicode="&#xe5;" glyph-name="aring" horiz-adv-x="571" d="M419 0Q385 0 385 29Q385 34 385 38T387 48L400 111H397Q365 53 324 21T220 -12Q181 -12 151 2T101 41T69 101T58 178Q58 244 74 305T121 415T200 491T308 520Q368 520 406 493T459 417H462L480
508H514L419 31H501L495 0H419ZM225 19Q257 19 282 29T334 61Q363 86 386 123T420 211L447 344Q452 369 447 394T426 441T380 475T309 489Q228 489 177 435T107 286L99 242Q96 226 95 211T93 175Q93 143 100 115T124 65T165 32T225 19ZM342 586Q319 586 304 593T278
611T264 636T259 664Q259 716 289 747T370 779Q392 779 408 772T434 754T448 729T453 701Q453 649 423 618T342 586ZM346 611Q375 611 395 627T422 675Q424 687 425 692T426 703Q426 726 411 740T366 754Q337 754 317 738T290 690Q288 678 287 673T286 662Q286
639 301 625T346 611Z" />
<glyph unicode="&#xe6;" glyph-name="ae" horiz-adv-x="847" d="M199 19Q231 19 262 28T320 54T364 98T389 159L403 240L242 232Q164 228 127 207T81 147Q77 128 77 121T76 106Q76 64 107 42T199 19ZM649 490Q609 490 576 475T516 431T471 365T445 282L442 268Q547
270 612 281T714 309T763 349T776 395Q776 441 745 465T649 490ZM194 -12Q121 -12 81 19T41 108Q41 183 90 218T244 259L409 267L422 333Q426 356 426 379Q426 402 420 422T398 457T359 480T298 489Q235 489 199 467T133 398L108 416Q137 464 181 492T302 520Q340
520 368 511T414 485T442 446T454 398H458Q489 454 537 487T652 520Q721 520 766 489T811 397Q811 367 796 339T739 290T626 255T438 239Q436 226 434 213T432 186Q432 111 469 65T581 19Q640 19 686 49T762 134L789 118Q747 49 694 19T579 -12Q510 -12 465 24T407
128H403Q394 96 374 70T327 26T265 -2T194 -12Z" />
<glyph unicode="&#xe7;" glyph-name="ccedilla" horiz-adv-x="481" d="M301 520Q363 520 404 488T456 404L427 393Q414 441 381 465T299 489Q226 489 175 438T108 301L97 243Q94 226 93 214T92 185Q92 150 100 120T124 68T166 32T228 19Q282 19 323 48T398 131L426
117Q391 60 346 26T237 -12L213 -70L215 -72Q221 -71 229 -70T244 -69Q271 -69 286 -83T302 -123Q302 -157 276 -180T204 -203Q174 -203 153 -194T123 -170L143 -150Q153 -162 168 -169T204 -177Q234 -177 252 -162T271 -124Q271 -107 260 -97T218 -84L183 -82L213
-12Q175 -9 146 7T98 49T68 111T58 189Q58 258 74 318T121 424T197 494T301 520Z" />
<glyph unicode="&#xe8;" glyph-name="egrave" horiz-adv-x="506" d="M239 -12Q151 -12 105 38T58 191Q58 259 76 319T128 423T208 494T311 520Q381 520 426 487T471 394Q471 365 457 337T402 286T287 248T95 230Q94 222 93 209T92 187Q92 101 130 60T240 19Q299
19 345 49T421 134L448 117Q407 49 354 19T239 -12ZM307 490Q268 490 235 475T175 431T130 364T103 279L99 259Q205 261 270 273T372 303T422 345T435 394Q435 439 404 464T307 490ZM251 741L282 757L358 598L335 587L251 741Z" />
<glyph unicode="&#xe9;" glyph-name="eacute" horiz-adv-x="506" d="M239 -12Q151 -12 105 38T58 191Q58 259 76 319T128 423T208 494T311 520Q381 520 426 487T471 394Q471 365 457 337T402 286T287 248T95 230Q94 222 93 209T92 187Q92 101 130 60T240 19Q299
19 345 49T421 134L448 117Q407 49 354 19T239 -12ZM307 490Q268 490 235 475T175 431T130 364T103 279L99 259Q205 261 270 273T372 303T422 345T435 394Q435 439 404 464T307 490ZM315 587L293 601L427 758L456 739L315 587Z" />
<glyph unicode="&#xea;" glyph-name="ecircumflex" horiz-adv-x="506" d="M239 -12Q151 -12 105 38T58 191Q58 259 76 319T128 423T208 494T311 520Q381 520 426 487T471 394Q471 365 457 337T402 286T287 248T95 230Q94 222 93 209T92 187Q92 101 130 60T240
19Q299 19 345 49T421 134L448 117Q407 49 354 19T239 -12ZM307 490Q268 490 235 475T175 431T130 364T103 279L99 259Q205 261 270 273T372 303T422 345T435 394Q435 439 404 464T307 490ZM378 748L479 612L457 597L355 721L210 597L190 614L338 748H378Z" />
<glyph unicode="&#xeb;" glyph-name="edieresis" horiz-adv-x="506" d="M239 -12Q151 -12 105 38T58 191Q58 259 76 319T128 423T208 494T311 520Q381 520 426 487T471 394Q471 365 457 337T402 286T287 248T95 230Q94 222 93 209T92 187Q92 101 130 60T240 19Q299
19 345 49T421 134L448 117Q407 49 354 19T239 -12ZM307 490Q268 490 235 475T175 431T130 364T103 279L99 259Q205 261 270 273T372 303T422 345T435 394Q435 439 404 464T307 490ZM248 636Q234 636 229 642T223 657Q223 662 226 674Q229 685 235 691T257 698Q271
698 276 692T282 677Q282 672 279 660Q276 649 270 643T248 636ZM430 636Q416 636 411 642T405 657Q405 662 408 674Q411 685 417 691T439 698Q453 698 458 692T464 677Q464 672 461 660Q458 649 452 643T430 636Z" />
<glyph unicode="&#xec;" glyph-name="igrave" horiz-adv-x="242" d="M89 0Q56 0 56 28Q56 36 59 51L150 508H184L89 31H171L165 0H89ZM364 741L395 757L471 598L448 587L364 741Z" />
<glyph unicode="&#xed;" glyph-name="iacute" horiz-adv-x="242" d="M89 0Q56 0 56 28Q56 36 59 51L150 508H184L89 31H171L165 0H89ZM428 587L406 601L540 758L569 739L428 587Z" />
<glyph unicode="&#xee;" glyph-name="icircumflex" horiz-adv-x="242" d="M89 0Q56 0 56 28Q56 36 59 51L150 508H184L89 31H171L165 0H89ZM491 748L592 612L570 597L468 721L323 597L303 614L451 748H491Z" />
<glyph unicode="&#xef;" glyph-name="idieresis" horiz-adv-x="242" d="M89 0Q56 0 56 28Q56 36 59 51L150 508H184L89 31H171L165 0H89ZM361 636Q347 636 342 642T336 657Q336 662 339 674Q342 685 348 691T370 698Q384 698 389 692T395 677Q395 672 392 660Q389
649 383 643T361 636ZM543 636Q529 636 524 642T518 657Q518 662 521 674Q524 685 530 691T552 698Q566 698 571 692T577 677Q577 672 574 660Q571 649 565 643T543 636Z" />
<glyph unicode="&#xf0;" glyph-name="eth" horiz-adv-x="561" d="M365 657Q392 631 416 599T458 526T487 438T498 335Q498 251 479 187T425 78T343 11T238 -12Q154 -12 106 40T57 183Q57 254 75 313T127 413T205 477T305 501Q356 501 395 479T455 412L459 414Q446
483 416 539T338 640L224 568L210 590L318 659Q291 682 261 702T196 740H248Q271 728 295 712T344 675L465 752L480 730L365 657ZM243 19Q321 19 375 70T448 213L458 262Q460 276 461 289T462 315Q462 390 421 430T310 470Q232 470 178 420T105 279L95 230Q93 216
92 203T91 177Q91 102 132 61T243 19Z" />
<glyph unicode="&#xf1;" glyph-name="ntilde" horiz-adv-x="552" d="M49 0L151 508H185L164 404H167Q196 461 238 490T341 520Q406 520 439 485T473 386Q473 371 471 354T466 320L408 31H490L484 0H407Q375 0 375 28Q375 36 378 51L432 320Q435 336 436 353T438
380Q438 489 332 489Q300 489 269 477T208 432Q190 411 171 380T144 306L83 0H49ZM423 624Q402 624 387 631T351 653Q331 667 317 673T286 679Q269 679 254 671T220 647L205 665Q247 708 293 708Q314 708 329 701T365 679Q385 665 399 659T430 653Q447 653 462
661T496 685L511 667Q469 624 423 624Z" />
<glyph unicode="&#xf2;" glyph-name="ograve" horiz-adv-x="538" d="M227 -12Q187 -12 156 2T102 41T69 100T57 176Q57 245 73 307T122 417T202 492T311 520Q351 520 382 506T436 467T469 408T481 332Q481 263 465 201T416 91T336 16T227 -12ZM231 19Q309 19 361
72T433 223L442 271Q445 287 446 303T447 337Q447 368 439 396T413 444T370 477T307 489Q229 489 177 436T105 285L96 237Q93 221 92 205T91 171Q91 139 99 112T125 64T168 31T231 19ZM248 741L279 757L355 598L332 587L248 741Z" />
<glyph unicode="&#xf3;" glyph-name="oacute" horiz-adv-x="538" d="M227 -12Q187 -12 156 2T102 41T69 100T57 176Q57 245 73 307T122 417T202 492T311 520Q351 520 382 506T436 467T469 408T481 332Q481 263 465 201T416 91T336 16T227 -12ZM231 19Q309 19 361
72T433 223L442 271Q445 287 446 303T447 337Q447 368 439 396T413 444T370 477T307 489Q229 489 177 436T105 285L96 237Q93 221 92 205T91 171Q91 139 99 112T125 64T168 31T231 19ZM312 587L290 601L424 758L453 739L312 587Z" />
<glyph unicode="&#xf4;" glyph-name="ocircumflex" horiz-adv-x="538" d="M227 -12Q187 -12 156 2T102 41T69 100T57 176Q57 245 73 307T122 417T202 492T311 520Q351 520 382 506T436 467T469 408T481 332Q481 263 465 201T416 91T336 16T227 -12ZM231 19Q309
19 361 72T433 223L442 271Q445 287 446 303T447 337Q447 368 439 396T413 444T370 477T307 489Q229 489 177 436T105 285L96 237Q93 221 92 205T91 171Q91 139 99 112T125 64T168 31T231 19ZM375 748L476 612L454 597L352 721L207 597L187 614L335 748H375Z" />
<glyph unicode="&#xf5;" glyph-name="otilde" horiz-adv-x="538" d="M227 -12Q187 -12 156 2T102 41T69 100T57 176Q57 245 73 307T122 417T202 492T311 520Q351 520 382 506T436 467T469 408T481 332Q481 263 465 201T416 91T336 16T227 -12ZM231 19Q309 19 361
72T433 223L442 271Q445 287 446 303T447 337Q447 368 439 396T413 444T370 477T307 489Q229 489 177 436T105 285L96 237Q93 221 92 205T91 171Q91 139 99 112T125 64T168 31T231 19ZM403 624Q382 624 367 631T331 653Q311 667 297 673T266 679Q249 679 234 671T200
647L185 665Q227 708 273 708Q294 708 309 701T345 679Q365 665 379 659T410 653Q427 653 442 661T476 685L491 667Q449 624 403 624Z" />
<glyph unicode="&#xf6;" glyph-name="odieresis" horiz-adv-x="538" d="M227 -12Q187 -12 156 2T102 41T69 100T57 176Q57 245 73 307T122 417T202 492T311 520Q351 520 382 506T436 467T469 408T481 332Q481 263 465 201T416 91T336 16T227 -12ZM231 19Q309 19
361 72T433 223L442 271Q445 287 446 303T447 337Q447 368 439 396T413 444T370 477T307 489Q229 489 177 436T105 285L96 237Q93 221 92 205T91 171Q91 139 99 112T125 64T168 31T231 19ZM245 636Q231 636 226 642T220 657Q220 662 223 674Q226 685 232 691T254
698Q268 698 273 692T279 677Q279 672 276 660Q273 649 267 643T245 636ZM427 636Q413 636 408 642T402 657Q402 662 405 674Q408 685 414 691T436 698Q450 698 455 692T461 677Q461 672 458 660Q455 649 449 643T427 636Z" />
<glyph unicode="&#xf7;" glyph-name="divide" horiz-adv-x="600" d="M72 290L78 320H548L542 290H72ZM268 75Q249 75 242 82T234 98Q234 103 235 110T238 122Q240 134 248 142T277 150Q296 150 303 143T311 126Q311 122 310 115T307 103Q305 90 297 83T268 75ZM346
461Q326 461 319 468T312 485Q312 490 313 496T315 508Q317 521 326 529T355 537Q373 537 380 530T388 513Q388 508 387 502T385 490Q383 477 375 469T346 461Z" />
<glyph unicode="&#xf8;" glyph-name="oslash" horiz-adv-x="538" d="M227 -12Q186 -12 155 2T101 42L38 -30L18 -13L85 64Q57 111 57 176Q57 245 73 307T122 417T202 492T311 520Q352 520 383 506T437 466L500 538L520 521L453 444Q481 396 481 332Q481 263 465
201T416 91T336 16T227 -12ZM91 171Q91 148 95 128T108 90L416 441Q399 464 372 476T307 489Q229 489 177 436T105 285L96 237Q93 221 92 205T91 171ZM231 19Q309 19 361 72T433 223L442 271Q445 287 446 303T447 337Q447 381 430 418L122 67Q139 45 166 32T231
19Z" />
<glyph unicode="&#xf9;" glyph-name="ugrave" horiz-adv-x="551" d="M176 508L112 189Q109 172 107 155T105 128Q105 19 211 19Q243 19 275 31T335 76Q354 98 372 129T399 202L460 508H494L399 31H481L475 0H399Q366 0 366 29Q366 34 366 38T368 49L379 104H376Q347
47 306 18T203 -12Q139 -12 105 23T71 123Q71 137 73 154T78 188L142 508H176ZM254 741L285 757L361 598L338 587L254 741Z" />
<glyph unicode="&#xfa;" glyph-name="uacute" horiz-adv-x="551" d="M176 508L112 189Q109 172 107 155T105 128Q105 19 211 19Q243 19 275 31T335 76Q354 98 372 129T399 202L460 508H494L399 31H481L475 0H399Q366 0 366 29Q366 34 366 38T368 49L379 104H376Q347
47 306 18T203 -12Q139 -12 105 23T71 123Q71 137 73 154T78 188L142 508H176ZM318 587L296 601L430 758L459 739L318 587Z" />
<glyph unicode="&#xfb;" glyph-name="ucircumflex" horiz-adv-x="551" d="M176 508L112 189Q109 172 107 155T105 128Q105 19 211 19Q243 19 275 31T335 76Q354 98 372 129T399 202L460 508H494L399 31H481L475 0H399Q366 0 366 29Q366 34 366 38T368 49L379 104H376Q347
47 306 18T203 -12Q139 -12 105 23T71 123Q71 137 73 154T78 188L142 508H176ZM381 748L482 612L460 597L358 721L213 597L193 614L341 748H381Z" />
<glyph unicode="&#xfc;" glyph-name="udieresis" horiz-adv-x="551" d="M176 508L112 189Q109 172 107 155T105 128Q105 19 211 19Q243 19 275 31T335 76Q354 98 372 129T399 202L460 508H494L399 31H481L475 0H399Q366 0 366 29Q366 34 366 38T368 49L379 104H376Q347
47 306 18T203 -12Q139 -12 105 23T71 123Q71 137 73 154T78 188L142 508H176ZM251 636Q237 636 232 642T226 657Q226 662 229 674Q232 685 238 691T260 698Q274 698 279 692T285 677Q285 672 282 660Q279 649 273 643T251 636ZM433 636Q419 636 414 642T408 657Q408
662 411 674Q414 685 420 691T442 698Q456 698 461 692T467 677Q467 672 464 660Q461 649 455 643T433 636Z" />
<glyph unicode="&#xfd;" glyph-name="yacute" horiz-adv-x="466" d="M450 508H487L108 -161Q96 -183 85 -191T53 -200H-23L-17 -170H69L161 -6L72 508H105L184 38H188L450 508ZM534 587L512 601L646 758L675 739L534 587Z" />
<glyph unicode="&#xfe;" glyph-name="thorn" horiz-adv-x="563" d="M197 740H231L163 397H166Q198 455 239 487T343 520Q382 520 412 506T462 467T494 407T505 330Q505 264 489 203T442 93T363 17T255 -12Q195 -12 157 15T104 91H101L43 -200H9L197 740ZM254 19Q335
19 386 73T456 222L464 266Q467 282 468 297T470 333Q470 365 463 393T439 443T398 476T339 489Q306 489 281 479T229 447Q200 422 177 385T143 297L116 164Q111 139 116 114T137 67T183 33T254 19Z" />
<glyph unicode="&#xff;" glyph-name="ydieresis" horiz-adv-x="466" d="M450 508H487L108 -161Q96 -183 85 -191T53 -200H-23L-17 -170H69L161 -6L72 508H105L184 38H188L450 508ZM467 636Q453 636 448 642T442 657Q442 662 445 674Q448 685 454 691T476 698Q490
698 495 692T501 677Q501 672 498 660Q495 649 489 643T467 636ZM649 636Q635 636 630 642T624 657Q624 662 627 674Q630 685 636 691T658 698Q672 698 677 692T683 677Q683 672 680 660Q677 649 671 643T649 636Z" />
<glyph unicode="&#x2013;" glyph-name="endash" horiz-adv-x="568" d="M35 289L42 320H553L546 289H35Z" />
<glyph unicode="&#x2014;" glyph-name="emdash" horiz-adv-x="758" d="M35 289L42 320H743L737 289H35Z" />
<glyph unicode="&#x2018;" glyph-name="quoteleft" horiz-adv-x="248" d="M178 528Q161 528 154 535T147 552Q147 557 148 563T150 574Q155 594 165 616T189 661T221 703T259 740H291Q247 704 224 668T190 602Q207 600 213 594T219 578Q219 573 218 568T216 557Q213
546 206 537T178 528Z" />
<glyph unicode="&#x2019;" glyph-name="quoteright" horiz-adv-x="248" d="M226 750Q243 750 250 743T257 726Q257 721 256 715T254 704Q249 684 239 662T215 617T183 575T144 538H113Q156 574 179 611T213 677Q196 678 191 684T185 700Q185 705 186 711T188 721Q191
732 198 741T226 750Z" />
<glyph unicode="&#x201a;" glyph-name="quotesinglbase" horiz-adv-x="248" d="M94 82Q111 82 118 75T125 58Q125 53 124 47T122 36Q117 16 107 -6T83 -51T51 -93T12 -130H-19Q24 -93 47 -57T81 9Q64 10 59 16T53 32Q53 37 54 43T56 53Q59 64 66 73T94 82Z" />
<glyph unicode="&#x201c;" glyph-name="quotedblleft" horiz-adv-x="417" d="M178 528Q161 528 154 535T147 552Q147 557 148 563T150 574Q155 594 165 616T189 661T221 703T259 740H291Q247 704 224 668T190 602Q207 600 213 594T219 578Q219 573 218 568T216
557Q213 546 206 537T178 528ZM346 528Q329 528 322 535T315 552Q315 557 316 563T318 574Q323 594 333 616T357 661T389 703T427 740H459Q415 704 392 668T358 602Q375 600 381 594T387 578Q387 573 386 568T384 557Q381 546 374 537T346 528Z" />
<glyph unicode="&#x201d;" glyph-name="quotedblright" horiz-adv-x="417" d="M226 750Q243 750 250 743T257 726Q257 721 256 715T254 704Q249 684 239 662T215 617T183 575T144 538H113Q156 574 179 611T213 677Q196 678 191 684T185 700Q185 705 186 711T188
721Q191 732 198 741T226 750ZM394 750Q411 750 418 743T425 726Q425 721 424 715T422 704Q417 684 407 662T383 617T351 575T312 538H281Q324 574 347 611T381 677Q364 678 359 684T353 700Q353 705 354 711T356 721Q359 732 366 741T394 750Z" />
<glyph unicode="&#x201e;" glyph-name="quotedblbase" horiz-adv-x="416" d="M94 82Q111 82 118 75T125 58Q125 53 124 47T122 36Q117 16 107 -6T83 -51T51 -93T12 -130H-19Q24 -93 47 -57T81 9Q64 10 59 16T53 32Q53 37 54 43T56 53Q59 64 66 73T94 82ZM262 82Q279
82 286 75T293 58Q293 53 292 47T290 36Q285 16 275 -6T251 -51T219 -93T180 -130H149Q192 -93 215 -57T249 9Q232 10 227 16T221 32Q221 37 222 43T224 53Q227 64 234 73T262 82Z" />
<glyph unicode="&#x2022;" glyph-name="bullet" horiz-adv-x="340" d="M160 210Q118 210 99 226T80 272Q80 277 82 290T87 319Q94 354 118 376T192 398Q234 398 253 382T272 336Q272 331 270 318T265 289Q258 254 234 232T160 210Z" />
<glyph unicode="&#x2039;" glyph-name="guilsinglleft" horiz-adv-x="289" d="M200 99L40 276L46 309L276 483L284 456L78 288L216 121L200 99Z" />
<glyph unicode="&#x203a;" glyph-name="guilsinglright" horiz-adv-x="289" d="M17 126L223 294L85 462L102 483L262 307L255 274L25 99L17 126Z" />
</font>
</defs>
</svg>
