<?xml version="1.0" standalone="no"?>
<!DOCTYPE svg PUBLIC "-//W3C//DTD SVG 1.1//EN" "http://www.w3.org/Graphics/SVG/1.1/DTD/svg11.dtd">
<svg xmlns="http://www.w3.org/2000/svg">
<defs >
<font id="IBMPlexSans" horiz-adv-x="586" ><font-face
    font-family="IBM Plex Sans Medium"
    units-per-em="1000"
    panose-1="2 11 6 3 5 2 3 0 2 3"
    ascent="1025"
    descent="-275"
    alphabetic="0" />
<glyph unicode=" " glyph-name="space" horiz-adv-x="236" />
<glyph unicode="!" glyph-name="exclam" horiz-adv-x="290" d="M110 200L137 498L177 698H289L249 498L158 200H110ZM96 -12Q64 -12 49 2T34 37Q34 45 35 56T39 76Q44 102 62 120T118 139Q150 139 165 125T180 90Q180 83 179 72T175 51Q170 25 152 7T96 -12Z" />
<glyph unicode="&quot;" glyph-name="quotedbl" horiz-adv-x="443" d="M110 440L170 740H267L207 440H110ZM307 440L367 740H464L404 440H307Z" />
<glyph unicode="#" glyph-name="numbersign" horiz-adv-x="663" d="M360 191H218L147 0H70L140 191H23L38 263H167L230 435H113L128 507H257L327 698H405L334 507H476L547 698H625L554 507H671L657 435H528L464 263H581L567 191H438L367 0H289L360 191ZM386 263L450
435H308L244 263H386Z" />
<glyph unicode="$" glyph-name="dollar" horiz-adv-x="571" d="M187 6Q126 15 78 43T4 116L78 181Q99 143 133 121T211 92L256 320Q171 337 131 379T91 490Q91 532 106 568T152 631T226 676T326 696L343 780H425L407 690Q461 681 501 656T565 591L489 528Q475
554 448 575T383 604L342 397Q429 379 471 337T513 226Q513 184 497 145T451 76T374 27T268 3L252 -82H170L187 6ZM408 212Q408 246 389 270T323 305L281 91Q347 98 377 133T408 212ZM195 502Q195 433 275 413L313 608Q256 603 226 574T195 502Z" />
<glyph unicode="%" glyph-name="percent" horiz-adv-x="918" d="M130 0L717 698H816L229 0H130ZM236 314Q172 314 135 352T98 465Q98 516 112 561T153 639T215 691T293 710Q357 710 394 672T431 559Q431 508 417 464T376 386T314 333T236 314ZM242 380Q275 380
294 406T325 482L338 543Q340 552 341 562T342 581Q342 610 328 627T287 644Q254 644 235 618T204 542L191 481Q189 472 188 462T187 443Q187 414 201 397T242 380ZM652 -12Q588 -12 551 26T514 139Q514 190 528 235T569 313T631 365T709 384Q773 384 810 346T847
233Q847 182 833 138T792 60T730 7T652 -12ZM658 54Q691 54 710 80T741 156L754 217Q756 226 757 236T758 255Q758 284 744 301T703 318Q670 318 651 292T620 216L607 155Q605 146 604 136T603 117Q603 88 617 71T658 54Z" />
<glyph unicode="&amp;" glyph-name="ampersand" horiz-adv-x="685" d="M434 73Q393 35 341 12T223 -12Q130 -12 82 34T34 154Q34 198 49 231T88 292T146 340T215 379Q196 406 181 439T165 514Q165 554 180 589T222 652T288 694T374 710Q407 710 436 702T487 676T522
632T535 571Q535 533 519 503T477 447T418 401T349 362L451 219Q470 254 484 293T507 375H657L639 285H566Q554 248 538 213T502 147L607 0H486L434 73ZM361 625Q326 625 302 604T270 548Q267 534 267 519Q267 497 275 476T305 423Q360 450 395 480T431 558Q431
590 412 607T361 625ZM247 78Q290 78 325 93T389 136L258 318Q214 296 184 271T143 200Q140 186 140 171Q140 126 167 102T247 78Z" />
<glyph unicode="&apos;" glyph-name="quotesingle" horiz-adv-x="246" d="M110 440L170 740H267L207 440H110Z" />
<glyph unicode="(" glyph-name="parenleft" horiz-adv-x="339" d="M70 208Q70 299 93 381T156 533T246 661T352 760H460Q410 721 366 676T285 580T224 476T188 368L169 277Q165 257 164 239T163 204Q163 104 194 17T280 -138H185Q161 -110 141 -73T104 9T79 103T70 208Z" />
<glyph unicode=")" glyph-name="parenright" horiz-adv-x="339" d="M292 414Q292 323 269 241T206 89T116 -39T10 -138H-98Q-48 -99 -4 -54T77 42T138 146T174 254L193 345Q197 365 198 383T199 418Q199 518 168 605T82 760H177Q201 732 221 695T258 613T283 519T292
414Z" />
<glyph unicode="*" glyph-name="asterisk" horiz-adv-x="512" d="M178 320L109 380L239 510L95 554L135 641L275 580L302 747H396L358 581L510 639L530 554L367 505L443 373L364 323L298 464L178 320Z" />
<glyph unicode="+" glyph-name="plus" horiz-adv-x="600" d="M213 62L252 262H72L89 349H270L310 548H405L366 349H545L528 262H348L308 62H213Z" />
<glyph unicode="," glyph-name="comma" horiz-adv-x="288" d="M115 139Q147 139 162 125T177 88Q177 81 176 71T172 52Q161 5 131 -47T46 -138H-37Q2 -106 28 -75T73 -7Q32 2 32 39Q32 46 33 56T37 76Q43 103 60 121T115 139Z" />
<glyph unicode="-" glyph-name="hyphen" horiz-adv-x="391" d="M59 252L80 357H350L329 252H59Z" />
<glyph unicode="." glyph-name="period" horiz-adv-x="288" d="M93 -12Q61 -12 46 2T31 37Q31 45 32 56T36 76Q41 102 59 120T115 139Q147 139 162 125T177 90Q177 83 176 72T172 51Q167 25 149 7T93 -12Z" />
<glyph unicode="/" glyph-name="slash" horiz-adv-x="421" d="M-71 -151L377 740H473L24 -151H-71Z" />
<glyph unicode="0" glyph-name="zero" horiz-adv-x="600" d="M258 -12Q203 -12 165 8T104 62T70 140T59 235Q59 319 78 403T136 556T233 667T370 710Q425 710 463 690T524 636T558 557T569 463Q569 379 550 295T491 142T394 31T258 -12ZM269 80Q302 80 328 95T374
137T408 203T431 288L454 401Q459 423 460 443T462 484Q462 546 437 582T358 618Q325 618 299 603T254 561T220 495T197 410L174 297Q169 275 168 255T166 214Q166 152 190 116T269 80Z" />
<glyph unicode="1" glyph-name="one" horiz-adv-x="600" d="M48 0L66 93H258L364 616H356L162 442L102 505L314 698H486L365 93H532L515 0H48Z" />
<glyph unicode="2" glyph-name="two" horiz-adv-x="600" d="M478 0H25L47 109L302 307Q367 357 398 401T438 483Q440 491 441 502T442 522Q442 538 437 554T420 584T392 606T349 614Q296 614 263 584T208 502L115 541Q132 578 155 609T207 663T274 697T358 710Q404
710 441 697T505 659T545 601T559 528Q559 483 545 445T504 373T440 305T355 236L166 94H497L478 0Z" />
<glyph unicode="3" glyph-name="three" horiz-adv-x="600" d="M299 410Q414 410 433 509Q436 524 436 535Q436 575 411 596T341 617Q296 617 260 598T194 532L128 599Q167 647 221 678T358 710Q401 710 437 699T499 666T539 616T553 551Q553 515 541 485T508 431T457
391T393 368L392 363Q443 354 474 316T506 218Q506 168 489 126T437 53T355 5T245 -12Q199 -12 163 -2T101 26T56 67T28 115L111 173Q127 131 159 106T253 81Q316 81 348 109T391 193Q393 201 394 209T395 225Q395 267 367 291T285 316H212L231 410H299Z" />
<glyph unicode="4" glyph-name="four" horiz-adv-x="600" d="M307 0L334 136H23L43 235L409 698H549L454 224H546L528 136H436L409 0H307ZM135 224H352L423 579H416L135 224Z" />
<glyph unicode="5" glyph-name="five" horiz-adv-x="600" d="M560 602H261L198 349H206Q233 397 266 420T358 444Q396 444 428 432T483 396T519 338T532 259Q532 205 514 156T461 69T375 10T260 -12Q212 -12 176 -2T114 27T69 68T41 116L129 174Q144 132 176 107T268
82Q328 82 364 115T412 210Q414 221 416 232T418 255Q418 300 392 326T313 352Q271 352 241 335T187 292L100 305L198 698H579L560 602Z" />
<glyph unicode="6" glyph-name="six" horiz-adv-x="600" d="M266 -12Q166 -12 113 47T59 211Q59 286 86 358T160 495T264 611T386 698H539Q408 617 317 531T191 341L197 339Q227 387 264 414T356 442Q396 442 428 429T483 390T518 330T531 251Q531 196 512 148T459
65T375 9T266 -12ZM273 79Q332 79 368 113T416 204Q418 213 419 223T420 243Q420 295 393 323T312 352Q252 352 217 318T169 227Q167 218 166 208T165 188Q165 136 192 108T273 79Z" />
<glyph unicode="7" glyph-name="seven" horiz-adv-x="600" d="M121 0L485 606H231L205 475H111L155 698H613L593 599L236 0H121Z" />
<glyph unicode="8" glyph-name="eight" horiz-adv-x="600" d="M261 -12Q208 -12 168 1T100 39T58 96T44 168Q44 204 55 236T89 295T143 339T216 364L218 371Q130 405 130 505Q130 547 146 584T194 649T271 693T374 710Q469 710 519 666T569 551Q569 520 559 492T530
439T484 397T422 368L421 360Q471 347 498 310T526 217Q526 169 508 127T456 55T373 6T261 -12ZM268 77Q326 77 363 105T411 187Q413 198 414 206T415 226Q415 270 386 295T302 320Q244 320 207 291T159 209Q157 198 156 190T155 170Q155 125 184 101T268 77ZM331
404Q384 404 415 430T458 503Q460 512 461 520T462 537Q462 576 436 598T360 621Q306 621 275 596T233 523Q231 514 230 506T229 489Q229 450 255 427T331 404Z" />
<glyph unicode="9" glyph-name="nine" horiz-adv-x="600" d="M573 487Q573 412 546 340T472 203T368 87T246 0H93Q159 40 215 81T315 167T392 258T441 357L435 359Q405 311 368 284T277 256Q196 256 149 307T101 447Q101 502 120 550T174 633T257 689T366 710Q466
710 519 651T573 487ZM320 346Q380 346 415 380T463 471Q465 480 466 490T467 510Q467 562 440 590T359 619Q300 619 264 585T216 494Q214 485 213 475T212 455Q212 403 239 375T320 346Z" />
<glyph unicode=":" glyph-name="colon" horiz-adv-x="308" d="M103 -12Q71 -12 56 2T41 37Q41 45 42 56T46 76Q51 102 69 120T125 139Q157 139 172 125T187 90Q187 83 186 72T182 51Q177 25 159 7T103 -12ZM183 381Q151 381 136 395T121 430Q121 438 122 449T126
469Q131 495 149 513T205 532Q237 532 252 518T267 483Q267 476 266 465T262 444Q257 418 239 400T183 381Z" />
<glyph unicode=";" glyph-name="semicolon" horiz-adv-x="308" d="M125 139Q157 139 172 125T187 88Q187 81 186 71T182 52Q171 5 141 -47T56 -138H-27Q12 -106 38 -75T83 -7Q42 2 42 39Q42 46 43 56T47 76Q53 103 70 121T125 139ZM183 381Q151 381 136 395T121
430Q121 438 122 449T126 469Q131 495 149 513T205 532Q237 532 252 518T267 483Q267 476 266 465T262 444Q257 418 239 400T183 381Z" />
<glyph unicode="&lt;" glyph-name="less" horiz-adv-x="600" d="M96 249L113 330L564 582L541 465L213 287L211 279L468 97L446 -8L96 249Z" />
<glyph unicode="=" glyph-name="equal" horiz-adv-x="600" d="M95 370L112 457H568L550 370H95ZM52 155L70 242H525L508 155H52Z" />
<glyph unicode="&gt;" glyph-name="greater" horiz-adv-x="600" d="M72 109L401 291L403 299L146 477L167 582L517 329L501 248L49 -8L72 109Z" />
<glyph unicode="?" glyph-name="question" horiz-adv-x="478" d="M160 219L193 379Q274 384 322 416T382 498Q384 505 385 516T386 535Q386 574 362 595T295 617Q244 617 213 588T163 510L76 548Q107 621 162 665T307 710Q395 710 446 666T497 546Q497 505 482
467T438 397T369 344T281 313L262 219H160ZM172 -12Q140 -12 125 2T110 37Q110 45 111 56T115 76Q120 102 138 120T194 139Q226 139 241 125T256 90Q256 83 255 72T251 51Q246 25 228 7T172 -12Z" />
<glyph unicode="@" glyph-name="at" horiz-adv-x="875" d="M370 -121Q297 -121 240 -99T143 -34T83 67T62 201Q62 224 64 251T73 311Q91 398 130 470T227 596T358 678T518 708Q587 708 644 687T744 626T809 529T832 402Q832 385 830 364T823 317Q812 266 794 222T748
145T687 93T609 74Q560 74 535 96T510 161V173H506Q491 132 457 103T377 74Q320 74 284 113T247 230Q247 244 248 261T255 301Q275 401 325 452T444 504Q489 504 514 484T548 425H552L566 495H653L596 211Q594 203 593 195T592 178Q592 144 626 144Q666 144 696
187T743 310L752 353Q754 364 755 376T756 411Q756 463 739 505T689 576T612 622T510 638Q444 638 386 616T281 552T203 454T157 326L147 275Q139 232 139 201Q139 143 155 97T201 18T277 -32T379 -50H591L577 -121H370ZM409 149Q430 149 447 157T479 178T502 208T516
244L538 354Q543 382 522 405T459 428Q417 428 390 402T355 333L338 249Q335 234 335 224Q335 189 354 169T409 149Z" />
<glyph unicode="A" glyph-name="A" horiz-adv-x="638" d="M455 0L433 189H183L86 0H-30L337 698H477L565 0H455ZM391 598H384L228 283H424L391 598Z" />
<glyph unicode="B" glyph-name="B" horiz-adv-x="637" d="M172 698H446Q525 698 570 660T616 552Q616 519 607 489T581 434T537 392T477 365L476 360Q578 334 578 231Q578 182 562 140T515 66T441 18T345 0H32L172 698ZM344 95Q389 95 418 117T457 186Q462 212
464 224T466 244Q466 275 446 293T384 311H202L159 95H344ZM377 401Q424 401 454 420T493 485Q498 509 499 521T501 540Q501 569 483 586T427 603H261L220 401H377Z" />
<glyph unicode="C" glyph-name="C" horiz-adv-x="616" d="M297 -12Q244 -12 200 6T124 59T74 147T56 269Q56 360 81 440T152 581T261 675T401 710Q580 710 630 546L533 504Q518 555 486 584T392 613Q316 613 264 560T193 418L170 305Q166 288 165 274T164 246Q164
171 200 128T305 85Q338 85 364 93T411 117T449 155T481 204L571 161Q525 72 458 30T297 -12Z" />
<glyph unicode="D" glyph-name="D" horiz-adv-x="665" d="M172 698H385Q502 698 569 631T636 431Q636 345 613 267T544 130T433 35T281 0H32L172 698ZM287 97Q368 97 423 146T499 292L519 392Q522 409 523 425T525 454Q525 529 488 565T387 601H261L160 97H287Z" />
<glyph unicode="E" glyph-name="E" horiz-adv-x="571" d="M32 0L172 698H599L579 602H261L221 400H505L486 304H202L160 96H492L473 0H32Z" />
<glyph unicode="F" glyph-name="F" horiz-adv-x="548" d="M32 0L172 698H588L568 602H261L221 400H498L479 304H202L140 0H32Z" />
<glyph unicode="G" glyph-name="G" horiz-adv-x="678" d="M483 106H477Q453 57 404 23T281 -12Q231 -12 190 6T119 59T73 146T56 267Q56 358 80 438T151 579T263 675T413 710Q505 710 569 668T656 548L562 502Q545 555 506 584T404 613Q319 613 265 560T192 413L171
306Q165 276 165 248Q165 169 204 127T310 85Q379 85 431 123T498 231L507 277H368L387 371H630L556 0H461L483 106Z" />
<glyph unicode="H" glyph-name="H" horiz-adv-x="691" d="M508 304H202L140 0H32L172 698H280L221 400H527L586 698H694L554 0H446L508 304Z" />
<glyph unicode="I" glyph-name="I" horiz-adv-x="398" d="M3 0L21 90H111L215 608H125L143 698H431L413 608H323L219 90H309L291 0H3Z" />
<glyph unicode="J" glyph-name="J" horiz-adv-x="514" d="M518 698L415 186Q396 92 340 40T190 -12Q105 -12 57 36T4 165L105 185Q108 140 128 113T192 85Q238 85 267 112T309 199L390 606H169L188 698H518Z" />
<glyph unicode="K" glyph-name="K" horiz-adv-x="633" d="M303 324L182 208L140 0H32L172 698H281L211 351H217L332 473L555 698H689L387 396L569 0H450L303 324Z" />
<glyph unicode="L" glyph-name="L" horiz-adv-x="498" d="M32 0L172 698H281L160 96H434L415 0H32Z" />
<glyph unicode="M" glyph-name="M" horiz-adv-x="792" d="M657 533H652L565 408L375 144L286 415L248 533H243L137 0H32L172 698H297L408 339H411L661 698H795L655 0H550L657 533Z" />
<glyph unicode="N" glyph-name="N" horiz-adv-x="691" d="M298 385L249 540H243L135 0H32L172 698H292L428 313L477 158H483L591 698H694L554 0H434L298 385Z" />
<glyph unicode="O" glyph-name="O" horiz-adv-x="687" d="M303 -12Q252 -12 207 5T129 56T76 143T56 265Q56 353 81 433T152 575T265 673T412 710Q463 710 508 693T587 642T640 555T660 433Q660 345 635 265T563 123T450 25T303 -12ZM313 85Q397 85 450 138T523
290L545 396Q549 413 550 429T551 458Q551 531 513 572T404 613Q321 613 267 559T192 406L171 302Q167 284 166 269T165 240Q165 167 203 126T313 85Z" />
<glyph unicode="P" glyph-name="P" horiz-adv-x="609" d="M32 0L172 698H427Q525 698 572 650T620 522Q620 470 602 426T551 349T472 298T370 279H196L140 0H32ZM216 375H385Q428 375 456 397T496 465Q502 492 505 507T508 533Q508 563 490 582T426 602H261L216 375Z" />
<glyph unicode="Q" glyph-name="Q" horiz-adv-x="687" d="M414 -173H317Q268 -173 248 -153T228 -99Q228 -90 229 -81T233 -62L244 -6Q203 3 169 24T110 78T70 158T56 265Q56 353 81 433T152 575T265 673T412 710Q463 710 508 693T587 642T640 555T660 433Q660
350 638 274T574 138T473 39T341 -10L327 -80H433L414 -173ZM313 85Q397 85 450 138T523 290L545 396Q549 413 550 429T551 458Q551 531 513 572T404 613Q321 613 267 559T192 406L171 302Q167 284 166 269T165 240Q165 167 203 126T313 85Z" />
<glyph unicode="R" glyph-name="R" horiz-adv-x="638" d="M140 0H32L172 698H431Q527 698 573 651T620 525Q620 485 608 449T573 382T517 329T442 296L536 0H420L336 283H197L140 0ZM385 375Q428 375 456 397T496 465Q502 492 505 507T508 533Q508 563 490 582T426
602H261L216 375H385Z" />
<glyph unicode="S" glyph-name="S" horiz-adv-x="580" d="M251 -12Q170 -12 105 17T4 113L87 176Q116 128 156 107T252 85Q330 85 371 122T412 213Q412 252 388 274T317 307L259 318Q184 334 142 377T100 496Q100 541 117 580T167 648T247 693T353 710Q433 710
491 683T584 607L506 538Q479 575 442 594T348 613Q284 613 247 585T209 505Q209 466 232 445T302 413L359 402Q436 386 479 342T523 222Q523 176 505 134T452 59T367 8T251 -12Z" />
<glyph unicode="T" glyph-name="T" horiz-adv-x="561" d="M403 602L282 0H174L294 602H94L113 698H622L603 602H403Z" />
<glyph unicode="U" glyph-name="U" horiz-adv-x="665" d="M276 698L191 272Q187 253 185 237T182 204Q182 147 212 116T299 85Q372 85 415 129T478 275L563 698H671L587 277Q571 199 547 145T488 55T404 4T292 -12Q189 -12 134 42T78 200Q78 222 80 245T88 298L168
698H276Z" />
<glyph unicode="V" glyph-name="V" horiz-adv-x="609" d="M188 0L106 698H215L247 383L270 114H275L399 372L565 698H680L316 0H188Z" />
<glyph unicode="W" glyph-name="W" horiz-adv-x="896" d="M131 0L109 698H216L219 376L218 119H225L345 410L471 698H594L605 409L610 116H617L715 364L851 698H961L658 0H533L519 335L513 576H507L406 341L258 0H131Z" />
<glyph unicode="X" glyph-name="X" horiz-adv-x="615" d="M536 0H420L309 268H303L95 0H-31L258 363L114 698H229L338 435H344L551 698H676L386 345L536 0Z" />
<glyph unicode="Y" glyph-name="Y" horiz-adv-x="597" d="M191 0L246 272L99 698H209L316 377H321L550 698H672L353 267L299 0H191Z" />
<glyph unicode="Z" glyph-name="Z" horiz-adv-x="566" d="M478 0H-13L7 99L463 602H119L138 698H611L591 599L135 96H497L478 0Z" />
<glyph unicode="[" glyph-name="bracketleft" horiz-adv-x="320" d="M5 -138L185 760H369L353 682H263L114 -60H204L189 -138H5Z" />
<glyph unicode="\" glyph-name="backslash" horiz-adv-x="421" d="M235 -151L145 740H232L322 -151H235Z" />
<glyph unicode="]" glyph-name="bracketright" horiz-adv-x="319" d="M336 760L156 -138H-28L-12 -60H78L227 682H136L152 760H336Z" />
<glyph unicode="^" glyph-name="asciicircum" horiz-adv-x="600" d="M481 289L372 591H365L140 289L63 336L330 698H435L567 325L481 289Z" />
<glyph unicode="_" glyph-name="underscore" horiz-adv-x="548" d="M-57 -173L-39 -85H450L432 -173H-57Z" />
<glyph unicode="`" glyph-name="grave" horiz-adv-x="590" d="M192 750L285 794L349 611L285 582L192 750Z" />
<glyph unicode="a" glyph-name="a" d="M434 0Q399 0 379 18T358 68Q358 85 361 97L365 116H361Q329 52 291 20T192 -12Q120 -12 81 40T42 179Q42 247 59 311T108 424T187 502T291 532Q342 532 379 506T424 433H429L446 520H550L463 87H530L513 0H434ZM232 77Q264
77 288 91T333 127Q376 173 390 243L411 348Q414 365 409 382T391 412T358 434T311 443Q253 443 218 408T169 303L154 230Q152 218 151 203T149 176Q149 132 169 105T232 77Z" />
<glyph unicode="b" glyph-name="b" horiz-adv-x="577" d="M175 740H279L212 404H216Q248 468 286 500T385 532Q457 532 496 480T535 341Q535 273 518 209T469 96T390 18T286 -12Q235 -12 198 14T153 87H148L131 0H27L175 740ZM267 77Q324 77 359 112T408 217L423
290Q425 302 426 316T428 344Q428 388 407 415T343 443Q312 443 288 429T244 393Q223 370 209 342T187 278L168 183Q159 138 184 108T267 77Z" />
<glyph unicode="c" glyph-name="c" horiz-adv-x="491" d="M237 -12Q150 -12 96 43T42 206Q42 274 61 333T115 437T198 506T306 532Q378 532 424 497T484 405L397 370Q386 405 365 424T301 444Q247 444 213 410T167 313L150 227Q145 202 145 183Q145 135 170 106T247
76Q285 76 312 98T367 169L447 131Q414 61 361 25T237 -12Z" />
<glyph unicode="d" glyph-name="d" d="M434 0Q399 0 379 18T358 68Q358 85 361 97L365 116H361Q329 52 291 20T192 -12Q120 -12 81 40T42 179Q42 247 59 311T108 424T187 502T291 532Q342 532 379 506T424 433H429L490 740H594L463 87H530L513 0H434ZM234 77Q265
77 289 91T333 127Q377 174 390 242L409 337Q418 382 393 412T309 443Q253 443 218 408T169 303L154 230Q152 218 151 204T149 176Q149 132 170 105T234 77Z" />
<glyph unicode="e" glyph-name="e" horiz-adv-x="512" d="M248 -12Q147 -12 95 45T42 208Q42 272 61 330T117 434T204 505T318 532Q349 532 380 524T437 499T477 455T493 390Q493 307 410 263T148 215Q145 195 145 182Q145 134 171 105T255 76Q298 76 333 95T400
154L466 99Q417 38 363 13T248 -12ZM310 449Q256 449 217 413T165 314L160 288Q231 291 276 298T346 317T381 346T390 385Q390 404 383 416T365 436T339 446T310 449Z" />
<glyph unicode="f" glyph-name="f" horiz-adv-x="326" d="M144 -71Q132 -133 96 -166T-10 -200H-80L-63 -113H31L141 433H63L80 520H159L177 611Q189 673 225 706T331 740H408L391 653H289L263 520H364L347 433H245L144 -71Z" />
<glyph unicode="g" glyph-name="g" horiz-adv-x="521" d="M477 -31Q477 -65 464 -97T419 -155T331 -196T193 -212Q78 -212 29 -181T-21 -97Q-21 -53 7 -26T86 15L88 22Q61 30 50 48T38 92Q38 132 67 157T146 192L147 199Q76 237 76 330Q76 371 91 407T135 472T207
516T305 532Q332 532 355 527T399 514L402 530Q416 603 480 603H556L539 517H442L436 488Q482 448 482 379Q482 338 467 302T421 238T348 194T250 178Q220 178 193 184Q165 177 147 164T129 128Q129 93 191 93H312Q399 93 438 62T477 -31ZM372 -53Q372 -28 356
-14T294 0H119Q95 -13 84 -31T73 -70Q73 -99 95 -117T173 -135H228Q306 -135 339 -112T372 -53ZM262 254Q311 254 338 277T373 340Q377 360 378 370T379 388Q379 420 359 438T294 456Q245 456 218 433T183 370Q178 347 178 338T177 322Q177 290 197 272T262 254Z"
/>
<glyph unicode="h" glyph-name="h" horiz-adv-x="573" d="M175 740H279L213 409H218Q247 469 286 500T383 532Q448 532 480 495T513 392Q513 375 511 359T505 322L458 87H521L504 0H425Q392 0 373 17T353 66Q353 72 353 78T355 90L400 315Q406 345 406 370Q406
405 390 423T338 442Q286 442 247 398Q225 374 209 343T187 280L131 0H27L175 740Z" />
<glyph unicode="i" glyph-name="i" horiz-adv-x="271" d="M204 613Q175 613 162 625T149 655Q149 665 154 690Q159 713 175 728T226 744Q255 744 268 732T281 702Q281 692 276 667Q271 644 255 629T204 613ZM121 0Q83 0 63 19T43 70Q43 80 46 95L131 520H235L148
87H215L198 0H121Z" />
<glyph unicode="j" glyph-name="j" horiz-adv-x="263" d="M133 520H237L116 -83Q104 -142 74 -171T-19 -200H-91L-74 -114H6L133 520ZM206 613Q177 613 164 625T151 655Q151 665 156 690Q161 713 177 728T228 744Q257 744 270 732T283 702Q283 692 278 667Q273
644 257 629T206 613Z" />
<glyph unicode="k" glyph-name="k" horiz-adv-x="532" d="M175 740H279L189 289H195L278 377L431 520H554L331 310L422 87H485L468 0H411Q376 0 355 15T320 65L249 243L163 162L131 0H27L175 740Z" />
<glyph unicode="l" glyph-name="l" horiz-adv-x="270" d="M120 0Q82 0 62 19T42 70Q42 80 45 95L174 740H278L147 87H219L202 0H120Z" />
<glyph unicode="m" glyph-name="m" horiz-adv-x="859" d="M27 0L131 520H235L213 409H218Q247 469 284 500T380 532Q437 532 467 500T501 409H506Q534 468 573 500T673 532Q736 532 767 496T799 394Q799 358 790 316L744 87H807L790 0H711Q677 0 658 16T638 65Q638
78 641 90L686 316Q689 331 691 345T693 371Q693 405 678 423T629 442Q583 442 544 398Q522 374 507 342T486 280L430 0H326L389 315Q392 330 394 344T396 372Q396 405 382 423T335 442Q309 442 287 430T248 398Q225 372 209 341T187 280L131 0H27Z" />
<glyph unicode="n" glyph-name="n" horiz-adv-x="573" d="M27 0L131 520H235L213 409H218Q247 469 286 500T383 532Q448 532 480 495T513 392Q513 375 511 359T505 322L458 87H521L504 0H425Q392 0 373 17T353 66Q353 72 353 76T355 90L400 315Q406 345 406 370Q406
405 390 423T338 442Q286 442 247 398Q225 374 209 343T187 280L131 0H27Z" />
<glyph unicode="o" glyph-name="o" horiz-adv-x="548" d="M238 -12Q150 -12 96 43T42 203Q42 270 62 330T117 435T202 506T310 532Q398 532 452 477T506 317Q506 249 486 190T431 85T346 14T238 -12ZM246 76Q295 76 331 112T382 217L399 300Q401 308 402 318T403
339Q403 387 378 415T302 444Q253 444 217 408T166 303L149 220Q147 211 146 202T145 181Q145 133 170 105T246 76Z" />
<glyph unicode="p" glyph-name="p" horiz-adv-x="577" d="M131 520H235L212 404H216Q248 468 286 500T385 532Q457 532 496 480T535 341Q535 273 518 209T469 96T390 18T286 -12Q235 -12 198 14T153 87H148L91 -200H-13L131 520ZM267 77Q324 77 359 112T408 217L423
290Q425 302 426 316T428 344Q428 388 407 415T343 443Q312 443 288 429T244 393Q223 369 209 341T187 278L168 183Q159 138 184 108T267 77Z" />
<glyph unicode="q" glyph-name="q" horiz-adv-x="576" d="M365 116H361Q329 52 291 20T192 -12Q120 -12 81 40T42 179Q42 247 59 311T108 424T187 502T291 532Q342 532 379 506T424 433H429L446 520H550L406 -200H302L365 116ZM234 77Q265 77 289 91T333 127Q354
150 368 178T390 242L409 337Q418 382 393 412T309 443Q253 443 218 408T169 303L154 230Q152 218 151 204T149 176Q149 132 170 105T234 77Z" />
<glyph unicode="r" glyph-name="r" horiz-adv-x="377" d="M27 0L131 520H235L213 409H219Q228 429 241 449T274 484T317 510T373 520H402L381 417H346Q277 417 239 384T190 294L131 0H27Z" />
<glyph unicode="s" glyph-name="s" horiz-adv-x="482" d="M210 -12Q148 -12 95 12T9 81L77 143Q102 110 134 92T212 74Q262 74 289 96T317 155Q317 176 304 191T253 214L208 222Q145 233 107 264T69 358Q69 392 81 423T119 479T182 517T271 532Q387 532 451 453L383
391Q365 415 336 430T265 446Q217 446 194 425T170 371Q170 349 183 334T234 312L279 305Q344 294 381 262T418 167Q418 128 404 96T362 39T297 2T210 -12Z" />
<glyph unicode="t" glyph-name="t" horiz-adv-x="333" d="M158 0Q110 0 88 21T65 79Q65 87 66 97T69 117L132 433H56L73 520H112Q141 520 151 532T167 571L185 662H282L254 520H358L341 433H236L167 87H268L251 0H158Z" />
<glyph unicode="u" glyph-name="u" horiz-adv-x="570" d="M229 520L166 204Q163 190 162 176T160 151Q160 116 175 97T225 78Q275 78 314 122Q337 148 352 179T374 242L430 520H534L447 87H514L497 0H417Q382 0 363 18T343 69Q343 82 346 99L348 111H343Q314 51
276 20T182 -12Q118 -12 86 25T53 128Q53 145 55 162T61 199L125 520H229Z" />
<glyph unicode="v" glyph-name="v" horiz-adv-x="496" d="M131 0L58 520H160L189 289L208 95H213L304 289L423 520H534L255 0H131Z" />
<glyph unicode="w" glyph-name="w" horiz-adv-x="762" d="M67 520H169L177 295L182 109H187L260 271L375 520H474L492 290L504 109H509L579 276L685 520H787L550 0H434L413 235L403 385H398L335 244L220 0H100L67 520Z" />
<glyph unicode="x" glyph-name="x" horiz-adv-x="504" d="M-38 0L194 270L74 520H186L266 332H271L423 520H539L313 257L440 0H327L241 194H236L78 0H-38Z" />
<glyph unicode="y" glyph-name="y" horiz-adv-x="495" d="M425 520H536L198 -103Q184 -129 171 -147T141 -177T103 -194T55 -200H-24L-7 -114H88L137 -22L58 520H160L191 289L210 98H215L306 289L425 520Z" />
<glyph unicode="z" glyph-name="z" horiz-adv-x="466" d="M-8 0L9 86L335 434H79L96 520H477L460 434L133 86H404L387 0H-8Z" />
<glyph unicode="{" glyph-name="braceleft" horiz-adv-x="343" d="M125 -138Q90 -138 71 -120T52 -70Q52 -59 55 -44L97 168Q100 183 100 196Q100 230 81 247T25 265L44 359Q92 359 118 381T153 447L198 670Q206 715 231 737T294 760H394L379 679H294L247 442Q242
419 234 398T211 359T176 331T125 316L123 306Q158 299 178 275T199 214Q199 206 198 197T194 179L147 -57H232L215 -138H125Z" />
<glyph unicode="|" glyph-name="bar" horiz-adv-x="344" d="M47 -138L227 760H318L138 -138H47Z" />
<glyph unicode="}" glyph-name="braceright" horiz-adv-x="344" d="M-16 -57H68L115 180Q119 202 128 224T151 263T186 291T238 306L239 316Q205 323 185 347T164 409Q164 417 165 426T168 443L215 679H130L147 760H238Q273 760 291 742T310 692Q310 687 310 681T308
666L265 454Q262 439 262 426Q262 391 282 375T338 358L319 264Q271 264 245 241T209 175L165 -48Q156 -93 132 -115T69 -138H-32L-16 -57Z" />
<glyph unicode="~" glyph-name="asciitilde" horiz-adv-x="600" d="M406 225Q369 225 344 236T289 264Q265 278 242 288T188 298Q165 298 146 290T102 266L72 329Q95 353 126 369T205 385Q242 385 267 374T322 347Q347 333 370 323T424 313Q447 313 466 320T509
345L539 281Q516 257 485 241T406 225Z" />
<glyph unicode="&#xa0;" glyph-name="uni00A0" horiz-adv-x="236" />
<glyph unicode="&#xa1;" glyph-name="exclamdown" horiz-adv-x="290" d="M0 -178L40 22L132 320H180L152 22L112 -178H0ZM169 381Q137 381 122 395T107 430Q107 438 108 449T112 469Q117 495 135 513T191 532Q223 532 238 518T253 483Q253 476 252 465T248 444Q243
418 225 400T169 381Z" />
<glyph unicode="&#xa2;" glyph-name="cent" horiz-adv-x="517" d="M179 -4Q115 13 79 68T42 209Q42 269 58 324T106 422T183 492T285 526L306 630H392L370 522Q419 510 451 479T497 404L412 364Q404 392 389 410T347 437L276 76Q308 82 333 103T381 164L456 122Q423
63 377 30T264 -10L243 -114H157L179 -4ZM143 183Q143 148 157 121T201 82L272 437Q228 426 201 393T164 308L147 222Q143 205 143 183Z" />
<glyph unicode="&#xa3;" glyph-name="sterling" horiz-adv-x="584" d="M28 0L51 116Q81 128 100 148T132 192T148 241T153 290H60L78 379H145Q143 396 141 414T139 452Q139 507 158 554T211 636T294 690T401 710Q478 710 526 680T606 592L518 536Q498 574 469
594T393 614Q326 614 287 570T248 444Q248 427 249 410T253 379H454L436 290H262Q261 255 251 226T226 173T193 131T156 103L154 96H493L474 0H28Z" />
<glyph unicode="&#xa4;" glyph-name="currency" horiz-adv-x="617" d="M286 114Q245 114 214 124T159 152L44 58L-10 125L107 221Q95 254 95 294Q95 309 96 325T101 357Q107 389 120 424T156 486L74 587L144 644L223 547Q283 584 362 584Q403 584 434 574T489
546L604 640L658 573L541 477Q553 444 553 404Q553 389 552 373T547 341Q541 309 528 274T492 212L574 111L504 54L425 151Q365 114 286 114ZM293 198Q346 198 383 228T433 319L445 379Q447 389 448 399T449 416Q449 458 424 479T355 500Q302 500 265 470T215 379L203
319Q201 309 200 299T199 282Q199 240 224 219T293 198Z" />
<glyph unicode="&#xa5;" glyph-name="yen" horiz-adv-x="608" d="M334 142L306 0H198L226 142H61L76 218H242L258 301H93L108 377H228L119 698H234L327 402H331L542 698H668L428 377H550L535 301H366L350 218H518L503 142H334Z" />
<glyph unicode="&#xa6;" glyph-name="brokenbar" horiz-adv-x="344" d="M155 404L227 760H318L247 404H155ZM47 -138L119 218H210L139 -138H47Z" />
<glyph unicode="&#xa7;" glyph-name="section" horiz-adv-x="556" d="M417 30Q417 -12 401 -47T355 -106T287 -144T201 -158Q147 -158 100 -142T20 -92L85 -28Q105 -51 137 -63T211 -76Q255 -76 286 -51T318 15Q318 44 301 63T244 95L181 115Q115 136 88 169T61
246Q61 305 96 346T194 403L196 412Q167 435 155 463T142 524Q142 566 158 600T204 659T272 696T358 710Q412 710 459 694T539 643L474 580Q432 628 348 628Q326 628 307 622T273 604T250 576T241 540Q241 511 258 492T315 460L378 440Q444 419 471 385T499 308Q499
250 464 209T365 152L364 142Q392 120 404 92T417 30ZM401 272Q401 306 383 327T320 362L257 381Q242 386 232 392Q194 372 176 344T158 283Q158 248 176 228T239 193L302 173Q310 171 316 169T328 163Q365 183 383 211T401 272Z" />
<glyph unicode="&#xa8;" glyph-name="dieresis" horiz-adv-x="589" d="M212 610Q186 610 174 621T161 650Q161 658 165 681Q170 704 186 719T234 734Q285 734 285 694Q285 689 284 683T281 664Q276 640 260 625T212 610ZM401 610Q375 610 363 621T350 650Q350
658 354 681Q359 704 375 719T423 734Q474 734 474 694Q474 689 473 683T470 664Q465 640 449 625T401 610Z" />
<glyph unicode="&#xa9;" glyph-name="copyright" horiz-adv-x="778" d="M354 -12Q288 -12 235 10T143 72T84 169T63 293Q63 382 93 458T175 589T300 676T457 708Q523 708 576 686T668 624T727 528T748 405Q748 315 718 239T636 107T511 20T354 -12ZM358 48Q415
48 466 67T558 120T627 199T665 297Q672 329 676 357T680 405Q680 460 663 505T616 582T545 631T453 648Q396 648 345 629T253 576T184 497T146 401Q139 369 135 341T131 293Q131 237 148 192T195 114T266 65T358 48ZM381 145Q312 145 272 188T231 305Q231 355
246 400T288 478T352 532T435 552Q498 552 532 522T579 448L504 416Q498 443 480 458T433 474Q395 474 373 449T342 384L329 318Q326 303 326 291Q326 261 343 242T392 223Q419 223 441 239T484 284L550 243Q524 202 483 174T381 145Z" />
<glyph unicode="&#xaa;" glyph-name="ordfeminine" horiz-adv-x="412" d="M389 342H345Q290 342 290 388Q290 390 290 394T291 401H287Q271 373 242 355T173 336Q131 336 104 359T77 423Q77 483 120 514T245 546H313L317 567Q320 582 320 592Q320 643 261 643Q230
643 207 629T167 593L122 633Q145 662 182 683T272 704Q329 704 364 678T399 599Q399 591 399 583T396 565L364 406H401L389 342ZM238 497Q168 497 159 451Q157 441 157 436T156 428Q156 411 168 403T204 394Q236 394 262 410T294 456L303 497H238Z" />
<glyph unicode="&#xab;" glyph-name="guillemotleft" horiz-adv-x="526" d="M187 67L33 234L52 331L263 492L289 419L130 274L230 132L187 67ZM409 67L255 234L274 331L485 492L511 419L352 274L452 132L409 67Z" />
<glyph unicode="&#xac;" glyph-name="logicalnot" horiz-adv-x="600" d="M395 77L432 261H67L85 349H539L484 77H395Z" />
<glyph unicode="&#xad;" glyph-name="uni00AD" horiz-adv-x="391" d="M59 252L80 357H350L329 252H59Z" />
<glyph unicode="&#xae;" glyph-name="registered" horiz-adv-x="462" d="M256 297Q218 297 186 310T130 347T93 402T80 472Q80 524 97 567T144 642T215 692T303 710Q341 710 373 697T428 660T465 605T478 535Q478 483 461 440T414 365T344 315T256 297ZM261 338Q323
338 368 376T426 479Q430 499 431 514T433 536Q433 597 395 633T298 669Q236 669 191 631T133 528Q128 508 127 493T126 471Q126 409 164 374T261 338ZM231 400H183L225 609H310Q343 609 358 592T374 550Q374 526 360 506T321 480L350 400H299L274 473H246L231
400ZM289 509Q315 509 319 531Q323 548 323 552Q323 570 302 570H265L253 509H289Z" />
<glyph unicode="&#xaf;" glyph-name="overscore" horiz-adv-x="591" d="M190 714H465L448 632H173L190 714Z" />
<glyph unicode="&#xb0;" glyph-name="degree" horiz-adv-x="456" d="M263 352Q230 352 202 364T153 397T121 447T109 511Q109 554 123 590T164 653T225 695T302 710Q335 710 363 698T412 665T444 615T456 551Q456 508 442 472T401 409T340 367T263 352ZM272 428Q295
428 314 437T346 463T367 502T374 550Q374 585 353 609T293 634Q270 634 251 625T219 599T198 560T191 512Q191 477 213 453T272 428Z" />
<glyph unicode="&#xb1;" glyph-name="plusminus" horiz-adv-x="600" d="M234 166L271 352H90L107 439H288L325 625H421L384 439H563L546 352H366L329 166H234ZM21 0L38 87H493L476 0H21Z" />
<glyph unicode="&#xb2;" glyph-name="twosuperior" horiz-adv-x="339" d="M312 329H42L56 400L192 493Q228 519 248 537T273 582Q275 592 275 598Q275 618 261 628T225 639Q197 639 180 623T153 585L88 611Q106 649 140 676T231 704Q284 704 320 678T357 603Q357
576 346 554T317 513T276 478T228 447L144 391H324L312 329Z" />
<glyph unicode="&#xb3;" glyph-name="threesuperior" horiz-adv-x="336" d="M202 550Q240 550 255 564T273 593Q275 603 275 608Q275 622 262 633T226 644Q201 644 180 633T140 598L97 643Q122 671 154 687T234 704Q291 704 322 679T353 614Q353 577 329 553T265
520V518Q294 513 310 494T327 444Q327 392 287 358T174 323Q116 323 84 344T40 394L95 433Q105 411 124 398T175 384Q237 384 247 436Q249 446 249 448Q249 467 234 478T190 489H148L160 550H202Z" />
<glyph unicode="&#xb4;" glyph-name="acute" horiz-adv-x="589" d="M318 582L255 616L365 795L452 749L318 582Z" />
<glyph unicode="&#xb5;" glyph-name="mu" horiz-adv-x="576" d="M-13 -200L131 520H235L172 204Q169 190 168 176T166 151Q166 116 181 97T231 78Q281 78 320 122Q343 148 358 179T380 242L436 520H540L453 87H520L503 0H424Q389 0 369 18T349 69Q349 82 352 99L354
111H349Q318 44 286 16T209 -12Q168 -12 148 11T123 77H118L117 -70L91 -200H-13Z" />
<glyph unicode="&#xb6;" glyph-name="paragraph" horiz-adv-x="636" d="M237 285Q205 285 177 299T128 338T95 396T82 466Q82 515 100 557T152 631T229 680T326 698H652L636 616H574L420 -149H336L489 616H388L234 -149H150L237 285Z" />
<glyph unicode="&#xb7;" glyph-name="middot" horiz-adv-x="332" d="M158 229Q126 229 111 243T96 278Q96 286 97 297T101 317Q106 343 124 361T180 380Q212 380 227 366T242 331Q242 324 241 313T237 292Q232 266 214 248T158 229Z" />
<glyph unicode="&#xb8;" glyph-name="cedilla" horiz-adv-x="590" d="M274 -209Q235 -209 208 -197T169 -168L214 -123Q221 -132 236 -140T273 -149Q294 -149 307 -140T321 -115Q321 -101 308 -91T261 -77L237 -75L272 24H329L299 -59L301 -62Q309 -60 318 -59T338
-57Q363 -57 380 -70T398 -113Q398 -159 363 -184T274 -209Z" />
<glyph unicode="&#xb9;" glyph-name="onesuperior" horiz-adv-x="341" d="M65 329L77 389H172L222 640H216L131 562L88 604L191 698H309L247 389H333L321 329H65Z" />
<glyph unicode="&#xba;" glyph-name="ordmasculine" horiz-adv-x="405" d="M226 336Q164 336 127 375T89 480Q89 511 95 541Q102 575 117 604T157 656T212 691T283 704Q345 704 382 665T420 561Q420 528 414 500Q407 466 392 436T353 384T297 349T226 336ZM235
399Q271 399 295 424T327 491L339 551Q342 566 342 576Q342 606 324 624T274 642Q238 642 215 617T182 549L170 490Q167 475 167 464Q167 434 185 417T235 399Z" />
<glyph unicode="&#xbb;" glyph-name="guillemotright" horiz-adv-x="526" d="M241 140L399 284L299 426L342 492L497 325L477 228L266 67L241 140ZM19 140L177 284L77 426L120 492L275 325L255 228L44 67L19 140Z" />
<glyph unicode="&#xbc;" glyph-name="onequarter" horiz-adv-x="870" d="M65 329L77 389H172L222 640H216L131 562L88 604L191 698H309L247 389H333L321 329H65ZM101 0L731 698H821L192 0H101ZM639 0L653 72H476L489 137L695 369H785L737 129H786L774 72H726L712
0H639ZM695 282H690L554 129H664L695 282Z" />
<glyph unicode="&#xbd;" glyph-name="onehalf" horiz-adv-x="867" d="M65 329L77 389H172L222 640H216L131 562L88 604L191 698H309L247 389H333L321 329H65ZM101 0L731 698H821L192 0H101ZM778 0H508L522 71L658 164Q694 190 714 208T739 253Q741 263 741 269Q741
289 727 299T691 310Q663 310 646 294T619 256L554 282Q572 320 606 347T697 375Q750 375 786 349T823 274Q823 247 812 225T783 184T742 149T694 118L610 62H790L778 0Z" />
<glyph unicode="&#xbe;" glyph-name="threequarters" horiz-adv-x="849" d="M202 550Q240 550 255 564T273 593Q275 603 275 608Q275 622 262 633T226 644Q201 644 180 633T140 598L97 643Q122 671 154 687T234 704Q291 704 322 679T353 614Q353 577 329 553T265
520V518Q294 513 310 494T327 444Q327 392 287 358T174 323Q116 323 84 344T40 394L95 433Q105 411 124 398T175 384Q237 384 247 436Q249 446 249 448Q249 467 234 478T190 489H148L160 550H202ZM80 0L710 698H800L171 0H80ZM618 0L632 72H455L468 137L674 369H764L716
129H765L753 72H705L691 0H618ZM674 282H669L533 129H643L674 282Z" />
<glyph unicode="&#xbf;" glyph-name="questiondown" horiz-adv-x="480" d="M173 -190Q85 -190 34 -147T-17 -26Q-17 15 -2 53T42 123T111 176T199 207L219 301H320L288 141Q207 136 158 104T99 22Q97 15 96 4T95 -16Q95 -54 119 -75T186 -97Q236 -97 267 -68T318
9L405 -28Q373 -101 318 -145T173 -190ZM286 381Q254 381 239 395T224 430Q224 438 225 449T229 469Q234 495 252 513T308 532Q340 532 355 518T370 483Q370 476 369 465T365 444Q360 418 342 400T286 381Z" />
<glyph unicode="&#xc0;" glyph-name="Agrave" horiz-adv-x="638" d="M455 0L433 189H183L86 0H-30L337 698H477L565 0H455ZM391 598H384L228 283H424L391 598ZM308 918L400 961L465 778L401 749L308 918Z" />
<glyph unicode="&#xc1;" glyph-name="Aacute" horiz-adv-x="638" d="M455 0L433 189H183L86 0H-30L337 698H477L565 0H455ZM391 598H384L228 283H424L391 598ZM429 749L365 783L475 962L562 916L429 749Z" />
<glyph unicode="&#xc2;" glyph-name="Acircumflex" horiz-adv-x="638" d="M455 0L433 189H183L86 0H-30L337 698H477L565 0H455ZM391 598H384L228 283H424L391 598ZM498 944L588 794L531 752L436 867L299 751L246 794L392 944H498Z" />
<glyph unicode="&#xc3;" glyph-name="Atilde" horiz-adv-x="638" d="M455 0L433 189H183L86 0H-30L337 698H477L565 0H455ZM391 598H384L228 283H424L391 598ZM495 774Q471 774 454 782T419 798Q380 821 351 821Q335 821 322 815T292 795L258 847Q277 871 303
887T364 904Q388 904 405 897T440 880Q479 857 508 857Q525 857 537 863T567 883L601 832Q582 808 556 791T495 774Z" />
<glyph unicode="&#xc4;" glyph-name="Adieresis" horiz-adv-x="638" d="M455 0L433 189H183L86 0H-30L337 698H477L565 0H455ZM391 598H384L228 283H424L391 598ZM323 776Q297 776 285 787T272 816Q272 826 276 849Q281 872 297 887T345 902Q396 902 396 862Q396
857 395 850T392 830Q387 806 371 791T323 776ZM512 776Q486 776 474 787T461 816Q461 826 465 849Q470 872 486 887T534 902Q585 902 585 862Q585 857 584 850T581 830Q576 806 560 791T512 776Z" />
<glyph unicode="&#xc5;" glyph-name="Aring" horiz-adv-x="638" d="M455 0L433 189H183L86 0H-30L337 698H477L565 0H455ZM391 598H384L228 283H424L391 598ZM414 734Q364 734 333 765T302 843Q302 876 313 903T343 948T389 977T447 988Q497 988 528 958T559 879Q559
846 548 819T518 774T472 745T414 734ZM420 793Q446 793 461 807T481 846Q487 874 487 887Q487 907 476 918T441 929Q415 929 400 915T380 876Q377 862 376 853T374 835Q374 815 385 804T420 793Z" />
<glyph unicode="&#xc6;" glyph-name="AE" horiz-adv-x="900" d="M400 189H194L71 0H-48L418 698H928L909 602H591L551 400H835L816 304H532L490 96H822L803 0H362L400 189ZM465 605L256 283H419L483 605H465Z" />
<glyph unicode="&#xc7;" glyph-name="Ccedilla" horiz-adv-x="616" d="M392 613Q316 613 264 560T193 418L170 305Q166 288 165 274T164 246Q164 171 200 128T306 85Q372 85 411 117T481 204L571 161Q526 75 462 33T310 -12L294 -59L296 -62Q313 -57 332 -57Q358
-57 375 -70T392 -113Q392 -159 357 -184T269 -209Q229 -209 202 -197T163 -168L208 -123Q215 -132 230 -140T267 -149Q289 -149 302 -140T315 -115Q315 -101 302 -91T255 -77L231 -75L254 -9Q210 -2 174 19T111 75T71 158T56 269Q56 360 81 440T153 581T262 675T402
710Q578 710 630 546L533 504Q517 555 486 584T392 613Z" />
<glyph unicode="&#xc8;" glyph-name="Egrave" horiz-adv-x="571" d="M32 0L172 698H599L579 602H261L221 400H505L486 304H202L160 96H492L473 0H32ZM286 918L378 961L443 778L379 749L286 918Z" />
<glyph unicode="&#xc9;" glyph-name="Eacute" horiz-adv-x="571" d="M32 0L172 698H599L579 602H261L221 400H505L486 304H202L160 96H492L473 0H32ZM407 749L343 783L453 962L540 916L407 749Z" />
<glyph unicode="&#xca;" glyph-name="Ecircumflex" horiz-adv-x="571" d="M32 0L172 698H599L579 602H261L221 400H505L486 304H202L160 96H492L473 0H32ZM476 944L566 794L509 752L414 867L277 751L224 794L370 944H476Z" />
<glyph unicode="&#xcb;" glyph-name="Edieresis" horiz-adv-x="571" d="M32 0L172 698H599L579 602H261L221 400H505L486 304H202L160 96H492L473 0H32ZM301 776Q275 776 263 787T250 816Q250 826 254 849Q259 872 275 887T323 902Q374 902 374 862Q374 857 373
850T370 830Q365 806 349 791T301 776ZM490 776Q464 776 452 787T439 816Q439 826 443 849Q448 872 464 887T512 902Q563 902 563 862Q563 857 562 850T559 830Q554 806 538 791T490 776Z" />
<glyph unicode="&#xcc;" glyph-name="Igrave" horiz-adv-x="398" d="M3 0L21 90H111L215 608H125L143 698H431L413 608H323L219 90H309L291 0H3ZM447 918L539 961L604 778L540 749L447 918Z" />
<glyph unicode="&#xcd;" glyph-name="Iacute" horiz-adv-x="398" d="M3 0L21 90H111L215 608H125L143 698H431L413 608H323L219 90H309L291 0H3ZM568 749L504 783L614 962L701 916L568 749Z" />
<glyph unicode="&#xce;" glyph-name="Icircumflex" horiz-adv-x="398" d="M3 0L21 90H111L215 608H125L143 698H431L413 608H323L219 90H309L291 0H3ZM637 944L727 794L670 752L575 867L438 751L385 794L531 944H637Z" />
<glyph unicode="&#xcf;" glyph-name="Idieresis" horiz-adv-x="398" d="M3 0L21 90H111L215 608H125L143 698H431L413 608H323L219 90H309L291 0H3ZM462 776Q436 776 424 787T411 816Q411 826 415 849Q420 872 436 887T484 902Q535 902 535 862Q535 857 534 850T531
830Q526 806 510 791T462 776ZM651 776Q625 776 613 787T600 816Q600 826 604 849Q609 872 625 887T673 902Q724 902 724 862Q724 857 723 850T720 830Q715 806 699 791T651 776Z" />
<glyph unicode="&#xd0;" glyph-name="Eth" horiz-adv-x="669" d="M100 319H25L42 403H117L176 698H389Q506 698 573 631T640 431Q640 345 617 267T548 130T436 35T284 0H36L100 319ZM291 97Q372 97 427 146T503 292L523 392Q526 409 527 425T529 454Q529 529 492
565T390 601H265L226 403H350L333 319H209L164 97H291Z" />
<glyph unicode="&#xd1;" glyph-name="Ntilde" horiz-adv-x="691" d="M298 385L249 540H243L135 0H32L172 698H292L428 313L477 158H483L591 698H694L554 0H434L298 385ZM525 774Q501 774 484 782T449 798Q410 821 381 821Q365 821 352 815T322 795L288 847Q307
871 333 887T394 904Q418 904 435 897T470 880Q509 857 538 857Q555 857 567 863T597 883L631 832Q612 808 586 791T525 774Z" />
<glyph unicode="&#xd2;" glyph-name="Ograve" horiz-adv-x="687" d="M303 -12Q252 -12 207 5T129 56T76 143T56 265Q56 353 81 433T152 575T265 673T412 710Q463 710 508 693T587 642T640 555T660 433Q660 345 635 265T563 123T450 25T303 -12ZM313 85Q397 85
450 138T523 290L545 396Q549 413 550 429T551 458Q551 531 513 572T404 613Q321 613 267 559T192 406L171 302Q167 284 166 269T165 240Q165 167 203 126T313 85ZM325 918L417 961L482 778L418 749L325 918Z" />
<glyph unicode="&#xd3;" glyph-name="Oacute" horiz-adv-x="687" d="M303 -12Q252 -12 207 5T129 56T76 143T56 265Q56 353 81 433T152 575T265 673T412 710Q463 710 508 693T587 642T640 555T660 433Q660 345 635 265T563 123T450 25T303 -12ZM313 85Q397 85
450 138T523 290L545 396Q549 413 550 429T551 458Q551 531 513 572T404 613Q321 613 267 559T192 406L171 302Q167 284 166 269T165 240Q165 167 203 126T313 85ZM446 749L382 783L492 962L579 916L446 749Z" />
<glyph unicode="&#xd4;" glyph-name="Ocircumflex" horiz-adv-x="687" d="M303 -12Q252 -12 207 5T129 56T76 143T56 265Q56 353 81 433T152 575T265 673T412 710Q463 710 508 693T587 642T640 555T660 433Q660 345 635 265T563 123T450 25T303 -12ZM313 85Q397
85 450 138T523 290L545 396Q549 413 550 429T551 458Q551 531 513 572T404 613Q321 613 267 559T192 406L171 302Q167 284 166 269T165 240Q165 167 203 126T313 85ZM515 944L605 794L548 752L453 867L316 751L263 794L409 944H515Z" />
<glyph unicode="&#xd5;" glyph-name="Otilde" horiz-adv-x="687" d="M303 -12Q252 -12 207 5T129 56T76 143T56 265Q56 353 81 433T152 575T265 673T412 710Q463 710 508 693T587 642T640 555T660 433Q660 345 635 265T563 123T450 25T303 -12ZM313 85Q397 85
450 138T523 290L545 396Q549 413 550 429T551 458Q551 531 513 572T404 613Q321 613 267 559T192 406L171 302Q167 284 166 269T165 240Q165 167 203 126T313 85ZM512 774Q488 774 471 782T436 798Q397 821 368 821Q352 821 339 815T309 795L275 847Q294 871 320
887T381 904Q405 904 422 897T457 880Q496 857 525 857Q542 857 554 863T584 883L618 832Q599 808 573 791T512 774Z" />
<glyph unicode="&#xd6;" glyph-name="Odieresis" horiz-adv-x="687" d="M303 -12Q252 -12 207 5T129 56T76 143T56 265Q56 353 81 433T152 575T265 673T412 710Q463 710 508 693T587 642T640 555T660 433Q660 345 635 265T563 123T450 25T303 -12ZM313 85Q397
85 450 138T523 290L545 396Q549 413 550 429T551 458Q551 531 513 572T404 613Q321 613 267 559T192 406L171 302Q167 284 166 269T165 240Q165 167 203 126T313 85ZM340 776Q314 776 302 787T289 816Q289 826 293 849Q298 872 314 887T362 902Q413 902 413 862Q413
857 412 850T409 830Q404 806 388 791T340 776ZM529 776Q503 776 491 787T478 816Q478 826 482 849Q487 872 503 887T551 902Q602 902 602 862Q602 857 601 850T598 830Q593 806 577 791T529 776Z" />
<glyph unicode="&#xd7;" glyph-name="multiply" horiz-adv-x="600" d="M302 240L124 85L69 153L248 310L131 464L203 525L319 371L497 525L552 457L373 301L489 147L417 86L302 240Z" />
<glyph unicode="&#xd8;" glyph-name="Oslash" horiz-adv-x="687" d="M302 -12Q257 -12 217 1T145 41L65 -52L3 2L92 106Q75 138 66 177T56 265Q56 353 81 433T153 575T266 673T413 710Q458 710 498 697T570 657L650 750L712 696L623 592Q640 560 649 521T659 433Q659
345 634 265T562 123T449 25T302 -12ZM169 301Q165 284 164 268T162 238Q162 209 169 187L508 577Q469 614 404 614Q320 614 265 560T190 405L169 301ZM311 84Q395 84 450 138T525 293L546 397Q550 414 551 430T553 460Q553 489 546 511L207 121Q246 84 311 84Z"
/>
<glyph unicode="&#xd9;" glyph-name="Ugrave" horiz-adv-x="665" d="M276 698L191 272Q187 253 185 237T182 204Q182 147 212 116T299 85Q372 85 415 129T478 275L563 698H671L587 277Q571 199 547 145T488 55T404 4T292 -12Q189 -12 134 42T78 200Q78 222 80
245T88 298L168 698H276ZM319 918L411 961L476 778L412 749L319 918Z" />
<glyph unicode="&#xda;" glyph-name="Uacute" horiz-adv-x="665" d="M276 698L191 272Q187 253 185 237T182 204Q182 147 212 116T299 85Q372 85 415 129T478 275L563 698H671L587 277Q571 199 547 145T488 55T404 4T292 -12Q189 -12 134 42T78 200Q78 222 80
245T88 298L168 698H276ZM440 749L376 783L486 962L573 916L440 749Z" />
<glyph unicode="&#xdb;" glyph-name="Ucircumflex" horiz-adv-x="665" d="M276 698L191 272Q187 253 185 237T182 204Q182 147 212 116T299 85Q372 85 415 129T478 275L563 698H671L587 277Q571 199 547 145T488 55T404 4T292 -12Q189 -12 134 42T78 200Q78 222
80 245T88 298L168 698H276ZM509 944L599 794L542 752L447 867L310 751L257 794L403 944H509Z" />
<glyph unicode="&#xdc;" glyph-name="Udieresis" horiz-adv-x="665" d="M276 698L191 272Q187 253 185 237T182 204Q182 147 212 116T299 85Q372 85 415 129T478 275L563 698H671L587 277Q571 199 547 145T488 55T404 4T292 -12Q189 -12 134 42T78 200Q78 222
80 245T88 298L168 698H276ZM334 776Q308 776 296 787T283 816Q283 826 287 849Q292 872 308 887T356 902Q407 902 407 862Q407 857 406 850T403 830Q398 806 382 791T334 776ZM523 776Q497 776 485 787T472 816Q472 826 476 849Q481 872 497 887T545 902Q596 902
596 862Q596 857 595 850T592 830Q587 806 571 791T523 776Z" />
<glyph unicode="&#xdd;" glyph-name="Yacute" horiz-adv-x="597" d="M191 0L246 272L99 698H209L316 377H321L550 698H672L353 267L299 0H191ZM397 749L333 783L443 962L530 916L397 749Z" />
<glyph unicode="&#xde;" glyph-name="Thorn" horiz-adv-x="606" d="M31 0L171 698H280L253 564H400Q498 564 545 516T593 389Q593 336 575 292T525 215T446 164T344 145H168L139 0H31ZM189 242H358Q401 242 430 264T469 330Q476 361 478 374T481 399Q481 429 463
448T399 467H233L189 242Z" />
<glyph unicode="&#xdf;" glyph-name="germandbls" horiz-adv-x="653" d="M604 169Q604 131 590 98T551 41T490 2T410 -12Q349 -12 300 10T223 75L291 135Q335 73 412 73Q454 73 479 95T505 156Q505 181 494 194T451 221L412 237Q391 245 373 255T341 279T319 314T311
364Q311 396 324 424T363 474T424 509T506 525L507 531Q509 544 510 555T512 577Q512 622 486 644T408 667Q345 667 308 637T255 529L149 0H45L132 433H52L69 520H150L152 530Q174 640 243 696T417 752Q462 752 498 740T559 706T599 652T613 582Q613 549 606 515L593
449H535Q472 449 441 431T410 379Q410 356 422 341T464 314L503 298Q525 289 543 279T575 253T596 218T604 169Z" />
<glyph unicode="&#xe0;" glyph-name="agrave" d="M434 0Q399 0 379 18T358 68Q358 85 361 97L365 116H361Q329 52 291 20T192 -12Q120 -12 81 40T42 179Q42 247 59 311T108 424T187 502T291 532Q342 532 379 506T424 433H429L446 520H550L463 87H530L513 0H434ZM232
77Q264 77 288 91T333 127Q376 173 390 243L411 348Q414 365 409 382T391 412T358 434T311 443Q253 443 218 408T169 303L154 230Q152 218 151 203T149 176Q149 132 169 105T232 77ZM232 750L325 794L389 611L325 582L232 750Z" />
<glyph unicode="&#xe1;" glyph-name="aacute" d="M434 0Q399 0 379 18T358 68Q358 85 361 97L365 116H361Q329 52 291 20T192 -12Q120 -12 81 40T42 179Q42 247 59 311T108 424T187 502T291 532Q342 532 379 506T424 433H429L446 520H550L463 87H530L513 0H434ZM232
77Q264 77 288 91T333 127Q376 173 390 243L411 348Q414 365 409 382T391 412T358 434T311 443Q253 443 218 408T169 303L154 230Q152 218 151 203T149 176Q149 132 169 105T232 77ZM359 582L296 616L406 795L493 749L359 582Z" />
<glyph unicode="&#xe2;" glyph-name="acircumflex" d="M434 0Q399 0 379 18T358 68Q358 85 361 97L365 116H361Q329 52 291 20T192 -12Q120 -12 81 40T42 179Q42 247 59 311T108 424T187 502T291 532Q342 532 379 506T424 433H429L446 520H550L463 87H530L513
0H434ZM232 77Q264 77 288 91T333 127Q376 173 390 243L411 348Q414 365 409 382T391 412T358 434T311 443Q253 443 218 408T169 303L154 230Q152 218 151 203T149 176Q149 132 169 105T232 77ZM426 778L516 628L459 585L364 701L227 586L175 629L320 778H426Z"
/>
<glyph unicode="&#xe3;" glyph-name="atilde" d="M434 0Q399 0 379 18T358 68Q358 85 361 97L365 116H361Q329 52 291 20T192 -12Q120 -12 81 40T42 179Q42 247 59 311T108 424T187 502T291 532Q342 532 379 506T424 433H429L446 520H550L463 87H530L513 0H434ZM232
77Q264 77 288 91T333 127Q376 173 390 243L411 348Q414 365 409 382T391 412T358 434T311 443Q253 443 218 408T169 303L154 230Q152 218 151 203T149 176Q149 132 169 105T232 77ZM424 607Q400 607 383 614T349 631Q310 654 281 654Q264 654 252 648T222 628L187
679Q207 703 232 719T293 736Q317 736 334 729T368 713Q407 690 436 690Q453 690 465 696T495 716L530 664Q510 640 485 624T424 607Z" />
<glyph unicode="&#xe4;" glyph-name="adieresis" d="M434 0Q399 0 379 18T358 68Q358 85 361 97L365 116H361Q329 52 291 20T192 -12Q120 -12 81 40T42 179Q42 247 59 311T108 424T187 502T291 532Q342 532 379 506T424 433H429L446 520H550L463 87H530L513 0H434ZM232
77Q264 77 288 91T333 127Q376 173 390 243L411 348Q414 365 409 382T391 412T358 434T311 443Q253 443 218 408T169 303L154 230Q152 218 151 203T149 176Q149 132 169 105T232 77ZM253 610Q227 610 215 621T202 650Q202 658 206 681Q211 704 227 719T275 734Q326
734 326 694Q326 689 325 683T322 664Q317 640 301 625T253 610ZM442 610Q416 610 404 621T391 650Q391 658 395 681Q400 704 416 719T464 734Q515 734 515 694Q515 689 514 683T511 664Q506 640 490 625T442 610Z" />
<glyph unicode="&#xe5;" glyph-name="aring" d="M434 0Q399 0 379 18T358 68Q358 85 361 97L365 116H361Q329 52 291 20T192 -12Q120 -12 81 40T42 179Q42 247 59 311T108 424T187 502T291 532Q342 532 379 506T424 433H429L446 520H550L463 87H530L513 0H434ZM232
77Q264 77 288 91T333 127Q376 173 390 243L411 348Q414 365 409 382T391 412T358 434T311 443Q253 443 218 408T169 303L154 230Q152 218 151 203T149 176Q149 132 169 105T232 77ZM343 568Q293 568 262 599T231 677Q231 710 242 737T272 782T318 811T376 822Q426
822 457 792T488 713Q488 680 477 653T447 608T401 579T343 568ZM349 627Q375 627 390 641T410 680Q416 708 416 721Q416 741 405 752T370 763Q344 763 329 749T309 710Q306 696 305 687T303 669Q303 649 314 638T349 627Z" />
<glyph unicode="&#xe6;" glyph-name="ae" horiz-adv-x="814" d="M204 70Q226 70 247 76T286 93T316 119T332 154L346 224L255 220Q208 218 176 207T135 161Q131 145 131 137T130 125Q130 99 149 85T204 70ZM615 449Q557 449 519 413T467 314L462 292Q533 295 577
302T647 320T682 346T692 381Q692 402 685 415T667 436T642 446T615 449ZM174 -12Q101 -12 62 23T23 123Q23 278 260 287L360 291L368 336Q371 352 371 365Q371 444 277 444Q230 444 201 425T147 373L85 433Q116 478 168 505T288 532Q348 532 384 509T438 445H445Q477
486 521 509T621 532Q651 532 682 525T738 500T779 456T795 391Q795 307 710 267T450 223Q447 200 447 179Q447 134 473 105T557 76Q600 76 635 95T702 154L768 99Q719 38 665 13T549 -12Q479 -12 433 15T365 93H358Q330 39 282 14T174 -12Z" />
<glyph unicode="&#xe7;" glyph-name="ccedilla" horiz-adv-x="490" d="M305 532Q377 532 423 497T483 405L396 370Q385 405 364 424T300 444Q246 444 213 410T166 313L149 227Q144 202 144 183Q144 135 169 106T246 76Q284 76 311 98T366 169L446 131Q384 1 258
-11L241 -59L243 -62Q251 -60 259 -59T279 -57Q305 -57 322 -70T340 -113Q340 -159 305 -184T216 -209Q177 -209 150 -197T111 -168L156 -123Q163 -132 178 -140T215 -149Q236 -149 249 -140T262 -115Q262 -101 250 -91T203 -77L178 -75L201 -10Q129 0 85 54T41
206Q41 274 60 333T114 437T197 506T305 532Z" />
<glyph unicode="&#xe8;" glyph-name="egrave" horiz-adv-x="512" d="M248 -12Q147 -12 95 45T42 208Q42 272 61 330T117 434T204 505T318 532Q349 532 380 524T437 499T477 455T493 390Q493 307 410 263T148 215Q145 195 145 182Q145 134 171 105T255 76Q298 76
333 95T400 154L466 99Q417 38 363 13T248 -12ZM310 449Q256 449 217 413T165 314L160 288Q231 291 276 298T346 317T381 346T390 385Q390 404 383 416T365 436T339 446T310 449ZM222 750L315 794L379 611L315 582L222 750Z" />
<glyph unicode="&#xe9;" glyph-name="eacute" horiz-adv-x="512" d="M248 -12Q147 -12 95 45T42 208Q42 272 61 330T117 434T204 505T318 532Q349 532 380 524T437 499T477 455T493 390Q493 307 410 263T148 215Q145 195 145 182Q145 134 171 105T255 76Q298 76
333 95T400 154L466 99Q417 38 363 13T248 -12ZM310 449Q256 449 217 413T165 314L160 288Q231 291 276 298T346 317T381 346T390 385Q390 404 383 416T365 436T339 446T310 449ZM349 582L286 616L396 795L483 749L349 582Z" />
<glyph unicode="&#xea;" glyph-name="ecircumflex" horiz-adv-x="512" d="M248 -12Q147 -12 95 45T42 208Q42 272 61 330T117 434T204 505T318 532Q349 532 380 524T437 499T477 455T493 390Q493 307 410 263T148 215Q145 195 145 182Q145 134 171 105T255 76Q298
76 333 95T400 154L466 99Q417 38 363 13T248 -12ZM310 449Q256 449 217 413T165 314L160 288Q231 291 276 298T346 317T381 346T390 385Q390 404 383 416T365 436T339 446T310 449ZM416 778L506 628L449 585L354 701L217 586L165 629L310 778H416Z" />
<glyph unicode="&#xeb;" glyph-name="edieresis" horiz-adv-x="512" d="M248 -12Q147 -12 95 45T42 208Q42 272 61 330T117 434T204 505T318 532Q349 532 380 524T437 499T477 455T493 390Q493 307 410 263T148 215Q145 195 145 182Q145 134 171 105T255 76Q298
76 333 95T400 154L466 99Q417 38 363 13T248 -12ZM310 449Q256 449 217 413T165 314L160 288Q231 291 276 298T346 317T381 346T390 385Q390 404 383 416T365 436T339 446T310 449ZM243 610Q217 610 205 621T192 650Q192 658 196 681Q201 704 217 719T265 734Q316
734 316 694Q316 689 315 683T312 664Q307 640 291 625T243 610ZM432 610Q406 610 394 621T381 650Q381 658 385 681Q390 704 406 719T454 734Q505 734 505 694Q505 689 504 683T501 664Q496 640 480 625T432 610Z" />
<glyph unicode="&#xec;" glyph-name="igrave" horiz-adv-x="271" d="M121 0Q83 0 63 19T43 71Q43 76 43 82T45 93L131 520H235L148 87H215L198 0H121ZM343 750L436 794L500 611L436 582L343 750Z" />
<glyph unicode="&#xed;" glyph-name="iacute" horiz-adv-x="271" d="M121 0Q83 0 63 19T43 71Q43 76 43 82T45 93L131 520H235L148 87H215L198 0H121ZM470 582L407 616L517 795L604 749L470 582Z" />
<glyph unicode="&#xee;" glyph-name="icircumflex" horiz-adv-x="271" d="M121 0Q83 0 63 19T43 71Q43 76 43 82T45 93L131 520H235L148 87H215L198 0H121ZM537 778L627 628L570 585L475 701L338 586L286 629L431 778H537Z" />
<glyph unicode="&#xef;" glyph-name="idieresis" horiz-adv-x="271" d="M121 0Q83 0 63 19T43 71Q43 76 43 82T45 93L131 520H235L148 87H215L198 0H121ZM364 610Q338 610 326 621T313 650Q313 658 317 681Q322 704 338 719T386 734Q437 734 437 694Q437 689 436
683T433 664Q428 640 412 625T364 610ZM553 610Q527 610 515 621T502 650Q502 658 506 681Q511 704 527 719T575 734Q626 734 626 694Q626 689 625 683T622 664Q617 640 601 625T553 610Z" />
<glyph unicode="&#xf0;" glyph-name="eth" horiz-adv-x="567" d="M429 649Q470 595 495 521T521 351Q521 263 499 195T439 81T350 12T239 -12Q145 -12 93 46T41 204Q41 265 59 319T110 414T185 478T278 502Q331 502 365 477T413 407L420 408Q413 461 394 510T345
601L248 545L219 597L306 648Q279 677 250 700T191 740H340Q352 730 364 719T389 695L484 752L514 699L429 649ZM250 73Q302 73 337 111T387 213L399 270Q401 282 402 292T404 313Q404 362 376 389T299 417Q247 417 212 379T162 277L150 220Q148 208 147 198T145
177Q145 128 173 101T250 73Z" />
<glyph unicode="&#xf1;" glyph-name="ntilde" horiz-adv-x="573" d="M27 0L131 520H235L213 409H218Q247 469 286 500T383 532Q448 532 480 495T513 392Q513 375 511 359T505 322L458 87H521L504 0H425Q392 0 373 17T353 66Q353 72 353 76T355 90L400 315Q406
345 406 370Q406 405 390 423T338 442Q286 442 247 398Q225 374 209 343T187 280L131 0H27ZM433 607Q409 607 392 614T358 631Q319 654 290 654Q273 654 261 648T231 628L196 679Q216 703 241 719T302 736Q326 736 343 729T377 713Q416 690 445 690Q462 690 474
696T504 716L539 664Q519 640 494 624T433 607Z" />
<glyph unicode="&#xf2;" glyph-name="ograve" horiz-adv-x="548" d="M238 -12Q150 -12 96 43T42 203Q42 270 62 330T117 435T202 506T310 532Q398 532 452 477T506 317Q506 249 486 190T431 85T346 14T238 -12ZM246 76Q295 76 331 112T382 217L399 300Q401 308
402 318T403 339Q403 387 378 415T302 444Q253 444 217 408T166 303L149 220Q147 211 146 202T145 181Q145 133 170 105T246 76ZM218 750L311 794L375 611L311 582L218 750Z" />
<glyph unicode="&#xf3;" glyph-name="oacute" horiz-adv-x="548" d="M238 -12Q150 -12 96 43T42 203Q42 270 62 330T117 435T202 506T310 532Q398 532 452 477T506 317Q506 249 486 190T431 85T346 14T238 -12ZM246 76Q295 76 331 112T382 217L399 300Q401 308
402 318T403 339Q403 387 378 415T302 444Q253 444 217 408T166 303L149 220Q147 211 146 202T145 181Q145 133 170 105T246 76ZM345 582L282 616L392 795L479 749L345 582Z" />
<glyph unicode="&#xf4;" glyph-name="ocircumflex" horiz-adv-x="548" d="M238 -12Q150 -12 96 43T42 203Q42 270 62 330T117 435T202 506T310 532Q398 532 452 477T506 317Q506 249 486 190T431 85T346 14T238 -12ZM246 76Q295 76 331 112T382 217L399 300Q401
308 402 318T403 339Q403 387 378 415T302 444Q253 444 217 408T166 303L149 220Q147 211 146 202T145 181Q145 133 170 105T246 76ZM412 778L502 628L445 585L350 701L213 586L161 629L306 778H412Z" />
<glyph unicode="&#xf5;" glyph-name="otilde" horiz-adv-x="548" d="M238 -12Q150 -12 96 43T42 203Q42 270 62 330T117 435T202 506T310 532Q398 532 452 477T506 317Q506 249 486 190T431 85T346 14T238 -12ZM246 76Q295 76 331 112T382 217L399 300Q401 308
402 318T403 339Q403 387 378 415T302 444Q253 444 217 408T166 303L149 220Q147 211 146 202T145 181Q145 133 170 105T246 76ZM410 607Q386 607 369 614T335 631Q296 654 267 654Q250 654 238 648T208 628L173 679Q193 703 218 719T279 736Q303 736 320 729T354
713Q393 690 422 690Q439 690 451 696T481 716L516 664Q496 640 471 624T410 607Z" />
<glyph unicode="&#xf6;" glyph-name="odieresis" horiz-adv-x="548" d="M238 -12Q150 -12 96 43T42 203Q42 270 62 330T117 435T202 506T310 532Q398 532 452 477T506 317Q506 249 486 190T431 85T346 14T238 -12ZM246 76Q295 76 331 112T382 217L399 300Q401
308 402 318T403 339Q403 387 378 415T302 444Q253 444 217 408T166 303L149 220Q147 211 146 202T145 181Q145 133 170 105T246 76ZM239 610Q213 610 201 621T188 650Q188 658 192 681Q197 704 213 719T261 734Q312 734 312 694Q312 689 311 683T308 664Q303 640
287 625T239 610ZM428 610Q402 610 390 621T377 650Q377 658 381 681Q386 704 402 719T450 734Q501 734 501 694Q501 689 500 683T497 664Q492 640 476 625T428 610Z" />
<glyph unicode="&#xf7;" glyph-name="divide" horiz-adv-x="600" d="M72 262L90 350H546L528 262H72ZM260 42Q226 42 213 54T199 85Q199 92 200 102T203 120Q209 148 227 163T281 179Q315 179 328 167T342 135Q342 128 341 118T338 100Q332 73 314 58T260 42ZM337
431Q303 431 290 443T276 475Q276 482 277 492T280 510Q286 537 304 552T358 568Q392 568 405 556T419 525Q419 518 418 508T415 490Q409 462 391 447T337 431Z" />
<glyph unicode="&#xf8;" glyph-name="oslash" horiz-adv-x="548" d="M-24 7L62 96Q42 139 42 203Q42 270 62 330T117 435T202 506T310 532Q390 532 443 484L518 562L571 513L485 424Q506 379 506 317Q506 249 486 190T431 85T346 14T237 -12Q157 -12 104 36L29
-42L-24 7ZM245 74Q295 74 333 110T385 217Q393 255 397 280T402 312Q404 328 402 341L169 106Q196 74 245 74ZM302 446Q253 446 216 410T164 303Q156 265 152 240T147 207Q146 194 147 179L378 414Q351 446 302 446Z" />
<glyph unicode="&#xf9;" glyph-name="ugrave" horiz-adv-x="570" d="M229 520L166 204Q163 190 162 176T160 151Q160 116 175 97T225 78Q275 78 314 122Q337 148 352 179T374 242L430 520H534L447 87H514L497 0H417Q382 0 363 18T343 69Q343 82 346 99L348 111H343Q314
51 276 20T182 -12Q118 -12 86 25T53 128Q53 145 55 162T61 199L125 520H229ZM231 750L324 794L388 611L324 582L231 750Z" />
<glyph unicode="&#xfa;" glyph-name="uacute" horiz-adv-x="570" d="M229 520L166 204Q163 190 162 176T160 151Q160 116 175 97T225 78Q275 78 314 122Q337 148 352 179T374 242L430 520H534L447 87H514L497 0H417Q382 0 363 18T343 69Q343 82 346 99L348 111H343Q314
51 276 20T182 -12Q118 -12 86 25T53 128Q53 145 55 162T61 199L125 520H229ZM358 582L295 616L405 795L492 749L358 582Z" />
<glyph unicode="&#xfb;" glyph-name="ucircumflex" horiz-adv-x="570" d="M229 520L166 204Q163 190 162 176T160 151Q160 116 175 97T225 78Q275 78 314 122Q337 148 352 179T374 242L430 520H534L447 87H514L497 0H417Q382 0 363 18T343 69Q343 82 346 99L348
111H343Q314 51 276 20T182 -12Q118 -12 86 25T53 128Q53 145 55 162T61 199L125 520H229ZM425 778L515 628L458 585L363 701L226 586L174 629L319 778H425Z" />
<glyph unicode="&#xfc;" glyph-name="udieresis" horiz-adv-x="570" d="M229 520L166 204Q163 190 162 176T160 151Q160 116 175 97T225 78Q275 78 314 122Q337 148 352 179T374 242L430 520H534L447 87H514L497 0H417Q382 0 363 18T343 69Q343 82 346 99L348
111H343Q314 51 276 20T182 -12Q118 -12 86 25T53 128Q53 145 55 162T61 199L125 520H229ZM252 610Q226 610 214 621T201 650Q201 658 205 681Q210 704 226 719T274 734Q325 734 325 694Q325 689 324 683T321 664Q316 640 300 625T252 610ZM441 610Q415 610 403
621T390 650Q390 658 394 681Q399 704 415 719T463 734Q514 734 514 694Q514 689 513 683T510 664Q505 640 489 625T441 610Z" />
<glyph unicode="&#xfd;" glyph-name="yacute" horiz-adv-x="495" d="M425 520H536L198 -103Q184 -129 171 -147T141 -177T103 -194T55 -200H-24L-7 -114H88L137 -22L58 520H160L191 289L210 98H215L306 289L425 520ZM318 582L255 616L365 795L452 749L318 582Z" />
<glyph unicode="&#xfe;" glyph-name="thorn" horiz-adv-x="578" d="M175 740H279L212 404H216Q248 468 286 500T385 532Q457 532 496 480T535 341Q535 273 518 209T469 96T390 18T286 -12Q235 -12 198 14T153 87H148L91 -200H-13L175 740ZM267 77Q324 77 359 112T408
217L423 290Q425 302 426 316T428 344Q428 387 407 415T344 443Q312 443 288 429T244 393Q223 370 209 342T187 278L168 183Q159 138 184 108T267 77Z" />
<glyph unicode="&#xff;" glyph-name="ydieresis" horiz-adv-x="495" d="M425 520H536L198 -103Q184 -129 171 -147T141 -177T103 -194T55 -200H-24L-7 -114H88L137 -22L58 520H160L191 289L210 98H215L306 289L425 520ZM212 610Q186 610 174 621T161 650Q161 658
165 681Q170 704 186 719T234 734Q285 734 285 694Q285 689 284 683T281 664Q276 640 260 625T212 610ZM401 610Q375 610 363 621T350 650Q350 658 354 681Q359 704 375 719T423 734Q474 734 474 694Q474 689 473 683T470 664Q465 640 449 625T401 610Z" />
<glyph unicode="&#x2013;" glyph-name="endash" horiz-adv-x="573" d="M35 259L53 349H555L537 259H35Z" />
<glyph unicode="&#x2014;" glyph-name="emdash" horiz-adv-x="759" d="M35 259L53 349H741L723 259H35Z" />
<glyph unicode="&#x2018;" glyph-name="quoteleft" horiz-adv-x="279" d="M180 469Q148 469 133 483T118 520Q118 527 119 537T123 556Q134 603 164 655T249 746H332Q293 714 267 683T222 615Q263 606 263 569Q263 562 262 552T258 532Q252 505 235 487T180 469Z" />
<glyph unicode="&#x2019;" glyph-name="quoteright" horiz-adv-x="279" d="M235 750Q267 750 282 736T297 699Q297 692 296 682T292 663Q281 616 251 564T166 473H83Q122 505 148 536T193 604Q152 613 152 650Q152 657 153 667T157 687Q163 714 180 732T235 750Z" />
<glyph unicode="&#x201a;" glyph-name="quotesinglbase" horiz-adv-x="280" d="M112 155Q144 155 159 141T174 104Q174 97 173 87T169 68Q158 21 128 -31T43 -122H-40Q-1 -90 25 -59T70 9Q29 18 29 55Q29 62 30 72T34 92Q40 119 57 137T112 155Z" />
<glyph unicode="&#x201c;" glyph-name="quotedblleft" horiz-adv-x="492" d="M180 469Q148 469 133 483T118 520Q118 527 119 537T123 556Q134 603 164 655T249 746H332Q293 714 267 683T222 615Q263 606 263 569Q263 562 262 552T258 532Q252 505 235 487T180
469ZM393 469Q361 469 346 483T331 520Q331 527 332 537T336 556Q347 603 377 655T462 746H545Q506 714 480 683T435 615Q476 606 476 569Q476 562 475 552T471 532Q465 505 448 487T393 469Z" />
<glyph unicode="&#x201d;" glyph-name="quotedblright" horiz-adv-x="492" d="M235 750Q267 750 282 736T297 699Q297 692 296 682T292 663Q281 616 251 564T166 473H83Q122 505 148 536T193 604Q152 613 152 650Q152 657 153 667T157 687Q163 714 180 732T235
750ZM448 750Q480 750 495 736T510 699Q510 692 509 682T505 663Q494 616 464 564T379 473H296Q335 505 361 536T406 604Q365 613 365 650Q365 657 366 667T370 687Q376 714 393 732T448 750Z" />
<glyph unicode="&#x201e;" glyph-name="quotedblbase" horiz-adv-x="493" d="M112 155Q144 155 159 141T174 104Q174 97 173 87T169 68Q158 21 128 -31T43 -122H-40Q-1 -90 25 -59T70 9Q29 18 29 55Q29 62 30 72T34 92Q40 119 57 137T112 155ZM325 155Q357 155
372 141T387 104Q387 97 386 87T382 68Q371 21 341 -31T256 -122H173Q212 -90 238 -59T283 9Q242 18 242 55Q242 62 243 72T247 92Q253 119 270 137T325 155Z" />
<glyph unicode="&#x2022;" glyph-name="bullet" horiz-adv-x="401" d="M188 167Q125 167 99 191T72 254Q72 260 73 275T80 313Q90 362 124 394T229 427Q291 427 318 403T345 340Q345 334 344 319T337 281Q327 232 293 200T188 167Z" />
<glyph unicode="&#x2039;" glyph-name="guilsinglleft" horiz-adv-x="304" d="M187 67L33 234L52 331L263 492L289 419L130 274L230 132L187 67Z" />
<glyph unicode="&#x203a;" glyph-name="guilsinglright" horiz-adv-x="304" d="M19 140L177 284L77 426L120 492L275 325L255 228L44 67L19 140Z" />
</font>
</defs>
</svg>
