<?xml version="1.0" standalone="no"?>
<!DOCTYPE svg PUBLIC "-//W3C//DTD SVG 1.1//EN" "http://www.w3.org/Graphics/SVG/1.1/DTD/svg11.dtd">
<svg xmlns="http://www.w3.org/2000/svg">
<defs >
<font id="IBMPlexSans" horiz-adv-x="568" ><font-face
    font-family="IBM Plex Sans Thin"
    units-per-em="1000"
    panose-1="2 11 2 3 5 2 3 0 2 3"
    ascent="1025"
    descent="-275"
    alphabetic="0" />
<glyph unicode=" " glyph-name="space" horiz-adv-x="236" />
<glyph unicode="!" glyph-name="exclam" horiz-adv-x="252" d="M120 176L115 415V698H137V415L132 176H120ZM126 -5Q99 -5 99 20V28Q99 53 126 53Q153 53 153 28V20Q153 -5 126 -5Z" />
<glyph unicode="&quot;" glyph-name="quotedbl" horiz-adv-x="373" d="M100 490V740H120V490H100ZM253 490V740H273V490H253Z" />
<glyph unicode="#" glyph-name="numbersign" horiz-adv-x="712" d="M427 220H241L203 0H182L220 220H70V239H224L261 459H109V478H264L302 698H323L285 478H471L509 698H530L492 478H642V459H488L451 239H603V220H448L410 0H389L427 220ZM430 239L468 459H282L244
239H430Z" />
<glyph unicode="$" glyph-name="dollar" horiz-adv-x="547" d="M268 -82V0Q226 1 193 10T132 34T82 69T42 114L60 127Q78 104 98 85T144 51T199 29T268 20V351L237 357Q184 367 150 384T95 423T66 473T58 530Q58 615 115 656T268 698V780H288V698Q358 695 404
669T477 603L459 590Q431 631 390 653T288 678V368L312 364Q366 355 400 337T454 296T481 244T489 185Q489 95 436 49T288 0V-82H268ZM467 184Q467 227 454 255T418 302T367 330T306 345L288 348V20Q375 23 421 64T467 184ZM80 530Q80 491 93 465T128 421T180 393T243
376L268 371V678Q179 678 130 642T80 530Z" />
<glyph unicode="%" glyph-name="percent" horiz-adv-x="882" d="M187 0L671 698H694L210 0H187ZM217 326Q188 326 163 336T118 370T87 430T75 518Q75 569 86 605T117 665T162 699T217 710Q246 710 271 700T316 666T347 606T359 518Q359 467 348 431T317 371T272
337T217 326ZM217 343Q240 343 262 352T300 380T327 429T337 502V534Q337 577 327 607T301 656T262 684T217 693Q194 693 172 684T134 656T107 607T97 534V502Q97 459 107 429T133 380T172 352T217 343ZM665 -12Q636 -12 611 -2T566 32T535 92T523 180Q523 231
534 267T565 327T610 361T665 372Q694 372 719 362T764 328T795 268T807 180Q807 129 796 93T765 33T720 -1T665 -12ZM665 5Q688 5 710 14T748 42T775 91T785 164V196Q785 239 775 269T749 318T710 346T665 355Q642 355 620 346T582 318T555 269T545 196V164Q545
121 555 91T581 42T620 14T665 5Z" />
<glyph unicode="&amp;" glyph-name="ampersand" horiz-adv-x="677" d="M497 116Q465 58 408 23T271 -12Q225 -12 188 1T125 37T84 93T70 166Q70 208 83 239T120 294T173 336T239 371Q215 397 197 419T166 463T147 507T140 554Q140 624 185 667T309 710Q346 710
375 699T426 669T458 625T469 570Q469 534 455 506T416 453T354 409T273 367L493 149Q510 190 517 242T525 351H634V331H544Q542 275 534 226T507 135L640 0H612L497 116ZM309 691Q274 691 247 681T202 654T173 614T163 564V546Q163 503 191 463T259 380Q300 399
334 418T393 460T432 506T446 560V574Q446 602 435 623T405 660T361 683T309 691ZM93 156Q93 122 106 95T143 49T199 19T271 8Q347 8 399 39T483 129L253 358Q220 342 191 325T141 287T106 239T93 176V156Z" />
<glyph unicode="&apos;" glyph-name="quotesingle" horiz-adv-x="220" d="M100 490V740H120V490H100Z" />
<glyph unicode="(" glyph-name="parenleft" horiz-adv-x="332" d="M105 311Q105 387 121 455T162 580T221 682T289 760H314Q277 727 243 682T183 581T142 461T126 328V294Q126 225 141 161T183 42T243 -59T314 -138H289Q254 -106 221 -61T163 42T121 166T105 311Z" />
<glyph unicode=")" glyph-name="parenright" horiz-adv-x="332" d="M227 311Q227 234 211 167T170 42T111 -60T43 -138H18Q55 -105 89 -60T149 41T190 161T206 294V328Q206 397 191 461T149 580T89 681T18 760H43Q78 728 111 683T169 580T211 455T227 311Z" />
<glyph unicode="*" glyph-name="asterisk" horiz-adv-x="362" d="M88 436L73 447L168 575L17 621L23 640L173 590L171 747H191L189 590L339 640L345 621L194 575L289 447L274 436L181 565L88 436Z" />
<glyph unicode="+" glyph-name="plus" horiz-adv-x="600" d="M290 62V296H62V315H290V549H311V315H539V296H311V62H290Z" />
<glyph unicode="," glyph-name="comma" horiz-adv-x="240" d="M121 53Q135 53 141 46T147 27V15Q147 -6 141 -28T125 -71T100 -112T70 -147H51Q89 -109 105 -71T125 -5Q107 -5 100 2T93 18V27Q93 38 99 45T121 53Z" />
<glyph unicode="-" glyph-name="hyphen" horiz-adv-x="395" d="M83 295V315H312V295H83Z" />
<glyph unicode="." glyph-name="period" horiz-adv-x="240" d="M120 -5Q93 -5 93 20V28Q93 53 120 53Q147 53 147 28V20Q147 -5 120 -5Z" />
<glyph unicode="/" glyph-name="slash" horiz-adv-x="313" d="M13 -151L251 740H271L33 -151H13Z" />
<glyph unicode="0" glyph-name="zero" horiz-adv-x="600" d="M300 -12Q245 -12 203 8T131 72T86 184T71 349Q71 445 86 513T130 625T202 689T300 710Q355 710 397 690T469 626T513 514T529 349Q529 253 514 185T469 73T398 9T300 -12ZM300 8Q400 8 452 85T505
317V381Q505 536 453 613T300 690Q200 690 148 613T95 381V317Q95 162 147 85T300 8Z" />
<glyph unicode="1" glyph-name="one" horiz-adv-x="600" d="M93 0V20H312V682H309L93 501L80 517L296 698H334V20H545V0H93Z" />
<glyph unicode="2" glyph-name="two" horiz-adv-x="600" d="M521 0H87V22L356 294Q407 345 434 395T462 502V532Q462 566 452 595T420 645T368 678T294 690Q216 690 172 653T107 551L87 555Q106 623 157 666T294 710Q388 710 437 659T486 516Q486 449 457 393T370
279L112 20H521V0Z" />
<glyph unicode="3" glyph-name="three" horiz-adv-x="600" d="M280 376Q318 376 349 386T403 416T438 463T451 522V546Q451 578 439 604T406 650T354 679T287 690Q217 690 177 663T113 591L95 599Q116 648 164 679T287 710Q373 710 424 663T475 536Q475 499 465
471T436 421T392 387T335 368V365Q406 356 448 311T490 187Q490 94 435 41T283 -12Q210 -12 158 14T70 95L88 106Q120 55 167 32T283 8Q323 8 357 19T415 52T452 104T466 170V198Q466 270 417 313T282 356H186V376H280Z" />
<glyph unicode="4" glyph-name="four" horiz-adv-x="600" d="M412 0V160H47V181L407 698H432V179H550V160H432V0H412ZM69 179H412V670H410L69 179Z" />
<glyph unicode="5" glyph-name="five" horiz-adv-x="600" d="M481 678H158L134 344L137 343Q167 382 207 397T304 413Q400 413 452 358T505 203Q505 153 491 113T449 46T384 3T297 -12Q224 -12 172 14T84 95L102 106Q134 55 181 32T297 8Q341 8 375 21T432 59T468
116T481 188V216Q481 295 436 344T304 393Q272 393 248 389T204 376T168 354T137 323L114 326L140 698H481V678Z" />
<glyph unicode="6" glyph-name="six" horiz-adv-x="600" d="M300 -12Q243 -12 203 6T137 57T99 132T87 226Q87 311 108 382T165 511T252 616T360 698H392Q270 622 202 529T113 311L116 310Q142 364 189 390T299 417Q347 417 386 403T453 361T496 294T511 205Q511
156 496 116T454 48T387 4T300 -12ZM299 8Q343 8 378 21T437 59T474 116T487 187V218Q487 256 474 288T437 345T378 383T299 397Q254 397 219 383T160 345T124 289T111 218V190Q111 151 124 118T161 60T220 22T299 8Z" />
<glyph unicode="7" glyph-name="seven" horiz-adv-x="600" d="M187 0L489 678H99V512H77V698H512V678L211 0H187Z" />
<glyph unicode="8" glyph-name="eight" horiz-adv-x="600" d="M300 -12Q247 -12 205 1T134 40T88 101T72 180Q72 255 113 303T226 364V368Q166 380 131 423T96 535Q96 616 151 663T300 710Q394 710 449 663T504 535Q504 467 469 424T374 368V364Q446 352 487 304T528
180Q528 136 512 101T467 41T395 2T300 -12ZM300 8Q346 8 384 20T448 53T489 103T504 169V195Q504 231 490 260T449 311T384 344T300 356Q253 356 216 344T152 311T111 261T96 195V169Q96 133 110 104T151 53T215 20T300 8ZM300 376Q382 376 431 415T480 521V545Q480
611 431 650T300 690Q218 690 169 651T120 545V521Q120 455 169 416T300 376Z" />
<glyph unicode="9" glyph-name="nine" horiz-adv-x="600" d="M516 472Q516 387 495 316T437 187T351 82T243 0H211Q333 76 401 169T490 387L487 388Q461 334 414 308T304 281Q256 281 217 295T150 337T107 404T92 493Q92 542 107 582T149 650T216 694T303 710Q360
710 400 692T466 641T504 566T516 472ZM304 301Q349 301 384 315T443 353T479 409T492 480V508Q492 547 479 580T442 638T382 676T304 690Q260 690 225 677T166 639T129 582T116 511V480Q116 442 129 410T166 353T225 315T304 301Z" />
<glyph unicode=":" glyph-name="colon" horiz-adv-x="260" d="M130 -5Q103 -5 103 20V28Q103 53 130 53Q157 53 157 28V20Q157 -5 130 -5ZM130 453Q103 453 103 478V486Q103 511 130 511Q157 511 157 486V478Q157 453 130 453Z" />
<glyph unicode=";" glyph-name="semicolon" horiz-adv-x="260" d="M131 53Q145 53 151 46T157 27V15Q157 -6 151 -28T135 -71T110 -112T80 -147H61Q99 -109 115 -71T135 -5Q117 -5 110 2T103 18V27Q103 38 109 45T131 53ZM130 453Q103 453 103 478V486Q103 511
130 511Q157 511 157 486V478Q157 453 130 453Z" />
<glyph unicode="&lt;" glyph-name="less" horiz-adv-x="600" d="M85 296V314L515 572V549L108 306V304L515 61V38L85 296Z" />
<glyph unicode="=" glyph-name="equal" horiz-adv-x="600" d="M62 385V404H538V385H62ZM62 207V226H538V207H62Z" />
<glyph unicode="&gt;" glyph-name="greater" horiz-adv-x="600" d="M85 61L492 304V306L85 549V572L515 314V296L85 38V61Z" />
<glyph unicode="?" glyph-name="question" horiz-adv-x="456" d="M198 176V349Q294 351 346 397T398 516V542Q398 608 356 649T236 691Q161 691 119 656T57 554L37 559Q57 631 106 670T236 710Q323 710 372 661T421 531Q421 443 369 391T220 330V176H198ZM209
-5Q182 -5 182 20V28Q182 53 209 53Q236 53 236 28V20Q236 -5 209 -5Z" />
<glyph unicode="@" glyph-name="at" horiz-adv-x="880" d="M676 -121H440Q363 -121 296 -93T178 -12T99 120T70 300Q70 395 98 471T177 600T295 681T442 710Q517 710 584 685T701 612T781 493T810 330Q810 276 802 228T777 145T733 90T668 69Q629 69 604 91T575
148H572Q565 134 553 120T524 94T485 76T436 69Q355 69 310 123T264 287Q264 398 309 453T436 508Q491 508 524 485T571 433H574V496H594V163Q594 130 613 109T668 87Q722 87 755 144T788 305V352Q788 429 762 491T689 598T579 667T442 692Q367 692 303 665T192
589T119 473T92 326V274Q92 190 118 121T190 2T301 -75T440 -103H676V-121ZM436 87Q463 87 488 96T532 121T562 161T574 212V362Q574 391 563 414T532 455T488 481T436 490Q363 490 325 441T286 306V268Q286 184 324 136T436 87Z" />
<glyph unicode="A" glyph-name="A" horiz-adv-x="600" d="M545 0L460 234H140L55 0H32L285 698H315L568 0H545ZM301 675H298L147 253H453L301 675Z" />
<glyph unicode="B" glyph-name="B" horiz-adv-x="615" d="M108 698H360Q435 698 476 655T518 528Q518 462 493 424T420 371V369Q486 357 518 310T550 189Q550 102 506 51T376 0H108V698ZM130 20H376Q415 20 443 32T489 65T517 112T526 168V210Q526 238 517 265T490
312T443 345T376 358H130V20ZM130 378H360Q394 378 419 388T461 417T486 458T494 507V549Q494 574 486 597T462 639T420 667T360 678H130V378Z" />
<glyph unicode="C" glyph-name="C" horiz-adv-x="610" d="M329 -12Q204 -12 137 78T70 349Q70 530 137 620T329 710Q406 710 461 671T545 567L526 558Q499 620 449 655T329 690Q219 690 157 611T94 370V328Q94 166 156 87T329 8Q404 8 454 45T531 148L550 140Q523
71 467 30T329 -12Z" />
<glyph unicode="D" glyph-name="D" horiz-adv-x="658" d="M108 698H312Q452 698 520 611T588 349Q588 175 520 88T312 0H108V698ZM313 20Q378 20 425 41T503 102T549 196T564 319V379Q564 447 549 502T504 596T426 656T313 678H130V20H313Z" />
<glyph unicode="E" glyph-name="E" horiz-adv-x="561" d="M108 0V698H489V678H130V364H477V344H130V20H489V0H108Z" />
<glyph unicode="F" glyph-name="F" horiz-adv-x="535" d="M108 0V698H481V678H130V364H467V344H130V0H108Z" />
<glyph unicode="G" glyph-name="G" horiz-adv-x="666" d="M565 114H562Q533 54 479 21T340 -12Q209 -12 140 78T70 349Q70 530 139 620T340 710Q421 710 480 671T569 567L550 558Q523 621 468 655T340 690Q225 690 160 610T94 370V328Q94 169 159 89T340 8Q385
8 425 20T497 57T546 119T564 206V312H388V332H586V0H565V114Z" />
<glyph unicode="H" glyph-name="H" horiz-adv-x="692" d="M562 344H130V0H108V698H130V364H562V698H584V0H562V344Z" />
<glyph unicode="I" glyph-name="I" horiz-adv-x="372" d="M68 0V19H175V679H68V698H304V679H197V19H304V0H68Z" />
<glyph unicode="J" glyph-name="J" horiz-adv-x="464" d="M364 698V183Q364 86 319 37T192 -12Q129 -12 83 22T22 113L41 119Q55 71 94 40T192 8Q267 8 304 53T342 183V678H96V698H364Z" />
<glyph unicode="K" glyph-name="K" horiz-adv-x="572" d="M265 387L130 239V0H108V698H130V271H132L262 413L521 698H549L280 403L552 0H526L265 387Z" />
<glyph unicode="L" glyph-name="L" horiz-adv-x="475" d="M108 0V698H130V20H455V0H108Z" />
<glyph unicode="M" glyph-name="M" horiz-adv-x="796" d="M667 673H664L398 236L132 673H129V0H108V698H141L397 278H400L655 698H688V0H667V673Z" />
<glyph unicode="N" glyph-name="N" horiz-adv-x="692" d="M132 671H129V0H108V698H140L560 27H563V698H584V0H552L132 671Z" />
<glyph unicode="O" glyph-name="O" horiz-adv-x="680" d="M340 -12Q209 -12 140 78T70 349Q70 530 139 620T340 710Q471 710 540 620T610 349Q610 168 541 78T340 -12ZM340 8Q455 8 520 88T586 328V370Q586 529 521 609T340 690Q225 690 160 610T94 370V328Q94
169 159 89T340 8Z" />
<glyph unicode="P" glyph-name="P" horiz-adv-x="594" d="M108 0V698H376Q462 698 506 647T550 510Q550 424 506 373T376 322H130V0H108ZM130 342H376Q415 342 443 354T489 387T517 433T526 489V531Q526 559 517 586T490 633T443 665T376 678H130V342Z" />
<glyph unicode="Q" glyph-name="Q" horiz-adv-x="680" d="M456 -146H359Q330 -146 330 -117V-12Q204 -8 137 82T70 349Q70 530 139 620T340 710Q471 710 540 620T610 349Q610 172 544 83T352 -12V-126H456V-146ZM340 8Q455 8 520 88T586 328V370Q586 529 521 609T340
690Q225 690 160 610T94 370V328Q94 169 159 89T340 8Z" />
<glyph unicode="R" glyph-name="R" horiz-adv-x="630" d="M130 0H108V698H376Q462 698 506 647T550 510Q550 424 506 373T374 322L566 0H541L349 322H130V0ZM376 342Q415 342 443 354T489 387T517 433T526 489V531Q526 559 517 586T490 633T443 665T376 678H130V342H376Z" />
<glyph unicode="S" glyph-name="S" horiz-adv-x="547" d="M276 -12Q232 -12 198 -4T135 20T84 56T42 102L60 115Q78 91 99 72T146 38T204 16T276 8Q367 8 417 50T467 176Q467 220 454 249T418 296T367 325T306 341L236 354Q183 364 149 381T95 423T66 475T58 534Q58
623 116 666T271 710Q349 710 398 684T477 615L459 602Q429 646 383 668T269 690Q180 690 130 652T80 534Q80 493 93 466T128 420T180 392T242 375L312 362Q366 352 400 334T454 291T481 238T489 178Q489 83 432 36T276 -12Z" />
<glyph unicode="T" glyph-name="T" horiz-adv-x="560" d="M291 678V0H269V678H17V698H543V678H291Z" />
<glyph unicode="U" glyph-name="U" horiz-adv-x="652" d="M122 698V268Q122 197 132 148T165 67T228 22T326 8Q384 8 423 22T486 67T520 147T530 268V698H552V270Q552 192 541 139T502 52T432 3T326 -12Q263 -12 220 3T150 51T112 138T100 270V698H122Z" />
<glyph unicode="V" glyph-name="V" horiz-adv-x="570" d="M270 0L30 698H54L284 25H287L517 698H540L300 0H270Z" />
<glyph unicode="W" glyph-name="W" horiz-adv-x="872" d="M216 0L30 698H54L230 31H233L420 698H452L639 31H642L819 698H842L656 0H626L437 674H434L246 0H216Z" />
<glyph unicode="X" glyph-name="X" horiz-adv-x="558" d="M530 0H504L281 335H279L54 0H28L266 354L37 698H63L278 376H280L495 698H521L293 357L530 0Z" />
<glyph unicode="Y" glyph-name="Y" horiz-adv-x="546" d="M262 0V294L21 698H46L272 320H275L501 698H525L284 294V0H262Z" />
<glyph unicode="Z" glyph-name="Z" horiz-adv-x="555" d="M527 0H39V22L482 678H62V698H506V676L63 20H527V0Z" />
<glyph unicode="[" glyph-name="bracketleft" horiz-adv-x="301" d="M108 -138V760H232V742H128V-120H232V-138H108Z" />
<glyph unicode="\" glyph-name="backslash" horiz-adv-x="313" d="M274 -151L41 740H61L294 -151H274Z" />
<glyph unicode="]" glyph-name="bracketright" horiz-adv-x="301" d="M193 760V-138H69V-120H173V742H69V760H193Z" />
<glyph unicode="^" glyph-name="asciicircum" horiz-adv-x="600" d="M514 322L301 676H299L86 322L68 332L289 698H311L532 332L514 322Z" />
<glyph unicode="_" glyph-name="underscore" horiz-adv-x="569" d="M30 -141V-123H539V-141H30Z" />
<glyph unicode="`" glyph-name="grave" horiz-adv-x="600" d="M202 739L221 751L332 597L317 587L202 739Z" />
<glyph unicode="a" glyph-name="a" horiz-adv-x="519" d="M422 0Q393 0 393 29V77H390Q371 41 333 15T224 -12Q146 -12 104 24T61 130Q61 161 70 188T102 234T160 264T251 275H393V349Q393 427 357 463T249 499Q192 499 155 477T96 404L78 412Q99 461 138 489T249
518Q332 518 373 476T414 352V19H499V0H422ZM224 7Q258 7 288 16T342 42T379 86T393 148V257H252Q163 257 124 226T84 145V115Q84 62 123 35T224 7Z" />
<glyph unicode="b" glyph-name="b" horiz-adv-x="565" d="M105 740H126V428H129Q137 444 151 460T185 489T233 510T293 518Q393 518 449 452T505 253Q505 120 449 54T293 -12Q260 -12 233 -4T186 16T151 45T129 78H126V0H105V740ZM293 7Q384 7 433 66T482 229V277Q482
380 433 439T293 499Q260 499 230 489T177 461T140 418T126 363V143Q126 113 139 88T176 45T230 17T293 7Z" />
<glyph unicode="c" glyph-name="c" horiz-adv-x="487" d="M270 -12Q170 -12 115 54T60 253Q60 385 115 451T270 518Q330 518 371 491T435 418L417 409Q393 453 359 476T270 499Q179 499 131 440T83 277V229Q83 126 131 67T270 7Q329 7 366 30T428 95L444 84Q419
41 378 15T270 -12Z" />
<glyph unicode="d" glyph-name="d" horiz-adv-x="565" d="M439 78H436Q428 61 414 45T380 17T332 -4T272 -12Q172 -12 116 54T60 253Q60 386 116 452T272 518Q305 518 332 510T379 490T414 461T436 428H439V740H460V0H439V78ZM272 7Q305 7 335 17T388 45T425 88T439
143V363Q439 393 426 418T389 461T335 489T272 499Q181 499 132 440T83 277V229Q83 126 132 67T272 7Z" />
<glyph unicode="e" glyph-name="e" horiz-adv-x="533" d="M272 -12Q172 -12 116 54T60 253Q60 384 115 451T268 518Q314 518 351 501T416 450T458 371T473 266V256H83V229Q83 126 132 67T272 7Q400 7 447 131L465 124Q442 61 394 25T272 -12ZM268 499Q179 499
131 440T83 277V275H450V279Q450 329 437 369T400 439T343 483T268 499Z" />
<glyph unicode="f" glyph-name="f" horiz-adv-x="285" d="M123 487H30V506H123V711Q123 740 152 740H260V721H144V506H260V487H144V0H123V487Z" />
<glyph unicode="g" glyph-name="g" horiz-adv-x="527" d="M501 -65Q501 -141 439 -176T262 -212Q150 -212 100 -177T50 -82Q50 -37 76 -7T149 38V41Q121 49 109 66T96 108Q96 143 122 163T181 194V197Q138 216 114 254T90 349Q90 426 136 472T263 518Q297 518
324 510T374 485V534Q374 561 401 561H504V542H393V468Q436 423 436 349Q436 311 424 280T388 226T334 192T263 180Q248 180 235 182T207 187Q116 163 116 109Q116 98 119 88T133 71T160 58T203 53H338Q425 53 463 21T501 -65ZM479 -65Q479 -19 448 7T335 33H180Q132
21 102 -7T72 -83Q72 -133 116 -163T238 -193H287Q329 -193 364 -186T425 -163T465 -123T479 -65ZM263 199Q335 199 373 236T412 330V368Q412 424 374 461T263 499Q191 499 153 462T114 368V330Q114 302 124 278T153 237T200 209T263 199Z" />
<glyph unicode="h" glyph-name="h" horiz-adv-x="556" d="M105 740H126V430H129Q142 464 180 491T287 518Q372 518 416 469T461 325V0H440V321Q440 414 400 456T285 499Q254 499 225 491T174 465T139 422T126 362V0H105V740Z" />
<glyph unicode="i" glyph-name="i" horiz-adv-x="231" d="M115 673Q102 673 97 679T92 694V701Q92 709 97 715T115 722Q128 722 133 716T138 701V694Q138 686 133 680T115 673ZM105 506H126V0H105V506Z" />
<glyph unicode="j" glyph-name="j" horiz-adv-x="231" d="M105 506H126V-171Q126 -200 97 -200H20V-181H105V506ZM115 673Q102 673 97 679T92 694V701Q92 709 97 715T115 722Q128 722 133 716T138 701V694Q138 686 133 680T115 673Z" />
<glyph unicode="k" glyph-name="k" horiz-adv-x="490" d="M105 740H126V220H129L209 299L416 506H444L229 292L471 0H445L214 277L126 190V0H105V740Z" />
<glyph unicode="l" glyph-name="l" horiz-adv-x="251" d="M134 0Q105 0 105 29V740H126V19H211V0H134Z" />
<glyph unicode="m" glyph-name="m" horiz-adv-x="879" d="M105 0V506H126V430H129Q136 447 148 463T179 491T223 510T282 518Q344 518 385 490T441 406H445Q459 455 499 486T611 518Q696 518 740 469T784 325V0H763V322Q763 414 724 456T609 499Q578 499 550 491T501
465T468 421T455 360V0H434V322Q434 414 394 456T280 499Q250 499 222 491T173 465T139 422T126 362V0H105Z" />
<glyph unicode="n" glyph-name="n" horiz-adv-x="556" d="M105 0V506H126V430H129Q142 464 180 491T287 518Q372 518 416 469T461 325V0H440V321Q440 414 400 456T285 499Q254 499 225 491T174 465T139 422T126 362V0H105Z" />
<glyph unicode="o" glyph-name="o" horiz-adv-x="540" d="M270 -12Q170 -12 115 54T60 253Q60 385 115 451T270 518Q370 518 425 452T480 253Q480 121 425 55T270 -12ZM270 7Q361 7 409 66T457 229V277Q457 380 409 439T270 499Q179 499 131 440T83 277V229Q83
126 131 67T270 7Z" />
<glyph unicode="p" glyph-name="p" horiz-adv-x="565" d="M105 506H126V428H129Q137 444 151 460T185 489T233 510T293 518Q393 518 449 452T505 253Q505 120 449 54T293 -12Q260 -12 233 -4T186 16T151 45T129 78H126V-200H105V506ZM293 7Q384 7 433 66T482 229V277Q482
380 433 439T293 499Q260 499 230 489T177 461T140 418T126 363V143Q126 113 139 88T176 45T230 17T293 7Z" />
<glyph unicode="q" glyph-name="q" horiz-adv-x="565" d="M439 78H436Q428 61 414 45T380 17T332 -4T272 -12Q172 -12 116 54T60 253Q60 386 116 452T272 518Q305 518 332 510T379 490T414 461T436 428H439V506H460V-200H439V78ZM272 7Q305 7 335 17T388 45T425
88T439 143V363Q439 393 426 418T389 461T335 489T272 499Q181 499 132 440T83 277V229Q83 126 132 67T272 7Z" />
<glyph unicode="r" glyph-name="r" horiz-adv-x="341" d="M105 0V506H126V419H129Q138 437 150 452T181 480T226 499T287 506H328V487H284Q253 487 225 479T174 453T139 410T126 349V0H105Z" />
<glyph unicode="s" glyph-name="s" horiz-adv-x="462" d="M236 -12Q175 -12 130 9T49 81L67 93Q101 46 140 27T236 7Q308 7 345 37T382 124Q382 181 350 208T254 245L210 252Q143 262 105 292T66 389Q66 421 78 445T112 485T163 510T226 518Q259 518 284 512T330
496T365 472T393 445L377 431Q365 444 352 456T321 478T280 493T227 499Q164 499 126 472T87 390Q87 333 118 308T214 272L258 265Q291 260 318 250T363 224T392 183T403 125Q403 59 359 24T236 -12Z" />
<glyph unicode="t" glyph-name="t" horiz-adv-x="310" d="M154 0Q125 0 125 29V487H30V506H102Q116 506 120 511T125 531V650H146V506H267V487H146V19H259V0H154Z" />
<glyph unicode="u" glyph-name="u" horiz-adv-x="556" d="M430 76H427Q413 42 375 15T269 -12Q184 -12 140 37T95 181V506H116V185Q116 92 156 50T271 7Q302 7 331 15T382 41T417 83T430 144V506H451V0H430V76Z" />
<glyph unicode="v" glyph-name="v" horiz-adv-x="452" d="M25 506H47L225 24H228L406 506H427L239 0H213L25 506Z" />
<glyph unicode="w" glyph-name="w" horiz-adv-x="725" d="M35 506H57L201 27H204L352 506H374L522 27H525L669 506H690L536 0H510L364 472H361L215 0H189L35 506Z" />
<glyph unicode="x" glyph-name="x" horiz-adv-x="470" d="M34 0L222 255L39 506H63L234 271H236L407 506H431L248 255L436 0H412L236 239H234L58 0H34Z" />
<glyph unicode="y" glyph-name="y" horiz-adv-x="452" d="M406 506H427L172 -181Q165 -200 141 -200H57V-181H150L216 -7L25 506H47L225 24H228L406 506Z" />
<glyph unicode="z" glyph-name="z" horiz-adv-x="417" d="M27 0V21L364 487H37V506H386V485L49 19H396V0H27Z" />
<glyph unicode="{" glyph-name="braceleft" horiz-adv-x="315" d="M147 -138Q122 -138 122 -112V201Q122 246 96 266T25 287V335Q70 335 96 355T122 421V734Q122 760 147 760H247V742H142V421Q142 374 115 347T43 319V303Q88 303 115 276T142 201V-120H247V-138H147Z" />
<glyph unicode="|" glyph-name="bar" horiz-adv-x="236" d="M108 -138V760H128V-138H108Z" />
<glyph unicode="}" glyph-name="braceright" horiz-adv-x="315" d="M168 760Q193 760 193 734V421Q193 376 219 356T290 335V287Q245 287 219 267T193 201V-112Q193 -138 168 -138H68V-120H173V201Q173 248 200 275T272 303V319Q227 319 200 346T173 421V742H68V760H168Z" />
<glyph unicode="~" glyph-name="asciitilde" horiz-adv-x="600" d="M424 256Q410 256 397 258T368 265T335 277T294 295Q272 305 256 312T227 323T201 330T175 332Q146 332 124 323T78 290L65 304Q91 329 117 340T176 352Q190 352 203 350T232 343T265 331T306
313Q328 303 344 296T373 285T399 278T425 276Q454 276 476 285T522 318L535 304Q509 279 483 268T424 256Z" />
<glyph unicode="&#xa0;" glyph-name="uni00A0" horiz-adv-x="236" />
<glyph unicode="&#xa1;" glyph-name="exclamdown" horiz-adv-x="252" d="M132 330L137 91V-192H115V91L120 330H132ZM126 511Q153 511 153 486V478Q153 453 126 453Q99 453 99 478V486Q99 511 126 511Z" />
<glyph unicode="&#xa2;" glyph-name="cent" horiz-adv-x="497" d="M253 -114V-11Q161 -6 111 60T60 253Q60 379 110 445T253 517V620H273V518Q332 517 372 490T435 418L417 409Q393 453 359 476T273 499V7Q330 8 367 31T428 95L444 84Q419 41 378 15T273 -12V-114H253ZM83
229Q83 132 127 73T253 8V498Q171 493 127 434T83 277V229Z" />
<glyph unicode="&#xa3;" glyph-name="sterling" horiz-adv-x="579" d="M83 0V25Q125 57 152 106T179 220Q179 245 175 267T165 311H70V331H158Q151 352 143 373T128 416T117 461T112 510Q112 557 127 594T171 657T236 696T319 710Q383 710 433 681T519 592L500
582Q467 639 422 664T320 690Q279 690 245 678T186 643T148 586T134 510Q134 459 150 417T181 331H399V311H187Q193 290 197 268T201 221Q201 161 177 109T107 22V20H513V0H83Z" />
<glyph unicode="&#xa4;" glyph-name="currency" horiz-adv-x="586" d="M293 129Q198 129 147 189L37 78L22 93L134 206Q100 259 100 349Q100 439 134 492L22 605L37 620L147 509Q198 569 293 569Q388 569 439 509L549 620L564 605L452 492Q486 439 486 349Q486
259 452 206L564 93L549 78L439 189Q388 129 293 129ZM293 148Q374 148 418 195T463 326V372Q463 455 419 502T293 550Q212 550 168 503T123 372V326Q123 243 167 196T293 148Z" />
<glyph unicode="&#xa5;" glyph-name="yen" horiz-adv-x="580" d="M301 168V0H279V168H81V187H279V325H81V344H267L48 698H73L289 348H292L508 698H532L313 344H499V325H301V187H499V168H301Z" />
<glyph unicode="&#xa6;" glyph-name="brokenbar" horiz-adv-x="236" d="M108 401V760H128V401H108ZM108 -138V221H128V-138H108Z" />
<glyph unicode="&#xa7;" glyph-name="section" horiz-adv-x="564" d="M457 259Q457 318 424 349T326 401L260 422Q248 426 237 430T214 440Q165 419 136 385T107 297Q107 238 140 207T238 155L304 134Q316 130 327 126T350 116Q399 137 428 171T457 259ZM442 -13Q442
-49 429 -76T392 -120T337 -145T269 -154Q213 -154 177 -138T115 -98L128 -83Q151 -105 185 -120T270 -135Q341 -135 381 -104T421 -13Q421 15 411 36T384 72T344 97T297 115L230 137Q197 148 170 161T125 193T96 237T86 296Q86 353 115 389T196 446V449Q161 470
142 500T122 569Q122 605 135 632T172 676T227 701T295 710Q351 710 387 694T449 654L436 639Q413 661 379 676T294 691Q223 691 183 660T143 569Q143 540 153 520T180 484T220 459T267 441L334 419Q367 408 394 395T439 363T468 319T478 260Q478 203 449 167T368
110V107Q403 86 422 56T442 -13Z" />
<glyph unicode="&#xa8;" glyph-name="dieresis" horiz-adv-x="600" d="M209 642Q196 642 191 648T186 663V670Q186 678 191 684T209 691Q222 691 227 685T232 670V663Q232 655 227 649T209 642ZM391 642Q378 642 373 648T368 663V670Q368 678 373 684T391 691Q404
691 409 685T414 670V663Q414 655 409 649T391 642Z" />
<glyph unicode="&#xa9;" glyph-name="copyright" horiz-adv-x="708" d="M354 -12Q283 -12 224 13T123 86T57 200T33 349Q33 431 56 497T122 611T224 684T354 710Q425 710 484 685T585 612T651 498T675 349Q675 267 652 201T586 87T484 14T354 -12ZM354 6Q421 6
476 30T570 98T631 199T653 327V371Q653 440 632 498T571 600T476 667T354 692Q286 692 231 668T137 600T77 499T55 371V327Q55 258 76 200T137 98T232 31T354 6ZM351 149Q283 149 243 199T202 346Q202 443 243 493T353 543Q402 543 433 520T476 462L460 457Q447
489 421 507T353 526Q293 526 258 484T222 356V336Q222 248 257 207T352 166Q394 166 422 185T465 236L480 229Q466 195 433 172T351 149Z" />
<glyph unicode="&#xaa;" glyph-name="ordfeminine" horiz-adv-x="353" d="M329 366H281Q263 366 263 385V415H261Q250 394 224 377T149 360Q95 360 68 384T40 449Q40 491 68 516T167 542H263V598Q263 643 237 665T164 687Q131 687 105 674T65 629L50 637Q64 668
91 686T164 704Q220 704 251 677T282 601V383H329V366ZM166 525Q108 525 85 507T61 456V443Q61 411 85 394T149 377Q172 377 192 382T229 397T254 424T263 461V525H166Z" />
<glyph unicode="&#xab;" glyph-name="guillemotleft" horiz-adv-x="472" d="M232 106L34 284V304L232 482L241 467L57 294L241 121L232 106ZM412 106L214 284V304L412 482L421 467L237 294L421 121L412 106Z" />
<glyph unicode="&#xac;" glyph-name="logicalnot" horiz-adv-x="600" d="M501 104V296H62V315H522V104H501Z" />
<glyph unicode="&#xad;" glyph-name="uni00AD" horiz-adv-x="395" d="M83 295V315H312V295H83Z" />
<glyph unicode="&#xae;" glyph-name="registered" horiz-adv-x="466" d="M233 298Q190 298 154 313T91 355T50 420T35 504Q35 550 50 588T91 653T153 695T233 710Q276 710 312 695T375 653T416 588T431 504Q431 458 416 420T375 355T313 313T233 298ZM233 314Q272
314 304 327T361 365T398 422T412 494V514Q412 553 399 586T361 643T305 680T233 694Q194 694 162 681T105 643T68 586T54 514V494Q54 455 67 422T105 365T161 328T233 314ZM184 397H168V609H249Q278 609 295 595T312 547Q312 520 299 505T264 489L318 397H299L247
488H184V397ZM248 503Q273 503 283 512T294 545V552Q294 575 284 584T248 594H184V503H248Z" />
<glyph unicode="&#xaf;" glyph-name="overscore" horiz-adv-x="600" d="M171 676H429V658H171V676Z" />
<glyph unicode="&#xb0;" glyph-name="degree" horiz-adv-x="466" d="M233 374Q198 374 169 387T117 422T83 475T71 542Q71 578 83 608T117 661T168 697T233 710Q267 710 297 697T348 662T382 609T395 542Q395 506 383 476T349 423T297 387T233 374ZM233 393Q265
393 291 405T335 437T364 484T374 542Q374 572 364 599T336 647T291 679T233 691Q201 691 175 679T131 647T102 600T92 542Q92 511 102 484T130 437T175 405T233 393Z" />
<glyph unicode="&#xb1;" glyph-name="plusminus" horiz-adv-x="600" d="M290 115V349H62V368H290V602H311V368H539V349H311V115H290ZM62 0V19H538V0H62Z" />
<glyph unicode="&#xb2;" glyph-name="twosuperior" horiz-adv-x="345" d="M300 329H44V349L183 464Q267 533 267 592V602Q267 639 244 663T172 687Q125 687 98 666T58 609L41 614Q53 651 85 677T172 704Q229 704 258 674T287 599Q287 561 265 526T194 452L64 346H300V329Z"
/>
<glyph unicode="&#xb3;" glyph-name="threesuperior" horiz-adv-x="347" d="M159 529Q215 529 237 550T260 608V614Q260 647 237 667T168 687Q129 687 107 675T67 641L53 651Q69 674 97 689T168 704Q222 704 251 679T280 609Q280 573 261 552T210 523V520Q287
508 287 431Q287 381 255 352T162 323Q117 323 88 339T42 379L56 390Q74 367 97 354T162 340Q214 340 240 362T267 427V433Q267 471 245 491T166 512H113V529H159Z" />
<glyph unicode="&#xb4;" glyph-name="acute" horiz-adv-x="600" d="M282 587L267 597L378 751L397 739L282 587Z" />
<glyph unicode="&#xb5;" glyph-name="mu" horiz-adv-x="566" d="M105 -200V506H126V185Q126 92 166 50T281 7Q312 7 341 15T392 41T427 83T440 144V506H461V0H440V76H437Q423 42 385 15T279 -12Q163 -12 124 79H121L126 -44V-200H105Z" />
<glyph unicode="&#xb6;" glyph-name="paragraph" horiz-adv-x="591" d="M250 330Q209 330 173 342T110 378T67 436T51 514Q51 558 67 592T110 649T173 685T250 698H493V680H424V-149H403V680H271V-149H250V330Z" />
<glyph unicode="&#xb7;" glyph-name="middot" horiz-adv-x="298" d="M149 277Q122 277 122 302V310Q122 335 149 335Q176 335 176 310V302Q176 277 149 277Z" />
<glyph unicode="&#xb8;" glyph-name="cedilla" horiz-adv-x="600" d="M309 -202Q280 -202 259 -193T228 -170L241 -157Q263 -184 309 -184Q336 -184 353 -171T370 -132Q370 -113 357 -101T309 -86L272 -84L293 3H311L292 -73L294 -75Q301 -73 309 -73T324 -72Q353
-72 372 -88T391 -131Q391 -160 369 -181T309 -202Z" />
<glyph unicode="&#xb9;" glyph-name="onesuperior" horiz-adv-x="373" d="M60 329V346H189V683H185L60 578L49 591L176 698H208V346H326V329H60Z" />
<glyph unicode="&#xba;" glyph-name="ordmasculine" horiz-adv-x="366" d="M183 360Q118 360 82 406T46 532Q46 612 82 658T183 704Q248 704 284 658T320 532Q320 452 284 406T183 360ZM183 377Q211 377 233 388T269 418T291 462T299 516V548Q299 576 292 601T270
646T233 676T183 687Q154 687 133 676T97 646T75 602T67 548V516Q67 487 74 462T96 418T132 388T183 377Z" />
<glyph unicode="&#xbb;" glyph-name="guillemotright" horiz-adv-x="472" d="M51 121L235 294L51 467L60 482L258 304V284L60 106L51 121ZM231 121L415 294L231 467L240 482L438 304V284L240 106L231 121Z" />
<glyph unicode="&#xbc;" glyph-name="onequarter" horiz-adv-x="851" d="M60 329V346H189V683H185L60 578L49 591L176 698H208V346H326V329H60ZM228 0L675 698H697L250 0H228ZM738 0V89H525V108L729 369H757V106H823V89H757V0H738ZM738 350H735L545 106H738V350Z" />
<glyph unicode="&#xbd;" glyph-name="onehalf" horiz-adv-x="885" d="M60 329V346H189V683H185L60 578L49 591L176 698H208V346H326V329H60ZM228 0L675 698H697L250 0H228ZM840 0H584V20L723 135Q807 204 807 263V273Q807 310 784 334T712 358Q665 358 638 337T598
280L581 285Q593 322 625 348T712 375Q769 375 798 345T827 270Q827 232 805 197T734 123L604 17H840V0Z" />
<glyph unicode="&#xbe;" glyph-name="threequarters" horiz-adv-x="815" d="M159 529Q215 529 237 550T260 608V614Q260 647 237 667T168 687Q129 687 107 675T67 641L53 651Q69 674 97 689T168 704Q222 704 251 679T280 609Q280 573 261 552T210 523V520Q287
508 287 431Q287 381 255 352T162 323Q117 323 88 339T42 379L56 390Q74 367 97 354T162 340Q214 340 240 362T267 427V433Q267 471 245 491T166 512H113V529H159ZM192 0L639 698H661L214 0H192ZM702 0V89H489V108L693 369H721V106H787V89H721V0H702ZM702 350H699L509
106H702V350Z" />
<glyph unicode="&#xbf;" glyph-name="questiondown" horiz-adv-x="456" d="M220 -204Q133 -204 84 -155T35 -25Q35 63 87 115T236 176V330H258V157Q162 155 110 109T58 -10V-36Q58 -102 100 -143T220 -185Q295 -185 337 -150T399 -48L419 -53Q399 -125 350 -164T220
-204ZM247 453Q220 453 220 478V486Q220 511 247 511Q274 511 274 486V478Q274 453 247 453Z" />
<glyph unicode="&#xc0;" glyph-name="Agrave" horiz-adv-x="600" d="M545 0L460 234H140L55 0H32L285 698H315L568 0H545ZM301 675H298L147 253H453L301 675ZM202 919L221 931L332 777L317 767L202 919Z" />
<glyph unicode="&#xc1;" glyph-name="Aacute" horiz-adv-x="600" d="M545 0L460 234H140L55 0H32L285 698H315L568 0H545ZM301 675H298L147 253H453L301 675ZM282 767L267 777L378 931L397 919L282 767Z" />
<glyph unicode="&#xc2;" glyph-name="Acircumflex" horiz-adv-x="600" d="M545 0L460 234H140L55 0H32L285 698H315L568 0H545ZM301 675H298L147 253H453L301 675ZM312 923L440 790L426 779L300 906L174 779L160 790L288 923H312Z" />
<glyph unicode="&#xc3;" glyph-name="Atilde" horiz-adv-x="600" d="M545 0L460 234H140L55 0H32L285 698H315L568 0H545ZM301 675H298L147 253H453L301 675ZM371 808Q354 808 337 814T294 838Q272 852 257 858T228 864Q194 864 163 831L151 843Q186 882 229 882Q246
882 263 876T306 852Q328 838 343 832T372 826Q390 826 405 834T437 859L449 847Q414 808 371 808Z" />
<glyph unicode="&#xc4;" glyph-name="Adieresis" horiz-adv-x="600" d="M545 0L460 234H140L55 0H32L285 698H315L568 0H545ZM301 675H298L147 253H453L301 675ZM209 819Q196 819 191 825T186 840V847Q186 855 191 861T209 868Q222 868 227 862T232 847V840Q232
832 227 826T209 819ZM391 819Q378 819 373 825T368 840V847Q368 855 373 861T391 868Q404 868 409 862T414 847V840Q414 832 409 826T391 819Z" />
<glyph unicode="&#xc5;" glyph-name="Aring" horiz-adv-x="600" d="M545 0L460 234H140L55 0H32L285 698H315L568 0H545ZM301 675H298L147 253H453L301 675ZM300 769Q259 769 235 794T210 860Q210 901 234 926T300 951Q341 951 365 926T390 860Q390 819 366 794T300
769ZM300 787Q332 787 351 805T370 855V865Q370 896 351 914T300 933Q268 933 249 915T230 865V855Q230 824 249 806T300 787Z" />
<glyph unicode="&#xc6;" glyph-name="AE" horiz-adv-x="861" d="M408 234H155L26 0H2L385 698H789V678H430V364H777V344H430V20H789V0H408V234ZM397 678L165 253H408V678H397Z" />
<glyph unicode="&#xc7;" glyph-name="Ccedilla" horiz-adv-x="610" d="M329 690Q219 690 157 611T94 370V328Q94 166 156 87T329 8Q404 8 454 45T531 148L550 140Q524 74 470 33T340 -12L325 -73L327 -75Q334 -73 342 -73T357 -72Q386 -72 405 -88T424 -131Q424
-160 402 -181T342 -202Q313 -202 292 -193T261 -170L274 -157Q296 -184 342 -184Q369 -184 386 -171T403 -132Q403 -113 390 -101T342 -86L305 -84L322 -12Q201 -10 136 80T70 349Q70 530 137 620T329 710Q406 710 461 671T545 567L526 558Q499 620 449 655T329
690Z" />
<glyph unicode="&#xc8;" glyph-name="Egrave" horiz-adv-x="561" d="M108 0V698H489V678H130V364H477V344H130V20H489V0H108ZM202 919L221 931L332 777L317 767L202 919Z" />
<glyph unicode="&#xc9;" glyph-name="Eacute" horiz-adv-x="561" d="M108 0V698H489V678H130V364H477V344H130V20H489V0H108ZM282 767L267 777L378 931L397 919L282 767Z" />
<glyph unicode="&#xca;" glyph-name="Ecircumflex" horiz-adv-x="561" d="M108 0V698H489V678H130V364H477V344H130V20H489V0H108ZM312 923L440 790L426 779L300 906L174 779L160 790L288 923H312Z" />
<glyph unicode="&#xcb;" glyph-name="Edieresis" horiz-adv-x="561" d="M108 0V698H489V678H130V364H477V344H130V20H489V0H108ZM209 819Q196 819 191 825T186 840V847Q186 855 191 861T209 868Q222 868 227 862T232 847V840Q232 832 227 826T209 819ZM391 819Q378
819 373 825T368 840V847Q368 855 373 861T391 868Q404 868 409 862T414 847V840Q414 832 409 826T391 819Z" />
<glyph unicode="&#xcc;" glyph-name="Igrave" horiz-adv-x="372" d="M68 0V19H175V679H68V698H304V679H197V19H304V0H68ZM344 919L363 931L474 777L459 767L344 919Z" />
<glyph unicode="&#xcd;" glyph-name="Iacute" horiz-adv-x="372" d="M68 0V19H175V679H68V698H304V679H197V19H304V0H68ZM424 767L409 777L520 931L539 919L424 767Z" />
<glyph unicode="&#xce;" glyph-name="Icircumflex" horiz-adv-x="372" d="M68 0V19H175V679H68V698H304V679H197V19H304V0H68ZM454 923L582 790L568 779L442 906L316 779L302 790L430 923H454Z" />
<glyph unicode="&#xcf;" glyph-name="Idieresis" horiz-adv-x="372" d="M68 0V19H175V679H68V698H304V679H197V19H304V0H68ZM351 819Q338 819 333 825T328 840V847Q328 855 333 861T351 868Q364 868 369 862T374 847V840Q374 832 369 826T351 819ZM533 819Q520
819 515 825T510 840V847Q510 855 515 861T533 868Q546 868 551 862T556 847V840Q556 832 551 826T533 819Z" />
<glyph unicode="&#xd0;" glyph-name="Eth" horiz-adv-x="661" d="M111 359H28V378H111V698H315Q455 698 523 611T591 349Q591 175 523 88T315 0H111V359ZM316 20Q381 20 428 41T506 102T552 196T567 319V379Q567 447 552 502T507 596T429 656T316 678H133V378H305V359H133V20H316Z"
/>
<glyph unicode="&#xd1;" glyph-name="Ntilde" horiz-adv-x="692" d="M132 671H129V0H108V698H140L560 27H563V698H584V0H552L132 671ZM417 808Q400 808 383 814T340 838Q318 852 303 858T274 864Q240 864 209 831L197 843Q232 882 275 882Q292 882 309 876T352
852Q374 838 389 832T418 826Q436 826 451 834T483 859L495 847Q460 808 417 808Z" />
<glyph unicode="&#xd2;" glyph-name="Ograve" horiz-adv-x="680" d="M340 -12Q209 -12 140 78T70 349Q70 530 139 620T340 710Q471 710 540 620T610 349Q610 168 541 78T340 -12ZM340 8Q455 8 520 88T586 328V370Q586 529 521 609T340 690Q225 690 160 610T94
370V328Q94 169 159 89T340 8ZM242 919L261 931L372 777L357 767L242 919Z" />
<glyph unicode="&#xd3;" glyph-name="Oacute" horiz-adv-x="680" d="M340 -12Q209 -12 140 78T70 349Q70 530 139 620T340 710Q471 710 540 620T610 349Q610 168 541 78T340 -12ZM340 8Q455 8 520 88T586 328V370Q586 529 521 609T340 690Q225 690 160 610T94
370V328Q94 169 159 89T340 8ZM322 767L307 777L418 931L437 919L322 767Z" />
<glyph unicode="&#xd4;" glyph-name="Ocircumflex" horiz-adv-x="680" d="M340 -12Q209 -12 140 78T70 349Q70 530 139 620T340 710Q471 710 540 620T610 349Q610 168 541 78T340 -12ZM340 8Q455 8 520 88T586 328V370Q586 529 521 609T340 690Q225 690 160 610T94
370V328Q94 169 159 89T340 8ZM352 923L480 790L466 779L340 906L214 779L200 790L328 923H352Z" />
<glyph unicode="&#xd5;" glyph-name="Otilde" horiz-adv-x="680" d="M340 -12Q209 -12 140 78T70 349Q70 530 139 620T340 710Q471 710 540 620T610 349Q610 168 541 78T340 -12ZM340 8Q455 8 520 88T586 328V370Q586 529 521 609T340 690Q225 690 160 610T94
370V328Q94 169 159 89T340 8ZM411 808Q394 808 377 814T334 838Q312 852 297 858T268 864Q234 864 203 831L191 843Q226 882 269 882Q286 882 303 876T346 852Q368 838 383 832T412 826Q430 826 445 834T477 859L489 847Q454 808 411 808Z" />
<glyph unicode="&#xd6;" glyph-name="Odieresis" horiz-adv-x="680" d="M340 -12Q209 -12 140 78T70 349Q70 530 139 620T340 710Q471 710 540 620T610 349Q610 168 541 78T340 -12ZM340 8Q455 8 520 88T586 328V370Q586 529 521 609T340 690Q225 690 160 610T94
370V328Q94 169 159 89T340 8ZM249 819Q236 819 231 825T226 840V847Q226 855 231 861T249 868Q262 868 267 862T272 847V840Q272 832 267 826T249 819ZM431 819Q418 819 413 825T408 840V847Q408 855 413 861T431 868Q444 868 449 862T454 847V840Q454 832 449
826T431 819Z" />
<glyph unicode="&#xd7;" glyph-name="multiply" horiz-adv-x="600" d="M300 292L119 110L105 123L287 305L105 487L119 500L300 318L481 500L495 487L313 305L495 123L481 110L300 292Z" />
<glyph unicode="&#xd8;" glyph-name="Oslash" horiz-adv-x="680" d="M340 -12Q220 -12 153 63L88 -31L70 -20L139 80Q70 172 70 349Q70 530 139 620T340 710Q458 710 527 636L593 731L610 720L540 619Q610 528 610 349Q610 168 541 78T340 -12ZM94 328Q94 253
109 196T152 98L514 617Q450 690 340 690Q225 690 160 610T94 370V328ZM586 370Q586 445 571 502T527 600L166 81Q230 8 340 8Q455 8 520 88T586 328V370Z" />
<glyph unicode="&#xd9;" glyph-name="Ugrave" horiz-adv-x="652" d="M122 698V268Q122 197 132 148T165 67T228 22T326 8Q384 8 423 22T486 67T520 147T530 268V698H552V270Q552 192 541 139T502 52T432 3T326 -12Q263 -12 220 3T150 51T112 138T100 270V698H122ZM227
919L246 931L357 777L342 767L227 919Z" />
<glyph unicode="&#xda;" glyph-name="Uacute" horiz-adv-x="652" d="M122 698V268Q122 197 132 148T165 67T228 22T326 8Q384 8 423 22T486 67T520 147T530 268V698H552V270Q552 192 541 139T502 52T432 3T326 -12Q263 -12 220 3T150 51T112 138T100 270V698H122ZM307
767L292 777L403 931L422 919L307 767Z" />
<glyph unicode="&#xdb;" glyph-name="Ucircumflex" horiz-adv-x="652" d="M122 698V268Q122 197 132 148T165 67T228 22T326 8Q384 8 423 22T486 67T520 147T530 268V698H552V270Q552 192 541 139T502 52T432 3T326 -12Q263 -12 220 3T150 51T112 138T100 270V698H122ZM337
923L465 790L451 779L325 906L199 779L185 790L313 923H337Z" />
<glyph unicode="&#xdc;" glyph-name="Udieresis" horiz-adv-x="652" d="M122 698V268Q122 197 132 148T165 67T228 22T326 8Q384 8 423 22T486 67T520 147T530 268V698H552V270Q552 192 541 139T502 52T432 3T326 -12Q263 -12 220 3T150 51T112 138T100 270V698H122ZM234
819Q221 819 216 825T211 840V847Q211 855 216 861T234 868Q247 868 252 862T257 847V840Q257 832 252 826T234 819ZM416 819Q403 819 398 825T393 840V847Q393 855 398 861T416 868Q429 868 434 862T439 847V840Q439 832 434 826T416 819Z" />
<glyph unicode="&#xdd;" glyph-name="Yacute" horiz-adv-x="546" d="M262 0V294L21 698H46L272 320H275L501 698H525L284 294V0H262ZM511 767L496 777L607 931L626 919L511 767Z" />
<glyph unicode="&#xde;" glyph-name="Thorn" horiz-adv-x="594" d="M108 0V698H130V542H376Q462 542 506 491T550 354Q550 268 506 217T376 166H130V0H108ZM130 186H376Q415 186 443 198T489 231T517 277T526 333V375Q526 403 517 430T490 477T443 509T376 522H130V186Z" />
<glyph unicode="&#xdf;" glyph-name="germandbls" horiz-adv-x="645" d="M596 125Q596 59 553 24T434 -12Q371 -12 324 9T242 81L260 93Q295 45 335 26T434 7Q503 7 539 37T575 124Q575 179 548 203T467 241L423 252Q394 259 372 268T333 291T308 326T299 377Q299
411 314 435T356 475T421 498T504 506V521Q504 621 459 677T329 733Q244 733 199 677T154 521V0H133V487H40V506H133V521Q133 573 146 616T184 689T245 735T329 752Q376 752 412 736T474 689T512 616T525 521V488H507Q467 488 433 482T373 462T334 428T320 378Q320
328 346 307T427 272L471 261Q499 254 522 244T561 218T587 180T596 125Z" />
<glyph unicode="&#xe0;" glyph-name="agrave" horiz-adv-x="519" d="M422 0Q393 0 393 29V77H390Q371 41 333 15T224 -12Q146 -12 104 24T61 130Q61 161 70 188T102 234T160 264T251 275H393V349Q393 427 357 463T249 499Q192 499 155 477T96 404L78 412Q99 461
138 489T249 518Q332 518 373 476T414 352V19H499V0H422ZM224 7Q258 7 288 16T342 42T379 86T393 148V257H252Q163 257 124 226T84 145V115Q84 62 123 35T224 7ZM408 739L427 751L538 597L523 587L408 739Z" />
<glyph unicode="&#xe1;" glyph-name="aacute" horiz-adv-x="519" d="M422 0Q393 0 393 29V77H390Q371 41 333 15T224 -12Q146 -12 104 24T61 130Q61 161 70 188T102 234T160 264T251 275H393V349Q393 427 357 463T249 499Q192 499 155 477T96 404L78 412Q99 461
138 489T249 518Q332 518 373 476T414 352V19H499V0H422ZM224 7Q258 7 288 16T342 42T379 86T393 148V257H252Q163 257 124 226T84 145V115Q84 62 123 35T224 7ZM488 587L473 597L584 751L603 739L488 587Z" />
<glyph unicode="&#xe2;" glyph-name="acircumflex" horiz-adv-x="519" d="M422 0Q393 0 393 29V77H390Q371 41 333 15T224 -12Q146 -12 104 24T61 130Q61 161 70 188T102 234T160 264T251 275H393V349Q393 427 357 463T249 499Q192 499 155 477T96 404L78 412Q99
461 138 489T249 518Q332 518 373 476T414 352V19H499V0H422ZM224 7Q258 7 288 16T342 42T379 86T393 148V257H252Q163 257 124 226T84 145V115Q84 62 123 35T224 7ZM518 743L646 610L632 599L506 726L380 599L366 610L494 743H518Z" />
<glyph unicode="&#xe3;" glyph-name="atilde" horiz-adv-x="519" d="M422 0Q393 0 393 29V77H390Q371 41 333 15T224 -12Q146 -12 104 24T61 130Q61 161 70 188T102 234T160 264T251 275H393V349Q393 427 357 463T249 499Q192 499 155 477T96 404L78 412Q99 461
138 489T249 518Q332 518 373 476T414 352V19H499V0H422ZM224 7Q258 7 288 16T342 42T379 86T393 148V257H252Q163 257 124 226T84 145V115Q84 62 123 35T224 7ZM577 628Q560 628 543 634T500 658Q478 672 463 678T434 684Q400 684 369 651L357 663Q392 702 435
702Q452 702 469 696T512 672Q534 658 549 652T578 646Q596 646 611 654T643 679L655 667Q620 628 577 628Z" />
<glyph unicode="&#xe4;" glyph-name="adieresis" horiz-adv-x="519" d="M422 0Q393 0 393 29V77H390Q371 41 333 15T224 -12Q146 -12 104 24T61 130Q61 161 70 188T102 234T160 264T251 275H393V349Q393 427 357 463T249 499Q192 499 155 477T96 404L78 412Q99
461 138 489T249 518Q332 518 373 476T414 352V19H499V0H422ZM224 7Q258 7 288 16T342 42T379 86T393 148V257H252Q163 257 124 226T84 145V115Q84 62 123 35T224 7ZM415 642Q402 642 397 648T392 663V670Q392 678 397 684T415 691Q428 691 433 685T438 670V663Q438
655 433 649T415 642ZM597 642Q584 642 579 648T574 663V670Q574 678 579 684T597 691Q610 691 615 685T620 670V663Q620 655 615 649T597 642Z" />
<glyph unicode="&#xe5;" glyph-name="aring" horiz-adv-x="519" d="M422 0Q393 0 393 29V77H390Q371 41 333 15T224 -12Q146 -12 104 24T61 130Q61 161 70 188T102 234T160 264T251 275H393V349Q393 427 357 463T249 499Q192 499 155 477T96 404L78 412Q99 461
138 489T249 518Q332 518 373 476T414 352V19H499V0H422ZM224 7Q258 7 288 16T342 42T379 86T393 148V257H252Q163 257 124 226T84 145V115Q84 62 123 35T224 7ZM506 589Q465 589 441 614T416 680Q416 721 440 746T506 771Q547 771 571 746T596 680Q596 639 572
614T506 589ZM506 607Q538 607 557 625T576 675V685Q576 716 557 734T506 753Q474 753 455 735T436 685V675Q436 644 455 626T506 607Z" />
<glyph unicode="&#xe6;" glyph-name="ae" horiz-adv-x="861" d="M247 257Q158 257 119 226T79 145V115Q79 62 118 35T219 7Q253 7 283 16T337 42T374 86T388 148V257H247ZM778 275V279Q778 329 765 369T728 439T671 483T596 499Q507 499 459 440T411 277V275H778ZM600
7Q728 7 775 131L793 124Q770 61 722 25T600 -12Q530 -12 481 21T408 121H405Q392 54 341 21T219 -12Q141 -12 99 24T56 130Q56 161 65 188T97 234T155 264T246 275H388V349Q388 427 352 462T244 499Q187 500 150 477T91 404L73 412Q83 436 98 456T133 490T181
511T244 518Q318 517 358 483T405 382H408Q431 448 479 483T596 518Q642 518 679 501T744 450T786 371T801 266V256H411V229Q411 126 460 67T600 7Z" />
<glyph unicode="&#xe7;" glyph-name="ccedilla" horiz-adv-x="487" d="M270 518Q330 518 371 491T435 418L417 409Q393 453 359 476T270 499Q179 499 131 440T83 277V229Q83 126 131 67T270 7Q329 7 366 30T428 95L444 84Q420 42 381 16T278 -12L263 -73L265 -75Q272
-73 280 -73T295 -72Q324 -72 343 -88T362 -131Q362 -160 340 -181T280 -202Q251 -202 230 -193T199 -170L212 -157Q234 -184 280 -184Q307 -184 324 -171T341 -132Q341 -113 328 -101T280 -86L243 -84L260 -12Q165 -9 113 57T60 253Q60 385 115 451T270 518Z"
/>
<glyph unicode="&#xe8;" glyph-name="egrave" horiz-adv-x="533" d="M272 -12Q172 -12 116 54T60 253Q60 384 115 451T268 518Q314 518 351 501T416 450T458 371T473 266V256H83V229Q83 126 132 67T272 7Q400 7 447 131L465 124Q442 61 394 25T272 -12ZM268 499Q179
499 131 440T83 277V275H450V279Q450 329 437 369T400 439T343 483T268 499ZM427 739L446 751L557 597L542 587L427 739Z" />
<glyph unicode="&#xe9;" glyph-name="eacute" horiz-adv-x="533" d="M272 -12Q172 -12 116 54T60 253Q60 384 115 451T268 518Q314 518 351 501T416 450T458 371T473 266V256H83V229Q83 126 132 67T272 7Q400 7 447 131L465 124Q442 61 394 25T272 -12ZM268 499Q179
499 131 440T83 277V275H450V279Q450 329 437 369T400 439T343 483T268 499ZM507 587L492 597L603 751L622 739L507 587Z" />
<glyph unicode="&#xea;" glyph-name="ecircumflex" horiz-adv-x="533" d="M272 -12Q172 -12 116 54T60 253Q60 384 115 451T268 518Q314 518 351 501T416 450T458 371T473 266V256H83V229Q83 126 132 67T272 7Q400 7 447 131L465 124Q442 61 394 25T272 -12ZM268
499Q179 499 131 440T83 277V275H450V279Q450 329 437 369T400 439T343 483T268 499ZM537 743L665 610L651 599L525 726L399 599L385 610L513 743H537Z" />
<glyph unicode="&#xeb;" glyph-name="edieresis" horiz-adv-x="533" d="M272 -12Q172 -12 116 54T60 253Q60 384 115 451T268 518Q314 518 351 501T416 450T458 371T473 266V256H83V229Q83 126 132 67T272 7Q400 7 447 131L465 124Q442 61 394 25T272 -12ZM268
499Q179 499 131 440T83 277V275H450V279Q450 329 437 369T400 439T343 483T268 499ZM434 642Q421 642 416 648T411 663V670Q411 678 416 684T434 691Q447 691 452 685T457 670V663Q457 655 452 649T434 642ZM616 642Q603 642 598 648T593 663V670Q593 678 598
684T616 691Q629 691 634 685T639 670V663Q639 655 634 649T616 642Z" />
<glyph unicode="&#xec;" glyph-name="igrave" horiz-adv-x="231" d="M105 0V506H126V0H105ZM18 739L37 751L148 597L133 587L18 739Z" />
<glyph unicode="&#xed;" glyph-name="iacute" horiz-adv-x="231" d="M105 0V506H126V0H105ZM98 587L83 597L194 751L213 739L98 587Z" />
<glyph unicode="&#xee;" glyph-name="icircumflex" horiz-adv-x="231" d="M105 0V506H126V0H105ZM128 743L256 610L242 599L116 726L-10 599L-24 610L104 743H128Z" />
<glyph unicode="&#xef;" glyph-name="idieresis" horiz-adv-x="231" d="M105 0V506H126V0H105ZM25 642Q12 642 7 648T2 663V670Q2 678 7 684T25 691Q38 691 43 685T48 670V663Q48 655 43 649T25 642ZM207 642Q194 642 189 648T184 663V670Q184 678 189 684T207
691Q220 691 225 685T230 670V663Q230 655 225 649T207 642Z" />
<glyph unicode="&#xf0;" glyph-name="eth" horiz-adv-x="544" d="M404 738L296 660Q332 626 365 582T423 485T464 372T480 248Q480 186 465 138T422 56T356 6T270 -12Q223 -12 185 5T118 56T75 137T60 248Q60 308 75 354T118 433T184 483T270 500Q374 500 429
419L432 421Q405 493 366 549T282 650L174 572L164 586L269 662Q249 680 219 702T156 740H192Q215 726 236 710T283 672L394 752L404 738ZM270 7Q311 7 345 21T404 63T443 130T457 218V270Q457 319 443 358T405 424T346 466T270 481Q229 481 195 467T136 425T97
358T83 270V218Q83 169 97 130T135 64T194 22T270 7Z" />
<glyph unicode="&#xf1;" glyph-name="ntilde" horiz-adv-x="556" d="M105 0V506H126V430H129Q142 464 180 491T287 518Q372 518 416 469T461 325V0H440V321Q440 414 400 456T285 499Q254 499 225 491T174 465T139 422T126 362V0H105ZM612 628Q595 628 578 634T535
658Q513 672 498 678T469 684Q435 684 404 651L392 663Q427 702 470 702Q487 702 504 696T547 672Q569 658 584 652T613 646Q631 646 646 654T678 679L690 667Q655 628 612 628Z" />
<glyph unicode="&#xf2;" glyph-name="ograve" horiz-adv-x="540" d="M270 -12Q170 -12 115 54T60 253Q60 385 115 451T270 518Q370 518 425 452T480 253Q480 121 425 55T270 -12ZM270 7Q361 7 409 66T457 229V277Q457 380 409 439T270 499Q179 499 131 440T83
277V229Q83 126 131 67T270 7ZM429 739L448 751L559 597L544 587L429 739Z" />
<glyph unicode="&#xf3;" glyph-name="oacute" horiz-adv-x="540" d="M270 -12Q170 -12 115 54T60 253Q60 385 115 451T270 518Q370 518 425 452T480 253Q480 121 425 55T270 -12ZM270 7Q361 7 409 66T457 229V277Q457 380 409 439T270 499Q179 499 131 440T83
277V229Q83 126 131 67T270 7ZM509 587L494 597L605 751L624 739L509 587Z" />
<glyph unicode="&#xf4;" glyph-name="ocircumflex" horiz-adv-x="540" d="M270 -12Q170 -12 115 54T60 253Q60 385 115 451T270 518Q370 518 425 452T480 253Q480 121 425 55T270 -12ZM270 7Q361 7 409 66T457 229V277Q457 380 409 439T270 499Q179 499 131 440T83
277V229Q83 126 131 67T270 7ZM539 743L667 610L653 599L527 726L401 599L387 610L515 743H539Z" />
<glyph unicode="&#xf5;" glyph-name="otilde" horiz-adv-x="540" d="M270 -12Q170 -12 115 54T60 253Q60 385 115 451T270 518Q370 518 425 452T480 253Q480 121 425 55T270 -12ZM270 7Q361 7 409 66T457 229V277Q457 380 409 439T270 499Q179 499 131 440T83
277V229Q83 126 131 67T270 7ZM598 628Q581 628 564 634T521 658Q499 672 484 678T455 684Q421 684 390 651L378 663Q413 702 456 702Q473 702 490 696T533 672Q555 658 570 652T599 646Q617 646 632 654T664 679L676 667Q641 628 598 628Z" />
<glyph unicode="&#xf6;" glyph-name="odieresis" horiz-adv-x="540" d="M270 -12Q170 -12 115 54T60 253Q60 385 115 451T270 518Q370 518 425 452T480 253Q480 121 425 55T270 -12ZM270 7Q361 7 409 66T457 229V277Q457 380 409 439T270 499Q179 499 131 440T83
277V229Q83 126 131 67T270 7ZM436 642Q423 642 418 648T413 663V670Q413 678 418 684T436 691Q449 691 454 685T459 670V663Q459 655 454 649T436 642ZM618 642Q605 642 600 648T595 663V670Q595 678 600 684T618 691Q631 691 636 685T641 670V663Q641 655 636
649T618 642Z" />
<glyph unicode="&#xf7;" glyph-name="divide" horiz-adv-x="600" d="M62 296V315H538V296H62ZM300 81Q266 81 266 108V116Q266 143 300 143Q334 143 334 116V108Q334 81 300 81ZM300 468Q266 468 266 495V503Q266 530 300 530Q334 530 334 503V495Q334 468 300 468Z" />
<glyph unicode="&#xf8;" glyph-name="oslash" horiz-adv-x="546" d="M40 -15L108 69Q63 137 63 253Q63 385 118 451T273 518Q368 518 423 457L492 542L506 531L434 442Q483 375 483 253Q483 121 428 55T273 -12Q173 -12 119 54L54 -26L40 -15ZM273 7Q364 7 412
66T460 229V277Q460 370 421 426L132 70Q156 40 191 24T273 7ZM86 229Q86 141 121 85L410 441Q386 469 352 484T273 499Q182 499 134 440T86 277V229Z" />
<glyph unicode="&#xf9;" glyph-name="ugrave" horiz-adv-x="556" d="M430 76H427Q413 42 375 15T269 -12Q184 -12 140 37T95 181V506H116V185Q116 92 156 50T271 7Q302 7 331 15T382 41T417 83T430 144V506H451V0H430V76ZM432 739L451 751L562 597L547 587L432 739Z" />
<glyph unicode="&#xfa;" glyph-name="uacute" horiz-adv-x="556" d="M430 76H427Q413 42 375 15T269 -12Q184 -12 140 37T95 181V506H116V185Q116 92 156 50T271 7Q302 7 331 15T382 41T417 83T430 144V506H451V0H430V76ZM512 587L497 597L608 751L627 739L512 587Z" />
<glyph unicode="&#xfb;" glyph-name="ucircumflex" horiz-adv-x="556" d="M430 76H427Q413 42 375 15T269 -12Q184 -12 140 37T95 181V506H116V185Q116 92 156 50T271 7Q302 7 331 15T382 41T417 83T430 144V506H451V0H430V76ZM542 743L670 610L656 599L530 726L404
599L390 610L518 743H542Z" />
<glyph unicode="&#xfc;" glyph-name="udieresis" horiz-adv-x="556" d="M430 76H427Q413 42 375 15T269 -12Q184 -12 140 37T95 181V506H116V185Q116 92 156 50T271 7Q302 7 331 15T382 41T417 83T430 144V506H451V0H430V76ZM439 642Q426 642 421 648T416 663V670Q416
678 421 684T439 691Q452 691 457 685T462 670V663Q462 655 457 649T439 642ZM621 642Q608 642 603 648T598 663V670Q598 678 603 684T621 691Q634 691 639 685T644 670V663Q644 655 639 649T621 642Z" />
<glyph unicode="&#xfd;" glyph-name="yacute" horiz-adv-x="452" d="M406 506H427L172 -181Q165 -200 141 -200H57V-181H150L216 -7L25 506H47L225 24H228L406 506ZM467 587L452 597L563 751L582 739L467 587Z" />
<glyph unicode="&#xfe;" glyph-name="thorn" horiz-adv-x="565" d="M105 740H126V428H129Q137 444 151 460T185 489T233 510T293 518Q393 518 449 452T505 253Q505 120 449 54T293 -12Q260 -12 233 -4T186 16T151 45T129 78H126V-200H105V740ZM293 7Q384 7 433
66T482 229V277Q482 380 433 439T293 499Q260 499 230 489T177 461T140 418T126 363V143Q126 113 139 88T176 45T230 17T293 7Z" />
<glyph unicode="&#xff;" glyph-name="ydieresis" horiz-adv-x="452" d="M406 506H427L172 -181Q165 -200 141 -200H57V-181H150L216 -7L25 506H47L225 24H228L406 506ZM394 642Q381 642 376 648T371 663V670Q371 678 376 684T394 691Q407 691 412 685T417 670V663Q417
655 412 649T394 642ZM576 642Q563 642 558 648T553 663V670Q553 678 558 684T576 691Q589 691 594 685T599 670V663Q599 655 594 649T576 642Z" />
<glyph unicode="&#x2013;" glyph-name="endash" horiz-adv-x="588" d="M36 296V314H552V296H36Z" />
<glyph unicode="&#x2014;" glyph-name="emdash" horiz-adv-x="780" d="M36 296V314H744V296H36Z" />
<glyph unicode="&#x2018;" glyph-name="quoteleft" horiz-adv-x="240" d="M115 540Q101 540 95 547T89 566V578Q89 599 95 621T111 664T136 705T166 740H185Q147 702 131 664T111 598Q129 598 136 591T143 575V566Q143 555 137 548T115 540Z" />
<glyph unicode="&#x2019;" glyph-name="quoteright" horiz-adv-x="240" d="M129 750Q143 750 149 743T155 724V712Q155 691 149 669T133 626T108 585T78 550H59Q97 588 113 626T133 692Q115 692 108 699T101 715V724Q101 735 107 742T129 750Z" />
<glyph unicode="&#x201a;" glyph-name="quotesinglbase" horiz-adv-x="240" d="M122 66Q136 66 142 59T148 40V28Q148 7 142 -15T126 -58T101 -99T71 -134H52Q90 -96 106 -58T126 8Q108 8 101 15T94 31V40Q94 51 100 58T122 66Z" />
<glyph unicode="&#x201c;" glyph-name="quotedblleft" horiz-adv-x="400" d="M115 540Q101 540 95 547T89 566V578Q89 599 95 621T111 664T136 705T166 740H185Q147 702 131 664T111 598Q129 598 136 591T143 575V566Q143 555 137 548T115 540ZM275 540Q261 540
255 547T249 566V578Q249 599 255 621T271 664T296 705T326 740H345Q307 702 291 664T271 598Q289 598 296 591T303 575V566Q303 555 297 548T275 540Z" />
<glyph unicode="&#x201d;" glyph-name="quotedblright" horiz-adv-x="400" d="M129 750Q143 750 149 743T155 724V712Q155 691 149 669T133 626T108 585T78 550H59Q97 588 113 626T133 692Q115 692 108 699T101 715V724Q101 735 107 742T129 750ZM289 750Q303
750 309 743T315 724V712Q315 691 309 669T293 626T268 585T238 550H219Q257 588 273 626T293 692Q275 692 268 699T261 715V724Q261 735 267 742T289 750Z" />
<glyph unicode="&#x201e;" glyph-name="quotedblbase" horiz-adv-x="400" d="M122 66Q136 66 142 59T148 40V28Q148 7 142 -15T126 -58T101 -99T71 -134H52Q90 -96 106 -58T126 8Q108 8 101 15T94 31V40Q94 51 100 58T122 66ZM282 66Q296 66 302 59T308 40V28Q308
7 302 -15T286 -58T261 -99T231 -134H212Q250 -96 266 -58T286 8Q268 8 261 15T254 31V40Q254 51 260 58T282 66Z" />
<glyph unicode="&#x2022;" glyph-name="bullet" horiz-adv-x="336" d="M168 218Q121 218 102 239T82 293V315Q82 347 101 368T168 390Q215 390 234 369T254 315V293Q254 261 235 240T168 218Z" />
<glyph unicode="&#x2039;" glyph-name="guilsinglleft" horiz-adv-x="292" d="M232 106L34 284V304L232 482L241 467L57 294L241 121L232 106Z" />
<glyph unicode="&#x203a;" glyph-name="guilsinglright" horiz-adv-x="292" d="M51 121L235 294L51 467L60 482L258 304V284L60 106L51 121Z" />
</font>
</defs>
</svg>
