<?xml version="1.0" encoding="UTF-8"?>
<svg width="18px" height="17px" viewBox="0 0 18 17" version="1.1" xmlns="http://www.w3.org/2000/svg" xmlns:xlink="http://www.w3.org/1999/xlink">
    <title>github</title>
    <g id="Page-5" stroke="none" stroke-width="1" fill="none" fill-rule="evenodd">
        <g id="github" fill="#FFFFFF" fill-rule="nonzero">
            <path d="M9,0 C4.0275,0 0,3.90255035 0,8.71569578 C0,12.5672469 2.5785,15.8334155 6.15375,16.9849635 C6.60375,17.0670057 6.76875,16.7972271 6.76875,16.5658828 C6.76875,16.3589293 6.76125,15.8105028 6.7575,15.0839484 C4.254,15.6094623 3.726,13.9146615 3.726,13.9146615 C3.3165,12.9087201 2.72475,12.6396806 2.72475,12.6396806 C1.9095,12.0993843 2.78775,12.1104711 2.78775,12.1104711 C3.6915,12.1710789 4.16625,13.0085012 4.16625,13.0085012 C4.96875,14.3411334 6.273,13.9560522 6.7875,13.7335773 C6.8685,13.1696292 7.10025,12.7860262 7.3575,12.567986 C5.35875,12.3499458 3.258,11.6004787 3.258,8.26113736 C3.258,7.30989071 3.60675,6.53233712 4.18425,5.92256363 C4.083,5.70230605 3.77925,4.81610191 4.263,3.61577203 C4.263,3.61577203 5.01675,3.3822103 6.738,4.50936736 C7.458,4.31571809 8.223,4.21963257 8.988,4.21519785 C9.753,4.21963257 10.518,4.31571809 11.238,4.50936736 C12.948,3.3822103 13.70175,3.61577203 13.70175,3.61577203 C14.1855,4.81610191 13.88175,5.70230605 13.79175,5.92256363 C14.3655,6.53233712 14.71425,7.30989071 14.71425,8.26113736 C14.71425,11.6093482 12.6105,12.3462502 10.608,12.5605948 C10.923,12.8222431 11.2155,13.3566264 11.2155,14.1733533 C11.2155,15.3396837 11.20425,16.2768871 11.20425,16.5599698 C11.20425,16.7883577 11.36175,17.0610928 11.823,16.9738767 C15.42375,15.8297199 18,12.5613339 18,8.71569578 C18,3.90255035 13.97025,0 9,0 L9,0 Z" id="Path"></path>
        </g>
    </g>
</svg>