<svg width="156" height="130" viewBox="0 0 156 130" fill="none" xmlns="http://www.w3.org/2000/svg">
<rect x="2" y="2" width="58" height="58" rx="2" stroke="#00DAFF" stroke-width="4"/>
<rect x="96" y="70" width="58" height="58" rx="2" stroke="#00FF9D" stroke-width="4"/>
<path fill-rule="evenodd" clip-rule="evenodd" d="M139.475 86.2862C140.036 86.7514 140.176 87.6236 139.755 88.2333L122.654 110.455C122.373 110.777 121.953 110.976 121.532 110.998C121.112 111.019 120.691 110.861 120.411 110.565L112.421 102.1C111.86 101.541 111.86 100.662 112.421 100.136C112.981 99.6095 113.822 99.6345 114.383 100.191L121.392 107.47L137.513 86.5445C137.933 85.9362 138.914 85.8195 139.475 86.2862Z" fill="black"/>
<path d="M126 25L126.5 25L126.5 24.5L126 24.5L126 25ZM126 67L128.887 62L123.113 62L126 67ZM67 25.5L126 25.5L126 24.5L67 24.5V25.5ZM125.5 25L125.5 62.5L126.5 62.5L126.5 25L125.5 25Z" fill="black"/>
<path d="M28 104L27.5 104L27.5 104.5L28 104.5L28 104ZM28 62L25.1132 67L30.8868 67L28 62ZM87 103.5L28 103.5L28 104.5L87 104.5V103.5ZM28.5 104L28.5 66.5L27.5 66.5L27.5 104L28.5 104Z" fill="black"/>
<path fill-rule="evenodd" clip-rule="evenodd" d="M28.7741 20.7574C25.2386 24.2163 25.2386 29.8245 28.7741 33.2834C32.1622 36.7423 37.7601 36.7423 41.2956 33.2834C44.6838 29.8245 44.6838 24.2163 41.2956 20.7574C37.7601 17.2986 32.1622 17.2986 28.7741 20.7574ZM35.9049 38.573C38.7063 38.4004 41.5077 37.256 43.5719 35.1398C48.1427 30.5328 48.1427 23.0634 43.5719 18.4564C39.0012 13.8479 31.4816 13.8479 26.9108 18.4564C24.6992 20.5711 23.6671 23.2905 23.3722 26.06L16.4423 33.0546C15.8526 33.6312 15.8526 34.5647 16.4423 35.1398C17.0321 35.7164 17.9168 35.7164 18.5065 35.1398L23.8145 29.853C24.2568 31.3395 24.8466 32.7641 25.8787 34.0338L18.5065 41.397C17.9168 41.9737 17.9168 42.9072 18.5065 43.4823C19.0963 44.0589 19.981 44.0589 20.5707 43.4823L27.9429 36.119C29.2699 37.1056 30.5969 37.7987 32.2188 38.1954L26.9108 43.4823C26.321 44.0589 26.321 44.9924 26.9108 45.5675C27.5006 46.1442 28.3853 46.1442 28.975 45.5675L35.9049 38.573Z" fill="black"/>
</svg>
