<?xml version="1.0" encoding="UTF-8"?>
<svg width="171px" height="28px" viewBox="0 0 171 28" version="1.1" xmlns="http://www.w3.org/2000/svg" xmlns:xlink="http://www.w3.org/1999/xlink">
    <title>SH Logo</title>
    <g id="Page-5" stroke="none" stroke-width="1" fill="none" fill-rule="evenodd">
        <g id="SH-Logo" fill="#000000">
            <path d="M121.400748,0.756756757 L118.190307,0.756756757 L118.190307,20.3054268 L121.400748,20.3054268 L121.400748,12.4645614 C121.400748,10.3163255 122.672774,9.08106835 124.665298,9.08106835 C126.547706,9.08106835 127.433378,10.3163255 127.433378,12.1422831 L127.433378,20.2517615 L130.64287,20.2517615 L130.64287,11.8201002 C130.64287,8.65144981 128.871527,6.50324252 125.440854,6.50324252 C123.393272,6.50324252 122.009232,7.36248915 121.400748,8.27548704 L121.400748,0.756756757 Z M53.2154198,17.835008 C50.6141271,17.835008 49.2859043,16.4924203 49.1196866,14.5052758 L45.9099099,14.5052758 C46.0204053,17.5128252 47.9575866,20.681466 53.049297,20.681466 C57.5873914,20.681466 60.63152,18.4794693 60.63152,15.149737 C60.63152,10.9070259 57.0894028,10.1552341 54.1009966,9.45701202 C51.887197,8.97365178 49.894768,8.54403324 49.894768,6.82545404 C49.894768,5.16057835 51.2782384,4.24761866 53.4920379,4.24761866 C55.9273028,4.24761866 57.2002779,5.69766121 57.2002779,7.52361878 L60.4101495,7.52361878 C60.2996541,4.08649858 57.9748846,1.40122754 53.4920379,1.40122754 C49.2305617,1.40122754 46.6845167,3.92536895 46.6845167,6.87915755 C46.6845167,11.014452 50.0605111,11.7663394 52.9940493,12.3571353 C55.3183442,12.8404096 57.3660209,13.2701141 57.3660209,15.2571631 C57.3107733,16.9220292 55.8163328,17.835008 53.2154198,17.835008 Z M71.9771356,14.5590366 C71.9771356,16.7609378 70.7596931,17.9424342 68.767264,17.9424342 C66.8300826,17.9424342 66.0554759,16.707177 66.0554759,14.8812194 L66.0554759,6.77174098 L62.8453195,6.77174098 L62.8453195,15.3109239 C62.8453195,18.4794693 64.6162831,20.6277052 67.9922776,20.6277052 C70.2617045,20.6277052 71.6452698,19.6609656 72.2541335,18.5868954 L72.2541335,20.3591876 L75.1872921,20.3591876 L75.1872921,6.77174098 L71.9771356,6.77174098 L71.9771356,14.5590366 Z M85.758301,20.6277052 C83.5997492,20.6277052 82.1053087,19.7147264 81.330702,18.5332301 L81.330702,25.7297297 L78.1205456,25.7297297 L78.1205456,6.77174098 L81.0537041,6.77174098 L81.0537041,8.70515332 C81.9391859,7.30882384 83.5997492,6.44952946 85.758301,6.44952946 C89.9089021,6.44952946 92.2335767,9.67186427 92.2335767,13.5386317 C92.2335767,17.405399 89.9089021,20.6277052 85.758301,20.6277052 Z M85.1494373,9.13478141 C82.7142673,9.13478141 81.2198269,11.014452 81.2198269,13.5386317 C81.2198269,15.9553851 82.7142673,17.8887688 85.1494373,17.8887688 C87.5846073,17.8887688 89.0790477,16.0090505 89.0790477,13.5386317 C89.0790477,11.0682128 87.5293596,9.13478141 85.1494373,9.13478141 Z M116.308848,6.66432441 C116.418964,6.66432441 116.751209,6.66432441 116.751209,6.66432441 L116.751209,9.56443814 C116.751209,9.56443814 116.363906,9.51077283 116.03166,9.51077283 C113.762898,9.51077283 112.434865,10.6385084 112.434865,13.2701141 L112.434865,20.3054268 L109.224424,20.3054268 L109.224424,6.77174098 L112.157677,6.77174098 L112.157677,8.65144981 C112.711103,7.79215544 113.873963,6.66432441 116.308848,6.66432441 Z M107.120835,14.4516104 C107.120835,14.4516104 107.120835,13.9682406 107.120835,13.4848708 C107.120835,9.51077283 104.409711,6.44952946 100.258541,6.44952946 C96.1073699,6.44952946 93.3405239,9.56443814 93.3405239,13.4848708 C93.3405239,17.5128252 96.052312,20.5740399 100.313598,20.5740399 C103.579097,20.5740399 106.013983,18.6943215 106.844596,16.0090505 L103.634155,16.0090505 C103.136736,17.1905468 101.863761,17.9424342 100.369606,17.9424342 C98.1559009,17.9424342 96.7168031,16.5460856 96.4946732,14.3978496 L107.120835,14.3978496 L107.120835,14.4516104 Z M100.313598,8.97365178 C102.362129,8.97365178 103.74522,10.2625647 103.966401,12.1422831 L96.6057382,12.1422831 C96.9379837,10.3163255 98.2660166,8.97365178 100.313598,8.97365178 Z M146.360932,13.4848708 C146.360932,13.9682406 146.360932,14.4516104 146.360932,14.4516104 L135.73477,14.4516104 C135.955951,16.5998464 137.395049,17.9960995 139.608753,17.9960995 C141.102909,17.9960995 142.320826,17.2443076 142.874252,16.0628113 L146.083744,16.0628113 C145.25408,18.7479868 142.763187,20.6277052 139.553695,20.6277052 C135.347467,20.6277052 132.580336,17.5664905 132.580336,13.5386317 C132.580336,9.61810346 135.347467,6.50324252 139.497688,6.50324252 C143.648859,6.44952946 146.360932,9.51077283 146.360932,13.4848708 Z M143.15144,12.1422831 C142.874252,10.2625647 141.546219,8.97365178 139.497688,8.97365178 C137.450106,8.97365178 136.067016,10.2625647 135.789828,12.1422831 L143.15144,12.1422831 Z M155.880241,6.66432441 C155.880241,6.66432441 155.547996,6.66432441 155.43788,6.66432441 C153.002046,6.66432441 151.840135,7.79215544 151.341767,8.65144981 L151.341767,6.77174098 L148.408514,6.77174098 L148.408514,20.3054268 L151.618955,20.3054268 L151.618955,13.2701141 C151.618955,10.6385084 152.946988,9.51077283 155.21575,9.51077283 C155.547996,9.51077283 155.936248,9.56443814 155.936248,9.56443814 L155.936248,6.66432441 L155.880241,6.66432441 Z M170.27027,13.5386317 C170.27027,17.3516382 167.50314,20.5740399 163.019723,20.5740399 C158.592314,20.5740399 155.825183,17.2979729 155.825183,13.5386317 C155.825183,9.72552958 158.592314,6.44952946 163.019723,6.44952946 C167.50314,6.44952946 170.27027,9.72552958 170.27027,13.5386317 Z M163.019723,9.18848492 C160.694954,9.18848492 158.979618,10.9070259 158.979618,13.5386317 C158.979618,16.1701419 160.694954,17.8887688 163.019723,17.8887688 C165.344493,17.8887688 167.059829,16.1701419 167.059829,13.5386317 C167.114887,10.9070259 165.399551,9.18848492 163.019723,9.18848492 Z" id="Shape"></path>
            <path d="M0,9.44067444 L10.4198195,0 L28.9315357,0 L39.3513514,9.44067444 L19.7310996,28 L0,9.44067444 Z M11.5836819,2.89655607 L17.2370135,2.89655607 L29.3195849,14.8582777 L19.6756776,23.9770452 L4.32310223,9.49427441 L11.5836819,2.89655607 Z" id="Shape"></path>
        </g>
    </g>
</svg>