<?xml version="1.0" encoding="UTF-8"?>
<svg width="64px" height="64px" viewBox="0 0 64 64" version="1.1" xmlns="http://www.w3.org/2000/svg" xmlns:xlink="http://www.w3.org/1999/xlink">
    <title>Group 26</title>
    <g id="Page-1" stroke="none" stroke-width="1" fill="none" fill-rule="evenodd">
        <g id="Desktop-HD-Copy-20" transform="translate(-930.000000, -1411.000000)" fill="#00DAFF">
            <g id="Group-14" transform="translate(859.000000, 1153.000000)">
                <g id="Group-12" transform="translate(11.000000, 198.000000)">
                    <g id="Group-16" transform="translate(59.000000, 60.000000)">
                        <g id="Group-26" transform="translate(1.000000, 0.000000)">
                            <rect id="Rectangle-Copy-2" fill-rule="nonzero" opacity="0.300000012" x="0" y="0" width="64" height="64" rx="5"></rect>
                            <path d="M40.1704545,24.9073433 C42.1647727,26.9342561 42.4715909,30.011534 41.0909091,32.3629373 L32.6534091,23.9384852 C34.9545455,22.5497885 38.0227273,22.8604383 40.0170455,24.8704344 L40.0170455,24.8888889 L40.1704545,24.9073433 Z M43.2386364,23.8908112 C45.8465909,27.4955786 45.5397727,32.5305652 42.3181818,35.763168 L41.8579545,36.2214533 C41.3977273,36.5690119 40.9375,36.5690119 40.4772727,36.2214533 L37.8693182,33.5886198 L35.7215909,35.7616301 C35.1079545,36.3629373 34.1875,36.3629373 33.5738636,35.7616301 C32.9602273,35.1618608 32.9602273,34.1868512 33.5738636,33.5870819 L35.7215909,31.4125336 L33.5738636,29.2379854 L31.4261364,31.4125336 C30.8125,32.012303 29.8920455,32.012303 29.2784091,31.4125336 C28.6647727,30.8112265 28.6647727,29.8377547 29.2784091,29.2379854 L31.4261364,27.0634371 L28.8181818,24.4290657 C28.5113636,24.083045 28.5113636,23.5201845 28.8181818,23.1726259 L29.2784091,22.7143406 C32.5,19.4801999 37.5625,19.14802 41.0909091,21.716263 L43.3920455,19.4509804 C44.0056818,18.8496732 44.9261364,18.8496732 45.5397727,19.4509804 C46.1534091,20.0507497 46.1534091,21.0242215 45.5397727,21.6255286 L43.2386364,23.8908112 Z M19.4602273,45.550173 C18.8465909,44.9488658 18.8465909,43.9753941 19.4602273,43.3756248 L21.7613636,41.1088043 C19.1534091,37.5055748 19.4602273,32.4705882 22.6818182,29.2379854 L23.1420455,28.7781622 C23.6022727,28.4306036 24.0625,28.4306036 24.5227273,28.7781622 L36.1818182,40.5705498 C36.4886364,40.9181084 36.4886364,41.4809689 36.1818182,41.8269896 L35.7215909,42.2868128 C32.5,45.5194156 27.4375,45.8515955 23.9090909,43.2833526 L21.6079545,45.550173 C20.9943182,46.1499423 20.0738636,46.1499423 19.4602273,45.550173 Z M32.3465909,41.0626682 L23.9090909,32.6366782 C22.5284091,34.9957709 22.8352273,38.0853518 24.9829545,40.1122645 C26.9772727,42.1391772 30.0454545,42.4559785 32.3465909,41.0626682 Z" id="Shape" stroke="#00414D"></path>
                        </g>
                    </g>
                </g>
            </g>
        </g>
    </g>
</svg>