<svg id="Group_201" data-name="Group 201" xmlns="http://www.w3.org/2000/svg" width="15.692" height="13" viewBox="0 0 15.692 13">
  <path id="Path_4" data-name="Path 4" d="M26.413,54.148a.4.4,0,0,0-.265-.1H24.98v-.8a.36.36,0,0,0-.377-.34h-.91v-.8a.36.36,0,0,0-.377-.34H20.739a.36.36,0,0,0-.377.34v.8h-.91a.368.368,0,0,0-.372.285h-.8a.368.368,0,0,0-.372-.285H17v-.8a.36.36,0,0,0-.377-.34H14.043a.36.36,0,0,0-.377.34v.8h-.91a.36.36,0,0,0-.377.34v.8H11.21a.36.36,0,0,0-.377.34v4.335a.36.36,0,0,0,.377.34h1.168v1.258a.36.36,0,0,0,.377.34h1.425V61.92a.36.36,0,0,0,.377.34h1.168v1.258a.36.36,0,0,0,.377.34h1.168v.573a.36.36,0,0,0,.377.34h2.06a.36.36,0,0,0,.377-.34v-.573h1.168a.36.36,0,0,0,.377-.34V62.259H22.8a.36.36,0,0,0,.377-.34V60.662H24.6a.36.36,0,0,0,.377-.34V59.065h1.168a.36.36,0,0,0,.377-.34V54.39A.322.322,0,0,0,26.413,54.148Z" transform="translate(-10.833 -51.769)" fill="#ff4784"/>
</svg>
