<svg xmlns="http://www.w3.org/2000/svg" width="21.667" height="10.317" viewBox="0 0 21.667 10.317">
  <g id="Group_1373" data-name="Group 1373" transform="translate(0)">
    <path id="Path_283" data-name="Path 283" d="M478.613,455.8c-2.209,0-3.724,1.381-5.033,3.091l.776,1.133c1.2-1.64,2.473-2.931,4.257-2.931a4.111,4.111,0,0,1,4.067,3.423h-5.086v1.293H484a5.333,5.333,0,0,0,.04-.647,5.4,5.4,0,0,0-5.424-5.362" transform="translate(-462.369 -455.798)" fill="#f7296e" fill-rule="evenodd"/>
    <path id="Path_284" data-name="Path 284" d="M300.9,464.871c-2.1,0-3.481-1.813-5.238-4.472s-3.415-4.6-5.987-4.6a5.159,5.159,0,1,0,0,10.317c2.12,0,3.575-1.323,4.832-2.965l-.74-1.1c-1.152,1.577-2.377,2.818-4.091,2.818a3.915,3.915,0,1,1,0-7.829c2.1,0,3.406,1.72,5.234,4.467s3.419,4.606,5.99,4.606a5.222,5.222,0,0,0,4.861-3.293h-1.38a3.971,3.971,0,0,1-3.481,2.049" transform="translate(-284.464 -455.798)" fill="#f7296e" fill-rule="evenodd"/>
  </g>
</svg>
