<?xml version="1.0" encoding="UTF-8"?>
<svg width="116px" height="20px" viewBox="0 0 116 20" version="1.1" xmlns="http://www.w3.org/2000/svg" xmlns:xlink="http://www.w3.org/1999/xlink">
    <title>aeternityLogo</title>
    <g id="Page-5" stroke="none" stroke-width="1" fill="none" fill-rule="evenodd">
        <g id="aeternityLogo" fill-rule="nonzero">
            <g id="Brand_E_Mark" transform="translate(0.000000, 1.000000)" fill="#F72A6E">
                <path d="M27.1,17.0001013 C22.859,17.0001013 20.236,13.937 17.222,9.41 C14.208,4.883 12.055,2.05 8.6,2.05 C5.01633574,2.03114877 2.09351745,4.9163918 2.066,8.5 C2.09351745,12.0836082 5.01633574,14.9688512 8.6,14.95 C11.427,14.95 13.446,12.906 15.346,10.308 L16.566,12.115 C14.491,14.819 12.093,17.0001013 8.6,17.0001013 C3.87995972,17.0227223 0.0324824734,13.2199832 0,8.5 C0.0324824734,3.78001679 3.87995972,-0.0227223423 8.6,-0.00010130034 C12.841,-0.00010130034 15.574,3.2 18.47,7.582 C21.366,11.964 23.646,14.95 27.1,14.95 C29.4849278,14.9542708 31.6835123,13.6613238 32.839,11.575 L35.114,11.575 C33.8096956,14.8508076 30.6399219,17.0003103 27.114,17.0001013 L27.1,17.0001013 Z M25.488,9.525 L25.488,7.475 L33.55,7.475 C33.0163235,4.33245806 30.2875098,2.03729305 27.1,2.05 C24.272,2.05 22.253,4.095 20.352,6.695 L19.126,4.9 C21.2,2.188 23.6,-2.80862573e-16 27.1,-2.80862573e-16 C31.8200403,-0.0227223423 35.6675175,3.78001679 35.7,8.5 C35.6992685,8.84261126 35.6782317,9.18487802 35.637,9.525 L25.488,9.525 Z" id="e"></path>
            </g>
            <path d="M106.701064,19.8138201 L106.701064,17.855967 L107.183311,17.8867994 C107.694345,17.9214297 108.203793,17.8000894 108.64211,17.5393427 C109.016329,17.2390105 109.287078,16.8322945 109.417322,16.3748292 L109.786242,15.4107259 L105.782382,4.26365173 L108.543249,4.26365173 L110.954486,11.8685652 L113.270479,4.26128001 L116,4.26128001 L111.472902,17.1717264 C110.777662,19.0572421 109.597763,20 107.933206,20 C107.515766,19.9936871 107.101182,19.9310425 106.701064,19.8138201 L106.701064,19.8138201 Z M69.1171086,15.6799158 C67.6448244,15.7371539 66.214309,15.1914152 65.1662963,14.1726891 C64.1310154,13.0904348 63.5855911,11.6418398 63.6544506,10.1573707 L63.6544506,9.84548981 C63.6404584,8.80905211 63.8689857,7.78333273 64.3223633,6.84763838 C64.7276873,6.00298314 65.3691777,5.28932968 66.1717823,4.79017311 C66.9502038,4.30945491 67.850763,4.05460777 68.7698904,4.05494056 L68.8265545,4.05494056 C70.1890785,3.97930266 71.5127102,4.51683197 72.4241205,5.51591878 C73.3367948,6.70041241 73.7872432,8.16762033 73.6936369,9.65100894 L73.6936369,10.6661042 L66.2417082,10.6661042 C66.2750243,11.4867106 66.610034,12.2675274 67.1845019,12.8635008 C67.7143395,13.3832737 68.4326977,13.6742705 69.1810064,13.6722566 L69.2653997,13.6722566 C70.3949144,13.690891 71.4633705,13.1691768 72.1311551,12.2729431 L73.5115885,13.5690869 C73.0514295,14.2392247 72.4180558,14.7766686 71.6766369,15.1261197 C70.9041429,15.4895708 70.0590244,15.6791581 69.2027075,15.6811017 L69.1171086,15.6799158 Z M67.1097536,6.80020403 C66.6394764,7.37812324 66.3519157,8.07905777 66.2826992,8.81616424 L71.1606321,8.81616424 L71.1606321,8.63354196 C71.1565308,7.93807479 70.9135015,7.26439916 70.4710183,6.72193734 C70.0377955,6.27876989 69.4302575,6.04250699 68.806059,6.07445835 L68.730105,6.07445835 C68.1090079,6.07589205 67.5186159,6.34032508 67.1097536,6.80020403 Z M42.9648294,15.6799158 C41.9147757,15.7386132 40.8796636,15.4138704 40.0580829,14.7679903 C39.3405297,14.1223673 38.9540259,13.1949982 39.0043722,12.239739 C38.959964,11.2427707 39.4313349,10.291383 40.25701,9.71148775 C41.3707439,9.04680511 42.6656575,8.73583585 43.9654928,8.82090768 L45.9776703,8.82090768 L45.9776703,8.08567513 C46.0087107,7.54839205 45.8297108,7.01976929 45.4773386,6.60809488 C45.101011,6.23759605 44.5813971,6.04334443 44.0498861,6.07445835 C43.4895377,6.0501762 42.9372709,6.21272294 42.4825819,6.53575748 C42.1040314,6.79830827 41.8791312,7.22569407 41.8797726,7.68129723 L39.3310949,7.48444464 C39.3244877,6.49274773 39.825046,5.56418077 40.6633034,5.01311459 C41.6644286,4.3428869 42.8579075,4.00659093 44.0679704,4.0537547 C45.3944898,3.95804949 46.6923843,4.46590138 47.5895824,5.4317228 C48.4844613,4.52046701 49.7271277,4.02053319 51.0147449,4.0537547 L51.0762315,4.0537547 C52.381244,3.98347203 53.6531357,4.47316219 54.5628805,5.39614703 C55.4536338,6.45218664 55.9019774,7.80231111 55.8167239,9.17192193 L55.8167239,10.5949527 L48.495002,10.5949527 C48.5094937,11.4290784 48.8272796,12.2305052 49.3907767,12.854014 C49.9793288,13.4192272 50.7817364,13.7160048 51.6030868,13.6722566 L51.6995363,13.6722566 C52.5615846,13.6712779 53.410517,13.4645579 54.1734657,13.0698403 L54.8160605,12.7140826 L55.5852451,14.4347639 C55.0371921,14.8513957 54.4130976,15.1609451 53.7466767,15.3466895 C53.0144051,15.5666601 52.2530072,15.6785584 51.4873474,15.67873 L51.4547957,15.67873 C49.8900021,15.7626045 48.3698022,15.1499472 47.3147014,14.0102264 C46.8260584,14.5634191 46.2043317,14.987418 45.5062734,15.2435198 C44.7280385,15.532785 43.9028704,15.6806488 43.0709238,15.6799158 L42.9648294,15.6799158 Z M42.1859998,11.0645528 C41.7883416,11.3469093 41.5528512,11.8000233 41.55305,12.28243 C41.5389986,12.6982756 41.7198997,13.0974298 42.0437368,13.3651192 C42.4514822,13.662889 42.9535999,13.8083233 43.4603386,13.7754264 C43.9191051,13.764383 44.3706036,13.6602217 44.7865191,13.4694748 C45.2254651,13.2904585 45.6284254,13.035859 45.9764647,12.7176402 L45.9764647,10.5510759 L43.9136512,10.5510759 C43.2961882,10.5318924 42.6893439,10.7122531 42.1859998,11.0645528 Z M49.364253,6.79546059 C48.8793607,7.36929217 48.5874404,8.07698037 48.5287593,8.82090768 L53.2909529,8.82090768 L53.2909529,8.51021263 C53.3329236,7.86023973 53.1284612,7.21803555 52.7170784,6.70770703 C52.2923125,6.26971081 51.6929254,6.03805016 51.0786427,6.07445835 L51.0099225,6.07445835 C50.3835634,6.07468474 49.786232,6.33423598 49.364253,6.7895313 L49.364253,6.79546059 Z M100.241359,12.4875836 L100.241359,6.12663614 L98.3654164,6.12663614 L98.3654164,4.26128001 L100.240153,4.26128001 L100.240153,1.53380443 L102.799682,1.53380443 L102.799682,4.26128001 L104.811859,4.26128001 L104.811859,6.12663614 L102.800887,6.12663614 L102.800887,12.3855997 C102.7708,12.7151658 102.862389,13.0443666 103.05889,13.3129414 C103.311469,13.5311704 103.645903,13.6345064 103.979982,13.5975475 C104.281562,13.5963004 104.582042,13.561693 104.875757,13.4943778 L104.875757,15.4415582 C104.326579,15.5951022 103.758811,15.6748825 103.187891,15.6787304 C101.222733,15.6795206 100.240153,14.6126428 100.240153,12.4780967 L100.241359,12.4875836 Z M58.2858309,12.4875836 L58.2858309,6.12663614 L56.4050658,6.12663614 L56.4050658,4.26128001 L58.2798028,4.26128001 L58.2798028,1.53380443 L60.8405367,1.53380443 L60.8405367,4.26128001 L62.8527142,4.26128001 L62.8527142,6.12663614 L60.8417423,6.12663614 L60.8417423,12.3855997 C60.8116546,12.7151658 60.9032439,13.0443666 61.0997447,13.3129414 C61.3523242,13.5311704 61.6867584,13.6345064 62.0208374,13.5975475 C62.3220224,13.5963523 62.6221092,13.5617435 62.9154064,13.4943778 L62.9154064,15.4415582 C62.3662466,15.5951877 61.7984667,15.6749698 61.2275403,15.6787304 C59.2631857,15.6795206 58.2810084,14.6126428 58.2810084,12.4780967 L58.2858309,12.4875836 Z M96.6522323,15.4818774 L94.0878815,15.4818774 L94.0878815,4.26128001 L96.6474099,4.26128001 L96.6474099,15.4723905 L96.6474099,15.4723905 L96.6522323,15.4818774 Z M89.5957465,15.4818774 L89.5957465,8.20900446 C89.6420658,7.64368604 89.4751145,7.08138678 89.1267609,6.62944034 C88.7135076,6.24925072 88.1540012,6.06220548 87.5908027,6.11596341 C86.6121812,6.08459214 85.7072566,6.62525508 85.2844543,7.49393151 L85.2844543,15.4723905 L82.7225147,15.4723905 L82.7225147,4.26128001 L85.133752,4.26128001 L85.2072947,5.55742385 C86.0127394,4.57282142 87.2409286,4.01663991 88.5251572,4.05494056 C90.8994221,4.05494056 92.107452,5.39140359 92.1492468,8.06432967 L92.1492468,15.4735764 L89.5957465,15.4818774 Z M75.422494,15.4818774 L75.422494,4.26128001 L77.8614605,4.26128001 L77.9241526,5.51473292 C78.4407429,4.59805634 79.4291293,4.03626717 80.4945315,4.0537547 C80.8030047,4.0440135 81.1104754,4.09314349 81.3999511,4.19842949 L81.3891005,6.56184638 C81.044467,6.50542151 80.6956135,6.47765329 80.3462404,6.47883625 C79.3494967,6.3781888 78.397778,6.91127719 77.9771998,7.80581242 L77.9771998,15.4735764 L75.422494,15.4818774 Z M94.3036872,2.29749759 C94.0536949,2.04406168 93.9188436,1.70176215 93.9299455,1.34881043 C93.9188368,0.991279046 94.0533862,0.64419563 94.3036872,0.384707106 C94.5909323,0.116357026 94.9789274,-0.0220290147 95.3742766,0.00286052386 C95.7706085,-0.0198419688 96.1590109,0.118651668 96.4484828,0.385892965 C96.7011237,0.644250339 96.8375432,0.991674744 96.827047,1.34999629 C96.836867,1.70363477 96.7002374,2.04603033 96.4484828,2.29868345 C96.1584173,2.56463213 95.7700858,2.70181441 95.3742766,2.67815832 C94.9791463,2.70307296 94.5912903,2.56516619 94.3036872,2.29749759 L94.3036872,2.29749759 Z" id="aeternity" fill="#FFFFFF"></path>
        </g>
    </g>
</svg>