<svg width="24" height="24" viewBox="0 0 24 24" fill="none" xmlns="http://www.w3.org/2000/svg">
<path opacity="0.44" d="M18 13C18.5523 13 19 12.5523 19 12C19 11.4477 18.5523 11 18 11H6C5.44771 11 5 11.4477 5 12C5 12.5523 5.44771 13 6 13H18Z" fill="white"/>
<path d="M12.7069 17.293C12.8891 17.4816 12.9899 17.7342 12.9876 17.9964C12.9853 18.2586 12.8802 18.5094 12.6948 18.6948C12.5094 18.8802 12.2585 18.9854 11.9964 18.9877C11.7342 18.99 11.4816 18.8892 11.2929 18.707L5.29295 12.707C5.11069 12.5248 5.00582 12.2792 5.00024 12.0215C4.99465 11.7639 5.08876 11.514 5.26295 11.324L10.7629 5.32402C10.9438 5.13556 11.1913 5.02537 11.4524 5.01702C11.7135 5.00866 11.9675 5.1028 12.1601 5.27931C12.3526 5.45581 12.4685 5.70067 12.4829 5.9615C12.4972 6.22233 12.409 6.47843 12.2369 6.67502L7.38395 11.97L12.7069 17.293Z" fill="white"/>
</svg>
