<svg viewBox="0 0 24 24" fill="none" xmlns="http://www.w3.org/2000/svg">
  <g>
    <path opacity="0.44"
      d="M20.5714 13.4251C21.3604 13.4251 22 12.7855 22 11.9965C22 11.2075 21.3604 10.5679 20.5714 10.5679L3.42857 10.5679C2.63959 10.5679 2 11.2075 2 11.9965C2 12.7855 2.63959 13.4251 3.42857 13.4251L20.5714 13.4251Z"
      fill="currentColor" />
    <path
      d="M13.0099 19.5579C13.2702 19.8274 13.4141 20.1882 13.4109 20.5628C13.4076 20.9374 13.2574 21.2957 12.9925 21.5605C12.7277 21.8254 12.3694 21.9756 11.9948 21.9789C11.6202 21.9821 11.2594 21.8382 10.9899 21.5779L2.4185 13.0065C2.15813 12.7462 2.00832 12.3954 2.00034 12.0272C1.99235 11.6591 2.1268 11.3022 2.37564 11.0308L10.2328 2.45935C10.4912 2.19013 10.8447 2.03271 11.2177 2.02078C11.5907 2.00884 11.9536 2.14333 12.2287 2.39548C12.5038 2.64763 12.6693 2.99742 12.6898 3.37004C12.7103 3.74265 12.5842 4.10851 12.3385 4.38935L5.40564 11.9536L13.0099 19.5579Z"
      fill="currentColor" />
  </g>
</svg>