<svg data-v-1dc4d223="" data-v-0b8a870e="" xmlns="http://www.w3.org/2000/svg" width="20.88" height="18" class="url-status"><g data-v-1dc4d223="" data-name="Group 664"><g data-v-1dc4d223="" data-name="Polygon 1" fill="none"><path data-v-1dc4d223="" d="M7.845 4.474a3 3 0 015.19 0l5.232 9.021A3 3 0 0115.672 18H5.208a3 3 0 01-2.6-4.505z"></path><path data-v-1dc4d223="" d="M10.44 4.48c-.26 0-.906.072-1.298.747l-5.231 9.02a1.473 1.473 0 00-.003 1.502c.13.226.518.751 1.3.751h10.464c.782 0 1.17-.525 1.3-.751.13-.226.39-.825-.003-1.502l-5.231-9.02a1.474 1.474 0 00-1.298-.748m0-1.5c1.009 0 2.017.499 2.595 1.495l5.232 9.02c1.16 2-.283 4.506-2.595 4.506H5.208c-2.312 0-3.755-2.505-2.595-4.505l5.232-9.02a2.972 2.972 0 012.595-1.496z" fill="#ff5857"></path></g><g data-v-1dc4d223="" data-name="Group 162" fill="#ff5857"><path data-v-1dc4d223="" d="M10.221 13.45a1.265 1.265 0 01.872.31 1.013 1.013 0 01.349.793 1.013 1.013 0 01-.349.793 1.265 1.265 0 01-.872.31 1.265 1.265 0 01-.872-.306 1.013 1.013 0 01-.349-.8 1.013 1.013 0 01.349-.79 1.265 1.265 0 01.872-.31z"></path><path data-v-1dc4d223="" data-name="Path" d="M10.811 6a.643.643 0 01.643.643v.064l-.518 5.143a.643.643 0 01-.64.579h-.122a.643.643 0 01-.64-.579l-.517-5.143A.643.643 0 019.596 6h.032z"></path></g></g></svg>
