<svg xmlns="http://www.w3.org/2000/svg" width="30" height="30" viewBox="0 0 30 30"><g transform="translate(-347 -85)"><circle cx="15" cy="15" r="15" transform="translate(347 85)" fill="#babac0" opacity="0"/><path d="M16.875,42.157H15.092l-.673-1.345a3.108,3.108,0,0,0-2.8-1.727H8.376a3.108,3.108,0,0,0-2.8,1.727l-.673,1.345H3.125A3.129,3.129,0,0,0,0,45.282v7.624a3.129,3.129,0,0,0,3.125,3.125h13.75A3.129,3.129,0,0,0,20,52.906V45.282A3.129,3.129,0,0,0,16.875,42.157Zm1.563,10.749a1.564,1.564,0,0,1-1.562,1.563H3.125a1.564,1.564,0,0,1-1.562-1.562V45.282a1.564,1.564,0,0,1,1.562-1.562H5.391a.781.781,0,0,0,.7-.432l.889-1.777a1.554,1.554,0,0,1,1.4-.864h3.249a1.554,1.554,0,0,1,1.4.864l.889,1.777a.781.781,0,0,0,.7.432h2.266a1.564,1.564,0,0,1,1.563,1.562ZM10,44.449A3.854,3.854,0,1,0,13.854,48.3,3.859,3.859,0,0,0,10,44.449Zm0,6.146A2.292,2.292,0,1,1,12.292,48.3,2.294,2.294,0,0,1,10,50.594Z" transform="translate(352 51.779)" fill="#fff"/></g></svg>