<svg version="1.1" id="Capa_1" xmlns="http://www.w3.org/2000/svg" xmlns:xlink="http://www.w3.org/1999/xlink" x="0px" y="0px"
	 viewBox="0 0 124.5 124.5" style="enable-background:new 0 0 124.5 124.5;" xml:space="preserve"
	>
<g>
	<path fill="#fff" d="M116.35,124.5c3.3,0,6-2.699,6-6V6c0-3.3-2.7-6-6-6h-36c-3.3,0-6,2.7-6,6v112.5c0,3.301,2.7,6,6,6H116.35z"/>
	<path fill="#fff" d="M44.15,124.5c3.3,0,6-2.699,6-6V6c0-3.3-2.7-6-6-6h-36c-3.3,0-6,2.7-6,6v112.5c0,3.301,2.7,6,6,6H44.15z"/>
</g>
</svg>
