<svg width="24" height="24" viewBox="0 0 24 24" fill="none" xmlns="http://www.w3.org/2000/svg">
<path d="M12.0001 15.9121C11.8636 15.9239 11.7261 15.9057 11.5974 15.8587C11.4687 15.8117 11.3519 15.7371 11.2551 15.6401L5.2751 9.66105C5.09886 9.48468 4.99991 9.24553 5 8.9962C5.00009 8.74687 5.09923 8.50779 5.2756 8.33155C5.45197 8.15531 5.69112 8.05636 5.94045 8.05645C6.18978 8.05655 6.42886 8.15568 6.6051 8.33205L12.0051 13.7321L17.4051 8.33205C17.4893 8.23274 17.5932 8.15201 17.7103 8.09498C17.8273 8.03794 17.955 8.00585 18.0851 8.00073C18.2152 7.99561 18.3449 8.01757 18.4661 8.06523C18.5873 8.11289 18.6972 8.1852 18.789 8.27758C18.8807 8.36996 18.9523 8.4804 18.9991 8.60189C19.046 8.72339 19.067 8.85328 19.061 8.98335C19.055 9.11342 19.0221 9.24082 18.9642 9.35748C18.9064 9.47414 18.825 9.57752 18.7251 9.66105L12.7451 15.6401C12.6578 15.7275 12.5542 15.7967 12.4401 15.8439C12.3259 15.8911 12.2036 15.9153 12.0801 15.9151C12.0534 15.9157 12.0268 15.9147 12.0001 15.9121Z" fill="white"/>
</svg>
