<svg id="Icon_Heart" data-name="Icon/Heart" xmlns="http://www.w3.org/2000/svg" width="20" height="21.437" viewBox="0 0 20 21.437">
  <path id="Comments" d="M2.741,14.046a.993.993,0,0,1-.881-.562,1.149,1.149,0,0,1-.11-.668L2.1,10.264A5.413,5.413,0,0,1,0,6.125C0,2.748,3.589,0,8,0s8,2.748,8,6.125-3.589,6.125-8,6.125a10.4,10.4,0,0,1-1.679-.135l-3.105,1.8A.951.951,0,0,1,2.741,14.046ZM8,1.608A7.988,7.988,0,0,0,3.371,2.983,4.006,4.006,0,0,0,1.5,6.125a3.676,3.676,0,0,0,1.33,2.7L3.024,9l.69.576L3.38,11.993,6.05,10.444l.5.081A9.039,9.039,0,0,0,8,10.642a7.987,7.987,0,0,0,4.629-1.375A4.007,4.007,0,0,0,14.5,6.125a4.006,4.006,0,0,0-1.871-3.142A7.988,7.988,0,0,0,8,1.608Z" transform="translate(2 3.751)" fill="#727278"/>
</svg>
