<svg xmlns="http://www.w3.org/2000/svg" xmlns:xlink="http://www.w3.org/1999/xlink" width="60" height="56.25" viewBox="0 0 60 56.25"><defs><linearGradient id="a" x1="0.5" y1="1" x2="0.5" y2="-0.523" gradientUnits="objectBoundingBox"><stop offset="0" stop-color="#2a9cff"/><stop offset="1" stop-color="#67f7b8"/></linearGradient></defs><g transform="translate(0 -16)"><g transform="translate(0 16)"><path d="M58.717,39.838a1.759,1.759,0,0,0-3.033-.549,3.493,3.493,0,0,1-2.715,1.32,3.624,3.624,0,0,1-3.633-3.516,3.469,3.469,0,0,1,.376-1.538A1.76,1.76,0,0,0,47.358,33.2a3.468,3.468,0,0,1-1.538.376,3.5,3.5,0,0,1-2.2-6.231,1.759,1.759,0,0,0-.549-3.033,25.049,25.049,0,0,0-3.2-.841A22.877,22.877,0,1,0,13.9,59.833,24.649,24.649,0,0,0,58.717,39.838Zm-46.3-16.807a1.758,1.758,0,1,1-1.758,1.758A1.76,1.76,0,0,1,12.422,23.031Zm-.775,31.5A19.5,19.5,0,0,1,3.516,38.852a19.166,19.166,0,0,1,4.11-11.874,5.272,5.272,0,1,0,8.28-6.143,19.419,19.419,0,0,1,18.219,2.224A24.612,24.612,0,0,0,11.647,54.531Zm23.626,14.2a21.094,21.094,0,0,1,0-42.188,20.8,20.8,0,0,1,4.236.438,6.927,6.927,0,0,0-.72,3.078,7.039,7.039,0,0,0,7.031,7.031,6.911,6.911,0,0,0,2.137,4.991,7.1,7.1,0,0,0,8.089,1.321,20.8,20.8,0,0,1,.438,4.236A21.177,21.177,0,0,1,35.273,68.734Z" transform="translate(0 -16)" fill="url(#a)"/></g><g transform="translate(25.716 34.339)"><path d="M215.284,166a4.284,4.284,0,1,0,4.284,4.284A4.289,4.289,0,0,0,215.284,166Zm0,5.712a1.428,1.428,0,1,1,1.428-1.428A1.43,1.43,0,0,1,215.284,171.712Z" transform="translate(-211 -166)" fill="url(#a)"/></g><g transform="translate(36.685 57.97)"><path d="M305.284,346a4.284,4.284,0,1,0,4.284,4.284A4.289,4.289,0,0,0,305.284,346Zm0,5.712a1.428,1.428,0,1,1,1.428-1.428A1.43,1.43,0,0,1,305.284,351.712Z" transform="translate(-301 -346)" fill="url(#a)"/></g><g transform="translate(25.342 52.098)"><path d="M213.856,316a2.856,2.856,0,1,0,2.856,2.856A2.859,2.859,0,0,0,213.856,316Z" transform="translate(-211 -316)" fill="url(#a)"/></g><g transform="translate(43.429 44.809)"><g transform="translate(0 0)"><ellipse cx="1" cy="1.5" rx="1" ry="1.5" fill="url(#a)"/></g></g><g transform="translate(17.445 48.551)"><g transform="translate(0 0)"><circle cx="1.5" cy="1.5" r="1.5" fill="url(#a)"/></g></g><g transform="translate(6 33.585)"><g transform="translate(0 0)"><circle cx="1.5" cy="1.5" r="1.5" fill="url(#a)"/></g></g></g></svg>