<svg xmlns="http://www.w3.org/2000/svg" width="107.308" height="85.853" viewBox="0 0 107.308 85.853"><g transform="translate(-0.533 -0.075)" opacity="0.25"><path d="M53.654,85.853a3.776,3.776,0,0,1-2.691-1.122L1.132,34.756a3.955,3.955,0,0,1-.676-4.614L15.447,2.036A3.823,3.823,0,0,1,18.815,0H88.493a3.823,3.823,0,0,1,3.369,2.036l14.99,28.105a3.955,3.955,0,0,1-.676,4.614L56.345,84.73A3.776,3.776,0,0,1,53.654,85.853ZM52.036,46.1h0a1.114,1.114,0,0,1,1.1,1.117,1.189,1.189,0,0,1-.008.139l-2.6,21.747a1.116,1.116,0,0,0,.965,1.246,1.089,1.089,0,0,0,1.052-.493L75.061,35.238a1.134,1.134,0,0,0-.313-1.554,1.074,1.074,0,0,0-.6-.183l-17.835.044a1.117,1.117,0,0,1-1.107-1.117,1.165,1.165,0,0,1,.014-.169l3.172-21.54a1.123,1.123,0,0,0-.929-1.276,1.093,1.093,0,0,0-1.066.463l-23.963,34.5a1.134,1.134,0,0,0,.267,1.562,1.084,1.084,0,0,0,.638.2Z" transform="translate(0.533 0.075)" fill="#fff"/></g></svg>
