<svg data-v-1dc4d223="" data-v-0b8a870e="" xmlns="http://www.w3.org/2000/svg" width="18" height="18" class="url-status"><path data-v-1dc4d223="" data-name="Path 443" d="M9 0a9 9 0 109 9 9.01 9.01 0 00-9-9zm7.3 12.6h-2.813a15.842 15.842 0 00.395-3.171h3.25A8.085 8.085 0 0116.3 12.6zM.868 9.429H4.12a15.774 15.774 0 00.393 3.171H1.7a8.083 8.083 0 01-.832-3.171zm.669-3.686h2.9a15.975 15.975 0 00-.318 2.829H.868a8.083 8.083 0 01.67-2.829zm7.891-.857V.906a3.882 3.882 0 012.343 2.232 9.9 9.9 0 01.695 1.749zm3.258.857a15 15 0 01.336 2.829H9.429V5.743zM8.571.906v3.98H5.534a9.9 9.9 0 01.695-1.749A3.884 3.884 0 018.571.905zm0 4.837v2.829H4.977a14.994 14.994 0 01.336-2.829zM4.977 9.429h3.594V12.6H5.394a14.764 14.764 0 01-.417-3.171zm3.594 4.029v3.638a3.882 3.882 0 01-2.343-2.232 9.589 9.589 0 01-.587-1.406zm.857 3.637v-3.638h2.93a9.594 9.594 0 01-.587 1.406 3.884 3.884 0 01-2.342 2.232zm0-4.495V9.429h3.594a14.765 14.765 0 01-.416 3.171zm4.453-4.029a16.031 16.031 0 00-.319-2.829h2.9a8.083 8.083 0 01.669 2.829zm2.143-3.686h-2.667a9.031 9.031 0 00-1.837-3.629 8.183 8.183 0 014.504 3.63zM6.48 1.256a9.036 9.036 0 00-1.837 3.629H1.976a8.183 8.183 0 014.505-3.629zm-4.292 12.2h2.554a8.726 8.726 0 001.738 3.286 8.181 8.181 0 01-4.291-3.285zm9.331 3.286a8.724 8.724 0 001.738-3.286h2.554a8.181 8.181 0 01-4.292 3.287z" fill="#727278"></path></svg>
