<svg xmlns="http://www.w3.org/2000/svg" width="19.5" height="18.2" viewBox="0 0 19.5 18.2">
  <g id="Icon_Heart" data-name="Icon/Heart" transform="translate(-0.253 -0.9)">
    <path id="Heart" d="M9.75,18.2h0L1.676,9.956a5.926,5.926,0,0,1,0-8.249,5.624,5.624,0,0,1,7.867-.2l.211.205a5.628,5.628,0,0,1,8.078,0,5.909,5.909,0,0,1,.2,8.032l-.2.215L9.75,18.2ZM5.708,1.867a3.826,3.826,0,0,0-2.565.989l-.179.172A4.031,4.031,0,0,0,2.8,8.453l.168.183L9.75,15.559l6.781-6.923a4.03,4.03,0,0,0,0-5.609,3.823,3.823,0,0,0-5.313-.167l-.179.172L9.715,4.388,8.438,3.013l-.165-.158A3.828,3.828,0,0,0,5.708,1.867Z" transform="translate(0.25 0.9)" fill="#f72a6e"/>
  </g>
</svg>
