<svg xmlns="http://www.w3.org/2000/svg" width="13.614" height="10.892" viewBox="0 0 13.614 10.892"><g transform="translate(325.67 -26.664)"><g transform="translate(-325.67 26.664)"><path d="M6.807,10.892a.479.479,0,0,1-.341-.142L.144,4.409a.5.5,0,0,1-.086-.585L1.96.258A.485.485,0,0,1,2.387,0h8.84a.485.485,0,0,1,.427.258l1.9,3.566a.5.5,0,0,1-.086.585L7.148,10.75A.479.479,0,0,1,6.807,10.892ZM6.6,5.849h0a.141.141,0,0,1,.14.142.151.151,0,0,1,0,.018l-.33,2.759a.142.142,0,0,0,.122.158h.017a.138.138,0,0,0,.116-.064L9.523,4.471a.144.144,0,0,0-.04-.2.136.136,0,0,0-.076-.023l-2.263.006A.142.142,0,0,1,7,4.114a.148.148,0,0,1,0-.021l.4-2.733A.142.142,0,0,0,7.291,1.2l-.021,0a.139.139,0,0,0-.114.06L4.115,5.634a.144.144,0,0,0,.034.2.138.138,0,0,0,.081.026Z" transform="translate(0 0)" fill="#2a9cff"/></g></g></svg>
