<?xml version="1.0" encoding="utf-8"?>
<!-- Generator: Adobe Illustrator 20.1.0, SVG Export Plug-In . SVG Version: 6.00 Build 0)  -->
<svg version="1.1" id="Layer_1" xmlns="http://www.w3.org/2000/svg" xmlns:xlink="http://www.w3.org/1999/xlink" x="0px" y="0px"
	 viewBox="0 0 16 16" style="enable-background:new 0 0 16 16;" xml:space="preserve">
<style type="text/css">
	.st0{fill:#3B54A3;}
</style>
<g>
	<title>favicon</title>
	<path class="st0" d="M15.996,5.445V5.443c-0.003-0.037-0.009-0.073-0.017-0.109c-0.008-0.033-0.017-0.066-0.029-0.099l-0.033-0.086
		l-2.505-4.019c-0.036-0.059-0.08-0.113-0.129-0.161l-0.058-0.054l-0.053-0.038c-0.035-0.024-0.071-0.046-0.11-0.064
		c-0.027-0.015-0.055-0.028-0.084-0.039l-0.064-0.02l-0.071-0.018c-0.059-0.013-0.12-0.019-0.18-0.019H3.337
		c-0.075,0-0.15,0.01-0.223,0.03C3.087,0.752,3.06,0.76,3.034,0.769L2.974,0.79L2.908,0.829c-0.041,0.023-0.08,0.048-0.117,0.077
		L2.734,0.954C2.678,1.006,2.628,1.066,2.587,1.131L0.139,5.049c-0.008,0.012-0.015,0.024-0.024,0.04l-0.03,0.056
		C0.072,5.173,0.061,5.202,0.051,5.232C0.039,5.266,0.03,5.3,0.022,5.335C0.015,5.365,0.01,5.396,0.006,5.427
		C0,5.474-0.001,5.522,0.001,5.569c0.004,0.08,0.019,0.159,0.044,0.236c0.007,0.022,0.015,0.043,0.027,0.07L0.11,5.958
		c0.011,0.019,0.022,0.037,0.034,0.055l7.15,8.882l0.077,0.101l0.043,0.027c0.051,0.044,0.107,0.083,0.167,0.115
		c0.025,0.014,0.049,0.025,0.077,0.037c0.202,0.087,0.43,0.094,0.638,0.02c0.038-0.013,0.074-0.03,0.109-0.05
		c0.022-0.012,0.043-0.025,0.063-0.039l0,0c0.038-0.024,0.075-0.051,0.11-0.08l0.046-0.031l7.188-8.923l0.044-0.062
		c0.011-0.017,0.022-0.034,0.033-0.054c0.015-0.026,0.027-0.054,0.038-0.082c0.01-0.024,0.02-0.05,0.032-0.089
		c0.011-0.036,0.02-0.073,0.026-0.11c0.006-0.036,0.01-0.073,0.012-0.11C16.001,5.525,16,5.485,15.996,5.445z M8.003,1.987L8,1.99
		L7.997,1.987H8.003z M8,13.736L1.364,5.498l2.191-3.506h8.891l2.191,3.505L8,13.736z"/>
	<path class="st0" d="M9.425,6.243L8.134,6.468l0.033-2.877c0.001-0.071-0.03-0.139-0.084-0.185l0,0
		c-0.04-0.034-0.09-0.054-0.142-0.056C7.83,3.336,7.725,3.402,7.688,3.508L6.15,8.144C6.108,8.269,6.176,8.405,6.301,8.446
		c0.037,0.012,0.077,0.015,0.116,0.009l1.399-0.243l-0.024,3.321c-0.001,0.12,0.087,0.221,0.206,0.239
		c0.011,0.002,0.022,0.002,0.034,0.002c0.107,0,0.201-0.071,0.231-0.174l1.434-5.056c0.036-0.127-0.038-0.26-0.165-0.296
		C9.497,6.239,9.46,6.237,9.425,6.243L9.425,6.243z"/>
</g>
</svg>
