<svg xmlns="http://www.w3.org/2000/svg" xmlns:xlink="http://www.w3.org/1999/xlink" width="180" height="33.796" viewBox="0 0 180 33.796">
  <defs>
    <clipPath id="clip-path">
      <rect id="Rectangle_6" data-name="Rectangle 6" width="180" height="30"/>
    </clipPath>
  </defs>
  <g id="Logo_White_Horizontal_Beta" data-name="Logo White Horizontal Beta" transform="translate(0 1.25)">
    <g id="Group_169" data-name="Group 169" transform="translate(0 -1.25)">
      <g id="Group_167" data-name="Group 167" clip-path="url(#clip-path)">
        <path id="Path_3" data-name="Path 3" d="M92.622,23.757c4.621,0,8.275-2.485,8.275-6.833,0-3.278-2-5.246-5.621-6.108l-4.138-.968c-1.1-.242-1.759-.759-1.759-1.691,0-1.173,1.069-1.864,2.655-1.864a3.15,3.15,0,0,1,3.242,2.071h5.414c-.586-3.657-3.517-6.486-8.69-6.486-4.69,0-8.138,2.726-8.138,6.867,0,3.589,2.345,5.211,5.448,5.9l4.069.863c1.345.311,2,.759,2,1.76,0,1.311-1.173,2.036-2.862,2.036A3.215,3.215,0,0,1,89.1,17.13H83.346C84.1,21.305,87.553,23.757,92.622,23.757Zm14.909,0a5.544,5.544,0,0,0,4.138-1.691v1.346h5.414V7.883h-5.414V17.3a2.271,2.271,0,0,1-2.207,1.727c-1.379,0-2-.932-2-2.243v-8.9h-5.38V18.063c0,3.451,2.035,5.694,5.449,5.694h0ZM124.406,28.9V22.169a5.4,5.4,0,0,0,3.828,1.587c4.483,0,6.931-3.693,6.931-8.11,0-4.452-2.448-8.11-6.931-8.11a5.4,5.4,0,0,0-3.828,1.587V7.883h-5.414V28.9Zm2.379-9.766a2.639,2.639,0,0,1-2.379-1.452v-4.1a2.661,2.661,0,0,1,2.379-1.452c1.862,0,2.965,1.519,2.965,3.52s-1.1,3.488-2.965,3.488Zm16.736,4.624c4.035,0,6.726-2.174,7.276-5.763h-5a2.15,2.15,0,0,1-2.274,1.553c-1.552,0-2.516-1-2.69-2.864h10.035V15.337c0-4.624-2.69-7.8-7.449-7.8-4.483,0-7.793,3.313-7.793,8.11,0,4.831,3.137,8.11,7.9,8.109Zm2.1-9.766h-4.69a2.505,2.505,0,0,1,2.482-2.243A2.167,2.167,0,0,1,145.625,13.991Zm11.736,9.421V14.3a2.539,2.539,0,0,1,2.758-1.76,4.664,4.664,0,0,1,2.241.484V7.814a3.383,3.383,0,0,0-1.483-.276,4.233,4.233,0,0,0-3.518,1.726V7.883h-5.413V23.412Zm11.6,0V14.024a2.223,2.223,0,0,1,2.241-1.691,1.95,1.95,0,0,1,2.032,2.209v8.87h5.38V13.232c0-3.451-2.035-5.694-5.483-5.694a5.626,5.626,0,0,0-4.172,1.691V.981h-5.412V23.412Zm18.564.345c4.034,0,6.726-2.174,7.276-5.763h-5a2.15,2.15,0,0,1-2.274,1.553c-1.552,0-2.516-1-2.69-2.864H194.87V15.337c0-4.624-2.69-7.8-7.448-7.8-4.483,0-7.791,3.313-7.791,8.11C179.627,20.479,182.765,23.757,187.524,23.757Zm2.1-9.766h-4.69a2.506,2.506,0,0,1,2.483-2.243A2.167,2.167,0,0,1,189.628,13.991Zm11.736,9.421V14.3a2.539,2.539,0,0,1,2.758-1.76,4.664,4.664,0,0,1,2.241.484V7.814a3.384,3.384,0,0,0-1.483-.276,4.233,4.233,0,0,0-3.518,1.726V7.883h-5.412V23.412Zm13.081.345c4.724,0,7.931-3.313,7.931-8.11s-3.207-8.109-7.931-8.109c-4.69,0-7.931,3.313-7.931,8.11S209.755,23.757,214.445,23.757Zm0-4.486c-1.655,0-2.587-1.484-2.587-3.623s.931-3.658,2.587-3.658c1.689,0,2.621,1.519,2.621,3.658s-.932,3.625-2.621,3.625Z" transform="translate(-43.014 0.099)" fill="#fff"/>
      </g>
      <g id="Group_168" data-name="Group 168" clip-path="url(#clip-path)">
        <path id="Path_4" data-name="Path 4" d="M31.008.751a1.253,1.253,0,0,1,1.1.667l4.914,9.212a1.288,1.288,0,0,1-.222,1.511L20.471,28.524a1.242,1.242,0,0,1-1.757.008l-.008-.008L2.373,12.141a1.288,1.288,0,0,1-.222-1.512L7.065,1.418a1.253,1.253,0,0,1,1.1-.667H31.008ZM20.489,4,12.634,15.306a.371.371,0,0,0,.087.512.358.358,0,0,0,.21.067l6.127-.022a.364.364,0,0,1,.363.366h0a.358.358,0,0,1,0,.045L18.567,23.4a.366.366,0,0,0,.316.409.36.36,0,0,0,.346-.162L26.605,12.3a.371.371,0,0,0-.1-.509.356.356,0,0,0-.2-.06l-5.841.015a.364.364,0,0,1-.363-.366h0a.353.353,0,0,1,0-.055l1.04-7.061a.366.366,0,0,0-.3-.418A.36.36,0,0,0,20.489,4Z" transform="translate(-1.032 0.217)" fill="#2a9cff"/>
      </g>
    </g>
    <path id="Path_5" data-name="Path 5" d="M322.043,58.515c0,1.373-.948,2.115-2.5,2.115h-3.1V53.168H319.3c1.556,0,2.515.692,2.515,2.03a1.608,1.608,0,0,1-.985,1.58A1.813,1.813,0,0,1,322.043,58.515ZM319.2,56.231c.742,0,1.131-.292,1.131-.887s-.389-.863-1.131-.863h-1.264v1.749Zm-1.264,3.087h1.471c.729,0,1.118-.365,1.118-.936s-.389-.936-1.118-.936h-1.471Z" transform="translate(-163.313 -28.085)" fill="#848484"/>
    <path id="Path_6" data-name="Path 6" d="M335.4,53.168V54.53h-3.537v1.628h3.208v1.325h-3.208v1.774H335.4V60.63h-5.067V53.168Z" transform="translate(-170.485 -28.085)" fill="#848484"/>
    <path id="Path_7" data-name="Path 7" d="M342.473,53.168h6.369V54.53h-2.406v6.1h-1.567v-6.1h-2.395Z" transform="translate(-176.748 -28.085)" fill="#848484"/>
    <path id="Path_8" data-name="Path 8" d="M359.461,53.168l2.856,7.462h-1.579l-.669-1.8h-2.8l-.656,1.8h-1.556l2.856-7.462Zm-1.7,4.351h1.823l-.911-2.479Z" transform="translate(-183.244 -28.085)" fill="#848484"/>
  </g>
</svg>
