<svg xmlns="http://www.w3.org/2000/svg" xmlns:xlink="http://www.w3.org/1999/xlink" viewBox="0 0 196 31"><defs><clipPath id="a"><rect width="196" height="31"/></clipPath></defs><g clip-path="url(#a)"><g transform="translate(2.694 2.309)"><path d="M110.364,95.256a1,1,0,0,1,.878.531l3.907,7.326a1.024,1.024,0,0,1-.176,1.2l-12.988,13.028a.988.988,0,0,1-1.4.006l-.006-.006L87.593,104.314a1.024,1.024,0,0,1-.176-1.2l3.907-7.325a1,1,0,0,1,.878-.531ZM102,97.838l-6.247,8.993a.3.3,0,0,0,.069.407.285.285,0,0,0,.167.053l4.872-.018a.29.29,0,0,1,.289.291h0a.283.283,0,0,1,0,.036l-.677,5.668a.291.291,0,0,0,.251.325.286.286,0,0,0,.275-.129l5.867-9.025a.3.3,0,0,0-.082-.4.283.283,0,0,0-.159-.048l-4.645.012a.29.29,0,0,1-.289-.291h0a.28.28,0,0,1,0-.044l.827-5.615a.291.291,0,0,0-.242-.332.286.286,0,0,0-.281.12Z" transform="translate(-87.296 -95.232)" fill="#2a9cff"/><path d="M172.4,109.356a2.589,2.589,0,0,0,2.751,1.751c1.362,0,2.307-.584,2.307-1.64,0-.808-.528-1.167-1.612-1.417l-3.28-.695c-2.5-.556-4.391-1.862-4.391-4.752,0-3.335,2.779-5.531,6.559-5.531,4.169,0,6.531,2.279,7,5.225h-4.364a2.537,2.537,0,0,0-2.612-1.667c-1.278,0-2.14.556-2.14,1.5,0,.75.528,1.167,1.417,1.362l3.335.778c2.918.695,4.53,2.279,4.53,4.919,0,3.5-2.946,5.5-6.67,5.5-4.085,0-6.865-1.973-7.476-5.336Z" transform="translate(-136.797 -96.349)" fill="#fff"/><path d="M218.85,122.144h-4.363v-1.084a4.469,4.469,0,0,1-3.335,1.361c-2.751,0-4.391-1.806-4.391-4.585v-8.2H211.1v7.17c0,1.056.5,1.806,1.612,1.806a1.829,1.829,0,0,0,1.779-1.39v-7.589h4.363Z" transform="translate(-160.789 -104.08)" fill="#fff"/><path d="M246.3,126.119h-4.363V109.194H246.3v1a4.348,4.348,0,0,1,3.084-1.278c3.613,0,5.586,2.946,5.586,6.531,0,3.557-1.973,6.531-5.586,6.531A4.348,4.348,0,0,1,246.3,120.7Zm0-9.032a2.127,2.127,0,0,0,1.917,1.167c1.5,0,2.39-1.195,2.39-2.807s-.889-2.835-2.39-2.835a2.145,2.145,0,0,0-1.917,1.168Z" transform="translate(-182.427 -103.636)" fill="#fff"/><path d="M288.751,117.338c-.445,2.89-2.613,4.641-5.864,4.641-3.835,0-6.364-2.64-6.364-6.531a6.17,6.17,0,0,1,6.281-6.531c3.835,0,6,2.557,6,6.281v1.084h-8.086c.139,1.5.917,2.307,2.168,2.307a1.733,1.733,0,0,0,1.834-1.25Zm-7.948-3.224h3.78a1.746,1.746,0,0,0-1.779-1.806,2.019,2.019,0,0,0-2,1.806Z" transform="translate(-203.705 -103.636)" fill="#fff"/><path d="M318.865,113.332a3.761,3.761,0,0,0-1.806-.389,2.046,2.046,0,0,0-2.223,1.417V121.7h-4.363V109.19h4.363V110.3a3.411,3.411,0,0,1,2.835-1.39,2.722,2.722,0,0,1,1.195.222Z" transform="translate(-224.59 -103.632)" fill="#fff"/><path d="M334.522,95.194h4.363v6.642a4.534,4.534,0,0,1,3.363-1.362c2.779,0,4.419,1.806,4.419,4.585v8.2h-4.335v-7.142a1.572,1.572,0,0,0-1.64-1.779,1.791,1.791,0,0,0-1.806,1.362v7.559h-4.363Z" transform="translate(-239.385 -95.194)" fill="#fff"/><path d="M380.189,117.338c-.445,2.89-2.613,4.641-5.865,4.641-3.835,0-6.364-2.64-6.364-6.531a6.17,6.17,0,0,1,6.281-6.531c3.835,0,6,2.557,6,6.281v1.084h-8.088c.139,1.5.917,2.307,2.168,2.307a1.733,1.733,0,0,0,1.834-1.25Zm-7.949-3.224h3.778a1.746,1.746,0,0,0-1.779-1.806,2.018,2.018,0,0,0-2,1.806Z" transform="translate(-259.956 -103.636)" fill="#fff"/><path d="M410.295,113.332a3.762,3.762,0,0,0-1.806-.389,2.046,2.046,0,0,0-2.224,1.417V121.7H401.9V109.19h4.363V110.3a3.412,3.412,0,0,1,2.835-1.39,2.723,2.723,0,0,1,1.195.222Z" transform="translate(-280.835 -103.632)" fill="#fff"/><path d="M430.181,121.978a6.532,6.532,0,1,1,6.392-6.531A6.165,6.165,0,0,1,430.181,121.978Zm0-9.477c-1.334,0-2.084,1.223-2.084,2.946s.75,2.918,2.084,2.918c1.362,0,2.112-1.2,2.112-2.918s-.751-2.946-2.112-2.946Z" transform="translate(-294.301 -103.636)" fill="#fff"/><path d="M458.792,133.137a1.8,1.8,0,1,1-1.77,1.789,1.762,1.762,0,0,1,1.77-1.789Z" transform="translate(-314.745 -118.535)" fill="#fff"/><path d="M473.229,108.916a5.411,5.411,0,0,1,5.808,4.919h-4.224a1.508,1.508,0,0,0-1.584-1.306c-1.223,0-2,1.139-2,2.918s.778,2.89,2,2.89a1.487,1.487,0,0,0,1.584-1.278h4.224a5.43,5.43,0,0,1-5.808,4.919c-3.752,0-6.309-2.668-6.309-6.531S469.477,108.916,473.229,108.916Z" transform="translate(-320.834 -103.636)" fill="#fff"/><path d="M505.234,121.978a6.532,6.532,0,1,1,6.393-6.531A6.165,6.165,0,0,1,505.234,121.978Zm0-9.477c-1.333,0-2.084,1.223-2.084,2.946s.751,2.918,2.084,2.918c1.362,0,2.113-1.2,2.113-2.918s-.751-2.946-2.113-2.946Z" transform="translate(-340.472 -103.636)" fill="#fff"/><path d="M549.054,108.906c2.613,0,4.224,1.779,4.224,4.585v8.2h-4.363v-7.142c0-1.056-.444-1.807-1.417-1.807a1.644,1.644,0,0,0-1.612,1.334v7.615h-4.335v-7.142c0-1.056-.445-1.807-1.417-1.807a1.622,1.622,0,0,0-1.612,1.334v7.615h-4.363V109.182h4.365v1.028a4.182,4.182,0,0,1,3.224-1.306,4.291,4.291,0,0,1,3.446,1.5A5.251,5.251,0,0,1,549.054,108.906Z" transform="translate(-362.198 -103.626)" fill="#fff"/><path d="M538.268,152.494c0,1.008-.7,1.552-1.838,1.552h-2.275v-5.478h2.1c1.142,0,1.847.508,1.847,1.49a1.181,1.181,0,0,1-.723,1.16A1.331,1.331,0,0,1,538.268,152.494Zm-2.088-1.677c.545,0,.83-.214.83-.651s-.286-.633-.83-.633h-.928v1.284Zm-.928,2.267h1.08c.535,0,.821-.269.821-.687s-.286-.687-.821-.687h-1.08Z" transform="translate(-362.196 -128.029)" fill="#848484"/><path d="M550.7,148.568v1h-2.6v1.193h2.355v.974H548.1v1.3h2.6v1.008h-3.72v-5.479Z" transform="translate(-370.086 -128.029)" fill="#848484"/><path d="M558.186,148.568h4.675v1h-1.766v4.476h-1.151v-4.477h-1.758Z" transform="translate(-376.979 -128.029)" fill="#848484"/><path d="M573.037,148.568l2.1,5.478h-1.159l-.491-1.321h-2.052l-.482,1.321h-1.142l2.1-5.478Zm-1.249,3.194h1.338l-.669-1.82Z" transform="translate(-384.128 -128.029)" fill="#848484"/></g></g></svg>