<?xml version="1.0" encoding="utf-8"?>
<!-- Generator: Adobe Illustrator 21.1.0, SVG Export Plug-In . SVG Version: 6.00 Build 0)  -->
<svg version="1.1" id="Layer_1" xmlns="http://www.w3.org/2000/svg" xmlns:xlink="http://www.w3.org/1999/xlink" x="0px" y="0px"
	 width="615.8px" height="203.1px" viewBox="0 0 615.8 203.1" style="enable-background:new 0 0 615.8 203.1;" xml:space="preserve"
	>
<style type="text/css">
	.st0{fill:#161620;}
	.st1{fill:#FFFFFF;}
	.st2{fill:#EE306F;}
</style>
<rect class="st0" width="615.8" height="203.1"/>
<g>
	<g>
		<path class="st1" d="M208.2,155.4c-3.7,0-10.6-0.6-13.6-1.8c-2.3-0.9-2.3-1.7-2.3-3.1v-7.6c0-2.4,2.1-2.8,2.8-2.8
			c1.2,0,2.2,0.8,3.2,1c2.1,0.5,6.6,1.2,8.7,1.2c4.9,0.1,7.2-2.2,7.2-4.8c0.1-9.1-22.1-10.3-22.1-27.1c0-11.3,8.6-16.6,21-16.6
			c3,0,14.6,1.4,14.6,4.6v7.2c0,0.6,0,2.6-2.5,2.6c-1.2,0-3.2-0.5-4.4-0.8c-2.3-0.4-4.5-0.8-6.9-0.8c-4.9,0-5.7,2-5.5,3
			c-0.2,2.2,3.4,4.3,4.9,5.4c8.9,5.7,17,10,17.1,22.4C230.3,148.5,221.7,155.4,208.2,155.4z"/>
		<path class="st1" d="M254.4,155.4c-18.2,0-19.7-13.5-19.7-20.1V96.9c0-1.3,1.1-2.3,2.4-2.3h10.1c1.2,0,2.3,1,2.3,2.3v38.8
			c0,3.3,0.3,6.8,4.9,6.8c4.6,0,5-3.5,5-6.8V96.9c0-1.3,1.1-2.3,2.3-2.3h10.2c1.2,0,2.3,1,2.3,2.3v38.5
			C274.2,141.8,272.6,155.4,254.4,155.4z"/>
		<path class="st1" d="M298.6,133.5c-2.1,0-3.1,0.8-3.1,2.1v16.9c0,1.2-1.1,2.3-2.3,2.3h-10.2c-1.3,0-2.4-0.9-2.4-2.3V96.9
			c0-1.3,1.1-2.3,2.4-2.3h14.5c14.1,0,21.9,5.8,21.9,19.7C319.5,126.8,311.4,133.5,298.6,133.5z M298.3,106.7
			c-2.2,0-2.8,0.9-2.8,2.3v10.4c0,1.4,0.8,2,2.8,2c4.6,0,5.8-2.8,5.8-7.2C304.1,110,302.5,106.7,298.3,106.7z"/>
		<path class="st1" d="M356.4,154.7h-30.1c-1.3,0-2.4-0.9-2.4-2.3V96.9c0-1.3,1.1-2.3,2.4-2.3h28.9c1.2,0,2.3,1,2.3,2.3v8.4
			c0,1.2-1.2,2.2-2.3,2.2H340c-0.6,0-1.2,0.5-1.2,1.1v6.7c0,0.7,0.6,1.3,1.2,1.3h13.7c1.2,0,2.3,0.9,2.3,2.2v8.3
			c0,1.2-1,2.2-2.3,2.2h-13.9c-0.6,0-1.1,0.6-1.1,1.2v10.4c0,0.7,0.6,1.2,1.2,1.2h16.7c1.1,0,1.9,0.8,1.9,1.9v8.6
			C358.6,153.7,357.6,154.7,356.4,154.7z"/>
		<path class="st1" d="M401.7,154.7h-9.4c-2.8,0-3.6-1.1-4.2-2.3l-9.4-20.7c-0.2-0.3-1.4-1.2-1.4,0.6v20.2c0,1.3-1.2,2.3-2.4,2.3
			h-10c-1.3,0-2.4-0.9-2.4-2.3V96.9c0-1.3,1.1-2.3,2.4-2.3h16.6c14.3,0,19.6,7.9,19.6,17.3c0,8.3-3.8,13-7.5,15
			c-0.3,0.2-0.9,0.6,0,2.6l10,20.8C404.6,152.3,404.4,154.7,401.7,154.7z M379.9,106.7c-2.6,0-2.6,0.6-2.6,2.2v8.2
			c0,1.3,0,2.2,2.6,2.2c4.1,0,6.3-2.6,6.3-6.1C386.2,109.3,384.2,106.7,379.9,106.7z"/>
		<path class="st1" d="M444.6,154.7h-10c-1.3,0-2.4-0.9-2.4-2.3v-22.6c0-0.6-0.5-1.1-1.1-1.1h-7.8c-0.5,0-1,0.5-1,1v22.7
			c0,1.2-1.2,2.3-2.3,2.3h-10.1c-1.3,0-2.4-0.9-2.4-2.3V96.9c0-1.3,1.1-2.3,2.4-2.3H420c1.2,0,2.3,1,2.3,2.3v16.8
			c0,0.7,0.3,1.4,1,1.4h7.8c0.8,0,1.1-0.8,1.1-1.6V96.9c0-1.3,1.1-2.3,2.4-2.3h10c1.2,0,2.4,0.9,2.4,2.3v55.6
			C447.1,153.8,445.9,154.7,444.6,154.7z"/>
		<path class="st1" d="M486.4,154.7h-30.1c-1.3,0-2.4-0.9-2.4-2.3V96.9c0-1.3,1.1-2.3,2.4-2.3h28.9c1.2,0,2.3,1,2.3,2.3v8.4
			c0,1.2-1.2,2.2-2.3,2.2H470c-0.6,0-1.2,0.5-1.2,1.1v6.7c0,0.7,0.6,1.3,1.2,1.3h13.7c1.2,0,2.3,0.9,2.3,2.2v8.3
			c0,1.2-1,2.2-2.3,2.2h-13.9c-0.6,0-1.1,0.6-1.1,1.2v10.4c0,0.7,0.6,1.2,1.2,1.2h16.7c1.1,0,1.9,0.8,1.9,1.9v8.6
			C488.7,153.7,487.7,154.7,486.4,154.7z"/>
		<path class="st1" d="M531.7,154.7h-9.4c-2.8,0-3.6-1.1-4.2-2.3l-9.4-20.7c-0.2-0.3-1.4-1.2-1.4,0.6v20.2c0,1.3-1.2,2.3-2.4,2.3
			h-10c-1.3,0-2.4-0.9-2.4-2.3V96.9c0-1.3,1.1-2.3,2.4-2.3h16.6c14.3,0,19.6,7.9,19.6,17.3c0,8.3-3.8,13-7.5,15
			c-0.3,0.2-0.9,0.6,0,2.6l9.9,20.8C534.7,152.3,534.5,154.7,531.7,154.7z M510,106.7c-2.6,0-2.6,0.6-2.6,2.2v8.2
			c0,1.3,0,2.2,2.6,2.2c4.1,0,6.3-2.6,6.3-6.1C516.3,109.3,514.3,106.7,510,106.7z"/>
		<path class="st1" d="M576,138.3c-1.2,10.5-7.4,17.1-19.6,17.1s-18.3-6.5-19.6-17.1c-0.2-2.3-0.2-3.4-0.2-5.7v-15.8
			c0-4.5,0.3-9.1,2.3-13.3c2.5-5.2,7.5-9.5,17.4-9.5c18.6,0,19.8,15.1,19.8,22.8v15.8C576.2,133.8,576.2,135.9,576,138.3z
			 M561.3,117.1c0-4.8,0.4-10.4-4.9-10.4s-4.9,5.6-4.9,10.4v14.8c0,4.8-0.4,10.5,5,10.5c5.3,0,4.8-5.7,4.8-10.4L561.3,117.1
			L561.3,117.1z"/>
	</g>
	<g>
		<g>
			<path class="st1" d="M71,128l-16.5,14.9c-4.6,4.3-5.2,10.7-1.5,15.7c2.4,3.2,5.8,4.9,9.4,4.9c2,0,4.1-0.5,6-1.7
				c0.1-0.1,0.2-0.1,0.3-0.2L94,143.8l38.9,12c1.1,0.3,2.1,0.5,3.2,0.5c2.3,0,4.5-0.7,6.4-2.1c2.8-2.1,4.4-5.2,4.4-8.7v-24.8
				c0-1.1,0.4-2.2,1.1-3l17.2-20.2c2.8-3.3,6.1-6.1,9.8-8.4l34.7-21.4c0.1,0,0.1-0.1,0.2-0.2c4.1-3,5.4-8,3.3-12.6
				s-6.8-6.9-11.7-5.7l-21.6,6.1c-2.1-9-10.1-15.8-19.8-15.8c-11.2,0-20.3,9.1-20.3,20.3c0,0.4,0,0.8,0.1,1.1l-20.3,1.9
				c-2.5-0.1-18.4-0.4-40.9,9.7c-20.9,9.4-32.9-0.8-33.4-1.2c-1.1-0.9-2.6-1.1-3.9-0.5c-1.3,0.6-2,1.9-2,3.4
				c0,0.5,0.8,11.8,5.6,24.3C50.8,113.1,59.6,123.1,71,128z M173.4,59.8c0,7.3-5.9,13.3-13.3,13.3s-13.3-5.9-13.3-13.3
				s5.9-13.3,13.3-13.3S173.4,52.5,173.4,59.8z M59.2,148.1l31.2-28l9.3-8.4l0,0l27.8-25c1.4-1.3,1.6-3.5,0.3-4.9
				c-1.3-1.4-3.5-1.6-4.9-0.3L102,100.1c0.1-2.7,0.6-5.4,1.5-8l4.9-13.4c2.2-4.8,6.6-8.1,11.8-8.9c0,0,0,0,0,0h0l21.3-2
				c3.1,7.2,10.3,12.3,18.6,12.3c10.2,0,18.7-7.7,20.1-17.6l23-6.5c2.3-0.5,3.3,1.3,3.6,1.8c0.3,0.6,0.9,2.5-0.9,3.9l-34.6,21.3
				c-4.3,2.7-8.1,5.9-11.4,9.8l-17.2,20.2c-1.8,2.1-2.8,4.8-2.8,7.5v24.8c0,1.2-0.6,2.3-1.5,3c-1,0.7-2.2,0.9-3.4,0.6l-33.7-10.4
				l4.4-3.1h9.4c3.2,0,6.2-1.3,8.4-3.6c2.2-2.3,3.4-5.3,3.3-8.5l-0.3-4.6c0-0.1,0-0.1,0-0.2c0-0.2,0-0.3-0.1-0.5
				c0-0.1,0-0.1-0.1-0.2c-0.1-0.2-0.1-0.3-0.2-0.4c0-0.1-0.1-0.1-0.1-0.2c-0.1-0.1-0.1-0.2-0.2-0.3c0,0,0,0-0.1-0.1
				c0-0.1-0.1-0.1-0.1-0.1c-1.2-1.4-3.2-1.7-4.7-0.7l-18.4,12.9c0,0,0,0,0,0l-37.9,26.6c-3.5,1.9-5.7-0.8-6.2-1.4
				C58.1,153.9,56.2,150.9,59.2,148.1z M51.8,96.1c-2.2-5.8-3.5-11.3-4.3-15.4c6.8,3,18.5,5.3,34.2-1.7c9-4.1,16.8-6.3,23-7.6
				c-1.1,1.4-2,2.9-2.7,4.5c0,0.1-0.1,0.2-0.1,0.2l-4.9,13.5c-1.3,3.7-2,7.6-2,11.6l0.1,5.1l-10.5,9.4l-7.7,6.9
				C65.7,119.2,57.3,110.3,51.8,96.1z"/>
		</g>
		<g>
			<path class="st2" d="M76.8,122.8l7.7-6.9l10.5-9.4l-0.1-5.1c-0.1-4,0.6-7.9,2-11.6l4.9-13.5c0-0.1,0.1-0.2,0.1-0.2
				c0.7-1.6,1.7-3.2,2.7-4.5c-6.2,1.3-14,3.5-23,7.6c-15.6,7-27.4,4.7-34.2,1.7c0.7,4.1,2,9.7,4.3,15.4
				C57.3,110.3,65.7,119.2,76.8,122.8z"/>
		</g>
	</g>
</g>
</svg>
