<svg xmlns="http://www.w3.org/2000/svg" width="180" height="43.119" viewBox="0 0 180 43.119">
  <g id="Group_821" data-name="Group 821" transform="translate(-247.688 -573.439)">
    <g id="Group_818" data-name="Group 818" transform="translate(296.103 589.425)">
      <path id="Path_1134" data-name="Path 1134" d="M336.547,622a17.36,17.36,0,0,1-4.668-.6c-.773-.315-.773-.573-.773-1.06v-2.606a.911.911,0,0,1,.974-.945,4.387,4.387,0,0,1,1.088.343,17.757,17.757,0,0,0,2.978.429c1.66.029,2.462-.744,2.462-1.632.029-3.121-7.559-3.522-7.588-9.277,0-3.866,2.95-5.7,7.188-5.7,1.031,0,5.011.487,5.011,1.575v2.463a.782.782,0,0,1-.859.888,8.513,8.513,0,0,1-1.489-.258,12.876,12.876,0,0,0-2.377-.286c-1.661,0-1.947.687-1.89,1.031-.057.744,1.174,1.46,1.69,1.861,3.036,1.947,5.813,3.436,5.842,7.674C344.135,619.652,341.186,622,336.547,622Z" transform="translate(-331.02 -600.954)" fill="#fff"/>
      <path id="Path_1135" data-name="Path 1135" d="M362.909,622.166c-6.242,0-6.757-4.639-6.757-6.872V602.122a.784.784,0,0,1,.83-.773h3.465a.814.814,0,0,1,.8.773v13.287c0,1.117.114,2.319,1.66,2.319,1.575,0,1.719-1.2,1.719-2.319V602.122a.776.776,0,0,1,.8-.773h3.493a.789.789,0,0,1,.773.773v13.172C369.7,617.528,369.152,622.166,362.909,622.166Z" transform="translate(-341.551 -601.12)" fill="#fff"/>
      <path id="Path_1136" data-name="Path 1136" d="M389.412,614.664c-.716,0-1.059.257-1.059.716v5.784a.788.788,0,0,1-.773.773h-3.493a.784.784,0,0,1-.831-.773V602.122a.784.784,0,0,1,.831-.773h4.982c4.84,0,7.5,2,7.5,6.758C396.571,612.373,393.794,614.664,389.412,614.664ZM389.3,605.5c-.744,0-.945.315-.945.773v3.579c0,.487.258.687.974.687,1.574,0,1.975-.974,1.975-2.463C391.3,606.617,390.758,605.5,389.3,605.5Z" transform="translate(-352.908 -601.12)" fill="#fff"/>
      <path id="Path_1137" data-name="Path 1137" d="M419.871,621.937H409.563a.784.784,0,0,1-.831-.773V602.122a.784.784,0,0,1,.831-.773h9.908a.814.814,0,0,1,.8.773v2.864a.789.789,0,0,1-.8.744h-5.211a.433.433,0,0,0-.429.373v2.29a.467.467,0,0,0,.429.458h4.7a.746.746,0,0,1,.773.744v2.835a.746.746,0,0,1-.773.744H414.2a.4.4,0,0,0-.372.4v3.55a.44.44,0,0,0,.429.43h5.727a.648.648,0,0,1,.658.658v2.95A.769.769,0,0,1,419.871,621.937Z" transform="translate(-363.582 -601.12)" fill="#fff"/>
      <path id="Path_1138" data-name="Path 1138" d="M444.927,621.937h-3.206c-.945,0-1.232-.372-1.432-.8l-3.207-7.073c-.057-.115-.487-.4-.487.2v6.9a.8.8,0,0,1-.83.773h-3.436a.784.784,0,0,1-.831-.773V602.122a.784.784,0,0,1,.831-.773h5.7c4.9,0,6.729,2.692,6.729,5.927,0,2.835-1.317,4.467-2.577,5.125-.115.057-.315.2,0,.888l3.407,7.13C445.93,621.107,445.873,621.937,444.927,621.937Zm-7.445-16.465c-.888,0-.888.2-.888.744v2.806c0,.458,0,.745.888.745a2.148,2.148,0,1,0,0-4.3Z" transform="translate(-373.122 -601.12)" fill="#fff"/>
      <path id="Path_1139" data-name="Path 1139" d="M470.752,621.937h-3.436a.784.784,0,0,1-.83-.773v-7.731a.379.379,0,0,0-.372-.372H463.45a.369.369,0,0,0-.343.343v7.76a.814.814,0,0,1-.8.773H458.84a.784.784,0,0,1-.83-.773V602.122a.784.784,0,0,1,.83-.773h3.465a.814.814,0,0,1,.8.773v5.756c0,.229.114.487.343.487h2.663c.257,0,.372-.286.372-.544v-5.7a.784.784,0,0,1,.83-.773h3.436a.8.8,0,0,1,.83.773v19.042A.8.8,0,0,1,470.752,621.937Z" transform="translate(-384.231 -601.12)" fill="#fff"/>
      <path id="Path_1140" data-name="Path 1140" d="M496.547,621.937H486.239a.784.784,0,0,1-.831-.773V602.122a.784.784,0,0,1,.831-.773h9.908a.813.813,0,0,1,.8.773v2.864a.789.789,0,0,1-.8.744h-5.211a.433.433,0,0,0-.429.373v2.29a.467.467,0,0,0,.429.458h4.7a.746.746,0,0,1,.773.744v2.835a.746.746,0,0,1-.773.744h-4.754a.4.4,0,0,0-.372.4v3.55a.44.44,0,0,0,.429.43h5.726a.648.648,0,0,1,.659.658v2.95A.769.769,0,0,1,496.547,621.937Z" transform="translate(-395.711 -601.12)" fill="#fff"/>
      <path id="Path_1141" data-name="Path 1141" d="M521.6,621.937H518.4c-.945,0-1.232-.372-1.432-.8l-3.207-7.073c-.058-.115-.487-.4-.487.2v6.9a.8.8,0,0,1-.83.773h-3.437a.784.784,0,0,1-.83-.773V602.122a.784.784,0,0,1,.83-.773h5.7c4.9,0,6.729,2.692,6.729,5.927,0,2.835-1.317,4.467-2.577,5.125-.115.057-.315.2,0,.888l3.407,7.13C522.607,621.107,522.55,621.937,521.6,621.937Zm-7.445-16.465c-.888,0-.888.2-.888.744v2.806c0,.458,0,.745.888.745a2.148,2.148,0,1,0,0-4.3Z" transform="translate(-405.25 -601.12)" fill="#fff"/>
      <path id="Path_1142" data-name="Path 1142" d="M547.649,616.159c-.429,3.608-2.548,5.842-6.7,5.842s-6.271-2.234-6.7-5.87a14.861,14.861,0,0,1-.057-1.947v-5.412a10.353,10.353,0,0,1,.8-4.553c.859-1.775,2.577-3.265,5.956-3.265,6.386,0,6.786,5.154,6.786,7.817v5.412A18.61,18.61,0,0,1,547.649,616.159Zm-5.011-7.273c0-1.632.143-3.551-1.689-3.551s-1.689,1.919-1.689,3.551v5.068c0,1.661-.144,3.608,1.718,3.608,1.832,0,1.66-1.947,1.66-3.579Z" transform="translate(-416.149 -600.954)" fill="#fff"/>
    </g>
    <g id="Group_820" data-name="Group 820" transform="translate(247.688 573.439)">
      <path id="Path_1143" data-name="Path 1143" d="M267.207,607.253l.547-2.339c-11.4-2.663-10.967-9.739-10.943-10.038,0-.032,0-.074,0-.106v-4.4a14.805,14.805,0,0,0-2.389-8.454c13.742.516,21.584,4.8,21.666,4.85l1.169-2.1" transform="translate(-250.511 -576.99)" fill="#dd1800"/>
      <path id="Path_1144" data-name="Path 1144" d="M287.575,604.614a1.2,1.2,0,0,1-.266,1.311l-6.39,6.325a1.017,1.017,0,0,0,.7,1.742,1.058,1.058,0,0,0,.722-.291,1.114,1.114,0,0,1,.145-.122l9.548-6.783a2.671,2.671,0,0,0,1-3.016l-.088-.272a3.083,3.083,0,0,0-1.87-1.947l-3.948-1.462a2.036,2.036,0,0,1-1.114-2.822c4.174-8.277,15.793-16.6,16.3-16.963a1.5,1.5,0,1,0-1.693-2.479L285.007,588.5a1.2,1.2,0,0,1-1.636-.269l-1.619-2.15-7.692,3.1a2.7,2.7,0,0,0-1.242,3.053l2.1,6.7a.561.561,0,0,0,.313.349,1.207,1.207,0,0,1,.247.047h.3a.446.446,0,0,0,.445-.444l.012-4.443a2.771,2.771,0,0,1,1.811-2.583l4.178-1.529a1.2,1.2,0,1,1,.826,2.255l-4.178,1.53a.358.358,0,0,0-.235.335l-.012,4.442a2.851,2.851,0,0,1-2.847,2.839h-.1l-9.718,12.305a1.241,1.241,0,0,1-.1.113,1.016,1.016,0,1,0,1.424,1.451l.033-.031,12.5-11.386a1.2,1.2,0,0,1,.809-.313h5.853A1.2,1.2,0,0,1,287.575,604.614Z" transform="translate(-255.171 -575.171)" fill="#161620"/>
      <ellipse id="Ellipse_34" data-name="Ellipse 34" cx="3.869" cy="4.414" rx="3.869" ry="4.414" transform="translate(27.863 3.06)" fill="#161620"/>
      <path id="Path_1145" data-name="Path 1145" d="M296.418,596.122c.136.1.274.191.418.277A1.191,1.191,0,0,1,296.418,596.122Z" transform="translate(-268.106 -582.944)" fill="#122a4a"/>
      <g id="Group_819" data-name="Group 819" transform="translate(0 2.471)">
        <path id="Path_1146" data-name="Path 1146" d="M264.383,605.484l.547-2.338c-11.4-2.663-10.967-9.738-10.943-10.038,0-.032,0-.074,0-.106v-4.4a14.8,14.8,0,0,0-2.389-8.454c13.741.516,21.584,4.8,21.666,4.85l1.17-2.1c-.381-.213-9.512-5.206-25.55-5.206a1.2,1.2,0,0,0-.708,2.17c.132.1,3.41,2.639,3.41,8.737v4.361a9.849,9.849,0,0,0,1.337,5.178C255.428,602.582,260.537,604.586,264.383,605.484Z" transform="translate(-247.688 -577.692)" fill="#fff"/>
      </g>
      <path id="Path_1147" data-name="Path 1147" d="M261.413,613.111a3.419,3.419,0,0,0,5.795,2.488l12.136-11.059h2.469l-4.312,4.268a3.417,3.417,0,0,0,2.366,5.853h.032a3.393,3.393,0,0,0,2.318-.907l9.478-6.734a5.061,5.061,0,0,0,1.89-5.715l-.088-.272a5.472,5.472,0,0,0-3.32-3.459l-3.561-1.319c4.079-7.643,15.229-15.626,15.343-15.706a3.9,3.9,0,0,0-4.42-6.432l-6.493,4.434h0a6.325,6.325,0,0,0-5.875-4.454,6.567,6.567,0,0,0-6.271,6.815,7.33,7.33,0,0,0,.111,1.253h0l-7.6,3.062-.031.013a5.106,5.106,0,0,0-2.585,5.985l2.094,6.693a2.97,2.97,0,0,0,.7,1.18l-9.212,11.665A3.391,3.391,0,0,0,261.413,613.111Zm17.732-30.329c-.005-.02-.009-.041-.015-.062C279.136,582.741,279.14,582.762,279.145,582.782Zm.181.581-.017-.05Zm.222.548-.009-.02Zm9.492-3a3.9,3.9,0,1,1-3.869-4.414A4.173,4.173,0,0,1,289.04,580.913Zm-25.226,32.22a1.012,1.012,0,0,1,.3-.716,1.228,1.228,0,0,0,.1-.113L273.938,600h.1a2.851,2.851,0,0,0,2.847-2.839l.012-4.442a.358.358,0,0,1,.235-.335l4.178-1.53a1.2,1.2,0,0,0-.826-2.255l-4.178,1.529a2.77,2.77,0,0,0-1.811,2.583l-.012,4.443a.446.446,0,0,1-.445.444h-.3a1.2,1.2,0,0,0-.247-.047.561.561,0,0,1-.313-.349l-2.1-6.7a2.7,2.7,0,0,1,1.242-3.053l7.483-3.015a6.184,6.184,0,0,0,5.36,3.3,6.567,6.567,0,0,0,6.271-6.816c0-.217-.012-.43-.03-.643.019.211.03.426.03.643,0,.1-.009.191-.013.286l7.464-5.1a1.5,1.5,0,1,1,1.693,2.479c-.511.363-12.131,8.686-16.3,16.963a2.036,2.036,0,0,0,1.114,2.822l3.948,1.462a3.084,3.084,0,0,1,1.87,1.948l.088.272a2.671,2.671,0,0,1-1,3.016l-9.548,6.783a1.113,1.113,0,0,0-.145.122,1.058,1.058,0,0,1-.722.291,1.017,1.017,0,0,1-.7-1.742l6.39-6.325a1.2,1.2,0,0,0-.845-2.054h-5.853a1.2,1.2,0,0,0-.809.313l-12.5,11.385-.033.031a1.016,1.016,0,0,1-1.728-.735Zm27.406-33.985-.01-.045Zm.139.715c-.009-.064-.016-.13-.027-.193C291.343,579.734,291.349,579.8,291.359,579.863Z" transform="translate(-253.439 -573.439)" fill="#fff"/>
    </g>
  </g>
</svg>
