<?xml version="1.0" encoding="UTF-8"?>
<svg width="168" height="31" viewBox="0 0 168 31" version="1.1" xmlns="http://www.w3.org/2000/svg" xmlns:xlink="http://www.w3.org/1999/xlink">
    <title>Group 36</title>
    <g id="Page-1" stroke="none" stroke-width="1" fill="none" fill-rule="evenodd">
        <g id="Group-36" transform="translate(1.000000, 1.000000)" fill-rule="nonzero">
            <g id="Group-23" transform="translate(0.973065, 0.000000)">
                <g id="superhero-logo" transform="translate(0.000000, 0.789667)">
                    <path d="M51.1523613,20.5743334 C55.5723613,20.5743334 58.4843613,18.3903334 58.4843613,15.0363334 C58.4843613,7.65233345 48.0843613,10.7983334 48.0843613,6.74233345 C48.0843613,5.10433345 49.4103613,4.19433345 51.5683613,4.19433345 C53.9343613,4.19433345 55.1563613,5.65033345 55.1823613,7.47033345 L58.2763613,7.47033345 C58.1983613,4.01233345 55.9103613,1.36033345 51.5683613,1.36033345 C47.4603613,1.36033345 44.9643613,3.88233345 44.9643613,6.82033345 C44.9643613,10.5123334 47.5448613,11.4743334 50.1253613,12.0755834 L50.5939687,12.1814538 C53.0091708,12.7133624 55.2863613,13.0536365 55.2863613,15.1663334 C55.2863613,16.8303334 53.8303613,17.7403334 51.3083613,17.7403334 C48.8123613,17.7403334 47.4863613,16.4143334 47.3563613,14.4383334 L44.2363613,14.4383334 C44.3403613,17.4543334 46.2383613,20.5743334 51.1523613,20.5743334 Z M65.5953613,20.5223334 C67.7793613,20.5223334 69.1313613,19.5343334 69.7033613,18.4683334 L69.7033613,20.2103334 L72.5633613,20.2103334 L72.5633613,6.71633345 L69.4693613,6.71633345 L69.4693613,14.4903334 C69.4693613,16.7003334 68.2733613,17.8703334 66.3493613,17.8703334 C64.4773613,17.8703334 63.7233613,16.6483334 63.7233613,14.8023334 L63.7233613,6.71633345 L60.6293613,6.71633345 L60.6293613,15.2183334 C60.6293613,18.3643334 62.3193613,20.5223334 65.5953613,20.5223334 Z M78.5563614,25.6183334 L78.5563614,18.4423334 C79.3103614,19.6123334 80.7923614,20.5223334 82.8723614,20.5223334 C86.8763614,20.5223334 89.1383614,17.3243334 89.1383614,13.4763334 C89.1383614,9.60233345 86.8763614,6.40433345 82.8723614,6.40433345 C80.7923614,6.40433345 79.2063614,7.26233345 78.3223614,8.64033345 L78.3223614,6.71633345 L75.4623614,6.71633345 L75.4623614,25.6183334 L78.5563614,25.6183334 Z M82.2483614,17.7923334 C79.8823614,17.7923334 78.4523614,15.8943334 78.4523614,13.4763334 C78.4523614,10.9803334 79.8823614,9.08233345 82.2483614,9.08233345 C84.5883614,9.08233345 86.0443614,10.9803334 86.0443614,13.4763334 C86.0443614,15.8943334 84.5883614,17.7923334 82.2483614,17.7923334 Z M97.0033614,20.5223334 C100.149361,20.5223334 102.541361,18.6243334 103.347361,15.9463334 L100.227361,15.9463334 C99.7333614,17.1423334 98.5113614,17.8703334 97.0813614,17.8703334 C94.9233614,17.8703334 93.5453614,16.4923334 93.3113614,14.3603334 L103.581361,14.3603334 C103.581361,14.3603334 103.607361,13.8923334 103.607361,13.3983334 C103.607361,9.44633345 100.981361,6.40433345 96.9773614,6.40433345 C92.9733614,6.40433345 90.2693614,9.52433345 90.2693614,13.4503334 C90.2693614,17.4803334 92.9213614,20.5223334 97.0033614,20.5223334 Z M100.539361,12.0723334 L93.3633614,12.0723334 C93.6753614,10.2263334 94.9753614,8.92633345 96.9773614,8.92633345 C98.9793614,8.92633345 100.279361,10.2003334 100.539361,12.0723334 Z M108.690361,20.2103334 L108.690361,13.1903334 C108.690361,10.5903334 109.990361,9.44633345 112.174361,9.44633345 C112.512361,9.44633345 112.876361,9.49833345 112.876361,9.49833345 L112.876361,6.61233345 C112.876361,6.61233345 112.564361,6.58633345 112.434361,6.58633345 C110.094361,6.58633345 108.950361,7.73033345 108.456361,8.58833345 L108.456361,6.71633345 L105.596361,6.71633345 L105.596361,20.2103334 L108.690361,20.2103334 Z M117.361361,20.2103334 L117.361361,12.4103334 C117.361361,10.2783334 118.583361,9.05633345 120.533361,9.05633345 C122.379361,9.05633345 123.211361,10.2783334 123.211361,12.1243334 L123.211361,20.2103334 L126.305361,20.2103334 L126.305361,11.7343334 C126.305361,8.58833345 124.563361,6.40433345 121.287361,6.40433345 C119.285361,6.40433345 117.985361,7.26233345 117.361361,8.17233345 L117.361361,0.710333445 L114.267361,0.710333445 L114.267361,20.2103334 L117.361361,20.2103334 Z M134.950361,20.5223334 C138.096361,20.5223334 140.488361,18.6243334 141.294361,15.9463334 L138.174361,15.9463334 C137.680361,17.1423334 136.458361,17.8703334 135.028361,17.8703334 C132.870361,17.8703334 131.492361,16.4923334 131.258361,14.3603334 L141.528361,14.3603334 C141.528361,14.3603334 141.554361,13.8923334 141.554361,13.3983334 C141.554361,9.44633345 138.928361,6.40433345 134.924361,6.40433345 C130.920361,6.40433345 128.216361,9.52433345 128.216361,13.4503334 C128.216361,17.4803334 130.868361,20.5223334 134.950361,20.5223334 Z M138.486361,12.0723334 L131.310361,12.0723334 C131.622361,10.2263334 132.922361,8.92633345 134.924361,8.92633345 C136.926361,8.92633345 138.226361,10.2003334 138.486361,12.0723334 Z M146.637362,20.2103334 L146.637362,13.1903334 C146.637362,10.5903334 147.937362,9.44633345 150.121362,9.44633345 C150.459362,9.44633345 150.823362,9.49833345 150.823362,9.49833345 L150.823362,6.61233345 C150.823362,6.61233345 150.511362,6.58633345 150.381362,6.58633345 C148.041362,6.58633345 146.897362,7.73033345 146.403362,8.58833345 L146.403362,6.71633345 L143.543362,6.71633345 L143.543362,20.2103334 L146.637362,20.2103334 Z M157.752362,20.5223334 C162.068362,20.5223334 164.772362,17.2723334 164.772362,13.4763334 C164.772362,9.68033345 162.068362,6.40433345 157.752362,6.40433345 C153.462362,6.40433345 150.758362,9.68033345 150.758362,13.4763334 C150.758362,17.2723334 153.462362,20.5223334 157.752362,20.5223334 Z M157.752362,17.7923334 C155.516362,17.7923334 153.852362,16.0763334 153.852362,13.4763334 C153.852362,10.8503334 155.516362,9.13433345 157.752362,9.13433345 C160.014362,9.13433345 161.678362,10.8503334 161.678362,13.4763334 C161.678362,16.0763334 160.014362,17.7923334 157.752362,17.7923334 Z" id="Superhero" fill="#FFFFFF"></path>
                    <path d="M10.0685332,2.57571742e-13 L27.9501643,0.00593215401 L38.0187281,9.41766147 L31.631,15.675 L31.538001,15.8337746 L31.47,15.833 L19.0659818,27.9877572 L-2.48689958e-13,9.41085703 L10.0685332,2.57571742e-13 Z M11.2098133,2.89025535 L4.18562438,9.45562454 L19.058965,23.9474335 L28.378,14.816 L16.676,2.892 L11.2098133,2.89025535 Z" id="Combined-Shape" stroke="#1161FE" stroke-width="0.1" fill="#1161FE"></path>
                </g>
            </g>
            <path d="M150.1,24 C151.242,24 151.947,24.508 151.947,25.49 C151.976979,25.9910164 151.687009,26.456251 151.224,26.65 C151.763839,26.8399796 152.121805,27.3537758 152.113,27.926 C152.113,28.934 151.413,29.478 150.275,29.478 L148,29.478 L148,24 L150.1,24 Z M153,24 L156.72,24.004 L156.72,25.004 L154.12,25.004 L154.12,26.197 L156.475,26.197 L156.475,27.171 L154.12,27.171 L154.12,28.471 L156.72,28.471 L156.72,29.479 L153,29.479 L153,24 Z M164.226,24 L166.326,29.478 L165.167,29.478 L164.676,28.157 L162.624,28.157 L162.142,29.478 L161,29.478 L163.1,24 L164.226,24 Z M161.675,24 L161.675,25 L159.909,25 L159.909,29.476 L158.758,29.476 L158.758,24.999 L157,24.999 L157,24 L161.675,24 Z M150.177,27.142 L149.097,27.142 L149.097,28.516 L150.177,28.516 C150.712,28.516 150.998,28.247 150.998,27.829 C150.998,27.411 150.712,27.142 150.177,27.142 Z M163.646,25.374 L162.977,27.194 L164.315,27.194 L163.646,25.374 Z M150.025,24.965 L149.097,24.965 L149.097,26.249 L150.025,26.249 C150.57,26.249 150.855,26.035 150.855,25.598 C150.855,25.161 150.569,24.965 150.025,24.965 Z" id="Combined-Shape" fill="#848484"></path>
        </g>
    </g>
</svg>
