<?xml version="1.0" encoding="UTF-8"?>
<svg width="20px" height="19px" viewBox="0 0 20 19" version="1.1" xmlns="http://www.w3.org/2000/svg" xmlns:xlink="http://www.w3.org/1999/xlink">
    <title>iconWallet</title>
    <g id="Page-1" stroke="none" stroke-width="1" fill="none" fill-rule="evenodd">
        <g id="Stockholm-icons-24x24" transform="translate(-649.000000, -3741.000000)">
            <g id="Shopping/Finance" transform="translate(60.000000, 3484.000000)">
                <g id="Group" transform="translate(587.000000, 256.000000)">
                    <rect id="bound" x="0" y="0" width="24" height="24"></rect>
                    <circle id="Oval-47" fill="#FFFFFF" opacity="0.439999998" cx="20.5" cy="12.5" r="1.5"></circle>
                    <rect id="Rectangle-162" fill="#FFFFFF" opacity="0.439999998" transform="translate(12.000000, 6.500000) rotate(-15.000000) translate(-12.000000, -6.500000) " x="3" y="3" width="18" height="7" rx="1"></rect>
                    <path d="M20,4 C21.1045695,4 22,4.8954305 22,6 L22.0010375,9.33730867 C21.5461461,9.12102947 21.037207,9 20.5,9 C18.5670034,9 17,10.5670034 17,12.5 C17,14.4329966 18.5670034,16 20.5,16 C21.037207,16 21.5461461,15.8789705 22.0010375,15.6626913 L22,18 C22,19.1045695 21.1045695,20 20,20 L4,20 C2.8954305,20 2,19.1045695 2,18 L2,6 C2,4.8954305 2.8954305,4 4,4 L20,4 Z" id="Combined-Shape" fill="#FFFFFF"></path>
                </g>
            </g>
        </g>
    </g>
</svg>