<svg id="Icon_Trending" width="26" height="26" data-name="Icon/Trending" version="1.1" viewBox="0 0 26 26" xmlns="http://www.w3.org/2000/svg">
 <path id="User" d="m13 22a9 9 0 1 1 9-9 9.0099 9.0099 0 0 1-9 9zm0-6.4286a3.8571 3.8571 0 0 0-3.8275 3.3755 7.0735 7.0735 0 0 0 7.6539 0 3.8631 3.8631 0 0 0-3.8067-3.3755zm0-9.6429a7.0714 7.0714 0 0 0-5.4553 11.571 5.7848 5.7848 0 0 1 2.6555-3.1351 3.8571 3.8571 0 1 1 5.6007 0 5.7749 5.7749 0 0 1 2.6564 3.1312 7.0714 7.0714 0 0 0-5.4574-11.567zm0 3.8571a1.9286 1.9286 0 0 0-0.0178 3.8571h0.0178a1.9286 1.9286 0 1 0 0-3.8571z" fill="#67F7B8" stroke-width=".98901"/>
</svg>
