<svg viewBox="0 0 17 14" fill="none" xmlns="http://www.w3.org/2000/svg">
    <path
        d="M2.912 14C2.72007 14 2.53175 13.9478 2.3671 13.8492C2.20245 13.7506 2.06763 13.6092 1.977 13.44C1.86732 13.2367 1.82628 13.0035 1.86 12.775L2.234 10.231C1.5687 9.76092 1.02095 9.14355 0.633446 8.427C0.245944 7.71045 0.0291628 6.91409 0 6.1C0 2.739 3.813 0 8.5 0C13.187 0 17 2.739 17 6.1C17 9.461 13.187 12.21 8.5 12.21C7.90311 12.2102 7.30706 12.165 6.717 12.075L3.417 13.875C3.26168 13.958 3.08811 14.001 2.912 14ZM8.5 1.6C6.76199 1.56607 5.05215 2.04238 3.582 2.97C3.01996 3.2894 2.54483 3.74176 2.19824 4.28745C1.85165 4.83313 1.64418 5.4555 1.594 6.1C1.61677 6.62631 1.75529 7.14112 1.99969 7.6078C2.24409 8.07447 2.58836 8.48153 3.008 8.8L3.213 8.968L3.947 9.542L3.592 11.956L6.428 10.41L6.957 10.491C7.46769 10.5684 7.98348 10.6072 8.5 10.607C10.2383 10.6411 11.9485 10.1648 13.419 9.237C13.9817 8.91677 14.4572 8.46324 14.8037 7.91627C15.1501 7.36929 15.357 6.74561 15.406 6.1C15.356 5.45532 15.1486 4.83276 14.802 4.28688C14.4554 3.74101 13.9802 3.28849 13.418 2.969C11.9477 2.04184 10.2379 1.56589 8.5 1.6Z"
        fill="currentColor" />
</svg>