<svg width="16" height="16" viewBox="0 0 16 16" fill="none" xmlns="http://www.w3.org/2000/svg">
<path d="M12.6587 12.9658C12.4037 10.7346 11.3801 9.80984 10.6324 9.13547C10.1155 8.66741 9.86692 8.42395 9.86692 8C9.86692 7.58185 10.1146 7.34304 10.6301 6.88456C11.3865 6.21221 12.4224 5.29119 12.6593 3.02983C12.6782 2.83984 12.6568 2.64802 12.5965 2.46677C12.5362 2.28552 12.4383 2.11888 12.3092 1.97764C12.1713 1.82678 12.0031 1.70633 11.8156 1.62407C11.628 1.5418 11.4252 1.49954 11.2202 1.50001H4.77963C4.57436 1.49937 4.37124 1.54155 4.18336 1.62381C3.99549 1.70608 3.82705 1.82662 3.68889 1.97764C3.56015 2.11908 3.46263 2.28579 3.40264 2.46702C3.34264 2.64824 3.3215 2.83997 3.34058 3.02983C3.57658 5.28393 4.60868 6.19828 5.3622 6.86569C5.88262 7.32679 6.13292 7.56734 6.13292 8C6.13292 8.43817 5.88204 8.68366 5.35986 9.15346C4.61598 9.82377 3.59496 10.7416 3.34117 12.9658C3.32056 13.1549 3.34031 13.3463 3.39912 13.5273C3.45794 13.7083 3.55449 13.8749 3.68248 14.0163C3.82092 14.1691 3.99018 14.2911 4.17922 14.3744C4.36827 14.4578 4.57285 14.5006 4.77963 14.5H11.2202C11.427 14.5006 11.6316 14.4578 11.8206 14.3744C12.0097 14.2911 12.1789 14.1691 12.3174 14.0163C12.4453 13.8749 12.5419 13.7083 12.6007 13.5273C12.6595 13.3463 12.6793 13.1549 12.6587 12.9658ZM10.5466 13.1071H5.46576C5.01067 13.1071 4.88232 12.5848 5.20146 12.261C5.97393 11.4821 7.53317 10.9244 7.53317 10.0312V7.07143C7.53317 6.49543 6.42464 6.05581 5.7388 5.12143C5.62562 4.96735 5.63699 4.75 5.92463 4.75H10.0883C10.3337 4.75 10.3865 4.96561 10.275 5.11998C9.59912 6.05581 8.46667 6.49252 8.46667 7.07143V10.0312C8.46667 10.9172 10.0918 11.3951 10.8121 12.2618C11.1024 12.6112 11.0008 13.1071 10.5466 13.1071Z" fill="currentColor"/>
</svg>
