<?xml version="1.0" encoding="utf-8"?>
<!-- Generator: Adobe Illustrator 25.2.1, SVG Export Plug-In . SVG Version: 6.00 Build 0)  -->
<svg version="1.1" xmlns="http://www.w3.org/2000/svg" xmlns:xlink="http://www.w3.org/1999/xlink" x="0px" y="0px"
	 viewBox="0 0 48 48" style="enable-background:new 0 0 48 48;" xml:space="preserve">
<style type="text/css">
	.st0{fill:none;}
	.st1{opacity:0.44;fill:#00FF9D;enable-background:new;}
	.st2{fill-rule:evenodd;clip-rule:evenodd;fill:#00FF9D;opacity:1;}
</style>
<g id="bound">
	<rect x="0" y="0" class="st0" width="48" height="48"/>
</g>
<g id="animated1">
	<path class="st1" d="M7.21,17h6c1.105,0,2,0.895,2,2v18c0,1.105-0.895,2-2,2h-6c-1.105,0-2-0.895-2-2V19
		C5.21,17.895,6.105,17,7.21,17z">
		<animate attributeName="opacity"
             values=".44;.66;.44" dur="1.3s"
             repeatCount="indefinite"/>
	</path>
</g>
<g id="animated2">
	<path cx="30.501" cy="24" class="st2" d="M18.21,19v18l2.305,0.768C22.962,38.584,25.525,39,28.105,39h7.187c2.86,0,5.323-2.019,5.883-4.823
		l1.498-7.492c0.775-3.874-2.341-7.426-6.283-7.163L29.21,20l0.642-7.061C30.044,10.824,28.379,9,26.255,9l0,0
		c-1.269,0-2.444,0.666-3.097,1.754L18.21,19z">
		<animate attributeName="opacity"
             values="1;.44;1" dur="1.5s"
             repeatCount="indefinite"/>
			 <animate attributeName="cx"
             values="30.501;32;30.501" dur="1.1s"
             repeatCount="indefinite"/>
	</path>
</g>
</svg>
