<?xml version="1.0" encoding="UTF-8"?>
<svg width="18" height="18" viewBox="0 0 18 18" version="1.1" xmlns="http://www.w3.org/2000/svg" xmlns:xlink="http://www.w3.org/1999/xlink">
    <title>iconHome</title>
    <g id="Page-5" stroke="none" stroke-width="1" fill="none" fill-rule="evenodd">
        <g id="iconHome" fill="currentColor">
            <path d="M3,18 C1.34315,18 0,16.6403 0,14.9632 L0,6.84031 C0,6.806 0.00169,6.77208 0.00498,6.73864 C0,6.15561 0.2288,5.59645 0.63607,5.18418 L6.87868,0.88947 C8.0502,-0.29649 9.9497,-0.29649 11.1213,0.88947 L17.3639,5.1842 C17.7712,5.59646 18,6.15561 18,6.73864 C17.9983,6.77208 18,6.806 18,6.84031 L18,14.9632 C18,16.6403 16.6569,18 15,18 L3,18 Z M9.7071,2.2974 L16,6.6564 L16,14.9846 C16,15.5453 15.5523,16.0000025 15,16.0000025 L12,16.0000025 L12,10.923 C12,9.2406 10.6569,7.8768 9,7.8768 C7.3431,7.8768 6,9.2406 6,10.923 L6,16.0000025 L3,16.0000025 C2.44772,16.0000025 2,15.5453 2,14.9846 L2,6.65648 L8.2929,2.2974 C8.6834,1.90087 9.3166,1.90087 9.7071,2.2974 Z" id="Shape"></path>
        </g>
    </g>
</svg>
