<svg xmlns="http://www.w3.org/2000/svg" viewBox="0 0 30 30">
    <g transform="translate(-620 -96)">
        <g transform="translate(273 11)">
            <circle cx="15" cy="15" r="15" transform="translate(347 85)" fill="none" opacity="0.66" />
        </g>
        <path
            d="M16.84,14.553l-.363-.364a1,1,0,0,1,0-1.414l3.6-3.6L16.708,5.807a1,1,0,0,1,0-1.414l.364-.364a1,1,0,0,1,1.414,0L21.854,7.4l3.711-3.711a1,1,0,0,1,1.414,0l.364.363a1,1,0,0,1,0,1.415L23.632,9.176l3.377,3.377a1,1,0,0,1,0,1.415l-.363.363a1,1,0,0,1-1.415,0l-3.377-3.377-3.6,3.6a1,1,0,0,1-1.415,0Z"
            transform="translate(613.535 101.434)" fill="currentColor" />
    </g>
</svg>