<svg xmlns="http://www.w3.org/2000/svg" viewBox="0 0 18.203 18.203">
  <path
    d="M16.81,11.846l-.172.172a.607.607,0,0,1-.858,0l-4.271-4.27-4.27,4.27a.607.607,0,0,1-.858,0l-.173-.172a.607.607,0,0,1,0-.858l4.81-4.81A.606.606,0,0,1,11.508,6,.606.606,0,0,1,12,6.178l4.81,4.81A.607.607,0,0,1,16.81,11.846Z"
    transform="translate(-2.409 2.366)"
    fill="currentColor"
  />
  <path
    d="M17.053,0H1.277A1.215,1.215,0,0,0,.063,1.214V16.989A1.215,1.215,0,0,0,1.277,18.2H17.053a1.215,1.215,0,0,0,1.214-1.214V1.214A1.215,1.215,0,0,0,17.053,0ZM1.277,16.989h0V1.214H17.052V16.989Z"
    transform="translate(-0.063)"
    fill="currentColor"
  />
  <g transform="translate(0.607 5.082)">
    <rect width="16.99" height="1.214" fill="currentColor"/>
  </g>
</svg>
