<svg viewBox="0 0 40 40" fill="none" xmlns="http://www.w3.org/2000/svg">
    <path
        d="M28.4889 11.5145C26.8104 9.83634 24.6718 8.69351 22.3436 8.23054C20.0154 7.76756 17.6022 8.00524 15.4091 8.91351C13.216 9.82178 11.3415 11.3598 10.0227 13.3332C8.70391 15.3066 8 17.6267 8 20C8 22.3733 8.70391 24.6934 10.0227 26.6668C11.3415 28.6401 13.216 30.1782 15.4091 31.0865C17.6022 31.9948 20.0154 32.2324 22.3436 31.7695C24.6718 31.3065 26.8104 30.1637 28.4889 28.4855C30.7373 26.2336 32 23.1818 32 20C32 16.8182 30.7373 13.7664 28.4889 11.5145ZM27.1787 27.1755C25.759 28.5952 23.9501 29.562 21.9808 29.9538C20.0114 30.3456 17.9701 30.1447 16.115 29.3765C14.2599 28.6084 12.6743 27.3074 11.5587 25.6382C10.4431 23.969 9.84765 22.0066 9.84765 19.999C9.84765 17.9914 10.4431 16.029 11.5587 14.3598C12.6743 12.6906 14.2599 11.3896 16.115 10.6215C17.9701 9.85328 20.0114 9.65238 21.9808 10.0442C23.9501 10.436 25.759 11.4028 27.1787 12.8225C29.0805 14.727 30.1487 17.3083 30.1487 19.9995C30.1487 22.6907 29.0805 25.272 27.1787 27.1765V27.1755Z"
        fill="currentColor" />
    <path
        d="M16.9218 18.4025C17.8332 18.4025 18.5721 17.6637 18.5721 16.7525C18.5721 15.8412 17.8332 15.1025 16.9218 15.1025C16.0104 15.1025 15.2715 15.8412 15.2715 16.7525C15.2715 17.6637 16.0104 18.4025 16.9218 18.4025Z"
        fill="currentColor" />
    <path
        d="M23.284 18.4015C23.6104 18.4015 23.9295 18.3047 24.2008 18.1234C24.4722 17.9421 24.6838 17.6844 24.8087 17.3829C24.9336 17.0814 24.9663 16.7497 24.9026 16.4296C24.8389 16.1095 24.6817 15.8155 24.4509 15.5848C24.2201 15.354 23.9261 15.1969 23.6059 15.1332C23.2858 15.0695 22.954 15.1022 22.6524 15.2271C22.3509 15.352 22.0931 15.5635 21.9118 15.8348C21.7305 16.1062 21.6337 16.4252 21.6337 16.7515C21.6339 17.189 21.8079 17.6086 22.1173 17.9179C22.4268 18.2273 22.8464 18.4012 23.284 18.4015Z"
        fill="currentColor" />
    <path
        d="M24.9603 21.3975C24.7368 21.2942 24.4814 21.2838 24.2502 21.3685C24.1353 21.4102 24.0298 21.4744 23.94 21.5574C23.8502 21.6403 23.7778 21.7403 23.7271 21.8515C23.4087 22.5524 22.8949 23.1465 22.2471 23.5627C21.5994 23.9788 20.8453 24.1992 20.0754 24.1975H20.0054C19.216 24.219 18.4381 24.0046 17.7712 23.5817C17.1043 23.1588 16.5787 22.5466 16.2617 21.8235C16.1614 21.5981 15.9757 21.4217 15.7453 21.3332C15.515 21.2447 15.2589 21.2512 15.0334 21.3515C14.808 21.4518 14.6316 21.6375 14.543 21.8677C14.4545 22.098 14.4611 22.3541 14.5614 22.5795C15.012 23.6136 15.7548 24.4935 16.6986 25.1114C17.6425 25.7293 18.7462 26.0581 19.8744 26.0575H20.0074C21.1505 26.073 22.2731 25.7537 23.2368 25.1389C24.2004 24.524 24.963 23.6406 25.4304 22.5975V22.5885C25.5195 22.3676 25.5205 22.1208 25.433 21.8992C25.3455 21.6776 25.1763 21.498 24.9603 21.3975Z"
        fill="currentColor" />
</svg>