<?xml version="1.0" encoding="UTF-8"?>
<svg width="18px" height="14px" viewBox="0 0 18 14" version="1.1" xmlns="http://www.w3.org/2000/svg" xmlns:xlink="http://www.w3.org/1999/xlink">
    <g id="Desktop" stroke="none" stroke-width="1" fill="none" fill-rule="evenodd">
        <g id="Post-Single" transform="translate(-431.000000, -428.000000)" fill="#2A9CFF">
            <g id="Post" transform="translate(390.000000, 0.000000)">
                <g id="Card/Post" transform="translate(20.000000, 60.000000)">
                    <g id="Post/CTA/AE" transform="translate(20.000000, 365.000000)">
                        <g id="Icon/Heart">
                            <path d="M15.6812126,3 C15.9104354,3 16.1212296,3.1274594 16.2303393,3.33203651 L18.6747093,7.91515173 C18.8068457,8.1629032 18.7619387,8.46943429 18.5644957,8.66746029 L10.4389131,16.8170345 C10.1956773,17.0609885 9.80432272,17.0609885 9.56108694,16.8170345 L1.43550431,8.66746029 C1.23806128,8.46943429 1.19315431,8.1629032 1.32529069,7.91515173 L3.76966075,3.33203651 C3.87877041,3.1274594 4.08956456,3 4.31878742,3 L15.6812126,3 Z M10.4477365,4.61556015 L6.54015699,10.2414016 C6.48287167,10.3238767 6.50231554,10.4378633 6.58358609,10.4959977 C6.6141228,10.5178412 6.65059943,10.5295029 6.68795951,10.5293662 L9.73605578,10.5182125 C9.83548606,10.5178487 9.91638088,10.5993526 9.9167394,10.7002566 C9.91676629,10.7078248 9.91632978,10.7153873 9.91543239,10.7229005 L9.49185737,14.2691893 C9.47989271,14.3693608 9.55021244,14.4604089 9.64892089,14.4725509 C9.71668815,14.4808868 9.78327217,14.449611 9.82086344,14.391786 L13.4909746,8.7462143 C13.5457293,8.66198755 13.5228347,8.54866292 13.4398381,8.49309666 C13.4102879,8.47331275 13.3756459,8.46280906 13.3402444,8.46289917 L10.4342054,8.47029599 C10.3347748,8.47054907 10.2539682,8.38895509 10.2537188,8.28805072 C10.2536961,8.27885987 10.2543568,8.26968039 10.2556953,8.26059044 L10.7729485,4.74782382 C10.7876435,4.64802721 10.7198366,4.55503685 10.6214975,4.54012404 C10.5541826,4.52991594 10.4869494,4.55910435 10.4477365,4.61556015 Z" id="Shield-Fill"></path>
                        </g>
                    </g>
                </g>
            </g>
        </g>
    </g>
</svg>
