<svg xmlns="http://www.w3.org/2000/svg" width="18.2" height="18.2" viewBox="0 0 18.2 18.2">
  <g id="_17" data-name="17" transform="translate(0.031 2)">
    <path id="Path_30" data-name="Path 30" d="M9.84,15.569A2.271,2.271,0,1,1,7.569,13.3h.757V8H7.569a7.569,7.569,0,1,0,7.569,7.569v-.757H9.84Zm1.438.757h2.3A6.055,6.055,0,1,1,6.812,9.559v2.3a3.785,3.785,0,1,0,4.466,4.466Z" transform="translate(-0.031 -6.938)" fill="currentColor"/>
    <path id="Path_31" data-name="Path 31" d="M26.757,0H26V5.3h.757a2.271,2.271,0,0,1,2.271,2.271v.757h5.3V7.569A7.569,7.569,0,0,0,26.757,0Zm3.709,6.812A3.785,3.785,0,0,0,27.514,3.86v-2.3a6.055,6.055,0,0,1,5.253,5.253Z" transform="translate(-16.157 -2)" fill="currentColor"/>
  </g>
</svg>
