<svg viewBox="0 0 24 24" fill="none" xmlns="http://www.w3.org/2000/svg">
  <circle opacity="0.44" cx="12" cy="12" r="10" fill="white" />
  <path
    d="M6 12.2144C5.99968 11.6655 6.07447 11.1191 6.22229 10.5904L7.32286 10.899C7.03023 11.943 7.09576 13.055 7.50901 14.0574C7.92225 15.0598 8.65938 15.8949 9.60274 16.4294C10.5461 16.9639 11.6413 17.1669 12.7136 17.0062C13.7859 16.8454 14.7734 16.3301 15.5185 15.5424C16.2636 14.7548 16.7235 13.7402 16.8245 12.6607C16.9256 11.5812 16.6622 10.4989 16.0762 9.58658C15.4903 8.67429 14.6156 7.98458 13.5919 7.62753C12.5681 7.27047 11.4542 7.26667 10.428 7.61671L11.1086 8.42757C11.1427 8.46819 11.1649 8.51751 11.1726 8.57001C11.1803 8.62252 11.1732 8.67613 11.1521 8.72483C11.1311 8.77354 11.0969 8.81542 11.0533 8.84578C11.0098 8.87613 10.9587 8.89377 10.9057 8.89671L8.12457 9.05385C8.07998 9.05668 8.03534 9.04901 7.99425 9.03146C7.95315 9.0139 7.91675 8.98695 7.88796 8.95277C7.85918 8.9186 7.83881 8.87814 7.82849 8.83466C7.81818 8.79118 7.8182 8.74589 7.82857 8.70243L8.47543 5.999C8.48777 5.94765 8.51409 5.90072 8.55149 5.86343C8.58888 5.82614 8.63588 5.79995 8.68726 5.78775C8.73865 5.77556 8.7924 5.77784 8.84257 5.79435C8.89273 5.81086 8.93733 5.84095 8.97143 5.88128L9.65143 6.69386C10.8382 6.18904 12.156 6.08005 13.4096 6.38304C14.6632 6.68603 15.7858 7.38487 16.611 8.37598C17.4362 9.36709 17.9201 10.5977 17.9909 11.8854C18.0618 13.1732 17.7158 14.4494 17.0044 15.5251C16.2929 16.6008 15.2538 17.4186 14.041 17.8573C12.8283 18.296 11.5064 18.3323 10.2714 17.9607C9.03643 17.5892 7.95402 16.8296 7.18464 15.7945C6.41526 14.7595 5.99985 13.5041 6 12.2144Z"
    fill="white" />
</svg>