<svg xmlns="http://www.w3.org/2000/svg" width="17.498" height="14" viewBox="0 0 17.498 14">
  <g id="Icon_Heart" data-name="Icon/Heart" transform="translate(-0.251 0)">
    <path id="Shield_Fill" data-name="Shield Fill" d="M8.75,14a.616.616,0,0,1-.439-.183L.185,5.667a.645.645,0,0,1-.11-.752L2.52.332A.622.622,0,0,1,3.069,0H14.431a.622.622,0,0,1,.549.332l2.444,4.583a.644.644,0,0,1-.111.752l-8.125,8.15A.616.616,0,0,1,8.75,14ZM8.488,7.519a.182.182,0,0,1,.179.182.19.19,0,0,1,0,.023l-.423,3.546a.183.183,0,0,0,.037.136.177.177,0,0,0,.119.067l.023,0a.178.178,0,0,0,.149-.082l3.67-5.646a.186.186,0,0,0-.051-.254.178.178,0,0,0-.1-.03L9.184,5.47A.182.182,0,0,1,9,5.288a.273.273,0,0,1,0-.028l.517-3.513a.183.183,0,0,0-.151-.208l-.026,0a.178.178,0,0,0-.147.078L5.29,7.241a.185.185,0,0,0,.043.255.183.183,0,0,0,.1.033l3.048-.011Z" transform="translate(0.25)" fill="#2a9cff"/>
  </g>
</svg>
