<svg viewBox="0 0 24 24" fill="none" xmlns="http://www.w3.org/2000/svg">
  <path
    d="M18.5 4H5.5C4.67157 4 4 4.71634 4 5.6C4 6.48366 4.67157 7.2 5.5 7.2H18.5C19.3284 7.2 20 6.48366 20 5.6C20 4.71634 19.3284 4 18.5 4Z"
    fill="currentColor" />
  <path opacity="0.44"
    d="M10.5 19.9999C10.1022 19.9999 9.72064 19.8313 9.43934 19.5313C9.15804 19.2312 9 18.8242 9 18.3999C9 17.9756 9.15804 17.5686 9.43934 17.2685C9.72064 16.9685 10.1022 16.7999 10.5 16.7999H13.5C13.8978 16.7999 14.2794 16.9685 14.5607 17.2685C14.842 17.5686 15 17.9756 15 18.3999C15 18.8242 14.842 19.2312 14.5607 19.5313C14.2794 19.8313 13.8978 19.9999 13.5 19.9999H10.5ZM7.5 13.5999C7.10218 13.5999 6.72064 13.4313 6.43934 13.1313C6.15804 12.8312 6 12.4242 6 11.9999C6 11.5756 6.15804 11.1686 6.43934 10.8685C6.72064 10.5685 7.10218 10.3999 7.5 10.3999H16.5C16.8978 10.3999 17.2794 10.5685 17.5607 10.8685C17.842 11.1686 18 11.5756 18 11.9999C18 12.4242 17.842 12.8312 17.5607 13.1313C17.2794 13.4313 16.8978 13.5999 16.5 13.5999H7.5Z"
    fill="currentColor" />
</svg>