<?xml version="1.0" encoding="UTF-8"?>
<svg width="21" height="23" viewBox="0 0 21 23" version="1.1" xmlns="http://www.w3.org/2000/svg" xmlns:xlink="http://www.w3.org/1999/xlink">
    <title>iconActivity</title>
    <g id="Page-1" stroke="none" stroke-width="1" fill="none" fill-rule="evenodd">
        <g id="Stockholm-icons-24x24" transform="translate(-441.000000, -5464.000000)">
            <g id="Code/Control" transform="translate(60.000000, 5263.000000)">
                <g id="Group" transform="translate(380.000000, 200.500000)">
                    <rect id="bound" x="0" y="0" width="24" height="24"></rect>
                    <path d="M22,12.5 C22,18.2039245 17.451858,22.8455734 11.7842951,22.9962258 L11.5,23 L11.5,23 C5.70101013,23 1,18.2989899 1,12.5 C1,11.5151324 1.13559454,10.5619345 1.38913364,9.65805651 L3.31481075,10.1982117 C3.10672013,10.940064 3,11.7119264 3,12.5 C3,17.1944204 6.80557963,21 11.5,21 C16.1944204,21 20,17.1944204 20,12.5 C20,7.80557963 16.1944204,4 11.5,4 C10.5545108,4 9.63356281,4.15404793 8.7645726,4.44906446 C8.75955147,4.4507691 8.75453207,4.45247844 8.74951442,4.4541925 L9.93948308,5.87355717 C10.0088058,5.95617272 10.0495583,6.05898805 10.05566,6.16666224 C10.0712834,6.4423623 9.86044965,6.67852665 9.5847496,6.69415008 L9.5847496,6.69415008 L4.71777931,6.96995273 C4.66931162,6.97269931 4.62070229,6.96837279 4.57348157,6.95710938 C4.30487471,6.89303938 4.13906482,6.62335149 4.20313482,6.35474463 L4.20313482,6.35474463 L5.33163823,1.62361064 C5.35654118,1.51920756 5.41437908,1.4255891 5.49660017,1.35659741 C5.7081375,1.17909652 6.0235153,1.2066885 6.2010162,1.41822583 L6.2010162,1.41822583 L7.39103417,2.83443099 L7.39103417,2.83443099 L7.50990952,2.78469604 C8.74007887,2.2789228 10.0874665,2 11.5,2 C17.2989899,2 22,6.70101013 22,12.5 Z" id="Combined-Shape" fill="currentColor" opacity="0.439999998"></path>
                    <path d="M12,8 C13.3807119,8 14.5,9.11928813 14.5,10.5 L14.5,11 C15.0522847,11 15.5,11.4477153 15.5,12 L15.5,15 C15.5,15.5522847 15.0522847,16 14.5,16 L9.5,16 C8.94771525,16 8.5,15.5522847 8.5,15 L8.5,12 C8.5,11.4477153 8.94771525,11 9.5,11 L9.5,10.5 C9.5,9.11928813 10.6192881,8 12,8 Z M12,9 C11.1715729,9 10.5,9.67157288 10.5,10.5 L10.5,10.5 L10.5,11 L13.5,11 L13.5,10.5 C13.5,9.67157288 12.8284271,9 12,9 Z" id="Combined-Shape" fill="currentColor"></path>
                </g>
            </g>
        </g>
    </g>
</svg>
