<svg xmlns="http://www.w3.org/2000/svg" width="20.001" height="14" viewBox="0 0 20.001 14">
  <g id="Icon_Comments" data-name="Icon/Comments" transform="translate(0 0)">
    <path id="Reply" d="M-.866,14a.888.888,0,0,0,.734-.4.8.8,0,0,0,.058-.776C-2.272,7.8-5.559,4.7-9.842,3.613l-.446-.105V.841A.854.854,0,0,0-11.149,0a.854.854,0,0,0-.525.181l-8,6.157A.829.829,0,0,0-20,7a.827.827,0,0,0,.328.659l8,6.157a.854.854,0,0,0,.525.181.888.888,0,0,0,.6-.233.818.818,0,0,0,.264-.607v-2.67l.188-.024a7.17,7.17,0,0,1,.827-.048c2.252,0,4.78,1.05,7.515,3.12l.36.277A.856.856,0,0,0-.866,14Zm-8.4-5.268a8.794,8.794,0,0,0-1.769.179l-.315.071A.842.842,0,0,0-12,9.8v1.632L-17.756,7-12,2.569V4.2a.844.844,0,0,0,.7.826l.366.065A11.034,11.034,0,0,1-6.686,6.868,13.113,13.113,0,0,1-3.3,10.413l.08.122-.416-.228A12.046,12.046,0,0,0-9.268,8.732Z" transform="translate(20)" fill="#727278"/>
  </g>
</svg>
