<svg xmlns="http://www.w3.org/2000/svg" viewBox="0 0 18.6 18.755">
    <path
        d="M11.944,9.669H6.256a.569.569,0,1,0,0,1.137h5.687a.569.569,0,1,0,0-1.137Zm1.138-3.412H5.119a.569.569,0,1,0,0,1.137h7.963a.569.569,0,0,0,0-1.137ZM9.1,0C4.075,0,0,3.565,0,7.962a7.622,7.622,0,0,0,3.412,6.21V18.2L7.4,15.781a10.435,10.435,0,0,0,1.7.144c5.026,0,9.1-3.565,9.1-7.962S14.126,0,9.1,0Zm0,14.787a9.2,9.2,0,0,1-1.922-.209L4.5,16.188l.036-2.638a6.594,6.594,0,0,1-3.4-5.588C1.137,4.193,4.7,1.137,9.1,1.137s7.963,3.056,7.963,6.825S13.5,14.787,9.1,14.787Z"
        transform="translate(0.2 0.2)" fill="currentColor" stroke="currentColor" stroke-width="0.4" />
</svg>