<svg viewBox="0 0 40 40" fill="none" xmlns="http://www.w3.org/2000/svg">
    <path
        d="M25.75 19.625C25.75 19.1058 25.904 18.5983 26.1924 18.1666C26.4808 17.735 26.8908 17.3985 27.3705 17.1998C27.8501 17.0011 28.3779 16.9492 28.8871 17.0504C29.3963 17.1517 29.864 17.4017 30.2312 17.7688C30.5983 18.136 30.8483 18.6037 30.9496 19.1129C31.0508 19.6221 30.9989 20.1499 30.8002 20.6295C30.6015 21.1092 30.2651 21.5192 29.8334 21.8076C29.4017 22.096 28.8942 22.25 28.375 22.25C27.6788 22.25 27.0111 21.9734 26.5188 21.4812C26.0266 20.9889 25.75 20.3212 25.75 19.625ZM17.875 19.625C17.875 19.1058 18.029 18.5983 18.3174 18.1666C18.6058 17.735 19.0158 17.3985 19.4955 17.1998C19.9751 17.0011 20.5029 16.9492 21.0121 17.0504C21.5213 17.1517 21.989 17.4017 22.3562 17.7688C22.7233 18.136 22.9733 18.6037 23.0746 19.1129C23.1758 19.6221 23.1239 20.1499 22.9252 20.6295C22.7265 21.1092 22.3901 21.5192 21.9584 21.8076C21.5267 22.096 21.0192 22.25 20.5 22.25C19.8038 22.25 19.1361 21.9734 18.6438 21.4812C18.1516 20.9889 17.875 20.3212 17.875 19.625ZM10 19.625C10 19.1058 10.154 18.5983 10.4424 18.1666C10.7308 17.735 11.1408 17.3985 11.6205 17.1998C12.1001 17.0011 12.6279 16.9492 13.1371 17.0504C13.6463 17.1517 14.114 17.4017 14.4812 17.7688C14.8483 18.136 15.0983 18.6037 15.1996 19.1129C15.3008 19.6221 15.2489 20.1499 15.0502 20.6295C14.8515 21.1092 14.5151 21.5192 14.0834 21.8076C13.6517 22.096 13.1442 22.25 12.625 22.25C11.9288 22.25 11.2611 21.9734 10.7688 21.4812C10.2766 20.9889 10 20.3212 10 19.625V19.625Z"
        fill="currentColor" />
</svg>