<svg id="Icon_Trending" data-name="Icon/Trending" xmlns="http://www.w3.org/2000/svg" width="26" height="26" viewBox="0 0 26 26">
  <path id="Misson" d="M19.176,19.824H.976A.96.96,0,0,1,.169,19.4a.971.971,0,0,1-.1-.907l.06-.123,5.2-9.1A.978.978,0,0,1,6.351,8.79l.133.035L9.676,9.889,11.7,6.854V5.2H5.85V0h7.8V6.9l6.378,11.478a.962.962,0,0,1,.02.91.972.972,0,0,1-.737.53Zm-12.551-8.9-3.97,6.947H17.518L12.6,9.022l-1.713,2.569a.973.973,0,0,1-.979.419l-.14-.035ZM7.8,1.95v1.3h3.9V1.95Z" transform="translate(2.924 3.25)" fill="#67F7B8"/>
</svg>
