<svg xmlns="http://www.w3.org/2000/svg" viewBox="0 0 18.2 18.2">
    <g transform="translate(-351 -403.602)">
        <path d="M18.179,8.69A2.991,2.991,0,0,1,13.96,7.379,3.016,3.016,0,0,1,10.589,2.6,3.021,3.021,0,0,1,9.1,0a9.1,9.1,0,1,0,9.1,9.1c0-.138-.015-.273-.021-.41ZM9.1,16.683A7.583,7.583,0,0,1,7.878,1.615a4.469,4.469,0,0,0,.773,1.306A4.47,4.47,0,0,0,8.342,4.55a4.555,4.555,0,0,0,4.55,4.55c.13,0,.261-.006.392-.018a4.493,4.493,0,0,0,3.247,1.532A7.6,7.6,0,0,1,9.1,16.683Zm0,0" transform="translate(351 403.602)" fill="currentColor"/>
        <path d="M258.275,257.138A1.137,1.137,0,1,1,257.137,256,1.137,1.137,0,0,1,258.275,257.138Zm0,0" transform="translate(106.375 158.977)" fill="currentColor"/>
        <path d="M155.877,291.266a1.137,1.137,0,1,1-1.138-1.138A1.137,1.137,0,0,1,155.877,291.266Zm0,0" transform="translate(204.223 126.365)" fill="currentColor"/>
        <path d="M172.939,205.938A1.137,1.137,0,1,1,171.8,204.8,1.137,1.137,0,0,1,172.939,205.938Zm0,0" transform="translate(187.919 207.902)" fill="currentColor"/>
        <path d="M104.674,103.536a1.138,1.138,0,1,1-1.138-1.138A1.138,1.138,0,0,1,104.674,103.536Zm0,0" transform="translate(253.151 305.754)" fill="currentColor"/>
        <path d="M70.541,188.868A1.137,1.137,0,1,1,69.4,187.73,1.137,1.137,0,0,1,70.541,188.868Zm0,0" transform="translate(285.768 224.213)" fill="currentColor"/>
    </g>
</svg>