<svg width="24" height="24" viewBox="0 0 24 24" fill="none" xmlns="http://www.w3.org/2000/svg">
<path opacity="0.44" d="M10.8225 8.36948L12.732 9.82298C13.1788 9.23454 13.7958 8.7978 14.4993 8.57205C15.2027 8.3463 15.9587 8.34246 16.6644 8.56106C17.3701 8.77966 17.9915 9.21011 18.4443 9.79398C18.897 10.3779 19.1591 11.0869 19.195 11.8248C19.2309 12.5628 19.0389 13.2939 18.6451 13.919C18.2512 14.5441 17.6746 15.0329 16.9934 15.319C16.3122 15.6051 15.5595 15.6747 14.8374 15.5183C14.1153 15.362 13.4588 14.9872 12.957 14.445L11.196 16.0755C12.0323 16.9791 13.1264 17.6035 14.3297 17.8641C15.5331 18.1247 16.7874 18.0087 17.9226 17.532C19.0578 17.0553 20.0189 16.2409 20.6754 15.1993C21.3319 14.1577 21.652 12.9393 21.5924 11.7095C21.5328 10.4797 21.0963 9.29807 20.3422 8.32484C19.588 7.35162 18.5527 6.63396 17.3767 6.26926C16.2008 5.90456 14.941 5.91047 13.7685 6.28618C12.596 6.6619 11.5675 7.38923 10.8225 8.36948H10.8225Z" fill="currentColor"/>
<path d="M8.4 18C7.21331 18 6.05327 17.6481 5.06658 16.9888C4.07988 16.3295 3.31085 15.3925 2.85672 14.2961C2.40259 13.1997 2.28377 11.9933 2.51528 10.8295C2.7468 9.66557 3.31824 8.59648 4.15736 7.75736C4.99647 6.91825 6.06557 6.3468 7.22946 6.11529C8.39334 5.88378 9.59974 6.0026 10.6961 6.45673C11.7925 6.91085 12.7295 7.67989 13.3888 8.66658C14.0481 9.65328 14.4 10.8133 14.4 12C14.4 13.5913 13.7679 15.1174 12.6426 16.2426C11.5174 17.3679 9.9913 18 8.4 18Z" fill="currentColor"/>
</svg>
