<svg width="21" height="21" viewBox="0 0 21 21" fill="none" xmlns="http://www.w3.org/2000/svg">
<path d="M18.15 9.38005H2.85C2.62457 9.38005 2.40837 9.2905 2.24896 9.1311C2.08955 8.97169 2 8.75549 2 8.53005C2 8.30462 2.08955 8.08842 2.24896 7.92901C2.40837 7.76961 2.62457 7.68005 2.85 7.68005H18.15C18.3754 7.68005 18.5916 7.76961 18.751 7.92901C18.9104 8.08842 19 8.30462 19 8.53005C19 8.75549 18.9104 8.97169 18.751 9.1311C18.5916 9.2905 18.3754 9.38005 18.15 9.38005Z" fill="currentColor"/>
<path d="M15.3166 13.3467H5.68331C5.45788 13.3467 5.24168 13.2572 5.08227 13.0978C4.92287 12.9384 4.83331 12.7222 4.83331 12.4967C4.83331 12.2713 4.92287 12.0551 5.08227 11.8957C5.24168 11.7363 5.45788 11.6467 5.68331 11.6467H15.3166C15.5421 11.6467 15.7583 11.7363 15.9177 11.8957C16.0771 12.0551 16.1666 12.2713 16.1666 12.4967C16.1666 12.7222 16.0771 12.9384 15.9177 13.0978C15.7583 13.2572 15.5421 13.3467 15.3166 13.3467Z" fill="currentColor"/>
<path d="M11.9167 17.3133H9.08332C8.85789 17.3133 8.64169 17.2237 8.48228 17.0643C8.32288 16.9049 8.23332 16.6887 8.23332 16.4633C8.23332 16.2378 8.32288 16.0216 8.48228 15.8622C8.64169 15.7028 8.85789 15.6133 9.08332 15.6133H11.9167C12.1421 15.6133 12.3583 15.7028 12.5177 15.8622C12.6771 16.0216 12.7667 16.2378 12.7667 16.4633C12.7667 16.6887 12.6771 16.9049 12.5177 17.0643C12.3583 17.2237 12.1421 17.3133 11.9167 17.3133Z" fill="currentColor"/>
</svg>
