<svg width="20" height="20" viewBox="0 0 20 20" fill="none" xmlns="http://www.w3.org/2000/svg">
<path d="M1.73698 14.3938C1.60257 14.3938 1.47102 14.355 1.35819 14.2819C1.24537 14.2089 1.1561 14.1047 1.10116 13.9821C0.436393 12.4974 0.153723 10.87 0.278914 9.24809C0.404104 7.62621 0.933174 6.06144 1.81791 4.69637C2.70265 3.3313 3.91493 2.20934 5.34427 1.43272C6.77362 0.656093 8.37459 0.249505 10.0013 0.25C10.186 0.25 10.3631 0.323361 10.4937 0.453944C10.6242 0.584527 10.6976 0.761636 10.6976 0.946308V9.99831C10.6976 10.1328 10.6587 10.2644 10.5856 10.3772C10.5125 10.49 10.4082 10.5793 10.2855 10.6341L2.02116 14.3311C1.93194 14.3718 1.83507 14.3932 1.73698 14.3938Z" fill="currentColor"/>
<path d="M12.5079 1.82444C12.4574 1.8142 12.4053 1.81529 12.3552 1.82764C12.3052 1.83998 12.2586 1.86327 12.2187 1.89583C12.1787 1.92838 12.1465 1.96939 12.1244 2.0159C12.1022 2.0624 12.0907 2.11325 12.0905 2.16476V9.99822C12.0902 10.4014 11.9733 10.7959 11.7541 11.1342C11.5348 11.4725 11.2224 11.7403 10.8546 11.9052L3.34881 15.2641C3.30229 15.2848 3.26089 15.3155 3.22754 15.3541C3.19419 15.3926 3.1697 15.4379 3.15579 15.487C3.14189 15.536 3.13891 15.5874 3.14707 15.6377C3.15523 15.688 3.17433 15.7359 3.20302 15.778C3.77744 16.6228 4.49045 17.3645 5.31197 17.9718C6.86843 19.1297 8.75802 19.7523 10.6979 19.7465C15.6891 19.7465 19.7499 15.6858 19.7499 10.6945C19.7499 6.32302 16.6348 2.66523 12.5079 1.82444Z" fill="currentColor"/>
</svg>
