<svg viewBox="0 0 40 40" fill="none" xmlns="http://www.w3.org/2000/svg">
    <path
        d="M30.5 14H9.5C9.10218 14 8.72064 13.842 8.43934 13.5607C8.15804 13.2794 8 12.8978 8 12.5V9.5C8 9.10218 8.15804 8.72064 8.43934 8.43934C8.72064 8.15804 9.10218 8 9.5 8H30.5C30.8978 8 31.2794 8.15804 31.5607 8.43934C31.842 8.72064 32 9.10218 32 9.5V12.5C32 12.8978 31.842 13.2794 31.5607 13.5607C31.2794 13.842 30.8978 14 30.5 14ZM9.5 9.4C9.47348 9.4 9.44804 9.41054 9.42929 9.42929C9.41054 9.44804 9.4 9.47348 9.4 9.5V12.5C9.4 12.5265 9.41054 12.552 9.42929 12.5707C9.44804 12.5895 9.47348 12.6 9.5 12.6H30.5C30.5265 12.6 30.552 12.5895 30.5707 12.5707C30.5895 12.552 30.6 12.5265 30.6 12.5V9.5C30.6 9.47348 30.5895 9.44804 30.5707 9.42929C30.552 9.41054 30.5265 9.4 30.5 9.4H9.5Z"
        fill="currentColor" />
    <path
        d="M22.5 23H9.5C9.10218 23 8.72064 22.842 8.43934 22.5607C8.15804 22.2794 8 21.8978 8 21.5V18.5C8 18.1022 8.15804 17.7206 8.43934 17.4393C8.72064 17.158 9.10218 17 9.5 17H22.5C22.8978 17 23.2794 17.158 23.5607 17.4393C23.842 17.7206 24 18.1022 24 18.5V21.5C24 21.8978 23.842 22.2794 23.5607 22.5607C23.2794 22.842 22.8978 23 22.5 23ZM9.5 18.4C9.47348 18.4 9.44804 18.4105 9.42929 18.4293C9.41054 18.448 9.4 18.4735 9.4 18.5V21.5C9.4 21.5265 9.41054 21.552 9.42929 21.5707C9.44804 21.5895 9.47348 21.6 9.5 21.6H22.5C22.5265 21.6 22.552 21.5895 22.5707 21.5707C22.5895 21.552 22.6 21.5265 22.6 21.5V18.5C22.6 18.4735 22.5895 18.448 22.5707 18.4293C22.552 18.4105 22.5265 18.4 22.5 18.4H9.5Z"
        fill="currentColor" />
    <path
        d="M26.5 32H9.5C9.10218 32 8.72064 31.842 8.43934 31.5607C8.15804 31.2794 8 30.8978 8 30.5V27.5C8 27.1022 8.15804 26.7206 8.43934 26.4393C8.72064 26.158 9.10218 26 9.5 26H26.5C26.8978 26 27.2794 26.158 27.5607 26.4393C27.842 26.7206 28 27.1022 28 27.5V30.5C28 30.8978 27.842 31.2794 27.5607 31.5607C27.2794 31.842 26.8978 32 26.5 32ZM9.5 27.4C9.47348 27.4 9.44804 27.4105 9.42929 27.4293C9.41054 27.448 9.4 27.4735 9.4 27.5V30.5C9.4 30.5265 9.41054 30.552 9.42929 30.5707C9.44804 30.5895 9.47348 30.6 9.5 30.6H26.5C26.5265 30.6 26.552 30.5895 26.5707 30.5707C26.5895 30.552 26.6 30.5265 26.6 30.5V27.5C26.6 27.4735 26.5895 27.448 26.5707 27.4293C26.552 27.4105 26.5265 27.4 26.5 27.4H9.5Z"
        fill="currentColor" />
</svg>