<?xml version="1.0" encoding="UTF-8"?>
<svg viewBox="0 0 20 21" version="1.1" xmlns="http://www.w3.org/2000/svg" xmlns:xlink="http://www.w3.org/1999/xlink">
    <title>iconHelp</title>
    <g id="Page-1" stroke="none" stroke-width="1" fill="none" fill-rule="evenodd">
        <g id="Stockholm-icons-24x24" transform="translate(-233.000000, -5463.000000)">
            <g id="Code/Control" transform="translate(60.000000, 5263.000000)">
                <g id="iconHelp" transform="translate(173.000000, 200.500000)">
                    <rect id="bound" x="0" y="0" width="20" height="20"></rect>
                    <circle id="Oval-5" fill="currentColor" cx="10" cy="10" r="8.33333333"></circle>
                    <path d="M10,13.3333333 C10.4602373,13.3333333 10.8333333,13.7064294 10.8333333,14.1666667 C10.8333333,14.626904 10.4602373,15 10,15 C9.53976271,15 9.16666667,14.626904 9.16666667,14.1666667 C9.16666667,13.7064294 9.53976271,13.3333333 10,13.3333333 Z M9.87583333,4.935 C11.9933333,4.935 13.6558333,6.5625 13.6558333,8.6625 C13.6558333,10.7625 11.9933333,12.39 9.87583333,12.39 L8.82583333,12.39 L8.82583333,11.0075 L9.87583333,11.0075 C11.2058333,11.0075 12.1683333,9.9925 12.1683333,8.6625 C12.1683333,7.3325 11.2058333,6.3175 9.87583333,6.3175 C8.52833333,6.3175 7.60083333,7.3325 7.60083333,8.6625 L6.11333333,8.6625 C6.11333333,6.5625 7.75833333,4.935 9.87583333,4.935 Z" id="Combined-Shape" fill="#000000"></path>
                </g>
            </g>
        </g>
    </g>
</svg>
