<?xml version="1.0" encoding="UTF-8"?>
<svg width="16" height="18" viewBox="0 0 16 18" version="1.1" xmlns="http://www.w3.org/2000/svg" xmlns:xlink="http://www.w3.org/1999/xlink">
    <title>iconNotification</title>
    <g id="Page-1" stroke="none" stroke-width="1" fill="none" fill-rule="evenodd">
        <g id="Stockholm-icons-24x24" transform="translate(-99.000000, -363.000000)" fill="#FFFFFF">
            <g id="General" transform="translate(60.000000, 147.000000)">
                <g id="Group" transform="translate(35.000000, 213.500000)">
                    <path d="M7.5582739,6.97553494 C7.80974924,4.71225688 9.72279394,3 12,3 C14.2772061,3 16.1902508,4.71225688 16.4417261,6.97553494 L17,12 L18.5,12 C19.3284271,12 20,12.6715729 20,13.5 C20,14.3284271 19.3284271,15 18.5,15 L5.5,15 C4.67157288,15 4,14.3284271 4,13.5 C4,12.6715729 4.67157288,12 5.5,12 L7,12 L7.5582739,6.97553494 Z" id="Combined-Shape"></path>
                    <rect id="Rectangle-23" opacity="0.439999998" x="10" y="16" width="4" height="4" rx="2"></rect>
                </g>
            </g>
        </g>
    </g>
</svg>
