<svg xmlns="http://www.w3.org/2000/svg" viewBox="0 0 18 18">
  <g fill="currentColor">
    <path d="M9.1 14.47a8.81 8.81 0 01-1.839-.201l-.075-.016-2.387 1.434.031-2.349-.102-.055a6.28 6.28 0 01-3.225-5.296C1.505 4.412 4.91 1.505 9.1 1.505c4.187 0 7.595 2.907 7.595 6.482 0 3.573-3.408 6.482-7.595 6.482zM9.1 0C4.083 0 0 3.582 0 7.99a7.654 7.654 0 003.339 6.176v4.185l4.136-2.508c.534.084 1.08.129 1.625.131 5.017 0 9.1-3.582 9.1-7.987C18.2 3.584 14.117 0 9.1 0z"/>
    <path d="M11.773 7.268l2.124-2.124v5.846l-2.124-2.124v1.874c0 .3-.25.525-.55.525H4.829a.513.513 0 01-.525-.525V5.393c0-.3.225-.524.525-.524h6.396c.3 0 .55.225.55.524z"/>
  </g>
</svg>