<svg id="Icon_Heart" data-name="Icon/Heart" xmlns="http://www.w3.org/2000/svg" width="20" height="20" viewBox="0 0 20 20">
  <path id="Retip" d="M13.749,13.5h-8A3.747,3.747,0,0,1,2,9.95L2,9.75V3.56l-.719.72A.75.75,0,0,1,.146,3.3l.073-.085L2.231,1.208l.082-.067.081-.051.085-.039L2.6,1.016,2.671,1c.02,0,.04,0,.06,0l.1,0,.122.023.093.032.077.038.082.054.079.068,2,2A.75.75,0,0,1,4.749,4.5.742.742,0,0,1,4.3,4.353L4.219,4.28,3.5,3.561V9.75A2.256,2.256,0,0,0,5.6,12l.154,0h8a.75.75,0,0,1,.1,1.493Zm2.981-1h0l-.074-.005-.075-.014-.08-.023-.1-.043a.743.743,0,0,1-.183-.134l-2-2A.75.75,0,0,1,15.2,9.147l.084.073.72.719V3.75A2.256,2.256,0,0,0,13.9,1.5l-.154,0h-8a.75.75,0,0,1-.1-1.493L5.749,0h8a3.747,3.747,0,0,1,3.745,3.55l0,.2V9.938l.72-.718a.751.751,0,0,1,1.061,0,.755.755,0,0,1,.072.977l-.072.085-2,2-.073.062-.052.039-.088.049-.118.043-.106.022-.041,0ZM9.749,10.9a.745.745,0,0,1-.447-.147l-.084-.073-2.9-2.9A2.8,2.8,0,0,1,9.565,3.3l.185.1.067-.04a2.8,2.8,0,0,1,3.567,4.184l-.121.143-.085.088-2.9,2.9A.746.746,0,0,1,9.749,10.9ZM8.3,4.5A1.3,1.3,0,0,0,7.286,6.614l.095.105L9.749,9.088,12.1,6.733l.059-.062A1.3,1.3,0,0,0,10.28,4.883a.751.751,0,0,1-.964.082l-.085-.07L9.17,4.836A1.3,1.3,0,0,0,8.3,4.5Z" transform="translate(0.251 3.25)" fill="#727278"/>
</svg>
