<svg xmlns="http://www.w3.org/2000/svg" width="109" height="15" viewBox="0 0 109 15">
  <g id="Brand_Venture" data-name="Brand/Venture" transform="translate(0 2)">
    <path id="Shape" d="M8.5,10h0L0,0H6.3L8.5,2.658,10.7,0H17L8.5,10ZM1.063.56,8.5,9.23l2.479-2.937L9.067,4.056,11.334,1.4h2.621L10.767,5.245l.567.7L15.937.49H10.979l-4.321,5.1L3.046,1.4H5.6L7.579,3.776l.567-.7L6.021.56ZM11.616,1.888,9.775,4.056l.637.769,2.479-2.937Zm-7.508,0L6.587,4.825l.638-.7L5.383,1.888H4.109ZM8.5,7.832h0L7.225,6.294,8.5,4.825,9.775,6.294,8.5,7.831Zm0-2.237-.637.7.637.77.638-.77Z" transform="translate(0 1)" fill="#cda564"/>
    <text id="Branded_by_Venture" data-name="Branded by Venture" transform="translate(21 10)" fill="#cda564" font-size="11" font-family="Roboto-Regular, Roboto" letter-spacing="-0.045em"><tspan x="0" y="0">Branded by Venture</tspan></text>
  </g>
</svg>
