<svg width="20" height="20" viewBox="0 0 20 20" fill="none" xmlns="http://www.w3.org/2000/svg">
<path d="M10 0.25C4.62385 0.25 0.25 4.62385 0.25 10C0.25 15.3761 4.62385 19.75 10 19.75C15.3761 19.75 19.75 15.3761 19.75 10C19.75 4.62385 15.3761 0.25 10 0.25ZM10 4.2475C10.2507 4.2475 10.4957 4.32184 10.7042 4.46111C10.9126 4.60039 11.0751 4.79834 11.171 5.02995C11.267 5.26155 11.2921 5.51641 11.2431 5.76228C11.1942 6.00815 11.0735 6.23399 10.8963 6.41126C10.719 6.58852 10.4931 6.70924 10.2473 6.75814C10.0014 6.80705 9.74655 6.78195 9.51495 6.68602C9.28334 6.59008 9.08539 6.42762 8.94611 6.21918C8.80684 6.01075 8.7325 5.76569 8.7325 5.515C8.7325 5.17884 8.86604 4.85644 9.10374 4.61874C9.34144 4.38104 9.66384 4.2475 10 4.2475ZM12.34 15.265H8.05C7.84313 15.265 7.64473 15.1828 7.49846 15.0365C7.35218 14.8903 7.27 14.6919 7.27 14.485C7.27 14.2781 7.35218 14.0797 7.49846 13.9335C7.64473 13.7872 7.84313 13.705 8.05 13.705H9.415V9.415H8.635C8.42813 9.415 8.22973 9.33282 8.08346 9.18654C7.93718 9.04026 7.855 8.84187 7.855 8.635C7.855 8.42813 7.93718 8.22973 8.08346 8.08346C8.22973 7.93718 8.42813 7.855 8.635 7.855H10.195C10.4019 7.855 10.6003 7.93718 10.7465 8.08346C10.8928 8.22973 10.975 8.42813 10.975 8.635V13.705H12.34C12.5469 13.705 12.7453 13.7872 12.8915 13.9335C13.0378 14.0797 13.12 14.2781 13.12 14.485C13.12 14.6919 13.0378 14.8903 12.8915 15.0365C12.7453 15.1828 12.5469 15.265 12.34 15.265Z" fill="currentColor"/>
</svg>
