<svg viewBox="0 0 24 24" fill="none" xmlns="http://www.w3.org/2000/svg">
  <path opacity="0.44"
    d="M12 2C6.486 2 2 6.486 2 12C2 17.514 6.486 22 12 22C17.514 22 22 17.514 22 12C22 6.486 17.514 2 12 2Z"
    fill="currentColor" />
  <path
    d="M19.387 13.3209C19.105 14.0179 18.62 14.6089 17.986 15.0309C17.351 15.4519 16.614 15.6749 15.85 15.6749C13.879 15.6749 12.691 14.1649 11.548 12.4829C10.324 10.6819 9.485 9.58794 8.157 9.58794C8.153 9.58794 8.149 9.58794 8.144 9.58794C7.489 9.58794 6.872 9.83494 6.407 10.2859C5.939 10.7379 5.679 11.3409 5.674 11.9839C5.679 12.6229 5.94 13.2259 6.407 13.6779C6.873 14.1289 7.488 14.3759 8.142 14.3759C8.146 14.3759 8.151 14.3759 8.155 14.3759C9.278 14.3759 10.077 13.5119 10.773 12.5789L10.966 12.3199L11.753 13.4629L11.648 13.5969C10.89 14.5639 9.808 15.6749 8.156 15.6749C8.15 15.6749 8.144 15.6749 8.137 15.6749C7.136 15.6749 6.191 15.2939 5.478 14.6029C4.768 13.9159 4.358 12.9619 4.352 11.9839C4.359 10.9889 4.759 10.0589 5.478 9.35994C6.191 8.66994 7.135 8.28894 8.137 8.28894C8.144 8.28894 8.149 8.28894 8.156 8.28894C10.131 8.28894 11.36 9.86394 12.448 11.4789C13.593 13.1749 14.505 14.3759 15.841 14.3759C15.843 14.3759 15.844 14.3759 15.845 14.3759C16.289 14.3759 16.725 14.2589 17.109 14.0389C17.493 13.8179 17.808 13.5009 18.023 13.1199L18.089 13.0019H19.514L19.387 13.3209Z"
    fill="currentColor" />
  <path
    d="M19.595 12.632H14.942V11.334H18.232C18.097 10.878 17.825 10.467 17.449 10.159C17.004 9.79202 16.438 9.58902 15.855 9.58902C15.851 9.58902 15.848 9.58902 15.844 9.58902C14.722 9.58902 13.922 10.453 13.225 11.387L13.033 11.644L12.242 10.51L12.347 10.375C13.104 9.40502 14.185 8.29102 15.842 8.29102C15.848 8.29102 15.854 8.29102 15.861 8.29102C16.862 8.29102 17.806 8.67202 18.519 9.36302C19.239 10.06 19.639 10.991 19.646 11.982C19.646 12.133 19.636 12.281 19.618 12.429L19.595 12.632Z"
    fill="currentColor" />
</svg>