<svg viewBox="0 0 40 40" fill="none" xmlns="http://www.w3.org/2000/svg">
    <path
        d="M30.154 8H9.846C9.35649 8.00026 8.88711 8.19484 8.54097 8.54097C8.19484 8.88711 8.00026 9.35649 8 9.846V30.154C8.00026 30.6435 8.19484 31.1129 8.54097 31.459C8.88711 31.8052 9.35649 31.9997 9.846 32H30.154C30.6435 31.9997 31.1129 31.8052 31.459 31.459C31.8052 31.1129 31.9997 30.6435 32 30.154V9.846C31.9997 9.35649 31.8052 8.88711 31.459 8.54097C31.1129 8.19484 30.6435 8.00026 30.154 8V8ZM30.154 30.154H9.846V9.846H30.154V30.154Z"
        fill="currentColor" />
    <path
        d="M17.714 19.518H16.005C15.8136 19.5052 15.6246 19.5664 15.477 19.689C15.3573 19.8208 15.2909 19.9925 15.2909 20.1705C15.2909 20.3486 15.3573 20.5202 15.477 20.652C15.625 20.7739 15.8137 20.835 16.005 20.823H16.751V22.18C16.427 22.2473 16.0969 22.2808 15.766 22.28C15.4839 22.3029 15.2003 22.2642 14.9347 22.1664C14.6691 22.0687 14.4279 21.9143 14.228 21.714C13.8542 21.2166 13.6763 20.5991 13.728 19.979C13.6803 19.3768 13.8511 18.7776 14.209 18.291C14.3983 18.0977 14.6277 17.9484 14.881 17.8535C15.1343 17.7587 15.4054 17.7206 15.675 17.742C15.9195 17.7407 16.163 17.7723 16.399 17.836C16.6511 17.9077 16.8941 18.0084 17.123 18.136C17.2201 18.1979 17.3221 18.2517 17.428 18.297C17.5189 18.3302 17.6153 18.3458 17.712 18.343C17.7952 18.3422 17.877 18.3216 17.9507 18.283C18.0244 18.2444 18.0879 18.1889 18.136 18.121C18.2563 17.9657 18.3185 17.7733 18.312 17.577C18.3218 17.45 18.2961 17.3227 18.2378 17.2093C18.1796 17.096 18.091 17.001 17.982 16.935C17.6551 16.7055 17.2926 16.5315 16.909 16.42C16.4862 16.3008 16.0483 16.2432 15.609 16.249C14.9124 16.2315 14.2223 16.3864 13.6 16.7C13.0392 16.9928 12.5778 17.4451 12.274 18C11.9518 18.6103 11.7917 19.2931 11.809 19.983C11.7919 20.6783 11.9519 21.3666 12.274 21.983C12.5803 22.5411 13.0495 22.9926 13.619 23.277C14.2631 23.5905 14.9729 23.7448 15.689 23.727C15.9952 23.7255 16.301 23.7065 16.605 23.67C16.9085 23.6381 17.2093 23.5843 17.505 23.509C17.7218 23.4574 17.9273 23.3662 18.111 23.24C18.2491 23.132 18.3473 22.981 18.39 22.811C18.45 22.5515 18.4759 22.2852 18.467 22.019V20.22C18.4713 20.1241 18.4551 20.0283 18.4194 19.9391C18.3837 19.85 18.3294 19.7695 18.26 19.703C18.1109 19.5721 17.916 19.5056 17.718 19.518H17.714Z"
        fill="currentColor" />
    <path
        d="M20.644 16.287C20.5182 16.2804 20.3923 16.2994 20.274 16.3429C20.1558 16.3863 20.0476 16.4534 19.956 16.54C19.87 16.6299 19.8032 16.7364 19.7597 16.853C19.7162 16.9695 19.6969 17.0937 19.703 17.218V22.759C19.6845 22.99 19.7583 23.219 19.9082 23.3958C20.0581 23.5725 20.272 23.6826 20.503 23.702C20.5489 23.706 20.5951 23.706 20.641 23.702C20.7686 23.7084 20.8963 23.6893 21.0164 23.6459C21.1366 23.6024 21.2469 23.5355 21.341 23.449C21.4287 23.358 21.4969 23.25 21.5412 23.1317C21.5856 23.0134 21.6053 22.8872 21.599 22.761V17.22C21.6048 17.0953 21.585 16.9708 21.5406 16.8541C21.4962 16.7375 21.4282 16.6312 21.341 16.542C21.2474 16.4556 21.1376 16.3887 21.018 16.3449C20.8984 16.3011 20.7713 16.2815 20.644 16.287Z"
        fill="currentColor" />
    <path
        d="M27.976 16.52C27.7758 16.3831 27.5347 16.3192 27.293 16.339H23.813C23.6036 16.3162 23.3936 16.3769 23.2286 16.5079C23.0637 16.639 22.9571 16.8298 22.932 17.039C22.926 17.0985 22.926 17.1585 22.932 17.218V22.76C22.9209 22.8853 22.9351 23.0115 22.9737 23.1311C23.0123 23.2508 23.0745 23.3615 23.1567 23.4567C23.2389 23.5518 23.3394 23.6295 23.4522 23.6851C23.565 23.7407 23.6878 23.7731 23.8133 23.7803C23.9388 23.7875 24.0645 23.7695 24.183 23.7272C24.3014 23.685 24.4101 23.6193 24.5027 23.5342C24.5953 23.4492 24.6699 23.3463 24.722 23.2319C24.774 23.1174 24.8026 22.9937 24.806 22.868C24.809 22.8321 24.809 22.7959 24.806 22.76V20.668H27.083C27.3222 20.6858 27.5606 20.6239 27.761 20.492C27.8389 20.4225 27.8995 20.3358 27.938 20.2387C27.9766 20.1417 27.992 20.037 27.983 19.933C27.991 19.8273 27.9752 19.7211 27.9367 19.6223C27.8983 19.5235 27.8383 19.4346 27.761 19.362C27.5637 19.2227 27.3238 19.1569 27.083 19.176H24.806V17.829H27.29C27.5294 17.8471 27.768 17.7848 27.968 17.652C28.046 17.5826 28.1067 17.4959 28.1452 17.3988C28.1838 17.3018 28.1991 17.197 28.19 17.093C28.2 16.9875 28.186 16.8811 28.1489 16.7819C28.1118 16.6826 28.0527 16.5931 27.976 16.52Z"
        fill="currentColor" />
</svg>