<svg xmlns="http://www.w3.org/2000/svg" width="18.2" height="18.2" viewBox="0 0 18.2 18.2">
  <g id="Group_1269" data-name="Group 1269" transform="translate(-663 876)">
    <g id="Path_91" data-name="Path 91" transform="translate(663 -876)" fill="none">
      <path d="M3,0H15.2a3,3,0,0,1,3,3V15.2a3,3,0,0,1-3,3H3a3,3,0,0,1-3-3V3A3,3,0,0,1,3,0Z" stroke="none"/>
      <path d="M 3 1.5 C 2.172901153564453 1.5 1.5 2.172901153564453 1.5 3 L 1.5 15.20000076293945 C 1.5 16.027099609375 2.172901153564453 16.70000076293945 3 16.70000076293945 L 15.20000076293945 16.70000076293945 C 16.027099609375 16.70000076293945 16.70000076293945 16.027099609375 16.70000076293945 15.20000076293945 L 16.70000076293945 3 C 16.70000076293945 2.172901153564453 16.027099609375 1.5 15.20000076293945 1.5 L 3 1.5 M 3 0 L 15.20000076293945 0 C 16.85684967041016 0 18.20000076293945 1.3431396484375 18.20000076293945 3 L 18.20000076293945 15.20000076293945 C 18.20000076293945 16.85684967041016 16.85684967041016 18.20000076293945 15.20000076293945 18.20000076293945 L 3 18.20000076293945 C 1.3431396484375 18.20000076293945 0 16.85684967041016 0 15.20000076293945 L 0 3 C 0 1.3431396484375 1.3431396484375 0 3 0 Z" stroke="none" fill="#727278"/>
    </g>
    <rect id="Rectangle_53" data-name="Rectangle 53" width="2" height="2" rx="1" transform="translate(666.634 -871.819)" fill="#727278"/>
    <rect id="Rectangle_54" data-name="Rectangle 54" width="10.932" height="2" rx="1" transform="translate(666.634 -867.993)" fill="#727278"/>
    <rect id="Rectangle_55" data-name="Rectangle 55" width="10.932" height="2" rx="1" transform="translate(666.634 -864.167)" fill="#727278"/>
    <rect id="Rectangle_56" data-name="Rectangle 56" width="7" height="2" rx="1" transform="translate(670.46 -871.819)" fill="#727278"/>
  </g>
</svg>
