<svg viewBox="0 0 24 24" fill="none" xmlns="http://www.w3.org/2000/svg">
  <path class="background"
    d="M0 12C0 5.37258 5.37258 0 12 0V0C18.6274 0 24 5.37258 24 12V12C24 18.6274 18.6274 24 12 24V24C5.37258 24 0 18.6274 0 12V12Z"
    fill="#141414" />
  <path
    d="M15.8891 16.5962C15.7954 16.69 15.6682 16.7426 15.5356 16.7426C15.403 16.7426 15.2758 16.69 15.182 16.5962L12.0001 13.4142L8.81807 16.5962C8.7243 16.69 8.59713 16.7426 8.46452 16.7426C8.33191 16.7426 8.20473 16.69 8.11096 16.5962L7.40386 15.8891C7.31009 15.7953 7.25741 15.6681 7.25741 15.5355C7.25741 15.4029 7.31009 15.2757 7.40386 15.182L10.5858 12L7.40386 8.81802C7.31009 8.72425 7.25741 8.59707 7.25741 8.46447C7.25741 8.33186 7.31009 8.20468 7.40386 8.11091L8.11096 7.40381C8.20473 7.31004 8.33191 7.25736 8.46452 7.25736C8.59713 7.25736 8.7243 7.31004 8.81807 7.40381L12.0001 10.5858L15.182 7.40381C15.2758 7.31004 15.403 7.25736 15.5356 7.25736C15.6682 7.25736 15.7954 7.31004 15.8891 7.40381L16.5962 8.11091C16.69 8.20468 16.7427 8.33186 16.7427 8.46447C16.7427 8.59707 16.69 8.72425 16.5962 8.81802L13.4143 12L16.5962 15.182C16.69 15.2757 16.7427 15.4029 16.7427 15.5355C16.7427 15.6681 16.69 15.7953 16.5962 15.8891L15.8891 16.5962Z"
    fill="currentColor" />
</svg>