<svg xmlns="http://www.w3.org/2000/svg" viewBox="0 0 14.589 14">
    <path
        d="M14.524,15.59h0a1.263,1.263,0,0,0-1.219-.884H9.66L8.513,11.22A1.263,1.263,0,0,0,7.3,10.339H7.29a1.263,1.263,0,0,0-1.216.891L4.96,14.705H1.285a1.282,1.282,0,0,0-.751,2.321l2.973,2.149L2.363,22.651a1.263,1.263,0,0,0,.461,1.436,1.263,1.263,0,0,0,1.508,0L7.31,21.938l2.943,2.149a1.282,1.282,0,0,0,1.977-1.427l-1.117-3.485,2.948-2.153A1.263,1.263,0,0,0,14.524,15.59Z"
        transform="translate(0 -10.339)" fill="currentColor" />
</svg>