<svg xmlns="http://www.w3.org/2000/svg" width="30" height="30" viewBox="0 0 30 30"><g transform="translate(-347 -85)"><circle cx="15" cy="15" r="15" transform="translate(347 85)" fill="none" opacity="0.66"/><g transform="translate(347.499 90)"><path d="M11,17.6a.774.774,0,0,1-.552-.23L.232,7.125a.811.811,0,0,1-.138-.946L3.167.418A.782.782,0,0,1,3.857,0H18.143a.782.782,0,0,1,.69.418l3.073,5.762a.809.809,0,0,1-.139.946L11.552,17.371A.774.774,0,0,1,11,17.6ZM4.52,1.886,2.133,6.361,11,15.253l8.868-8.892L17.479,1.886Zm6.066,12.321-.028,0a.223.223,0,0,1-.195-.174l0-.07.534-4.29a.221.221,0,0,0-.156-.208l-.071-.011-3.833.014a.236.236,0,0,1-.131-.04.218.218,0,0,1-.086-.243l.032-.063,4.913-6.763a.227.227,0,0,1,.184-.093l.034,0a.223.223,0,0,1,.189.18v.07l-.651,4.223,0,.033a.221.221,0,0,0,.155.208l.072.01L15.2,6.982a.231.231,0,0,1,.124.036.215.215,0,0,1,.094.24l-.029.064-4.614,6.786A.227.227,0,0,1,10.586,14.207Z" transform="translate(3.501 2)" fill="#fff"/></g></g></svg>