<svg xmlns="http://www.w3.org/2000/svg" width="19" height="19" viewBox="0 0 19 19">
  <g id="_x31_029_x2C__world_x2C__globe_x2C__map_x2C__ineternet" transform="translate(-46 -46)">
    <path id="Path_22" data-name="Path 22" d="M55.5,46A9.5,9.5,0,1,0,65,55.5,9.511,9.511,0,0,0,55.5,46Zm7.708,13.3H60.236a16.723,16.723,0,0,0,.416-3.348h3.431A8.534,8.534,0,0,1,63.208,59.3ZM46.917,55.952h3.432a16.65,16.65,0,0,0,.415,3.348H47.792A8.532,8.532,0,0,1,46.917,55.952Zm.707-3.891h3.061a16.863,16.863,0,0,0-.335,2.986H46.917A8.532,8.532,0,0,1,47.623,52.062Zm8.329-.9v-4.2a4.1,4.1,0,0,1,2.473,2.356,10.453,10.453,0,0,1,.733,1.846Zm3.439.9a15.831,15.831,0,0,1,.355,2.986H55.952V52.062Zm-4.344-5.106v4.2H51.841a10.455,10.455,0,0,1,.733-1.846A4.1,4.1,0,0,1,55.048,46.956Zm0,5.106v2.986H51.254a15.827,15.827,0,0,1,.355-2.986Zm-3.794,3.89h3.794V59.3H51.693A15.585,15.585,0,0,1,51.254,55.952ZM55.048,60.2v3.84a4.1,4.1,0,0,1-2.473-2.356,10.123,10.123,0,0,1-.62-1.484Zm.9,3.84V60.2h3.093a10.127,10.127,0,0,1-.62,1.484A4.1,4.1,0,0,1,55.952,64.044Zm0-4.744V55.952h3.794a15.585,15.585,0,0,1-.44,3.348Zm4.7-4.252a16.922,16.922,0,0,0-.337-2.986h3.061a8.532,8.532,0,0,1,.707,2.986Zm2.262-3.89H60.1a9.532,9.532,0,0,0-1.939-3.831A8.638,8.638,0,0,1,62.915,51.157ZM52.841,47.326a9.538,9.538,0,0,0-1.94,3.831H48.085A8.638,8.638,0,0,1,52.841,47.326ZM48.31,60.2h2.7a9.211,9.211,0,0,0,1.834,3.469A8.635,8.635,0,0,1,48.31,60.2Zm9.849,3.469A9.209,9.209,0,0,0,59.993,60.2h2.7A8.635,8.635,0,0,1,58.159,63.674Z" fill="#727278"/>
  </g>
</svg>
