<svg viewBox="0 0 14 15" fill="none" xmlns="http://www.w3.org/2000/svg">
    <path
        d="M12.194 15H1.8L1.661 14.994L1.584 14.986L1.46 14.965L1.418 14.955C1.29925 14.9281 1.18362 14.8889 1.073 14.838C0.992621 14.8003 0.915084 14.7569 0.841 14.708C0.792121 14.6745 0.745055 14.6385 0.7 14.6C0.640893 14.5518 0.584789 14.5 0.532 14.445C0.340055 14.2456 0.193982 14.0067 0.104 13.745C0.0799654 13.6732 0.0599346 13.6001 0.044 13.526L0.021 13.394L0.008 13.273L0 13.118V7.744L0.007 7.635C0.0285667 7.44476 0.118572 7.26885 0.26024 7.14006C0.401907 7.01127 0.585572 6.93839 0.777 6.935C0.968476 6.93857 1.15215 7.01149 1.29394 7.14023C1.43573 7.26896 1.526 7.44476 1.548 7.635L1.554 7.744V13.119L1.563 13.188L1.573 13.219L1.588 13.251L1.608 13.282L1.657 13.333L1.683 13.351C1.70307 13.3627 1.72459 13.3718 1.747 13.378L1.813 13.387H12.185L12.251 13.378L12.282 13.368L12.313 13.352L12.343 13.331L12.393 13.281L12.41 13.253C12.4218 13.2322 12.4309 13.2101 12.437 13.187L12.445 13.118V7.744C12.4387 7.54324 12.5104 7.34784 12.645 7.19878C12.7796 7.04972 12.9667 6.95858 13.1671 6.94448C13.3674 6.93039 13.5655 6.99442 13.7196 7.12316C13.8738 7.2519 13.9721 7.43534 13.994 7.635L14 7.744V13.119C14 13.2561 13.9856 13.3929 13.957 13.527C13.9419 13.5984 13.9225 13.6689 13.899 13.738C13.8099 14.0046 13.6626 14.2481 13.468 14.451C13.4169 14.5037 13.3628 14.5535 13.306 14.6C13.2577 14.6396 13.2073 14.6767 13.155 14.711C13.0806 14.7599 13.0027 14.8034 12.922 14.841C12.8485 14.8743 12.773 14.903 12.696 14.927L12.537 14.967L12.496 14.975C12.4424 14.985 12.3883 14.9924 12.334 14.997L12.194 15ZM7.052 11.265C6.86063 11.2614 6.67709 11.1884 6.53546 11.0597C6.39384 10.9309 6.30377 10.7552 6.282 10.565L6.276 10.479V2.752L4.491 4.6C4.42018 4.67468 4.33489 4.73416 4.24033 4.7748C4.14577 4.81544 4.04392 4.8364 3.941 4.8364C3.83808 4.8364 3.73623 4.81544 3.64167 4.7748C3.54711 4.73416 3.46182 4.67468 3.391 4.6C3.25947 4.46065 3.18007 4.28016 3.16622 4.08903C3.15237 3.89791 3.20493 3.70786 3.315 3.551L3.391 3.46L6.5 0.236L6.578 0.168L6.631 0.128L6.723 0.075L6.846 0.028L6.956 0.005L7 0H7.072L7.149 0.006L7.226 0.02L7.309 0.045L7.409 0.091C7.47971 0.129279 7.54412 0.178182 7.6 0.236L10.711 3.461C10.857 3.61485 10.9384 3.81888 10.9384 4.031C10.9384 4.24312 10.857 4.44715 10.711 4.601C10.5819 4.73656 10.4071 4.81954 10.2205 4.83394C10.0338 4.84834 9.8484 4.79315 9.7 4.679L8.576 3.526L7.83 2.753V10.48C7.82923 10.6867 7.74723 10.8849 7.6017 11.0318C7.45616 11.1786 7.25873 11.2624 7.052 11.265Z"
        fill="currentColor" />
</svg>