<svg xmlns="http://www.w3.org/2000/svg" viewBox="0 0 18.2 15.398">
    <g transform="translate(-55 -85)">
        <path d="M195.682,149.093h7.277a.682.682,0,0,0,.682-.682v-2.729a.682.682,0,0,0-.682-.682h-7.277a.682.682,0,0,0-.682.682v2.729A.682.682,0,0,0,195.682,149.093Zm.682-2.729h5.913v1.364h-5.913Z" transform="translate(-133.311 -57.174)" fill="currentColor"/>
        <path d="M195.682,266.364h7.277a.682.682,0,1,0,0-1.364h-7.277a.682.682,0,1,0,0,1.364Z" transform="translate(-133.311 -171.58)" fill="currentColor"/>
        <path d="M195.682,326.364h7.277a.682.682,0,1,0,0-1.364h-7.277a.682.682,0,1,0,0,1.364Z" transform="translate(-133.311 -228.774)" fill="currentColor"/>
        <path d="M73.2,93.4V85.7a.7.7,0,0,0-.7-.7H59.433a.7.7,0,0,0-.7.7v3.966H55.7a.7.7,0,0,0-.7.7v7.465a2.569,2.569,0,0,0,2.566,2.566H70.631A2.569,2.569,0,0,0,73.2,97.831V94.8l0-.286v-.3ZM58.733,97.831a1.166,1.166,0,0,1-2.333,0V91.066h2.333Zm13.065,0A1.168,1.168,0,0,1,70.631,99H59.852a2.551,2.551,0,0,0,.281-1.166V86.4H71.8Z" fill="currentColor"/>
    </g>
</svg>