<svg width="24" height="24" viewBox="0 0 24 24" fill="none" xmlns="http://www.w3.org/2000/svg">
<path d="M12 2.25C17.3761 2.25 21.75 6.62391 21.75 12C21.75 17.3761 17.3761 21.75 12 21.75C6.62391 21.75 2.25 17.3761 2.25 12C2.25 6.62391 6.62391 2.25 12 2.25ZM6.375 10.7883C6.375 10.8954 6.41757 10.9982 6.49335 11.074C6.56912 11.1498 6.6719 11.1923 6.77906 11.1923H9.57C9.64994 11.1925 9.72813 11.1689 9.79463 11.1245C9.86113 11.0801 9.91296 11.017 9.94354 10.9431C9.97412 10.8693 9.98207 10.788 9.96639 10.7096C9.95072 10.6312 9.91211 10.5592 9.85547 10.5028L8.81625 9.46359L9.07875 9.15844C9.54829 8.67099 10.1313 8.30749 10.7757 8.10044C11.42 7.89339 12.1056 7.84923 12.7712 7.97193C13.4368 8.09462 14.0616 8.38034 14.5898 8.80354C15.118 9.22674 15.5331 9.77422 15.798 10.397C16.0628 11.0199 16.1692 11.6986 16.1077 12.3726C16.0461 13.0466 15.8184 13.6949 15.4451 14.2594C15.0718 14.8239 14.5644 15.2871 13.9682 15.6076C13.3721 15.9281 12.7059 16.0959 12.0291 16.0959C11.182 16.0951 10.356 15.8323 9.6643 15.3434C8.97259 14.8546 8.44909 14.1636 8.16563 13.3655C8.13278 13.2725 8.08196 13.1869 8.01605 13.1136C7.95013 13.0403 7.87043 12.9807 7.78148 12.9382C7.69253 12.8957 7.59608 12.8711 7.49764 12.8659C7.39919 12.8607 7.30069 12.8749 7.20774 12.9077C7.11478 12.9406 7.02921 12.9914 6.9559 13.0573C6.88259 13.1232 6.82299 13.2029 6.78048 13.2919C6.73798 13.3808 6.71341 13.4773 6.70818 13.5757C6.70295 13.6742 6.71716 13.7727 6.75 13.8656C7.09184 14.8331 7.69305 15.6879 8.4879 16.3367C9.28276 16.9855 10.2407 17.4034 11.257 17.5446C12.2733 17.6858 13.3088 17.5449 14.2504 17.1373C15.192 16.7297 16.0035 16.0711 16.5961 15.2335C17.1887 14.3959 17.5397 13.4115 17.6106 12.3879C17.6815 11.3643 17.4697 10.3409 16.9983 9.42957C16.5269 8.51822 15.8141 7.75399 14.9377 7.22041C14.0613 6.68682 13.0551 6.40442 12.0291 6.40406C11.2718 6.40117 10.522 6.55335 9.82579 6.85123C9.12959 7.14911 8.50174 7.58637 7.98094 8.13609L7.95469 8.16516L7.75266 8.39953L7.06453 7.71141C7.02788 7.67391 6.98414 7.64408 6.93586 7.62364C6.88758 7.6032 6.83571 7.59256 6.78328 7.59234C6.72993 7.59191 6.67701 7.60206 6.62761 7.62221C6.5782 7.64235 6.53328 7.6721 6.49544 7.70972C6.4576 7.74734 6.4276 7.79209 6.40717 7.84138C6.38674 7.89067 6.37628 7.94352 6.37641 7.99688L6.375 10.7883Z" fill="currentColor"/>
</svg>
