<svg viewBox="0 0 24 24" fill="none" xmlns="http://www.w3.org/2000/svg">
    <g>
        <path opacity="0.44"
            d="M14.2929 16.7069C14.1108 16.5183 14.01 16.2657 14.0122 16.0035C14.0145 15.7413 14.1197 15.4905 14.3051 15.3051C14.4905 15.1197 14.7413 15.0145 15.0035 15.0122C15.2657 15.01 15.5183 15.1108 15.7069 15.2929L19.7069 19.2929C19.8891 19.4815 19.9899 19.7341 19.9876 19.9963C19.9853 20.2585 19.8801 20.5093 19.6947 20.6947C19.5093 20.8801 19.2585 20.9853 18.9963 20.9876C18.7341 20.9899 18.4815 20.8891 18.2929 20.7069L14.2929 16.7069Z"
            fill="currentColor" />
        <path
            d="M4 11C4 9.61553 4.41054 8.26216 5.17971 7.11101C5.94888 5.95987 7.04213 5.06266 8.32122 4.53285C9.6003 4.00303 11.0078 3.86441 12.3656 4.13451C13.7235 4.4046 14.9708 5.07129 15.9497 6.05026C16.9287 7.02922 17.5954 8.2765 17.8655 9.63437C18.1356 10.9922 17.997 12.3997 17.4672 13.6788C16.9373 14.9579 16.0401 16.0511 14.889 16.8203C13.7378 17.5895 12.3845 18 11 18C9.14348 18 7.36301 17.2625 6.05025 15.9497C4.7375 14.637 4 12.8565 4 11V11Z"
            fill="currentColor" />
    </g>
</svg>