<svg id="Icon_Trending" data-name="Icon/Trending" xmlns="http://www.w3.org/2000/svg" width="26" height="26" viewBox="0 0 26 26">
  <path id="Home" d="M6.5,17.809H1.3a1.3,1.3,0,0,1-1.3-1.3V6.717a1.3,1.3,0,0,1,.468-1L6.967.3A1.3,1.3,0,0,1,8.632.3l6.5,5.416a1.3,1.3,0,0,1,.467,1v9.791a1.3,1.3,0,0,1-1.3,1.3H9.1v-5.2H6.5v5.2Zm0-7.151H9.1a1.941,1.941,0,0,1,1.941,1.762l.008.188v3.25h2.6V7.021L7.8,2.146,1.95,7.02v8.838h2.6v-3.25a1.941,1.941,0,0,1,1.762-1.941Z" transform="translate(5.2 4.292)" fill="#67b6f7"/>
</svg>
