<svg viewBox="0 0 15 14" fill="none" xmlns="http://www.w3.org/2000/svg">
    <path
        d="M14.495 5.23909C14.4038 4.94919 14.2217 4.69631 13.9757 4.51785C13.7297 4.33939 13.4329 4.24481 13.129 4.24809H9.71996L8.64897 0.987085C8.55711 0.698094 8.37491 0.446224 8.12919 0.268544C7.88346 0.0908645 7.58718 -0.00323913 7.28396 8.51374e-05H7.27796C6.97345 -0.00195282 6.67639 0.0942318 6.43086 0.27437C6.18533 0.454507 6.00442 0.709 5.91496 1.00009L4.87296 4.25009H1.43497C1.13161 4.25051 0.836172 4.34694 0.590965 4.52554C0.345759 4.70414 0.163362 4.95576 0.0699004 5.24436C-0.0235612 5.53295 -0.0232926 5.84373 0.0706653 6.13217C0.164623 6.4206 0.347451 6.67191 0.592964 6.85008L3.37296 8.86009L2.30297 12.1101C2.20457 12.3982 2.20173 12.7104 2.29487 13.0002C2.38801 13.2901 2.57216 13.5422 2.81996 13.7191C3.06436 13.9004 3.36063 13.9984 3.66496 13.9984C3.9693 13.9984 4.26556 13.9004 4.50996 13.7191L7.29597 11.7051L10.048 13.7151C10.2921 13.8961 10.588 13.9939 10.892 13.9939C11.1959 13.9939 11.4918 13.8961 11.736 13.7151C11.9836 13.54 12.1684 13.29 12.2633 13.002C12.3581 12.7139 12.358 12.4031 12.263 12.1151L11.218 8.85408L13.976 6.84009C14.2224 6.66384 14.4057 6.41323 14.4991 6.12506C14.5926 5.83689 14.5911 5.52636 14.495 5.23909ZM3.44897 12.4881L4.79597 8.39708L1.29597 5.86908C1.25684 5.84119 1.22763 5.80155 1.21257 5.75592C1.19751 5.71029 1.19738 5.66105 1.21221 5.61534C1.22703 5.56964 1.25604 5.52985 1.29502 5.50175C1.334 5.47365 1.38092 5.45871 1.42896 5.45908H5.74896L7.06596 1.36609C7.08068 1.32065 7.10942 1.28104 7.14804 1.25295C7.18667 1.22486 7.2332 1.20973 7.28096 1.20973C7.32872 1.20973 7.37526 1.22486 7.41388 1.25295C7.45251 1.28104 7.48125 1.32065 7.49596 1.36609L8.84896 5.45908H13.129C13.1767 5.459 13.2233 5.47407 13.262 5.50212C13.3007 5.53017 13.3295 5.56976 13.3443 5.6152C13.359 5.66064 13.359 5.70959 13.3443 5.75503C13.3295 5.80047 13.3007 5.84005 13.262 5.86809L9.79896 8.39708L11.111 12.4901C11.1258 12.5356 11.1258 12.5847 11.111 12.6302C11.0962 12.6758 11.0672 12.7154 11.0284 12.7434C10.9896 12.7715 10.9429 12.7864 10.895 12.7862C10.8471 12.786 10.8005 12.7705 10.762 12.7421L7.29896 10.2131L3.79896 12.7421C3.76027 12.7705 3.71354 12.7858 3.66555 12.7859C3.61755 12.7859 3.57079 12.7707 3.53202 12.7424C3.49325 12.7141 3.4645 12.6742 3.44993 12.6285C3.43535 12.5828 3.43572 12.5336 3.45096 12.4881H3.44897Z"
        fill="currentColor" />
</svg>