<svg width="24" height="24" viewBox="0 0 24 24" fill="none" xmlns="http://www.w3.org/2000/svg">
<path d="M12 2.25C6.624 2.25 2.25 6.624 2.25 12C2.25 17.376 6.624 21.75 12 21.75C17.376 21.75 21.75 17.376 21.75 12C21.75 6.624 17.376 2.25 12 2.25ZM19.202 13.288C18.927 13.968 18.454 14.544 17.836 14.955C17.217 15.365 16.498 15.583 15.753 15.583C13.831 15.583 12.673 14.111 11.559 12.471C10.366 10.715 9.548 9.648 8.253 9.648C8.249 9.648 8.245 9.648 8.24 9.648C7.601 9.648 7 9.889 6.546 10.329C6.09 10.77 5.836 11.358 5.831 11.985C5.836 12.608 6.09 13.196 6.546 13.637C7 14.077 7.6 14.318 8.238 14.318C8.242 14.318 8.247 14.318 8.251 14.318C9.346 14.318 10.125 13.476 10.804 12.566L10.992 12.313L11.759 13.427L11.657 13.558C10.918 14.501 9.863 15.584 8.252 15.584C8.246 15.584 8.24 15.584 8.233 15.584C7.257 15.584 6.336 15.213 5.64 14.539C4.948 13.869 4.548 12.939 4.542 11.985C4.549 11.015 4.939 10.108 5.64 9.427C6.336 8.753 7.257 8.382 8.234 8.382C8.241 8.382 8.246 8.382 8.253 8.382C10.179 8.382 11.377 9.918 12.438 11.492C13.554 13.146 14.444 14.317 15.746 14.317C15.748 14.317 15.749 14.317 15.75 14.317C16.183 14.317 16.608 14.203 16.982 13.988C17.356 13.773 17.664 13.463 17.873 13.092L17.937 12.977H19.326L19.202 13.288ZM19.405 12.616H14.868V11.35H18.076C17.944 10.905 17.679 10.505 17.313 10.204C16.879 9.846 16.327 9.648 15.759 9.648C15.755 9.648 15.752 9.648 15.748 9.648C14.654 9.648 13.874 10.49 13.194 11.401L13.007 11.652L12.236 10.546L12.338 10.414C13.076 9.468 14.13 8.382 15.746 8.382C15.752 8.382 15.758 8.382 15.765 8.382C16.741 8.382 17.661 8.753 18.357 9.427C19.059 10.107 19.449 11.014 19.456 11.981C19.456 12.128 19.446 12.273 19.429 12.417L19.405 12.616Z" fill="currentColor"/>
</svg>
