<svg viewBox="0 0 40 40" fill="currentColor" xmlns="http://www.w3.org/2000/svg">
    <path
        d="M30.5 12.5H14C13.6022 12.5 13.2206 12.658 12.9393 12.9393C12.658 13.2206 12.5 13.6022 12.5 14V30.5C12.5 30.8978 12.658 31.2794 12.9393 31.5607C13.2206 31.842 13.6022 32 14 32H30.5C30.8978 32 31.2794 31.842 31.5607 31.5607C31.842 31.2794 32 30.8978 32 30.5V14C32 13.6022 31.842 13.2206 31.5607 12.9393C31.2794 12.658 30.8978 12.5 30.5 12.5ZM30.5 30.5H14V14H30.5V30.5Z"
        fill="currentColor" />
    <path
        d="M9.5 9.5H26V11H27.5V9.5C27.5 9.10218 27.342 8.72064 27.0607 8.43934C26.7794 8.15804 26.3978 8 26 8H9.5C9.10218 8 8.72064 8.15804 8.43934 8.43934C8.15804 8.72064 8 9.10218 8 9.5V26C8 26.3978 8.15804 26.7794 8.43934 27.0607C8.72064 27.342 9.10218 27.5 9.5 27.5H11V26H9.5V9.5Z"
        fill="currentColor" />
    <path
        d="M16.25 26.75H28.25C28.3991 26.7511 28.5451 26.7076 28.6695 26.6253C28.7938 26.543 28.8908 26.4255 28.948 26.2878C29.0052 26.15 29.02 25.9984 28.9907 25.8522C28.9613 25.706 28.889 25.5719 28.783 25.467L25.783 22.467C25.6425 22.3274 25.4525 22.2491 25.2545 22.2491C25.0565 22.2491 24.8665 22.3274 24.726 22.467L23.751 23.442L21.286 20.975C21.1455 20.8354 20.9555 20.7571 20.7575 20.7571C20.5595 20.7571 20.3695 20.8354 20.229 20.975L15.729 25.475C15.6262 25.5798 15.5565 25.7125 15.5284 25.8566C15.5003 26.0007 15.5151 26.1499 15.571 26.2856C15.6269 26.4214 15.7214 26.5377 15.8428 26.6203C15.9642 26.7028 16.1072 26.7479 16.254 26.75H16.25Z"
        fill="currentColor" />
    <path
        d="M26 20.75C26.8284 20.75 27.5 20.0784 27.5 19.25C27.5 18.4216 26.8284 17.75 26 17.75C25.1716 17.75 24.5 18.4216 24.5 19.25C24.5 20.0784 25.1716 20.75 26 20.75Z"
        fill="currentColor" />
</svg>