<svg id="Icon_Trending" xmlns="http://www.w3.org/2000/svg" viewBox="0 0 19 18">
  <path
    id="Wallet"
    d="M13.974,17.55H4.225A2.925,2.925,0,0,1,2.9,12.017a2.886,2.886,0,0,1-.3-1.292,2.923,2.923,0,0,1,.168-.98,2.925,2.925,0,0,1,0-5.841,2.884,2.884,0,0,1-.17-.979A2.928,2.928,0,0,1,5.525,0h9.751a2.925,2.925,0,0,1,.154,5.846,2.843,2.843,0,0,1,.17.978,2.9,2.9,0,0,1-.168.98A2.925,2.925,0,0,1,16.6,13.333a2.927,2.927,0,0,1-2.625,4.217Zm-9.75-3.9a.975.975,0,0,0-.132,1.941l.132.008h9.75a.975.975,0,0,0,.133-1.941l-.133-.008Zm1.3-3.9a.975.975,0,0,0-.132,1.941l.132.009h9.751a.975.975,0,0,0,.132-1.941l-.132-.009Zm-2.6-3.9a.975.975,0,0,0-.132,1.941l.132.009h9.75a.975.975,0,0,0,.132-1.941l-.132-.009Zm2.6-3.9a.975.975,0,0,0-.132,1.941l.132.008h9.751a.975.975,0,0,0,.132-1.941l-.132-.008Z"
    fill="#fff"
  />
</svg>
