<svg viewBox="0 0 24 24" fill="none" xmlns="http://www.w3.org/2000/svg">
  <path opacity="0.44"
    d="M22 12C22 6.47715 17.5228 2 12 2C6.47715 2 2 6.47715 2 12C2 17.5228 6.47715 22 12 22C17.5228 22 22 17.5228 22 12Z"
    fill="currentColor" />
  <path
    d="M6.168 14.555C6.09512 14.4458 6.04447 14.3232 6.01895 14.1944C5.99342 14.0656 5.99352 13.933 6.01925 13.8042C6.04497 13.6754 6.09581 13.5529 6.16886 13.4438C6.24191 13.3346 6.33574 13.2409 6.445 13.168C6.55426 13.0952 6.67681 13.0445 6.80564 13.019C6.93448 12.9935 7.06708 12.9936 7.19587 13.0193C7.32467 13.045 7.44713 13.0958 7.55628 13.1689C7.66543 13.2419 7.75912 13.3358 7.832 13.445C8.24178 14.1989 8.84257 14.8318 9.57412 15.2803C10.3057 15.7287 11.1423 15.9769 12 16C12.8577 15.9769 13.6943 15.7287 14.4259 15.2803C15.1574 14.8318 15.7582 14.1989 16.168 13.445C16.2397 13.3333 16.3329 13.2369 16.4423 13.1615C16.5516 13.0862 16.6749 13.0334 16.8049 13.0062C16.9349 12.979 17.069 12.9779 17.1993 13.0031C17.3297 13.0283 17.4538 13.0792 17.5643 13.1529C17.6748 13.2265 17.7695 13.3214 17.8429 13.4321C17.9164 13.5427 17.967 13.6669 17.9919 13.7973C18.0169 13.9277 18.0155 14.0618 17.9881 14.1918C17.9606 14.3217 17.9076 14.4448 17.832 14.554C17.2411 15.5839 16.3931 16.4428 15.3709 17.0468C14.3486 17.6509 13.1872 17.9793 12 18C10.8129 17.9794 9.65153 17.6511 8.62931 17.0473C7.60709 16.4434 6.75902 15.5847 6.168 14.555Z"
    fill="currentColor" />
</svg>