<svg xmlns="http://www.w3.org/2000/svg" width="18.2" height="18.2" viewBox="0 0 18.2 18.2"><path d="M18.179,8.69A2.991,2.991,0,0,1,13.96,7.379,3.016,3.016,0,0,1,10.589,2.6,3.021,3.021,0,0,1,9.1,0a9.1,9.1,0,1,0,9.1,9.1c0-.138-.015-.273-.021-.41ZM9.1,16.683A7.583,7.583,0,0,1,7.878,1.615a4.469,4.469,0,0,0,.773,1.306A4.47,4.47,0,0,0,8.342,4.55a4.555,4.555,0,0,0,4.55,4.55c.13,0,.261-.006.392-.018a4.493,4.493,0,0,0,3.247,1.532A7.6,7.6,0,0,1,9.1,16.683Zm0,0" transform="translate(0 0)" fill="#fff"/></svg>