<svg id="Icon_Heart" data-name="Icon/Heart" xmlns="http://www.w3.org/2000/svg" width="20" height="21.437" viewBox="0 0 20 21.437">
  <path id="Share" d="M.758,13.4a.763.763,0,0,1-.637-.374.82.82,0,0,1-.056-.751c1.924-4.813,4.8-7.781,8.549-8.82l.39-.1V.805A.781.781,0,0,1,9.758,0a.709.709,0,0,1,.46.173l7,5.9a.839.839,0,0,1,0,1.264l-7,5.9a.709.709,0,0,1-.46.174A.782.782,0,0,1,9,12.6V10.039l-.164-.023a5.742,5.742,0,0,0-.723-.045c-1.971,0-4.184,1-6.578,2.987l-.316.266A.711.711,0,0,1,.758,13.4ZM8.111,8.361h0a7.06,7.06,0,0,1,1.549.171l.275.068a.794.794,0,0,1,.568.779v1.563L15.541,6.7,10.5,2.459V4.021a.79.79,0,0,1-.616.791l-.32.063a9.23,9.23,0,0,0-3.717,1.7A12.148,12.148,0,0,0,2.892,9.97l-.069.117.364-.218A9.864,9.864,0,0,1,8.111,8.361Z" transform="translate(1.245 3.752)" fill="#727278"/>
</svg>
