<svg xmlns="http://www.w3.org/2000/svg" width="14" height="15" viewBox="0 0 14 15">
  <g id="Icon_Comments" data-name="Icon/Comments" transform="translate(0 0)">
    <path id="Share" d="M12.194,15H1.8l-.139-.006-.077-.008-.124-.021-.042-.01a1.752,1.752,0,0,1-.345-.117,1.833,1.833,0,0,1-.232-.13A1.673,1.673,0,0,1,.7,14.6a1.871,1.871,0,0,1-.168-.155,1.9,1.9,0,0,1-.428-.7,2.048,2.048,0,0,1-.06-.219l-.023-.132-.013-.121L0,13.118V7.744l.007-.109a.789.789,0,0,1,.77-.7.791.791,0,0,1,.771.7l.006.109v5.375l.009.069.01.031.015.032.02.031.049.051.026.018a.268.268,0,0,0,.064.027l.066.009H12.185l.066-.009.031-.01.031-.016.03-.021.05-.05.017-.028a.28.28,0,0,0,.027-.066l.008-.069V7.744a.777.777,0,0,1,1.549-.109L14,7.744v5.375a1.954,1.954,0,0,1-.043.408,1.828,1.828,0,0,1-.058.211,1.9,1.9,0,0,1-.431.713,1.926,1.926,0,0,1-.162.149,1.77,1.77,0,0,1-.151.111,1.841,1.841,0,0,1-.233.13,1.956,1.956,0,0,1-.226.086l-.159.04-.041.008a1.632,1.632,0,0,1-.162.022ZM7.052,11.265a.79.79,0,0,1-.77-.7l-.006-.086,0-7.727L4.491,4.6a.758.758,0,0,1-1.1,0,.832.832,0,0,1-.076-1.049l.076-.091L6.5.236,6.578.168,6.631.128,6.723.075,6.846.028l.11-.023L7,0l.072,0,.077.006L7.226.02l.083.025.1.046A.786.786,0,0,1,7.6.236l3.111,3.225a.828.828,0,0,1,0,1.14A.758.758,0,0,1,9.7,4.679L8.576,3.526,7.83,2.753v7.727A.788.788,0,0,1,7.052,11.265Z" fill="#727278"/>
  </g>
</svg>
