<svg id="Google_Play-Badge-Logo.wine" xmlns="http://www.w3.org/2000/svg" xmlns:xlink="http://www.w3.org/1999/xlink" width="134.782" height="40" viewBox="0 0 134.782 40">
  <defs>
    <linearGradient id="linear-gradient" x1="0.849" y1="0.31" x2="0.361" y2="0.799" gradientUnits="objectBoundingBox">
      <stop offset="0" stop-color="#00a0ff"/>
      <stop offset="0.007" stop-color="#00a1ff"/>
      <stop offset="0.26" stop-color="#00beff"/>
      <stop offset="0.512" stop-color="#00d2ff"/>
      <stop offset="0.76" stop-color="#00dfff"/>
      <stop offset="1" stop-color="#00e3ff"/>
    </linearGradient>
    <linearGradient id="linear-gradient-2" x1="0.97" y1="0.436" x2="-1.177" y2="0.436" gradientUnits="objectBoundingBox">
      <stop offset="0" stop-color="#ffe000"/>
      <stop offset="0.409" stop-color="#ffbd00"/>
      <stop offset="0.775" stop-color="orange"/>
      <stop offset="1" stop-color="#ff9c00"/>
    </linearGradient>
    <linearGradient id="linear-gradient-3" x1="0.761" y1="0.213" x2="-0.443" y2="1.411" gradientUnits="objectBoundingBox">
      <stop offset="0" stop-color="#ff3a44"/>
      <stop offset="1" stop-color="#c31162"/>
    </linearGradient>
    <linearGradient id="linear-gradient-4" x1="-0.17" y1="-0.275" x2="0.367" y2="0.26" gradientUnits="objectBoundingBox">
      <stop offset="0" stop-color="#32a071"/>
      <stop offset="0.068" stop-color="#2da771"/>
      <stop offset="0.476" stop-color="#15cf74"/>
      <stop offset="0.801" stop-color="#06e775"/>
      <stop offset="1" stop-color="#00f076"/>
    </linearGradient>
    <linearGradient id="linear-gradient-5" x1="0.624" y1="0.038" x2="-0.364" y2="1.027" gradientUnits="objectBoundingBox">
      <stop offset="0" stop-color="#cc2e36"/>
      <stop offset="1" stop-color="#9c0e4e"/>
    </linearGradient>
    <linearGradient id="linear-gradient-6" x1="5.233" y1="-7.998" x2="-1.121" y2="-1.634" gradientUnits="objectBoundingBox">
      <stop offset="0" stop-color="#008de0"/>
      <stop offset="0.007" stop-color="#008de0"/>
      <stop offset="0.26" stop-color="#00a7e0"/>
      <stop offset="0.512" stop-color="#00b8e0"/>
      <stop offset="0.76" stop-color="#00c4e0"/>
      <stop offset="1" stop-color="#00c7e0"/>
    </linearGradient>
    <linearGradient id="linear-gradient-7" x1="0.943" y1="-0.195" x2="-2.414" y2="-0.195" gradientUnits="objectBoundingBox">
      <stop offset="0" stop-color="#e0c500"/>
      <stop offset="0.409" stop-color="#e0a600"/>
      <stop offset="0.775" stop-color="#e09100"/>
      <stop offset="1" stop-color="#e08900"/>
    </linearGradient>
    <linearGradient id="linear-gradient-8" x1="0.944" y1="0.999" x2="-2.414" y2="0.999" gradientUnits="objectBoundingBox">
      <stop offset="0" stop-color="#ffe840"/>
      <stop offset="0.409" stop-color="#ffce40"/>
      <stop offset="0.775" stop-color="#ffbc40"/>
      <stop offset="1" stop-color="#ffb540"/>
    </linearGradient>
    <linearGradient id="linear-gradient-9" x1="5.219" y1="0.865" x2="-1.113" y2="6.933" gradientUnits="objectBoundingBox">
      <stop offset="0" stop-color="#40b8ff"/>
      <stop offset="0.007" stop-color="#40b9ff"/>
      <stop offset="0.26" stop-color="#40ceff"/>
      <stop offset="0.512" stop-color="#40ddff"/>
      <stop offset="0.76" stop-color="#40e7ff"/>
      <stop offset="1" stop-color="#40eaff"/>
    </linearGradient>
    <linearGradient id="linear-gradient-10" x1="-0.137" y1="-0.184" x2="0.304" y2="0.257" gradientUnits="objectBoundingBox">
      <stop offset="0" stop-color="#65b895"/>
      <stop offset="0.068" stop-color="#62bd95"/>
      <stop offset="0.476" stop-color="#50db97"/>
      <stop offset="0.801" stop-color="#44ed98"/>
      <stop offset="1" stop-color="#40f498"/>
    </linearGradient>
  </defs>
  <path id="Path_1245" data-name="Path 1245" d="M129.79,40H4.992A5.011,5.011,0,0,1,0,35V5A5.011,5.011,0,0,1,4.992,0h124.8a5.011,5.011,0,0,1,4.992,5V35a5.011,5.011,0,0,1-4.992,5"/>
  <path id="Path_1246" data-name="Path 1246" d="M129.79,0H4.992A5.011,5.011,0,0,0,0,5V35a5.011,5.011,0,0,0,4.992,5h124.8a5.011,5.011,0,0,0,4.992-5V5a5.01,5.01,0,0,0-4.992-5m0,.8A4.2,4.2,0,0,1,133.983,5V35a4.2,4.2,0,0,1-4.193,4.2H4.992A4.2,4.2,0,0,1,.8,35V5A4.2,4.2,0,0,1,4.992.8h124.8" fill="#a6a6a6"/>
  <path id="Path_1247" data-name="Path 1247" d="M924.682,156.142a2.71,2.71,0,0,1-.744,2,2.9,2.9,0,0,1-2.2.888,3.134,3.134,0,1,1,0-6.268,3.085,3.085,0,0,1,1.23.252,2.47,2.47,0,0,1,.937.67l-.527.528a2.021,2.021,0,0,0-1.64-.712,2.4,2.4,0,1,0,1.673,4.123,1.889,1.889,0,0,0,.5-1.215h-2.175v-.721h2.9a2.561,2.561,0,0,1,.042.453" transform="translate(-877.34 -145.898)" fill="#fff"/>
  <path id="Path_1248" data-name="Path 1248" d="M922.561,154.017h-.1a2.609,2.609,0,0,1-.715,1.932h0a2.8,2.8,0,0,1-2.129.857,3.034,3.034,0,1,1,0-6.068,2.987,2.987,0,0,1,1.19.243,2.374,2.374,0,0,1,.9.643l.076-.065-.071-.071-.527.528.071.07.077-.064a2.124,2.124,0,0,0-1.717-.748,2.5,2.5,0,1,0,1.744,4.294,1.991,1.991,0,0,0,.531-1.277l.009-.109h-2.184v-.521h2.8v-.1l-.1.018a2.443,2.443,0,0,1,.04.435h.2a2.644,2.644,0,0,0-.043-.471l-.015-.082h-3.086v.921h2.275v-.1l-.1-.009a1.792,1.792,0,0,1-.473,1.153,2.283,2.283,0,0,1-3.169,0,2.414,2.414,0,0,1,0-3.317,2.173,2.173,0,0,1,1.567-.638,1.921,1.921,0,0,1,1.564.676l.07.084.6-.605.065-.065-.059-.07a2.566,2.566,0,0,0-.974-.7,3.184,3.184,0,0,0-1.269-.26,3.234,3.234,0,1,0,0,6.468,3,3,0,0,0,2.273-.919l-.072-.069.071.071a2.812,2.812,0,0,0,.773-2.073h-.1m4.6-2.506h-2.728v1.9h2.46v.721h-2.46v1.9h2.728v.737h-3.5v-6h3.5v.737" transform="translate(-875.219 -143.773)" fill="#fff"/>
  <path id="Path_1249" data-name="Path 1249" d="M1079.344,154.367v-.1h-2.828v2.1h2.46v.521h-2.46v2.1h2.728v.537h-3.3v-5.8h3.3v.637h.1v0h.1v-.837h-3.7v6.2h3.7v-.937h-2.728v-1.7h2.46v-.921h-2.46v-1.7h2.728v-.1h-.1m3.246,5.263h-.77v-5.263h-1.673v-.737h4.116v.737h-1.673v5.263" transform="translate(-1027.4 -146.63)" fill="#fff"/>
  <path id="Path_1250" data-name="Path 1250" d="M1173.966,159.63v-.1h-.67v-5.263h-1.673v-.537h3.917v.537h-1.673v5.363h.1v0h.1v-5.163h1.673v-.937h-4.316v.937h1.673v5.263h.97v-.1h-.1m4.651,0v-6h.77v6h-.77" transform="translate(-1118.776 -146.63)" fill="#fff"/>
  <path id="Path_1251" data-name="Path 1251" d="M1329.389,159.63h.1v-5.9h.57v5.8h-.67v.1h0v.1h.869v-6.2h-.969v6.2h.1v-.1m4.184,0h-.77v-5.263h-1.673v-.737h4.116v.737h-1.673v5.263" transform="translate(-1269.548 -146.63)" fill="#fff"/>
  <path id="Path_1252" data-name="Path 1252" d="M1370.558,158.9v-.1h-.67v-5.263h-1.673V153h3.917v.537h-1.673V158.9h.1v0h.1v-5.163h1.673V152.8h-4.316v.937h1.673V159h.97v-.1h-.1m5.642-1.278a2.3,2.3,0,0,0,3.255,0,2.56,2.56,0,0,0,0-3.445,2.3,2.3,0,0,0-3.255,0,2.563,2.563,0,0,0,0,3.445Zm3.824.5a3.106,3.106,0,0,1-4.392,0,3.245,3.245,0,0,1,0-4.449,3.1,3.1,0,0,1,4.388,0,3.235,3.235,0,0,1,0,4.445Z" transform="translate(-1306.533 -145.898)" fill="#fff"/>
  <path id="Path_1253" data-name="Path 1253" d="M1517.179,155.5l-.071.07a2.4,2.4,0,0,0,3.4,0,2.66,2.66,0,0,0,0-3.585,2.4,2.4,0,0,0-3.4,0,2.663,2.663,0,0,0,0,3.585l.071-.07.071-.07a2.463,2.463,0,0,1,0-3.3,2.2,2.2,0,0,1,3.113,0,2.461,2.461,0,0,1,0,3.3,2.2,2.2,0,0,1-3.113,0Zm3.824.5-.071-.069a3.008,3.008,0,0,1-4.249,0l0,0,0,0a3.146,3.146,0,0,1,0-4.31,3,3,0,0,1,4.245,0,3.135,3.135,0,0,1,0,4.306L1521,156l.072.069a3.335,3.335,0,0,0,0-4.584,3.2,3.2,0,0,0-4.532,0h0a3.346,3.346,0,0,0,0,4.589l0,0,0,0a3.206,3.206,0,0,0,4.536,0Zm1.963.775v-6h.937l2.911,4.668h.033l-.033-1.156v-3.511h.77v6h-.8l-3.046-4.894h-.033l.033,1.157v3.737h-.769" transform="translate(-1447.512 -143.773)" fill="#fff"/>
  <path id="Path_1254" data-name="Path 1254" d="M946.214,159.63h.1v-5.9h.782l2.911,4.668h.191l-.036-1.258v-3.41h.571v5.8h-.648l-3.046-4.894h-.191l.036,1.258v3.635h-.669v.1h0v.1h.869v-3.839l-.033-1.158-.1,0v.1h.033v-.1l-.085.053,3.075,4.941h.959v-6.2h-.97v3.612L950,158.3l.1,0v-.1h-.033v.1l.085-.053-2.941-4.715h-1.092v6.2h.1v-.1m31.31,17h1.863v-12.5h-1.863Zm16.78-8-2.136,5.42H992.1l-2.216-5.42h-2.007l3.324,7.575-1.895,4.214h1.944l5.122-11.789Zm-10.565,6.578c-.611,0-1.462-.306-1.462-1.062,0-.965,1.06-1.335,1.975-1.335a3.311,3.311,0,0,1,1.7.418A2.26,2.26,0,0,1,983.739,175.21Zm.225-6.852a3.5,3.5,0,0,0-3.324,1.914l1.653.691a1.765,1.765,0,0,1,1.7-.917,1.8,1.8,0,0,1,1.959,1.609v.129a4.115,4.115,0,0,0-1.943-.482c-1.782,0-3.6.981-3.6,2.814a2.885,2.885,0,0,0,3.1,2.75,2.628,2.628,0,0,0,2.377-1.222h.064v.965h1.8v-4.793C987.753,169.6,986.1,168.359,983.964,168.359Zm-11.513,1.8H969.8v-4.285h2.65a2.143,2.143,0,1,1,0,4.285Zm-.048-6.025h-4.464v12.5H969.8v-4.736h2.6a3.888,3.888,0,1,0,0-7.765Zm-24.342,11.084a2.587,2.587,0,0,1,0-5.155,2.6,2.6,0,0,1,0,5.155Zm2.139-5.88h-.064a2.941,2.941,0,0,0-2.236-.95,4.257,4.257,0,0,0,0,8.506,2.894,2.894,0,0,0,2.236-.966h.064v.612c0,1.627-.868,2.5-2.268,2.5a2.351,2.351,0,0,1-2.14-1.515l-1.624.677a4.047,4.047,0,0,0,3.764,2.513c2.187,0,4.037-1.289,4.037-4.431v-7.636H950.2Zm3.056,7.3h1.866v-12.5h-1.866Zm4.616-4.124a2.331,2.331,0,0,1,2.219-2.481,1.642,1.642,0,0,1,1.576.9Zm5.79-1.418a3.947,3.947,0,0,0-3.635-2.707,4.039,4.039,0,0,0-4,4.253,4.159,4.159,0,0,0,4.214,4.253A4.223,4.223,0,0,0,963.776,175l-1.448-.967a2.424,2.424,0,0,1-2.091,1.176,2.16,2.16,0,0,1-2.059-1.289l5.678-2.352Zm-45.235-1.4v1.8h4.311a3.768,3.768,0,0,1-.981,2.271,4.408,4.408,0,0,1-3.329,1.321,4.8,4.8,0,0,1,0-9.6,4.59,4.59,0,0,1,3.249,1.289l1.271-1.273a6.278,6.278,0,0,0-4.52-1.821,6.606,6.606,0,1,0,0,13.211,5.841,5.841,0,0,0,6.16-6.073,5.858,5.858,0,0,0-.1-1.128Zm11.061,5.526a2.585,2.585,0,1,1,2.4-2.578A2.459,2.459,0,0,1,929.489,175.212Zm0-6.831a4.253,4.253,0,1,0,4.262,4.253A4.189,4.189,0,0,0,929.489,168.382Zm9.3,6.831a2.585,2.585,0,1,1,2.4-2.578,2.459,2.459,0,0,1-2.4,2.578Zm0-6.831a4.253,4.253,0,1,0,4.262,4.253,4.189,4.189,0,0,0-4.262-4.253Z" transform="translate(-870.761 -146.63)" fill="#fff"/>
  <path id="Path_1255" data-name="Path 1255" d="M222.076,162.459a1.933,1.933,0,0,0-.535,1.478v21.824a2,2,0,0,0,.462,1.405l.074.071h0a1.282,1.282,0,0,0,.882.325,2.3,2.3,0,0,0,1.118-.335l14.492-8.247,4.978-2.833a1.864,1.864,0,0,0,1.046-1.3v0a1.863,1.863,0,0,0-1.046-1.3l-4.978-2.833-14.491-8.247a2.3,2.3,0,0,0-1.12-.336,1.284,1.284,0,0,0-.881.325Z" transform="translate(-211.584 -154.847)" fill="#00c1ff"/>
  <path id="Path_1256" data-name="Path 1256" d="M.651-526.788l-.074-.071a2,2,0,0,1-.462-1.405v-21.824a1.933,1.933,0,0,1,.535-1.478l12.37,12.389L.651-526.788" transform="translate(9.842 559.177)" fill="url(#linear-gradient)"/>
  <path id="Path_1257" data-name="Path 1257" d="M4.81-176.305.686-180.436l4.123-4.131,4.978,2.833a1.863,1.863,0,0,1,1.046,1.3v0a1.863,1.863,0,0,1-1.046,1.3L4.81-176.305" transform="translate(22.175 200.437)" fill="url(#linear-gradient-2)"/>
  <path id="Path_1258" data-name="Path 1258" d="M1.322-270.3a1.282,1.282,0,0,1-.882-.325h0l12.369-12.389,4.124,4.131L2.441-270.638a2.3,2.3,0,0,1-1.118.336" transform="translate(10.053 303.018)" fill="url(#linear-gradient-3)"/>
  <path id="Path_1259" data-name="Path 1259" d="M12.56-270.891.19-283.28a1.284,1.284,0,0,1,.881-.325,2.3,2.3,0,0,1,1.121.336l14.491,8.247-4.123,4.131" transform="translate(10.302 290.892)" fill="url(#linear-gradient-4)"/>
  <path id="Path_1260" data-name="Path 1260" d="M1.747-186.365a1.285,1.285,0,0,1-.883-.325h0l0,0L.8-186.755l-.006-.007.074-.074a1.282,1.282,0,0,0,.882.325,2.3,2.3,0,0,0,1.118-.335l14.492-8.247.093.093-.094.053L2.865-186.7a2.384,2.384,0,0,1-1.027.334l-.091,0" transform="translate(9.629 219.226)" fill="url(#linear-gradient-5)"/>
  <path id="Path_1261" data-name="Path 1261" d="M.577-33.754a2,2,0,0,1-.462-1.405v-.146A2,2,0,0,0,.577-33.9l.074.071-.074.075" transform="translate(9.842 66.218)" fill="url(#linear-gradient-6)"/>
  <path id="Path_1262" data-name="Path 1262" d="M.735-89.9.642-90,5.62-92.83a1.863,1.863,0,0,0,1.046-1.3,1.24,1.24,0,0,1-.115.516,2.144,2.144,0,0,1-.931.927L.735-89.9" transform="translate(26.343 114.129)" fill="url(#linear-gradient-7)"/>
  <path id="Path_1263" data-name="Path 1263" d="M6.658-90.461a1.863,1.863,0,0,0-1.046-1.3L.633-94.591l.093-.093h0L5.611-91.9a1.756,1.756,0,0,1,1.046,1.443" transform="translate(26.352 110.461)" fill="url(#linear-gradient-8)"/>
  <path id="Path_1264" data-name="Path 1264" d="M.115-33.206v-.153c0-.055,0-.109,0-.161v0a.007.007,0,0,1,0,0v-.006a1.907,1.907,0,0,1,.457-1.227l.073.073a1.933,1.933,0,0,0-.535,1.478" transform="translate(9.842 42.296)" fill="url(#linear-gradient-9)"/>
  <path id="Path_1265" data-name="Path 1265" d="M17.355-186.173,2.864-194.421a2.3,2.3,0,0,0-1.12-.336,1.284,1.284,0,0,0-.881.325l-.073-.073q.034-.036.071-.07l0,0a1.283,1.283,0,0,1,.873-.325h.007a2.3,2.3,0,0,1,1.12.336l14.585,8.3h0l-.093.093" transform="translate(9.63 202.044)" fill="url(#linear-gradient-10)"/>
</svg>
