<svg id="_17-location" data-name="17-location" xmlns="http://www.w3.org/2000/svg" width="14" height="19.091" viewBox="0 0 14 19.091">
  <path id="Path_63" data-name="Path 63" d="M12,1A7.008,7.008,0,0,0,5,8c0,5.417,6.287,11.645,6.555,11.909a.636.636,0,0,0,.891,0C12.713,19.645,19,13.417,19,8A7.008,7.008,0,0,0,12,1Zm0,17.539C10.582,17.029,6.273,12.1,6.273,8A5.727,5.727,0,0,1,17.727,8C17.727,12.1,13.418,17.029,12,18.539Z" transform="translate(-5 -1)" fill="#babac0"/>
  <path id="Path_64" data-name="Path 64" d="M14.182,7a3.182,3.182,0,1,0,3.182,3.182A3.182,3.182,0,0,0,14.182,7Zm0,5.091a1.909,1.909,0,1,1,1.909-1.909A1.909,1.909,0,0,1,14.182,12.091Z" transform="translate(-7.182 -3.182)" fill="#babac0"/>
</svg>
