<svg width="109" height="48" viewBox="0 0 109 48" fill="none" xmlns="http://www.w3.org/2000/svg">
    <path
        d="M59.6271 9.99023H62.3296V18.8256C62.3296 19.4492 62.2257 19.969 62.0178 20.5926C61.8099 21.1124 61.4981 21.5281 61.0823 21.84C60.6665 22.1518 60.2507 22.4636 59.731 22.6715C59.2113 22.8794 58.5876 22.8794 58.0679 22.8794C57.4442 22.8794 56.9245 22.7755 56.3008 22.6715C55.7811 22.5676 55.3653 22.2558 54.9495 21.9439C54.5337 21.6321 54.2219 21.2163 54.014 20.6966C53.8061 20.1769 53.7022 19.5532 53.7022 18.9295H56.3008C56.3008 19.2414 56.3008 19.5532 56.4048 19.7611C56.5087 19.969 56.6127 20.1769 56.7166 20.2808C56.8205 20.3847 57.0284 20.4887 57.2363 20.5926C57.4442 20.6966 57.6521 20.6966 57.86 20.6966C58.2758 20.6966 58.7955 20.4887 59.1073 20.1769C59.4192 19.7611 59.6271 19.2414 59.5231 18.7216V9.99023H59.6271Z"
        fill="white" />
    <path
        d="M68.7742 22.8795C68.0466 22.8795 67.4229 22.7756 66.7993 22.5677C65.6559 22.1519 64.8243 21.2164 64.4085 20.073C64.2006 19.4494 64.0967 18.9296 64.0967 18.306V17.9941C64.0967 17.2665 64.2006 16.6428 64.4085 16.0192C64.6164 15.4994 64.9283 14.8758 65.344 14.46C65.7598 14.0442 66.1756 13.7324 66.6953 13.4205C67.319 13.2126 67.9427 13.0048 68.5663 13.1087C69.19 13.1087 69.8137 13.2126 70.3334 13.4205C70.8531 13.6284 71.2689 13.9403 71.6847 14.356C72.1005 14.7718 72.3084 15.2916 72.5162 15.9152C72.7241 16.5389 72.8281 17.1626 72.8281 17.7862V18.9296H66.7993C66.7993 19.2415 66.9032 19.5533 67.0072 19.7612C67.1111 19.9691 67.319 20.177 67.5269 20.3849C67.7348 20.5928 67.9427 20.6967 68.2545 20.8006C68.5663 20.9046 68.8782 21.0085 69.19 20.9046C69.6058 20.9046 70.0216 20.8006 70.4373 20.6967C70.8531 20.4888 71.165 20.2809 71.4768 19.8651L72.7241 21.2164C72.5162 21.4243 72.4123 21.6322 72.1005 21.8401C71.8926 22.048 71.5807 22.2559 71.2689 22.3598C70.9571 22.5677 70.6452 22.6717 70.2295 22.7756C69.6058 22.8795 69.19 22.9835 68.7742 22.8795ZM68.4624 15.1876C68.2545 15.1876 67.9427 15.1876 67.7348 15.2916C67.5269 15.3955 67.319 15.4994 67.215 15.7073C67.1111 15.9152 66.9032 16.1231 66.9032 16.331C66.7993 16.6428 66.6953 16.8507 66.6953 17.1626H70.2295V16.9547C70.2295 16.7468 70.2295 16.4349 70.1255 16.2271C70.0216 16.0192 69.9176 15.8113 69.8137 15.7073C69.7097 15.4994 69.5018 15.3955 69.2939 15.2916C68.9821 15.1876 68.6703 15.1876 68.4624 15.1876Z"
        fill="white" />
    <path d="M76.778 22.7753H74.2833V9.26245H76.778V22.7753Z" fill="white" />
    <path d="M81.5595 22.7753H78.9609V9.26245H81.4555V22.7753H81.5595Z" fill="white" />
    <path
        d="M87.1725 19.1373L88.9396 13.2124H91.6422L87.7962 24.1266C87.6922 24.4385 87.5883 24.6464 87.4844 24.8543C87.3804 25.1661 87.1725 25.374 86.9646 25.6858C86.7567 25.8937 86.4449 26.1016 86.1331 26.3095C85.7173 26.5174 85.3015 26.5174 84.8857 26.5174H84.5739H84.1581H83.8463L83.5344 26.4134V24.5424H83.7423C83.8463 24.5424 83.8463 24.5424 83.9502 24.5424C84.1581 24.5424 84.366 24.5424 84.5739 24.5424C84.7818 24.5424 84.8857 24.4385 84.9897 24.3345C85.0936 24.2306 85.1976 24.1266 85.3015 24.0227C85.4054 23.9187 85.5094 23.7109 85.5094 23.6069L85.8212 22.8793L82.495 13.4203H85.1976L87.1725 19.1373Z"
        fill="white" />
    <path
        d="M75.6346 37.9514C75.6346 37.5356 75.5306 37.2238 75.4267 36.9119C75.2188 36.6001 75.0109 36.2883 74.803 36.0804C74.3873 35.7685 73.9715 35.5607 73.5557 35.3528C72.932 35.1449 72.3084 34.937 71.6847 34.7291C71.061 34.5212 70.5413 34.4173 69.9176 34.2094C69.3979 34.0015 68.9821 33.7936 68.5663 33.4818C68.2545 33.2739 67.9427 32.962 67.7348 32.5462C67.5269 32.1305 67.4229 31.7147 67.4229 31.195C67.4229 30.7792 67.5269 30.2595 67.7348 29.8437C67.9427 29.4279 68.2545 29.1161 68.6703 28.8042C69.0861 28.4924 69.5018 28.2845 70.0216 28.1805C70.5413 28.0766 71.165 27.9727 71.6847 27.9727C72.3084 27.9727 72.8281 28.0766 73.3478 28.2845C73.8675 28.4924 74.2833 28.7003 74.6991 29.0121C75.1149 29.3239 75.3228 29.7397 75.5306 30.1555C75.7385 30.6752 75.8425 31.195 75.8425 31.7147H75.3228C75.3228 31.2989 75.2188 30.7792 75.0109 30.3634C74.803 29.9476 74.5951 29.6358 74.2833 29.3239C73.9715 29.0121 73.5557 28.8042 73.1399 28.5963C72.6202 28.3884 72.1005 28.2845 71.5807 28.3884C71.061 28.3884 70.5413 28.4924 70.0216 28.5963C69.6058 28.7003 69.19 28.9082 68.8782 29.22C68.5663 29.4279 68.3584 29.7397 68.1505 30.0516C67.9427 30.3634 67.9427 30.6752 67.9427 31.091C67.9427 31.4028 68.0466 31.7147 68.1505 32.0265C68.2545 32.3384 68.4624 32.6502 68.7742 32.8581C69.0861 33.1699 69.5018 33.3778 69.9176 33.5857C70.5413 33.8975 71.165 34.1054 71.7886 34.2094C72.4123 34.4173 72.932 34.5212 73.5557 34.7291C74.0754 34.937 74.4912 35.1449 74.907 35.4567C75.3228 35.7685 75.5306 36.0804 75.8425 36.4962C76.2583 37.3277 76.2583 38.3672 75.8425 39.3027C75.6346 39.7185 75.3228 40.0303 74.907 40.3421C74.4912 40.654 74.0754 40.8619 73.5557 40.9658C73.036 41.0698 72.4123 41.1737 71.8926 41.1737C71.4768 41.1737 71.165 41.1737 70.7492 41.0698C70.3334 40.9658 70.0216 40.9658 69.7097 40.7579C69.3979 40.654 68.9821 40.4461 68.6703 40.3421C68.0466 39.9264 67.5269 39.3027 67.319 38.679C67.215 38.2632 67.1111 37.8475 67.1111 37.4317H67.6308C67.6308 37.8475 67.6308 38.1593 67.8387 38.5751C67.9427 38.8869 68.1506 39.1987 68.3584 39.4066C68.5663 39.6145 68.7742 39.8224 69.0861 40.0303C69.3979 40.2382 69.7097 40.3421 70.0216 40.4461C70.3334 40.55 70.6452 40.654 70.9571 40.654C71.2689 40.654 71.5807 40.7579 71.9965 40.7579C72.5162 40.7579 73.036 40.654 73.5557 40.55C73.9715 40.4461 74.3873 40.2382 74.6991 40.0303C75.0109 39.8224 75.3228 39.5106 75.5306 39.1987C75.5306 38.783 75.6346 38.3672 75.6346 37.9514Z"
        fill="white" />
    <path
        d="M80.1042 38.2633L80.624 40.2382L81.2476 38.2633L83.3265 31.5068H83.8463L85.9252 38.2633L86.5489 40.2382L87.0686 38.2633L89.0435 31.5068H89.5633L86.7567 40.9658H86.237L83.8463 33.7936L83.6384 32.2345L83.1187 33.8976L80.8319 41.0698H80.3121L77.6096 31.6108H78.2332L80.1042 38.2633Z"
        fill="white" />
    <path
        d="M98.0868 41.0698C97.9828 40.758 97.9828 40.5501 97.9828 40.2382C97.9828 39.9264 97.9828 39.6146 97.9828 39.3027C97.671 39.8224 97.1513 40.3422 96.5276 40.654C96.2158 40.8619 95.9039 40.9658 95.4881 41.0698C95.0724 41.1737 94.6566 41.2777 94.2408 41.2777C93.825 41.2777 93.4092 41.1737 92.9935 41.0698C92.6816 40.9658 92.3698 40.758 92.058 40.5501C91.5382 40.1343 91.2264 39.4067 91.2264 38.6791C91.2264 38.2633 91.3303 37.8475 91.5382 37.5357C91.7461 37.1199 92.058 36.808 92.3698 36.6001C92.7856 36.2883 93.3053 36.0804 93.7211 35.9765C94.3447 35.8725 94.9684 35.7686 95.5921 35.7686H97.8789V34.4173C97.8789 33.6897 97.671 33.066 97.1513 32.5463C96.5276 32.0266 95.8 31.8187 94.9684 31.9226C94.5526 31.9226 94.1369 32.0266 93.7211 32.1305C93.4092 32.2345 92.9935 32.4423 92.6816 32.6502C92.3698 32.8581 92.1619 33.066 92.058 33.3778C91.8501 33.6897 91.8501 34.0015 91.8501 34.3134H91.4343C91.4343 34.0015 91.5382 33.5857 91.7461 33.2739C91.954 32.9621 92.1619 32.6502 92.4737 32.3384C92.7856 32.0266 93.2013 31.8187 93.6171 31.7147C94.0329 31.6108 94.5526 31.5068 95.0724 31.5068C95.4881 31.5068 96.0079 31.6108 96.4236 31.7147C96.8394 31.8187 97.1513 32.0266 97.4631 32.2345C97.7749 32.5463 97.9828 32.8581 98.1907 33.17C98.3986 33.5857 98.3986 34.0015 98.3986 34.5212V39.3027C98.3986 39.5106 98.3986 39.6146 98.3986 39.8224C98.3986 40.0303 98.3986 40.1343 98.3986 40.3422C98.3986 40.5501 98.3986 40.654 98.5025 40.758C98.5025 40.8619 98.5025 40.9658 98.6065 41.0698H98.0868ZM94.1369 40.758C94.5526 40.758 94.9684 40.7579 95.3842 40.654C96.1118 40.4461 96.7355 40.0303 97.2552 39.5106C97.4631 39.1988 97.671 38.8869 97.8789 38.5751V36.2883H95.696C95.1763 36.2883 94.5526 36.3923 94.0329 36.4962C93.6171 36.6001 93.2014 36.808 92.7856 37.0159C92.4737 37.2238 92.1619 37.4317 91.954 37.7435C91.6422 38.2633 91.6422 38.9909 91.8501 39.5106C91.954 39.7185 92.1619 40.0303 92.3698 40.1343C92.5777 40.3422 92.8895 40.4461 93.0974 40.5501C93.5132 40.654 93.825 40.758 94.1369 40.758Z"
        fill="white" />
    <path
        d="M108.689 36.392C108.689 37.1196 108.585 37.7432 108.481 38.3669C108.377 38.8866 108.065 39.4064 107.754 39.9261C107.13 40.7577 106.194 41.2774 105.155 41.2774C104.843 41.2774 104.427 41.2774 104.116 41.1734C103.804 41.0695 103.492 40.9655 103.18 40.8616C102.868 40.7577 102.66 40.5498 102.452 40.3419C102.245 40.134 102.037 39.9261 101.933 39.7182V44.7076H101.413V31.6105H101.933V33.2736C102.037 32.9618 102.245 32.7539 102.452 32.546C102.66 32.3381 102.868 32.1302 103.18 31.9223C103.492 31.7144 103.804 31.6105 104.116 31.5065C104.427 31.4026 104.843 31.4026 105.155 31.4026C105.675 31.4026 106.194 31.5065 106.714 31.7144C107.13 31.9223 107.546 32.2342 107.858 32.6499C108.169 33.0657 108.377 33.5854 108.585 34.2091C108.585 34.9367 108.689 35.6643 108.689 36.392ZM108.169 36.1841C108.169 35.5604 108.066 35.0407 107.962 34.417C107.858 33.8973 107.65 33.4815 107.442 33.0657C107.234 32.6499 106.818 32.3381 106.402 32.1302C105.987 31.9223 105.467 31.8184 105.051 31.8184C104.635 31.8184 104.22 31.9223 103.804 32.0263C103.18 32.2341 102.556 32.7539 102.245 33.3775C102.141 33.6894 101.933 33.8973 101.829 34.2091V38.6788C101.933 38.9906 102.141 39.3024 102.245 39.5103C102.452 39.7182 102.66 40.03 102.972 40.134C103.284 40.3419 103.596 40.4458 103.908 40.5498C104.323 40.6537 104.739 40.7577 105.051 40.6537C105.987 40.6537 106.922 40.2379 107.338 39.4064C107.65 38.9906 107.754 38.4709 107.962 38.0551C108.066 37.4314 108.169 36.9117 108.169 36.288V36.1841Z"
        fill="white" />
    <path
        d="M48.297 30.3634L33.4329 46.0592C32.0816 47.5144 30.0027 48.0341 28.1317 47.5144L10.9807 42.1092C9.52548 41.6935 8.38208 40.5501 7.86235 39.1988L1.62564 22.4636C0.898025 20.5926 1.41775 18.5137 2.76904 17.1624L17.6332 1.36272C18.9845 -0.0925099 20.9594 -0.612236 22.9344 -0.0925099L39.9814 5.31264C41.3327 5.72842 42.4761 6.87182 42.9958 8.2231L49.3365 24.9583C49.9602 26.8293 49.6483 28.9082 48.297 30.3634Z"
        fill="url(#paint0_radial)" />
    <path opacity="0.83"
        d="M48.7128 40.2387C48.401 40.7585 47.7773 41.1742 46.9457 41.3821C46.426 41.4861 45.8023 41.59 45.1787 41.59C42.1643 41.4861 41.4366 41.2782 40.0854 41.4861C38.942 41.59 37.4867 42.6295 36.967 42.9413C36.8631 42.9413 36.8631 42.9413 36.8631 43.0452C34.1605 43.1492 33.4329 41.9018 31.0421 41.694C29.1711 41.4861 25.1173 42.9413 23.0383 43.3571C21.5831 43.6689 22.1028 42.5255 19.816 43.0452C19.6082 43.1492 18.5687 42.9413 17.4253 42.9413C17.1135 42.9413 16.8016 42.9413 16.4898 43.0452C16.2819 43.0452 16.074 43.1492 15.7622 43.1492C15.3464 43.2531 14.9306 43.3571 14.6188 43.565C14.307 43.7729 13.9951 43.8768 13.5793 43.9808C12.7478 44.2926 11.9162 44.2926 11.3965 44.1886C11.1886 44.1886 11.0847 44.0847 10.9807 43.8768C10.8768 43.565 10.7728 43.2531 10.6689 42.9413C10.461 42.7334 10.357 42.6295 10.357 42.5255C10.1491 42.3176 9.83731 42.2137 9.42153 42.3176C8.79786 42.5255 8.07024 42.7334 7.34263 42.8374C5.78345 43.0452 4.12033 43.1492 2.66509 42.5255C2.04142 42.2137 1.41775 41.7979 1.10591 41.1742C0.898024 40.6545 0.898024 40.0308 1.10591 39.4072C1.20986 39.0953 1.31381 38.7835 1.5217 38.5756C1.72959 38.2638 1.93748 38.0559 2.24931 37.9519C2.35326 37.9519 2.35326 37.9519 2.4572 37.848C2.56115 37.848 2.66509 37.848 2.66509 37.744C2.97693 37.4322 2.35326 35.977 4.53611 35.3533C4.64005 35.3533 4.64005 35.3533 4.64005 35.3533C4.744 35.3533 4.744 35.3533 4.744 35.3533C4.744 35.3533 4.744 35.3533 4.84794 35.3533C5.05583 35.2494 5.15978 34.8336 5.36767 33.0665C5.36767 32.9626 5.47161 32.9626 5.47161 32.8586C5.57556 32.2349 5.6795 31.7152 5.78345 31.1955C5.88739 30.8837 5.88739 30.6758 5.99134 30.3639C6.40712 29.1166 6.92685 27.8693 7.55052 26.7259V26.6219C7.23868 23.7114 8.38208 25.2706 8.69391 23.3996C9.21364 20.697 13.6833 14.0445 13.6833 14.0445C13.6833 14.0445 22.1028 14.4603 23.9739 7.49599C24.1817 6.66443 24.2857 5.72892 24.3896 4.89736C26.8843 4.0658 28.0277 5.10525 28.4435 5.72892C28.4435 5.83287 28.5474 5.83287 28.5474 5.93681C28.5474 5.93681 28.5474 5.93682 28.5474 6.04076C28.6514 6.14471 28.6514 6.14471 28.7553 6.04076C29.7948 5.31314 30.9382 5.62498 31.9776 6.56049H32.0816H32.1855L32.2895 6.66443C33.8486 8.22361 35.4078 10.9262 36.7591 13.7327C36.7591 13.7327 36.7591 13.8367 36.8631 13.8367C38.2143 16.8511 38.6301 19.9694 38.942 21.0089C39.0459 21.2168 39.9814 22.8799 40.0854 23.0878C40.2932 25.1667 41.2288 28.285 42.3722 30.4679L42.58 30.8837C43.3077 32.5468 44.2432 34.002 44.8668 34.3139C45.1787 34.5217 45.3866 34.7296 45.5945 34.9375C45.5945 35.0415 45.6984 35.1454 45.6984 35.2494C45.6984 35.4573 45.9063 35.5612 46.0102 35.6651C46.1142 35.873 46.1142 35.977 46.2181 36.1849C46.2181 36.2888 46.3221 36.3928 46.3221 36.6006C46.3221 36.8085 46.426 36.9125 46.53 37.0164C46.53 37.0164 46.53 37.0164 46.6339 37.0164C47.0497 37.1204 47.8812 37.3283 48.297 37.9519C48.401 38.0559 48.5049 38.2638 48.6089 38.3677C48.7128 38.5756 48.8168 38.7835 48.8168 39.0953C48.8168 39.1993 48.8168 39.1993 48.8168 39.1993C48.9207 39.719 48.8168 40.0308 48.7128 40.2387Z"
        fill="black" />
    <path
        d="M27.3001 4.58525C27.3001 4.58525 27.1961 4.48133 27.3001 4.58525C27.1961 4.48133 27.3001 4.58525 27.3001 4.58525Z"
        fill="#580C48" />
    <path d="M27.404 4.79334C27.3001 4.6894 27.3001 4.6894 27.3001 4.58545C27.3001 4.6894 27.404 4.6894 27.404 4.79334Z"
        fill="#580C48" />
    <path d="M29.0672 6.4563V6.56026C29.1711 6.56026 29.0672 6.56026 29.0672 6.4563Z" fill="#580C48" />
    <path opacity="0.61"
        d="M27.1962 4.4812C27.1962 4.58516 27.3001 4.58516 27.1962 4.4812C27.3001 4.58516 27.1962 4.4812 27.1962 4.4812Z"
        fill="url(#paint1_radial)" />
    <path opacity="0.61"
        d="M27.3001 4.58545C27.404 4.6894 27.404 4.6894 27.404 4.79334C27.404 4.6894 27.3001 4.6894 27.3001 4.58545Z"
        fill="url(#paint2_radial)" />
    <path
        d="M48.7128 39.5109C48.7128 39.6148 48.7128 39.6148 48.7128 39.5109C48.7128 39.7188 48.6089 39.7188 48.6089 39.8227C48.6089 39.8227 48.6089 39.8227 48.6089 39.9267C48.5049 40.1346 48.401 40.2385 48.297 40.3424C48.297 40.3424 48.297 40.3424 48.1931 40.4464L48.0891 40.5503C47.8813 40.6543 47.6734 40.8622 47.4655 40.8622C46.9458 41.0701 46.3221 41.174 45.8024 41.0701H45.3866H45.0747C44.4511 41.0701 43.8274 41.0701 43.2037 41.0701H42.8919H42.5801H42.4761H42.2682H42.1643H41.9564H41.8524H41.6445H41.5406H41.4367H41.3327H41.2288H41.1248H41.0209H40.813H40.5012H40.3972H40.2933C40.0854 41.0701 39.9814 41.0701 39.8775 41.0701C39.5656 41.0701 39.2538 41.174 39.0459 41.3819C38.4222 41.7977 37.6946 42.0056 36.967 42.2135L36.7591 42.3174C34.2644 43.045 32.3934 42.4213 32.3934 42.4213C26.3646 41.6937 25.4291 41.9016 23.3502 42.6292C21.2713 43.2529 20.4397 42.1095 19.1924 42.4213C18.2569 42.6292 17.1135 42.4213 16.5938 42.3174C16.4898 42.3174 16.4898 42.3174 16.3859 42.3174C16.178 42.3174 15.9701 42.3174 15.7622 42.4213C14.307 43.045 13.2675 43.4608 12.5399 43.5647C12.0202 43.6687 11.7083 43.5647 11.3965 43.4608C11.2926 43.3569 11.0847 43.2529 10.9807 43.149C10.7728 42.8371 10.6689 42.4213 10.6689 42.2135C10.6689 42.2135 10.6689 42.2135 10.6689 42.1095C10.6689 42.0056 10.5649 42.0056 10.5649 41.9016H10.461C9.83732 41.5898 8.79787 42.1095 8.07025 42.2135C7.96631 42.2135 7.75842 42.2135 7.65447 42.3174C6.51107 42.5253 5.8874 42.6292 5.15979 42.6292H5.05584C4.9519 42.6292 4.84795 42.6292 4.74401 42.6292C4.64006 42.6292 4.53612 42.6292 4.43217 42.6292H4.32822H4.12033H4.01639C3.91244 42.6292 3.8085 42.6292 3.70455 42.5253H3.60061H3.39272H3.28877C3.18483 42.5253 3.18483 42.5253 3.08088 42.4213H2.97694H2.87299H2.76905H2.6651H2.56116H2.45721C2.35327 42.4213 2.35327 42.3174 2.24932 42.3174L2.14538 42.2135C2.04143 42.1095 1.93749 42.1095 1.83354 42.0056L1.7296 41.9016L1.62565 41.7977C1.62565 41.7977 1.62565 41.6937 1.5217 41.6937C1.5217 41.6937 1.52171 41.5898 1.41776 41.5898V41.4858C1.41776 41.4858 1.41776 41.3819 1.31381 41.3819V41.278V41.174V41.0701C1.31381 40.9661 1.20987 40.8622 1.20987 40.7582V40.6543V40.5503V40.4464V40.3424C1.20987 39.9267 1.20987 39.6148 1.31381 39.303V39.199C1.31381 39.0951 1.31381 39.0951 1.41776 38.9912V38.8872V38.7833C1.41776 38.7833 1.41776 38.6793 1.5217 38.6793L1.62565 38.5754L1.7296 38.4714L1.83354 38.3675C1.83354 38.3675 1.83354 38.3675 1.93749 38.2635V38.1596C2.14538 37.9517 2.35327 37.8478 2.56116 37.7438C2.6651 37.7438 2.6651 37.7438 2.6651 37.7438C2.76905 37.7438 2.87299 37.7438 2.87299 37.6399C3.18483 37.328 2.97694 36.4965 3.60061 35.8728L3.70455 35.7689L3.8085 35.6649H3.91244C3.91244 35.6649 4.01639 35.6649 4.01639 35.561C4.01639 35.457 4.12033 35.561 4.12033 35.457H4.22428C4.22428 35.457 4.32822 35.457 4.32822 35.3531H4.43217C4.43217 35.3531 4.53612 35.3531 4.53612 35.2491H4.64006H4.74401H4.84795H4.9519H5.05584H5.15979H5.26373H5.36768C5.57557 35.0412 5.57557 34.6255 5.8874 32.9623C6.30318 30.0519 8.07025 26.8296 8.07025 26.8296C7.23869 23.5033 8.27814 25.0625 8.58998 23.0875C9.1097 20.385 13.5793 13.7325 13.5793 13.7325C13.5793 13.7325 21.895 14.0443 23.8699 7.18393C24.0778 6.35237 24.2857 5.41686 24.2857 4.48136C26.2607 3.75374 27.4041 4.27347 27.9238 4.89714L28.0277 5.00108C28.0277 5.00108 28.0277 5.00108 28.1317 5.10503L28.2356 5.20897C28.2356 5.20897 28.2356 5.31292 28.3396 5.31292C28.4435 5.31292 28.3396 5.31292 28.3396 5.41686V5.52081C28.3396 5.62475 28.4435 5.62475 28.4435 5.62475C28.4435 5.62475 28.4435 5.62475 28.4435 5.7287C28.5475 5.83264 28.5475 5.83264 28.6514 5.7287C29.1711 5.41686 29.5869 5.20897 30.0027 5.20897H30.1066H30.2106H30.3145C30.4185 5.20897 30.5224 5.31292 30.6264 5.31292H30.7303H30.8342C30.9382 5.31292 30.9382 5.41686 30.9382 5.41686H31.0421H31.1461C31.1461 5.41686 31.1461 5.41686 31.25 5.41686H31.354H31.4579H31.5619L31.6658 5.52081H31.7698L31.8737 5.62475H31.9776H32.0816L32.2895 6.24843L32.3934 6.35237L32.4974 6.45632L32.6013 6.56026L32.7053 6.66421C32.8092 6.76815 32.8092 6.76815 32.9132 6.8721L33.0171 6.97604L33.121 7.07999L33.225 7.18393C33.225 7.18393 33.225 7.28788 33.3289 7.39182L33.4329 7.49577C33.6408 7.8076 33.8487 8.11944 34.0565 8.43127L34.1605 8.53522L34.2644 8.63916V8.74311C34.5763 9.15889 34.7842 9.57467 35.096 9.99045L35.1999 10.0944C35.1999 10.0944 35.1999 10.1983 35.3039 10.1983C35.3039 10.3023 35.3039 10.3023 35.3039 10.4062L35.4078 10.5102L35.5118 10.7181V10.822V10.926L35.6157 11.0299C35.7197 11.1338 35.7197 11.2378 35.8236 11.4457L35.9276 11.5496L36.0315 11.6536L36.1355 11.7575V11.8615L36.2394 12.0694L36.3433 12.2772V12.3812L36.4473 12.4851L36.5512 12.5891C36.6552 12.9009 36.8631 13.2128 36.967 13.4206L37.071 13.5246C37.2789 13.9404 37.4867 14.3561 37.5907 14.668C37.5907 14.7719 37.6946 14.7719 37.6946 14.8759L37.7986 14.9798L37.9025 15.0838L38.0065 15.2917L38.2144 15.6035C38.3183 15.8114 38.4222 15.9153 38.4222 16.1232L38.5262 16.3311L38.6301 16.539L38.7341 16.8508L38.838 17.0587C38.838 17.1627 38.838 17.1627 38.942 17.2666C38.942 17.3706 39.0459 17.4745 39.0459 17.4745L39.1499 17.6824C39.2538 17.7863 39.2538 17.9942 39.3578 18.0982V18.2021C39.3578 18.2021 39.3578 18.3061 39.4617 18.3061C39.4617 18.41 39.5656 18.514 39.5656 18.6179L39.6696 18.7218C39.6696 18.8258 39.7735 18.9297 39.7735 18.9297C39.7735 19.0337 39.7735 19.0337 39.8775 19.0337C39.8775 19.1376 39.8775 19.1376 39.9814 19.1376L40.0854 19.2416C40.0854 19.3455 40.1893 19.4495 40.1893 19.5534C40.1893 19.5534 40.1893 19.5534 40.1893 19.6574V19.7613V19.8652C40.1893 19.9692 40.2933 20.0731 40.2933 20.1771V20.281V20.385V20.4889L40.3972 20.6968V20.8008V20.9047V21.0086V21.1126C40.3972 21.2165 40.3972 21.2165 40.5012 21.2165V21.3205V21.4244V21.5284C40.5012 21.6323 40.5012 21.6323 40.6051 21.6323C40.709 21.8402 41.0209 23.7112 41.0209 23.9191C41.0209 24.0231 41.0209 24.2309 41.1248 24.3349C41.1248 24.3349 41.1248 24.3349 41.1248 24.4388C41.1248 24.5428 41.1248 24.5428 41.1248 24.5428V24.6467C41.1248 24.7507 41.1248 24.8546 41.1248 24.9586V25.0625V25.1664V25.2704V25.3743C41.1248 25.4783 41.1248 25.4783 41.1248 25.5822V25.6862V25.7901V25.8941V25.998C41.1248 26.102 41.1248 26.102 41.1248 26.2059C41.1248 26.3098 41.2288 26.4138 41.2288 26.5177C41.2288 26.6217 41.2288 26.6217 41.3327 26.7256C41.3327 26.8296 41.3327 26.8296 41.4367 26.9335C41.4367 27.0375 41.4367 27.0375 41.5406 27.1414V27.2454C41.6446 27.5572 41.7485 27.7651 41.7485 28.0769V28.1809V28.2848V28.3887V28.4927C41.8524 28.7006 41.8524 28.9085 41.9564 29.1164C41.9564 29.2203 41.9564 29.2203 42.0603 29.3243V29.4282C42.1643 29.6361 42.1643 29.74 42.2682 29.9479C42.2682 30.0519 42.3722 30.0519 42.3722 30.1558V30.2598V30.3637V30.4677L42.4761 30.6755C42.4761 30.7795 42.5801 30.7795 42.5801 30.8834C42.5801 30.8834 42.5801 30.8834 42.5801 30.9874V31.0913C42.5801 31.1953 42.684 31.1953 42.684 31.2992C42.684 31.4032 42.7879 31.5071 42.7879 31.5071V31.611V31.715C42.8919 32.0268 43.0998 32.2347 43.2037 32.5466V32.6505V32.7544V32.8584C43.3077 33.0663 43.4116 33.1702 43.5156 33.3781C43.5156 33.3781 43.5156 33.4821 43.6195 33.4821V33.586V33.69C43.6195 33.69 43.6195 33.69 43.6195 33.7939C43.7235 33.8978 43.7235 34.0018 43.8274 34.0018V34.1057C43.8274 34.1057 43.8274 34.2097 43.9313 34.2097C44.3471 34.5215 44.659 34.7294 45.0747 35.1452C45.6984 35.9767 45.3866 36.9123 45.8024 37.0162H45.9063H46.0102H46.1142H46.2181C46.7379 37.1201 47.0497 37.432 47.2576 37.5359C47.4655 37.6399 47.5694 37.8478 47.6734 38.0556C47.7773 38.1596 47.8813 38.3675 47.8813 38.4714C47.9852 38.6793 48.0891 38.8872 48.0891 39.199C48.8168 39.0951 48.8168 39.303 48.7128 39.5109Z"
        fill="#580C48" />
    <path
        d="M48.7128 39.5109C48.7128 39.6148 48.7128 39.6148 48.7128 39.5109C48.7128 39.7188 48.6089 39.7188 48.6089 39.8227C48.6089 39.8227 48.6089 39.8227 48.6089 39.9267C48.5049 40.1346 48.401 40.2385 48.297 40.3424C48.297 40.3424 48.297 40.3424 48.1931 40.4464L48.0891 40.5503C47.8813 40.6543 47.6734 40.8622 47.4655 40.8622C46.9458 41.0701 46.3221 41.174 45.8024 41.0701H45.3866H45.0747C44.4511 41.0701 43.8274 41.0701 43.2037 41.0701H42.8919H42.5801H42.4761H42.2682H42.1643H41.9564H41.8524H41.6445H41.5406H41.4367H41.3327H41.2288H41.1248H41.0209H40.813H40.5012H40.3972H40.2933C40.0854 41.0701 39.9814 41.0701 39.8775 41.0701C39.5656 41.0701 39.2538 41.174 39.0459 41.3819C38.4222 41.7977 37.6946 42.0056 36.967 42.2135L36.7591 42.3174C34.2644 43.045 32.3934 42.4213 32.3934 42.4213C26.3646 41.6937 25.4291 41.9016 23.3502 42.6292C21.2713 43.2529 20.4397 42.1095 19.1924 42.4213C18.5687 42.5253 17.8411 42.4213 17.3214 42.2135C17.1135 42.1095 16.9056 42.1095 16.8017 42.0056C16.3859 41.9016 16.074 42.0056 15.6583 42.2135C14.9306 42.6292 14.307 42.9411 13.5793 43.2529C13.2675 43.3569 12.9557 43.4608 12.5399 43.5647C12.0202 43.6687 11.7083 43.5647 11.3965 43.4608C11.2926 43.3569 11.0847 43.2529 10.9807 43.149C10.7728 42.8371 10.6689 42.4213 10.6689 42.2135C10.6689 42.2135 10.6689 42.2135 10.6689 42.1095C10.6689 42.0056 10.5649 42.0056 10.5649 41.9016H10.461C9.83732 41.5898 8.79787 42.1095 8.07025 42.2135C7.96631 42.2135 7.75842 42.2135 7.65447 42.3174C6.51107 42.5253 5.8874 42.6292 5.15979 42.6292H5.05584C4.9519 42.6292 4.84795 42.6292 4.74401 42.6292C4.64006 42.6292 4.53612 42.6292 4.43217 42.6292H4.32822H4.12033H4.01639C3.91244 42.6292 3.8085 42.6292 3.70455 42.5253H3.60061H3.39272H3.28877C3.18483 42.5253 3.18483 42.5253 3.08088 42.4213H2.97694H2.87299H2.76905H2.6651H2.56116H2.45721C2.35327 42.4213 2.35327 42.3174 2.24932 42.3174L2.14538 42.2135C2.04143 42.1095 1.93749 42.1095 1.83354 42.0056L1.7296 41.9016L1.62565 41.7977C1.62565 41.7977 1.62565 41.6937 1.5217 41.6937C1.5217 41.6937 1.52171 41.5898 1.41776 41.5898V41.4858C1.41776 41.4858 1.41776 41.3819 1.31381 41.3819V41.278V41.174V41.0701C1.31381 40.9661 1.20987 40.8622 1.20987 40.7582V40.6543V40.5503V40.4464V40.3424C1.20987 39.9267 1.20987 39.6148 1.31381 39.303V39.199C1.31381 39.0951 1.31381 39.0951 1.41776 38.9912V38.8872V38.7833C1.41776 38.7833 1.41776 38.6793 1.5217 38.6793L1.62565 38.5754L1.7296 38.4714L1.83354 38.3675C1.83354 38.3675 1.83354 38.3675 1.93749 38.2635V38.1596C2.14538 37.9517 2.35327 37.8478 2.56116 37.7438C2.6651 37.7438 2.6651 37.7438 2.6651 37.7438C2.76905 37.7438 2.87299 37.7438 2.87299 37.6399C3.18483 37.328 2.97694 36.4965 3.60061 35.8728L3.70455 35.7689L3.8085 35.6649H3.91244C3.91244 35.6649 4.01639 35.6649 4.01639 35.561C4.01639 35.457 4.12033 35.561 4.12033 35.457H4.22428C4.22428 35.457 4.32822 35.457 4.32822 35.3531H4.43217C4.43217 35.3531 4.53612 35.3531 4.53612 35.2491H4.64006H4.74401H4.84795H4.9519H5.05584H5.15979H5.26373H5.36768C5.57557 35.0412 5.57557 34.6255 5.8874 32.9623C6.30318 30.0519 8.07025 26.8296 8.07025 26.8296C7.23869 23.5033 8.27814 25.0625 8.58998 23.0875C9.1097 20.385 13.5793 13.7325 13.5793 13.7325C13.5793 13.7325 21.895 14.0443 23.8699 7.18393C24.0778 6.35237 24.2857 5.41686 24.2857 4.48136C26.2607 3.75374 27.4041 4.27347 27.9238 4.89714L28.0277 5.00108C28.0277 5.00108 28.0277 5.00108 28.1317 5.10503L28.2356 5.20897C28.2356 5.20897 28.2356 5.31292 28.3396 5.31292C28.4435 5.31292 28.3396 5.31292 28.3396 5.41686V5.52081C28.3396 5.62475 28.4435 5.62475 28.4435 5.62475C28.4435 5.62475 28.4435 5.62475 28.4435 5.7287C28.5475 5.83264 28.5475 5.83264 28.6514 5.7287C29.1711 5.41686 29.5869 5.20897 30.0027 5.20897H30.1066H30.2106H30.3145C30.4185 5.20897 30.5224 5.31292 30.6264 5.31292H30.7303H30.8342C30.9382 5.31292 30.9382 5.41686 30.9382 5.41686H31.0421H31.1461C31.1461 5.41686 31.1461 5.41686 31.25 5.41686H31.354H31.4579H31.5619L31.6658 5.52081H31.7698L31.8737 5.62475H31.9776H32.0816L32.2895 6.24843L32.3934 6.35237L32.4974 6.45632L32.6013 6.56026C32.7053 6.66421 32.7053 6.66421 32.8092 6.76815L32.9132 6.8721L33.0171 6.97604L33.121 7.07999C33.225 7.18393 33.225 7.28788 33.3289 7.39182L33.4329 7.49577C33.6408 7.8076 33.8487 8.11944 34.0565 8.43127L34.1605 8.53522L34.2644 8.63916V8.74311C34.5763 9.15889 34.7842 9.57467 35.096 9.99045L35.1999 10.0944C35.1999 10.0944 35.1999 10.1983 35.3039 10.1983C35.3039 10.3023 35.3039 10.3023 35.3039 10.4062L35.4078 10.5102L35.5118 10.7181V10.822V10.926L35.6157 11.0299C35.7197 11.1338 35.7197 11.2378 35.8236 11.4457L35.9276 11.5496L36.0315 11.6536L36.1355 11.7575V11.8615L36.2394 12.0694L36.3433 12.2772V12.3812L36.4473 12.4851L36.5512 12.5891C36.6552 12.9009 36.8631 13.2128 36.967 13.4206L37.071 13.5246C37.2789 13.9404 37.4867 14.3561 37.5907 14.668C37.5907 14.7719 37.6946 14.7719 37.6946 14.8759L37.7986 14.9798L37.9025 15.0838L38.0065 15.2917L38.2144 15.6035C38.3183 15.8114 38.4222 15.9153 38.4222 16.1232L38.5262 16.3311L38.6301 16.539L38.7341 16.8508L38.838 17.0587C38.838 17.1627 38.838 17.1627 38.942 17.2666C38.942 17.3706 39.0459 17.4745 39.0459 17.4745L39.1499 17.6824C39.2538 17.7863 39.2538 17.9942 39.3578 18.0982V18.2021C39.3578 18.2021 39.3578 18.3061 39.4617 18.3061C39.4617 18.41 39.5656 18.514 39.5656 18.6179L39.6696 18.7218C39.6696 18.8258 39.7735 18.9297 39.7735 18.9297C39.7735 19.0337 39.7735 19.0337 39.8775 19.0337C39.8775 19.1376 39.8775 19.1376 39.9814 19.1376L40.0854 19.2416C40.0854 19.3455 40.1893 19.4495 40.1893 19.5534C40.1893 19.5534 40.1893 19.5534 40.1893 19.6574V19.7613V19.8652C40.1893 19.9692 40.2933 20.0731 40.2933 20.1771V20.281V20.385V20.4889L40.3972 20.6968V20.8008V20.9047V21.0086V21.1126C40.3972 21.2165 40.3972 21.2165 40.5012 21.2165V21.3205V21.4244V21.5284C40.5012 21.6323 40.5012 21.6323 40.6051 21.6323C40.709 21.8402 41.0209 23.7112 41.0209 23.9191C41.0209 24.0231 41.0209 24.2309 41.1248 24.3349C41.1248 24.3349 41.1248 24.3349 41.1248 24.4388C41.1248 24.5428 41.1248 24.5428 41.1248 24.5428V24.6467C41.1248 24.7507 41.1248 24.8546 41.1248 24.9586V25.0625V25.1664V25.2704V25.3743C41.1248 25.4783 41.1248 25.4783 41.1248 25.5822V25.6862V25.7901V25.8941V25.998C41.1248 26.102 41.1248 26.102 41.1248 26.2059C41.1248 26.3098 41.2288 26.4138 41.2288 26.5177C41.2288 26.6217 41.2288 26.6217 41.3327 26.7256C41.3327 26.8296 41.3327 26.8296 41.4367 26.9335C41.4367 27.0375 41.4367 27.0375 41.5406 27.1414V27.2454C41.6446 27.5572 41.7485 27.7651 41.7485 28.0769V28.1809V28.2848V28.3887V28.4927C41.8524 28.7006 41.8524 28.9085 41.9564 29.1164C41.9564 29.2203 41.9564 29.2203 42.0603 29.3243V29.4282C42.1643 29.6361 42.1643 29.74 42.2682 29.9479C42.2682 30.0519 42.3722 30.0519 42.3722 30.1558V30.2598V30.3637V30.4677L42.4761 30.6755C42.4761 30.7795 42.5801 30.7795 42.5801 30.8834C42.5801 30.8834 42.5801 30.8834 42.5801 30.9874C42.5801 30.9874 42.5801 30.9874 42.5801 31.0913C42.5801 31.1953 42.684 31.1953 42.684 31.2992C42.684 31.4032 42.7879 31.5071 42.7879 31.5071V31.611V31.715C42.8919 32.0268 43.0998 32.2347 43.2037 32.5466V32.6505V32.7544V32.8584C43.3077 33.0663 43.4116 33.1702 43.5156 33.3781C43.5156 33.3781 43.5156 33.4821 43.6195 33.4821V33.586V33.69C43.6195 33.69 43.6195 33.69 43.6195 33.7939C43.7235 33.8978 43.7235 34.0018 43.8274 34.0018V34.1057C43.8274 34.1057 43.8274 34.2097 43.9313 34.2097C44.3471 34.5215 44.659 34.7294 45.0747 35.1452C45.6984 35.9767 45.3866 36.9123 45.8024 37.0162H45.9063H46.0102H46.1142H46.2181C46.7379 37.1201 47.0497 37.432 47.2576 37.5359C47.4655 37.6399 47.5694 37.8478 47.6734 38.0556C47.7773 38.1596 47.8813 38.3675 47.8813 38.4714C47.9852 38.6793 48.0891 38.8872 48.0891 39.199C48.8168 39.0951 48.8168 39.303 48.7128 39.5109Z"
        fill="url(#paint3_radial)" />
    <path opacity="0.61"
        d="M48.6089 39.9265C48.297 40.4463 47.6734 40.862 46.8418 41.0699C46.3221 41.1739 45.6984 41.2778 45.0747 41.2778C42.0603 41.1739 41.3327 40.966 39.9814 41.1739C38.838 41.2778 37.3828 42.3173 36.8631 42.6291C36.8631 42.6291 36.7591 42.6291 36.7591 42.7331C34.0565 42.837 33.3289 41.5897 30.9382 41.3818C29.0672 41.1739 25.0133 42.6291 22.9344 43.0449C21.4792 43.3567 21.9989 42.2133 19.7121 42.7331C19.5042 42.837 18.4648 42.6291 17.3214 42.6291C17.0095 42.6291 16.6977 42.6291 16.3859 42.7331C16.178 42.7331 15.9701 42.837 15.6582 42.837C15.2425 42.9409 14.8267 43.0449 14.5148 43.2528C14.203 43.4607 13.8912 43.5646 13.4754 43.6686C12.6438 43.9804 11.8123 43.9804 11.2925 43.8765C11.0847 43.8765 10.9807 43.7725 10.8768 43.5646C10.7728 43.2528 10.6689 42.9409 10.5649 42.6291C10.461 42.5252 10.461 42.4212 10.357 42.3173C10.1491 42.1094 9.83731 42.0054 9.42153 42.1094C8.79786 42.3173 8.07024 42.5252 7.34263 42.6291C5.78345 42.837 4.12033 42.9409 2.66509 42.3173C2.04142 42.0054 1.41775 41.5897 1.10591 40.966C0.898024 40.4463 0.898024 39.8226 1.10591 39.1989C1.20986 38.8871 1.31381 38.5752 1.5217 38.3674C1.72959 38.0555 1.93748 37.8476 2.24931 37.7437C2.35326 37.7437 2.35326 37.7437 2.4572 37.7437C2.56115 37.7437 2.66509 37.7437 2.66509 37.6397C3.08087 37.224 2.4572 35.8727 4.53611 35.249C4.64005 35.249 4.64005 35.249 4.64005 35.249C4.744 35.249 4.744 35.249 4.744 35.249C4.744 35.249 4.744 35.249 4.84794 35.249C5.05583 35.1451 5.15978 34.7293 5.36767 32.9622C5.36767 32.8583 5.47161 32.8583 5.47161 32.7543C5.57556 32.2346 5.6795 31.8188 5.78345 31.2991C5.88739 30.9872 5.88739 30.7794 5.99134 30.4675C6.40712 29.2202 6.92685 27.9728 7.55052 26.8294V26.7255C7.23868 23.6071 8.27813 25.0624 8.69391 23.1914C9.21364 20.4888 13.6833 13.8363 13.6833 13.8363C13.6833 13.8363 22.1028 14.2521 23.9739 7.28774C24.1817 6.45618 24.2857 5.52067 24.3896 4.68911C26.8843 3.85755 28.0277 4.897 28.4435 5.52067C28.4435 5.62462 28.5474 5.62462 28.5474 5.72856C28.5474 5.72856 28.5474 5.72856 28.5474 5.83251C28.6514 5.93645 28.6514 5.93645 28.7553 5.83251C29.7948 5.10489 30.9382 5.41673 31.9776 6.35223H32.0816H32.1855L32.2895 6.45618C33.8486 8.01536 35.4078 10.7179 36.7591 13.5245C36.7591 13.5245 36.7591 13.6284 36.8631 13.6284C38.2143 16.6428 38.6301 19.7612 38.942 20.8006C39.0459 21.0085 39.9814 22.6716 40.0854 22.8795C40.2933 24.9584 41.2288 28.0768 42.3722 30.2596C42.4761 30.3636 42.4761 30.5715 42.58 30.6754C43.3077 32.3385 44.1392 33.7938 44.8668 34.1056C45.1787 34.3135 45.3866 34.5214 45.5945 34.7293C45.5945 34.8332 45.6984 34.9372 45.6984 35.0411C45.6984 35.249 45.9063 35.3529 46.0102 35.4569C46.1142 35.6648 46.1142 35.7687 46.2181 35.9766C46.2181 36.0806 46.3221 36.1845 46.3221 36.3924C46.3221 36.6003 46.426 36.7042 46.53 36.8082C46.53 36.8082 46.53 36.8082 46.6339 36.8082C47.0497 36.9121 47.8813 37.12 48.297 37.7437C48.401 37.8476 48.5049 38.0555 48.6089 38.1595C48.7128 38.3674 48.8168 38.5752 48.8168 38.8871C48.8168 38.991 48.8168 38.991 48.8168 38.991C48.8168 39.4068 48.7128 39.7186 48.6089 39.9265Z"
        fill="url(#paint4_radial)" />
    <path opacity="0.62"
        d="M24.8054 5.10492L24.9094 5.00098C24.8054 5.10492 24.7015 5.10492 24.7015 5.10492V5.20886C24.7015 5.20886 24.7015 5.20886 24.7015 5.10492H24.8054Z"
        fill="url(#paint5_radial)" />
    <path opacity="0.78"
        d="M10.1492 37.1202C8.79787 36.9123 5.57557 34.9374 6.19924 32.3387C6.82291 29.5322 8.38209 25.0626 9.62943 23.3994C10.9807 21.5284 13.4754 15.7075 14.4109 14.0444C14.6188 13.7325 15.3464 13.8365 15.3464 13.8365C15.3464 13.8365 19.2963 13.5247 22.4147 11.5497C23.2462 11.03 23.5581 9.15895 24.1818 8.01556C25.0133 7.80767 26.8843 8.43134 27.9238 11.2379C28.1317 11.7576 28.1317 10.0945 26.8843 8.43134C26.5725 8.01556 27.9238 7.39189 29.2751 8.01556C30.5224 8.53528 31.25 10.0945 31.354 10.1984C31.6658 10.6142 31.1461 9.57474 30.2106 8.22345C34.7842 6.56033 36.1354 13.7325 37.4867 16.747C39.6696 21.6324 41.4367 29.5322 42.58 32.4427C45.6984 40.2386 19.4003 38.6794 10.1492 37.1202Z"
        fill="url(#paint6_radial)" />
    <path opacity="0.62"
        d="M41.8524 34.3138C40.709 35.6651 38.5262 36.6006 35.8236 37.1203C28.0277 38.6795 15.7622 37.4322 10.5649 34.9375C9.31759 34.3138 8.07025 33.4823 8.38208 30.8836C8.79786 28.0771 9.94126 24.3351 11.0847 22.7759C12.6438 20.5931 15.2425 13.8366 15.2425 13.8366C15.2425 13.8366 20.3358 13.6287 22.6226 10.8222C23.0384 10.3025 23.3502 9.67882 23.766 8.63937C23.8699 8.43148 23.9739 8.22359 24.0778 8.0157C24.1818 8.0157 24.1818 8.0157 24.2857 8.0157C24.3896 8.0157 24.5975 8.0157 24.7015 8.0157C25.533 8.22359 26.3646 8.63937 27.0922 9.78277C27.1962 9.99066 27.3001 10.0946 27.4041 10.3025C27.508 10.5104 27.6119 10.8222 27.7159 11.1341C27.7159 11.238 27.7159 11.238 27.8198 11.238C27.9238 11.3419 27.7159 9.67882 26.8843 8.53543C26.7804 8.43148 26.7804 8.32754 26.6764 8.22359C26.6764 7.91175 26.9883 7.80781 27.3001 7.70386C27.9238 7.59992 28.8593 7.70386 29.2751 7.91176C30.2106 8.43148 30.6264 9.1591 30.7303 9.36699C30.8342 9.57488 30.9382 9.67882 31.0421 9.88671C31.0421 9.99066 31.1461 9.99066 31.25 10.0946C31.354 9.99066 30.4185 8.63937 30.2106 8.32754L30.1066 8.11965C31.25 7.70386 32.2895 7.91175 33.121 8.32754C33.3289 8.43148 33.5368 8.63937 33.7447 8.74332C35.7197 10.8222 37.4867 15.7076 37.5907 16.1234C38.4222 18.4102 41.5406 28.285 42.3722 30.9876C42.7879 32.3389 42.58 33.4823 41.8524 34.3138Z"
        fill="url(#paint7_radial)" />
    <path
        d="M24.3896 4.4812C23.2462 8.63901 17.4253 13.5244 13.6833 13.7323C18.9845 14.1481 24.0778 14.0442 24.3896 4.4812Z"
        fill="#262261" />
    <path
        d="M48.401 37.9516C48.1931 37.8477 48.0892 37.8477 47.9852 37.8477C46.426 37.6398 46.3221 39.9266 45.4905 40.3424C43.5156 41.1739 41.3327 39.4069 40.1893 39.8226C39.2538 40.1345 38.2144 41.1739 37.2789 41.4858C34.9921 42.2134 33.9526 41.5897 31.6658 40.7581C30.1066 40.1345 26.4685 41.4858 24.9094 42.0055C22.2068 42.8371 22.1029 41.5897 20.5437 41.2779C19.1924 41.07 18.4648 43.3568 17.3214 42.0055C15.9701 40.3424 15.5543 43.7726 11.8123 43.1489C10.6689 42.941 11.0847 41.2779 10.2531 41.2779C8.69392 41.1739 9.42154 43.3568 2.56115 41.7976C1.72959 41.5897 0.794083 40.2384 1.00197 39.095C1.10592 38.7832 1.20986 38.4713 1.41775 38.2635C1.62565 38.0556 1.83354 37.8477 2.14537 37.6398H2.24932C2.24932 37.5358 2.35326 37.4319 2.45721 37.4319C2.45721 37.4319 2.45721 37.4319 2.56115 37.5358C2.87299 37.9516 3.80849 40.1345 7.0308 40.1345C8.90181 40.1345 9.83732 40.1345 10.2531 40.3424C10.461 40.4463 10.6689 40.5503 10.7728 40.7581C10.8768 40.8621 10.8768 40.966 10.9807 41.07C12.8517 43.9805 13.9951 42.8371 14.7227 41.9015C14.9306 41.6937 15.0346 41.5897 15.1385 41.3818C15.2425 41.2779 15.2425 41.2779 15.3464 41.2779C16.178 40.4463 17.0095 40.2384 17.2174 40.7581C17.945 42.2134 18.7766 40.966 19.5042 40.3424C19.8161 40.1345 20.0239 39.9266 20.3358 39.9266C20.9595 40.0305 21.3752 40.7581 21.9989 40.966C22.7265 41.1739 23.4541 41.1739 24.1818 40.966C25.1173 40.6542 25.7409 39.9266 26.2607 39.5108C27.0922 38.7832 28.1317 38.8871 28.9632 39.199C29.0672 39.199 29.1711 39.3029 29.2751 39.4069C29.379 39.5108 29.483 39.5108 29.5869 39.6147C29.7948 39.7187 30.0027 39.8226 30.3145 39.9266C31.354 40.3424 32.3934 40.6542 33.5368 40.8621C34.4723 40.966 35.4078 40.966 36.2394 40.6542C36.3433 40.5503 36.5512 40.5503 36.6552 40.4463C37.1749 40.1345 37.7986 39.7187 38.4222 39.4069C38.838 39.199 39.2538 38.8871 39.6696 38.6792C39.9814 38.5753 40.2933 38.5753 40.5012 38.5753C42.0603 38.7832 43.9313 40.7581 45.3866 39.5108C45.6984 39.3029 46.0102 38.8871 46.3221 38.2635C46.426 37.9516 46.53 37.7437 46.6339 37.4319C46.6339 37.328 46.6339 37.224 46.6339 37.1201C46.6339 37.1201 46.6339 37.1201 46.6339 37.0161H46.7379C46.8418 37.0161 46.9458 37.0161 46.9458 37.1201C47.4655 37.224 47.7773 37.5358 47.9852 37.6398C48.0892 37.5358 48.1931 37.7437 48.401 37.9516Z"
        fill="#892759" />
    <path
        d="M5.57556 40.1343C5.47162 40.0304 2.97693 38.887 1.93748 39.6146C1.20986 40.2382 2.04143 41.1737 2.45721 41.5895H2.35326C1.93748 41.3816 0.482248 40.3422 1.20986 39.0948C1.93748 38.0554 4.01638 38.887 5.57556 40.1343Z"
        fill="url(#paint8_radial)" />
    <path
        d="M31.5619 40.862C31.6658 40.9659 30.6263 40.9659 30.0027 40.9659C28.1317 40.4462 24.9094 42.9409 23.4541 41.9014C23.2462 41.6935 23.0384 41.4856 22.8305 41.2777C24.4936 42.4211 30.3145 39.1988 31.5619 40.862Z"
        fill="#E76F81" />
    <path
        d="M4.74401 34.9375C4.84795 36.3927 7.34264 38.5756 8.90181 38.2637C9.83732 38.0559 10.2531 37.5361 10.9807 38.2637C11.5004 38.6795 11.7083 39.4071 11.9162 40.0308C12.1241 40.6545 12.7478 41.2782 13.3715 41.1742C14.0991 41.0703 15.4504 38.9914 16.074 38.8874C17.0095 38.7835 18.1529 39.719 19.1924 39.615C19.7121 39.5111 20.9595 38.8874 21.4792 39.4071C22.8305 40.8624 25.7409 38.0559 25.7409 38.3677C25.7409 38.6795 22.9344 41.9018 21.895 40.3427C20.8555 38.6795 19.8161 39.615 19.4003 39.9269C18.5687 40.3427 16.9056 39.3032 15.9701 39.3032C15.4504 39.3032 14.0991 40.9663 13.6833 41.4861C12.6438 42.5255 12.1241 40.9663 11.9162 40.5505C11.6044 39.9269 11.0847 38.9914 10.461 38.7835C9.21365 38.2637 9.31759 38.9914 7.96631 38.5756C4.32823 37.4322 4.74401 34.9375 4.74401 34.9375Z"
        fill="#A82671" />
    <path
        d="M30.3145 39.6148C31.5619 40.2385 33.121 40.6543 34.1605 40.4464C36.1354 40.1345 36.7591 38.3675 38.6301 37.9517C40.813 37.432 44.8668 39.8227 45.3866 37.7438C45.5945 37.1201 45.3866 36.2886 45.3866 36.2886C45.3866 36.8083 44.555 37.6399 44.2432 37.7438C41.9564 38.4714 40.3972 36.6004 38.2143 37.5359C37.071 38.0556 35.3039 39.4069 34.1605 39.7188C32.9131 39.9266 30.3145 39.6148 30.3145 39.6148Z"
        fill="#A82671" />
    <path
        d="M38.4222 19.4495C37.2788 17.3706 35.4078 9.88658 33.121 8.3274C32.2895 7.80768 31.25 7.70373 30.1066 8.11951C30.1066 8.11951 30.5224 8.74318 30.5224 8.84713C31.6658 8.3274 33.8486 9.36686 35.8236 13.7326C36.0315 14.2523 36.967 16.5391 37.7986 18.514C37.7986 18.514 38.7341 19.9693 38.4222 19.4495ZM31.25 10.0945L31.1461 9.88658C31.0421 9.67869 30.5224 8.63924 29.4829 8.11951C28.8593 7.80768 28.1316 7.70373 27.508 7.91162C27.1961 8.01557 26.7804 8.22346 26.8843 8.43135C26.9883 8.53529 26.9883 8.63924 27.0922 8.74318C28.9632 8.22346 30.7303 9.26291 31.25 10.0945C31.5618 10.6142 31.5618 10.7181 31.25 10.0945Z"
        fill="#E76F81" />
    <path
        d="M27.9238 11.3416C28.1317 12.0692 27.9238 11.5495 27.9238 11.5495C27.3001 9.88639 24.9094 8.32722 23.8699 8.63905C23.9738 8.43116 24.0778 8.22327 24.1817 8.01538C24.2857 8.01538 24.2857 8.01538 24.3896 8.01538C24.9094 8.01538 26.5725 8.22327 27.6119 10.4061C27.6119 10.718 27.9238 11.2377 27.9238 11.3416Z"
        fill="#E76F81" />
    <path
        d="M24.3896 4.4812C23.2462 8.63901 17.4253 13.5244 13.6833 13.7323C18.9845 14.1481 24.0778 14.0442 24.3896 4.4812Z"
        fill="url(#paint9_radial)" />
    <path
        d="M24.3896 4.4812C23.2462 8.63901 17.4253 13.5244 13.6833 13.7323C17.8411 13.4205 23.5581 14.2521 24.3896 4.4812Z"
        fill="white" />
    <path
        d="M23.4541 9.78255C21.9989 13.3167 19.0884 13.8364 16.8016 13.8364C16.6977 13.8364 16.5937 14.1483 16.6977 14.1483C17.7371 14.3562 21.791 14.1483 23.4541 9.78255C23.5581 9.6786 23.4541 9.6786 23.4541 9.78255Z"
        fill="#E76F81" />
    <path
        d="M15.8661 13.629C19.7121 13.2132 20.7515 12.2777 20.9594 12.0698C22.7265 10.6145 23.662 7.91196 23.662 7.0804C23.8699 6.14489 23.662 6.35278 23.1423 7.28829C22.6226 8.32775 18.6726 12.6935 15.7622 13.4211C15.4503 13.525 15.1385 13.525 15.2425 13.629C15.2425 13.629 15.6582 13.629 15.8661 13.629Z"
        fill="#312F68" />
    <path
        d="M35.8236 37.1203C42.3721 34.5216 40.813 30.5717 39.6696 25.2705C40.1893 26.4139 42.7879 32.2348 41.8524 34.2098C41.5406 35.0414 38.9419 36.6005 35.8236 37.1203Z"
        fill="#E76F81" />
    <path opacity="0.56"
        d="M33.9526 9.05509C33.8487 8.95114 33.6408 8.63931 33.3289 8.53536C32.8092 8.22353 32.2895 8.01564 31.6658 7.91169C31.1461 7.80775 30.5224 7.91169 30.0027 8.11958C30.3145 8.53536 30.5224 8.95114 30.7303 9.26298C31.1461 10.0945 31.4579 10.5103 31.1461 10.1985C31.0421 10.0945 30.8342 9.67876 30.7303 9.57481C30.5224 9.26298 29.8987 8.32747 29.0672 8.01564C27.508 7.49591 26.3646 8.11958 26.6764 8.43142C26.6764 8.53536 26.7804 8.53536 26.7804 8.63931C27.0922 9.15903 27.404 9.7827 27.6119 10.4064C27.7159 10.7182 27.8198 11.134 27.7159 11.3419C27.7159 11.3419 27.508 10.9261 27.508 10.8222C26.8843 9.57481 26.5725 9.15903 26.0528 8.74325C25.533 8.32747 25.2212 8.22353 24.5975 8.01564C24.4936 8.01564 24.3896 8.01564 24.2857 8.01564C24.1817 8.01564 24.1817 8.01564 24.0778 8.01564C23.9739 8.01564 23.9739 8.01564 23.9739 8.01564L23.766 8.53536C24.2857 7.08013 24.4936 5.83279 24.5975 5.41701C24.5975 5.31306 24.5975 5.31306 24.5975 5.20912V5.10517L24.7015 5.00123C25.2212 4.68939 25.7409 4.58545 26.3646 4.58545C26.7804 4.68939 27.3001 4.89728 27.6119 5.20912C27.8198 5.41701 27.9238 5.52095 28.0277 5.72885C27.7159 6.14463 27.508 6.97619 27.508 6.97619C27.8198 6.56041 28.1317 6.24857 28.4435 6.04068H28.5474C28.8593 5.93674 29.2751 5.83279 29.6908 5.83279C30.2106 5.83279 30.6263 5.93674 31.0421 6.14463C31.354 6.35252 31.6658 6.56041 31.9776 6.7683C32.1855 7.08013 32.4974 7.39197 32.7053 7.7038C33.4329 8.11958 33.7447 8.63931 33.9526 9.05509Z"
        fill="url(#paint10_linear)" />
    <path
        d="M35.1999 10.3021C35.1999 10.4061 34.6802 9.67847 34.1605 8.95086C33.8486 8.53508 33.5368 8.1193 33.225 7.80746C33.0171 7.49563 32.7052 7.18379 32.4974 6.87196C32.2895 6.56012 31.9776 6.35223 31.5618 6.24828C31.1461 6.04039 30.6263 5.93645 30.2106 5.93645C29.7948 5.93645 29.4829 6.04039 29.0672 6.14434C28.6514 6.35223 28.3395 6.76801 28.0277 7.07985C28.0277 7.07985 28.0277 7.07985 28.0277 6.9759C28.0277 6.87196 28.2356 6.24828 28.4435 5.93645C28.0277 5.41672 27.508 4.79305 26.5725 4.68911C26.0528 4.68911 25.4291 4.79305 24.9094 5.10489L24.8054 5.20883V5.31278C24.8054 5.31278 24.8054 5.41672 24.8054 5.52067C24.8054 5.93645 24.7015 6.66407 24.2857 8.1193C24.2857 8.22324 23.8699 9.15875 23.8699 9.0548C24.1817 8.01535 24.4936 6.04039 24.5975 4.58516C25.3251 4.27333 27.6119 3.44177 28.7553 5.62461C28.7553 5.72856 28.8593 5.72856 28.9632 5.72856C29.7948 5.10489 30.9382 4.897 32.6013 6.56012C33.121 7.07985 33.6408 7.70352 34.1605 8.32719C34.3684 8.95086 34.7841 9.57453 35.1999 10.3021Z"
        fill="#977280" />
    <path
        d="M7.55051 26.8292C7.55051 26.9332 7.44656 27.0371 7.44656 27.1411C7.34262 27.349 7.23867 27.5569 7.13473 27.7647C6.92684 28.1805 6.82289 28.5963 6.71895 29.116C6.51106 29.8436 6.30317 30.4673 6.09528 31.1949C5.99133 31.7147 5.88738 32.1304 5.78344 32.6502C5.78344 32.7541 5.78344 32.7541 5.78344 32.8581C5.78344 32.8581 5.78344 32.8581 5.78344 32.962C5.78344 33.066 5.78344 33.2738 5.78344 33.3778C5.78344 33.5857 5.78344 33.7936 5.78344 34.0015C5.78344 34.4172 5.78344 34.7291 5.78344 35.1449C5.78344 35.5606 5.78344 35.8725 5.67949 36.1843C5.67949 36.2883 5.57555 36.3922 5.4716 36.3922C5.4716 36.3922 4.74399 35.1449 4.74399 34.833C4.95188 34.7291 4.95188 34.5212 5.26371 32.5462C5.26371 32.4423 5.57555 31.2989 5.67949 30.7792C5.78344 30.4673 5.78344 30.2594 5.88738 29.9476C6.30317 28.7003 6.82289 27.4529 7.44656 26.3095V26.2056C7.44656 26.2056 7.55051 26.2056 7.55051 26.3095C7.65445 26.6213 7.65445 26.7253 7.55051 26.8292Z"
        fill="#7D1854" />
    <path
        d="M25.2212 5.31307C25.0133 5.41701 24.9094 5.52096 24.7015 5.6249C24.7015 5.41701 24.7015 5.10518 24.7015 5.10518C25.1172 4.89728 25.7409 4.58545 26.5725 4.58545C27.3001 4.58545 27.8198 5.10517 28.0277 5.31307C28.0277 5.31307 26.4685 4.37756 25.2212 5.31307Z"
        fill="#69505C" />
    <path
        d="M22.2068 9.0552C21.895 9.57493 21.6871 9.88676 20.7516 10.4065C20.5437 10.5104 18.6727 11.8617 18.4648 12.3814C18.3608 12.6933 19.0884 12.5893 20.3358 12.1736C21.0634 11.9657 20.7516 11.6538 21.2713 11.1341C21.791 10.7183 22.1028 10.4065 22.3107 9.15914C22.4147 9.0552 22.5186 8.53547 22.2068 9.0552Z"
        fill="#6966AB" />
    <path
        d="M40.2932 38.9912C41.3327 38.9912 42.8919 39.5109 42.58 39.4069C41.9564 39.303 41.1248 38.4714 40.2932 38.4714C39.3577 38.4714 37.9025 39.6148 38.2143 39.4069C38.3183 39.4069 39.3577 38.9912 40.2932 38.9912Z"
        fill="#E76F81" />
    <path
        d="M18.049 41.5896C18.6727 41.4856 19.4003 40.3422 19.5042 40.1343C19.1924 40.0304 18.6727 41.2777 17.8411 41.2777C17.4253 41.2777 17.1135 40.8619 17.0095 40.5501C17.1135 40.5501 17.5293 41.6935 18.049 41.5896Z"
        fill="#E76F81" />
    <g opacity="0.18">
        <path opacity="0.18"
            d="M5.57556 40.1348C5.47162 40.0308 2.97693 38.8874 1.93748 39.6151C1.72959 39.719 1.62564 39.9269 1.62564 40.1348C1.62564 40.1348 1.5217 40.0308 1.5217 39.9269C1.5217 39.823 1.5217 39.719 1.5217 39.6151C1.62564 39.4072 1.72959 39.3032 1.83353 39.1993C2.14537 38.9914 2.4572 38.9914 2.76904 38.8875C3.08088 38.8875 3.49666 38.8874 3.80849 38.9914C4.53611 39.4072 5.05584 39.719 5.57556 40.1348Z"
            fill="white" />
    </g>
    <path
        d="M48.6089 39.9267C48.401 40.2385 48.0891 40.6543 47.5694 40.8622H47.4655C47.4655 40.8622 47.4655 40.8622 47.3615 40.8622C47.1536 40.8622 46.6339 40.9662 46.7378 40.9662C46.7378 40.9662 46.7378 40.9662 46.8418 40.9662C46.9457 40.8622 47.0497 40.8622 47.2576 40.7583C48.7128 40.1346 48.401 38.2636 47.9852 37.8478C47.7773 37.6399 47.0497 37.536 46.5299 37.2241C46.426 37.1202 46.3221 37.1202 46.3221 37.0162C45.6984 35.9768 46.426 35.561 43.9313 33.2742C43.4116 32.8584 42.8919 31.4032 42.684 30.6756C42.684 30.5717 42.58 30.4677 42.58 30.3638L42.684 30.5717C42.684 30.5717 42.684 30.5717 42.684 30.6756C42.684 30.6756 42.684 30.6756 42.684 30.7795L42.7879 30.8835C42.8919 30.9874 42.8919 31.0914 42.8919 31.1953V31.2993C43.2037 31.9229 43.6195 32.5466 44.0353 33.1703C44.2432 33.4821 44.451 33.69 44.6589 33.8979C45.0747 34.2097 45.3866 34.4176 45.8023 34.8334C46.426 35.665 46.1142 36.6005 46.5299 36.7044H46.6339C46.7378 36.7044 46.8418 36.7044 46.8418 36.8084C47.3615 36.9123 47.6733 37.2241 47.8812 37.3281C48.0891 37.432 48.1931 37.6399 48.297 37.8478C48.401 37.9518 48.5049 38.1596 48.5049 38.2636C48.8167 38.7833 48.8167 39.407 48.6089 39.9267Z"
        fill="#F9CDD4" />
    <path
        d="M8.79785 28.1807C8.6939 28.2846 8.58996 28.3886 8.58996 28.5965C8.48601 28.7004 6.71894 32.5464 9.73335 35.0411C9.94124 35.145 10.9807 35.8726 11.3965 35.8726C11.8123 35.9766 12.228 35.7687 12.332 35.3529V35.2489C12.332 35.0411 12.4359 34.8332 12.228 34.7292C12.0201 34.6253 7.86234 33.6898 9.10968 28.8043C9.10968 28.7004 9.21363 28.4925 9.21363 28.3886C9.21363 28.2846 8.90179 28.0767 8.79785 28.1807Z"
        fill="#E76F81" />
    <path
        d="M20.1279 37.3281C21.895 37.536 25.2212 37.7438 25.637 37.7438C26.0528 37.7438 29.0672 37.7438 29.2751 37.7438C29.6908 37.6399 31.354 37.6399 31.4579 37.6399C31.9776 37.536 32.2895 37.6399 32.7053 37.536C32.6013 37.536 32.0816 37.2241 27.508 37.2241C21.3752 37.3281 20.3358 37.2241 20.1279 37.3281C19.92 37.3281 20.0239 37.3281 20.1279 37.3281Z"
        fill="#E76F81" />
    <path opacity="0.35"
        d="M10.9807 38.7833C12.4359 39.7189 12.332 42.4214 13.5793 41.4859C14.099 41.0701 15.6582 39.1991 16.178 39.1991C17.7371 39.1991 18.4647 40.1346 19.2963 39.8228C21.1673 38.9912 20.4397 38.9912 21.9989 40.3425C23.662 41.7978 24.0778 37.6399 27.0922 38.2636C29.7948 38.7833 32.8092 42.3175 36.4473 38.8873C37.2788 38.0557 38.6301 36.8084 39.9814 37.3281C43.2037 38.4715 46.1142 40.2386 45.1787 35.8729C45.0747 35.561 46.2181 36.6005 46.0102 37.4321C45.3865 40.4465 44.0353 40.5504 40.6051 38.5755C38.5262 37.3281 37.7986 42.0057 31.354 40.3425C29.7948 39.9267 28.1316 38.1597 26.3646 39.1991C24.0778 40.5504 23.0383 42.3175 21.5831 40.9662C18.7766 38.2636 18.3608 42.8372 17.1135 40.8623C16.178 39.3031 14.8267 42.3175 13.1635 42.7333C11.9162 43.1491 10.8767 40.8623 10.0452 40.3425C9.10968 39.8228 7.44656 40.7583 4.12031 39.407C3.18481 38.9912 1.31379 36.2887 4.64004 35.1453C4.84793 35.0413 4.43215 37.7439 7.96628 38.5755C9.10968 38.6794 9.73335 38.0557 10.9807 38.7833Z"
        fill="black" />
    <path
        d="M1.62564 40.2384C1.62564 40.7581 2.14537 41.3818 2.45721 41.6936C2.45721 41.5897 2.35326 41.5897 2.35326 41.5897C1.93748 41.3818 0.482248 40.3423 1.20986 39.095C1.72959 38.3674 2.76904 38.5753 3.91244 39.095C4.53611 39.4068 5.05583 39.7187 5.57556 40.1344C5.47162 40.0305 2.97693 38.8871 1.93748 39.6147C1.72959 39.8226 1.62564 40.0305 1.62564 40.2384Z"
        fill="#E76F81" />
    <path
        d="M33.121 7.80761C33.0171 7.80761 33.0171 7.70366 33.0171 7.70366C32.1855 6.97604 30.8342 5.62474 28.9632 6.45631C28.4435 6.6642 27.9238 7.28788 27.9238 7.18393C28.5475 6.35237 28.8593 6.24842 28.9632 6.24842C29.2751 6.14447 29.6909 6.04053 30.1066 6.04053C30.6264 6.04053 31.0421 6.14447 31.4579 6.35236C31.4579 6.14447 32.1855 6.35237 33.121 7.80761Z"
        fill="#69505C" />
    <path
        d="M14.7227 14.9799C20.4397 12.1734 23.1423 19.9693 23.5581 19.1377C28.7553 9.47085 39.9814 17.4746 36.0315 24.5429C34.992 26.4139 33.7447 28.5967 28.0277 27.0376C27.1961 26.8297 23.8699 24.8547 23.3502 25.1666C13.3714 31.0914 9.94125 25.9981 9.42152 23.9192C10.7728 21.9443 14.3069 15.6036 14.7227 14.9799Z"
        fill="#C2242D" />
    <path
        d="M46.2181 39.511C46.3221 39.407 46.3221 39.407 46.8418 38.7834C47.3615 38.1597 47.8812 38.3676 47.7773 37.9518C47.6733 37.3281 46.7378 37.8478 46.2181 39.1991C46.1142 39.407 46.1142 39.407 46.2181 39.511C46.1142 39.511 46.1142 39.511 46.2181 39.511Z"
        fill="#E76F81" />
    <path
        d="M10.2531 40.1347C10.8768 40.3426 11.5004 41.486 11.6044 41.7978C11.0847 41.1742 10.6689 40.8623 10.1492 40.4465C9.83732 40.2387 9.3176 40.1347 9.00576 40.0308C8.90182 40.0308 9.73338 40.0308 10.2531 40.1347Z"
        fill="#E76F81" />
    <path
        d="M36.1354 21.113C36.1354 21.113 36.2394 25.3748 33.0171 26.4142C29.7948 27.4537 24.4936 27.2458 24.2857 21.217L36.1354 21.113Z"
        fill="white" />
    <path
        d="M30.6848 24.1111C31.153 22.9382 30.4953 21.5733 29.2157 21.0625C27.9362 20.5518 26.5194 21.0886 26.0512 22.2615C25.583 23.4344 26.2408 24.7993 27.5203 25.31C28.7998 25.8208 30.2167 25.284 30.6848 24.1111Z"
        fill="#080018" />
    <path
        d="M28.9062 23.7741C29.018 23.5097 28.8086 23.1685 28.4385 23.0119C28.0684 22.8554 27.6777 22.9428 27.5659 23.2071C27.4541 23.4715 27.6634 23.8127 28.0336 23.9693C28.4037 24.1258 28.7943 24.0384 28.9062 23.7741Z"
        fill="white" />
    <path
        d="M27.3575 22.7378C27.4023 22.6321 27.31 22.4919 27.1513 22.4248C26.9927 22.3577 26.8279 22.3891 26.7831 22.4948C26.7384 22.6006 26.8307 22.7407 26.9893 22.8078C27.148 22.8749 27.3128 22.8435 27.3575 22.7378Z"
        fill="white" />
    <path opacity="0.58"
        d="M24.1817 21.5284C23.3502 16.7469 36.0315 18.2021 36.1354 21.5284C36.1354 21.7363 36.1354 22.256 36.0315 22.3599C36.1354 22.3599 24.2857 21.7363 24.1817 21.5284Z"
        fill="url(#paint11_linear)" />
    <path
        d="M24.1817 21.2162C24.1817 21.2162 23.9739 14.148 30.7303 14.6677C33.121 14.8756 36.2394 16.5387 37.2788 21.0084L24.1817 21.2162Z"
        fill="#580C48" />
    <path
        d="M24.1817 21.2162C24.1817 21.2162 23.9739 14.148 30.7303 14.6677C33.121 14.8756 36.2394 16.5387 37.2788 21.0084L24.1817 21.2162Z"
        fill="url(#paint12_linear)" />
    <path d="M23.9738 21.0086C23.9738 21.0086 37.0709 16.8508 37.1749 21.0086H23.9738Z" fill="url(#paint13_linear)" />
    <path
        d="M23.9738 21.3203C24.4936 21.3203 25.0133 21.4243 25.533 21.3203C26.0528 21.3203 26.4685 21.3203 26.9883 21.3203C27.3001 21.3203 27.508 21.3203 27.8198 21.3203C27.9238 21.3203 28.1317 21.3203 28.2356 21.3203C28.3395 21.3203 28.5474 21.3203 28.6514 21.3203C29.2751 21.3203 29.8987 21.3203 30.4184 21.3203H32.1855C32.7052 21.3203 33.3289 21.3203 33.8486 21.3203C34.3684 21.3203 34.7841 21.3203 35.3039 21.3203C35.8236 21.3203 36.4473 21.3203 36.967 21.3203H37.0709C37.2788 21.3203 37.4867 21.1124 37.4867 20.9045C37.4867 20.6967 37.2788 20.4888 37.0709 20.4888C36.5512 20.4888 36.1354 20.4888 35.6157 20.4888C35.096 20.4888 34.6802 20.4888 34.2644 20.5927C33.7447 20.5927 33.225 20.5927 32.6013 20.6967C31.354 20.6967 30.2106 20.6967 28.9632 20.8006C28.4435 20.8006 27.8198 20.9045 27.3001 20.9045C26.7804 20.9045 26.2606 20.9045 25.8449 20.9045C25.2212 20.9045 24.5975 20.9045 23.9738 20.9045H23.8699C23.8699 21.2164 23.8699 21.3203 23.9738 21.3203Z"
        fill="#0B0018" />
    <path
        d="M34.992 17.1626C34.8881 17.5784 32.8092 16.0192 30.8342 15.8113C28.9632 15.6034 27.7159 16.0192 27.7159 15.6034C27.7159 15.1876 29.275 14.7718 30.8342 14.8758C32.4974 15.0837 35.096 16.7468 34.992 17.1626Z"
        fill="#CB5474" />
    <path opacity="0.75"
        d="M22.5186 21.2166C22.8305 22.4639 22.3107 25.8941 19.0884 26.9335C15.3464 28.0769 10.357 27.869 10.0452 21.3205L22.5186 21.2166Z"
        fill="url(#paint14_radial)" />
    <g opacity="0.33">
        <path opacity="0.33"
            d="M16.074 26.6219C19.816 26.8298 21.895 24.3351 21.6871 21.3207C21.6871 21.1128 22.3107 21.1128 22.3107 21.3207C22.4147 22.3602 21.895 27.2456 15.9701 26.8298C15.9701 26.8298 15.9701 26.6219 16.074 26.6219Z"
            fill="#231F20" />
    </g>
    <g opacity="0.33">
        <path opacity="0.33"
            d="M16.074 26.6219C19.816 26.8298 21.895 24.3351 21.6871 21.3207C21.6871 21.1128 22.3107 21.1128 22.3107 21.3207C22.4147 22.3602 21.895 27.2456 15.9701 26.8298C15.9701 26.8298 15.9701 26.6219 16.074 26.6219Z"
            fill="#231F20" />
    </g>
    <g opacity="0.33">
        <path opacity="0.33"
            d="M31.0421 26.9336C27.3001 27.1414 24.4936 24.4389 24.7015 21.4245C24.7015 21.2166 24.2857 21.2166 24.2857 21.4245C24.1818 22.4639 24.7015 27.3493 30.6264 26.9336C30.7303 26.9336 31.354 26.8296 31.25 26.8296L31.0421 26.9336Z"
            fill="#231F20" />
    </g>
    <g opacity="0.33">
        <path opacity="0.33"
            d="M34.6802 23.919C34.6802 23.919 34.7842 23.815 34.6802 23.919C34.6802 23.815 34.6802 23.815 34.6802 23.815C34.6802 23.815 34.6802 23.815 34.6802 23.7111C34.6802 23.7111 34.6802 23.7111 34.6802 23.6071C34.6802 23.5032 34.5763 23.5032 34.4723 23.5032C34.3684 23.5032 34.3684 23.5032 34.2644 23.6071C34.2644 23.6071 34.2644 23.6071 34.2644 23.7111C34.2644 23.815 34.2644 23.7111 34.2644 23.815V23.919C34.4723 24.0229 34.5763 24.0229 34.6802 23.919Z"
            fill="#E76F81" />
    </g>
    <g opacity="0.33">
        <path opacity="0.33"
            d="M34.8881 23.1919C34.992 23.088 34.992 23.088 35.096 22.9841C35.1999 22.8801 35.1999 22.7762 35.1999 22.6722C35.1999 22.5683 35.3039 22.4643 35.3039 22.2564C35.3039 22.1525 35.3039 21.9446 35.3039 21.8407C35.3039 21.7367 35.1999 21.7367 35.096 21.8407C34.992 21.9446 35.096 22.0485 34.992 22.2564C34.992 22.3604 34.992 22.4643 34.8881 22.5683C34.8881 22.6722 34.8881 22.7762 34.7842 22.8801C34.7842 22.9841 34.6802 23.088 34.6802 23.088C34.6802 23.1919 34.6802 23.1919 34.6802 23.1919C34.8881 23.1919 34.8881 23.1919 34.8881 23.1919Z"
            fill="#E76F81" />
    </g>
    <path
        d="M10.5649 21.113C10.5649 21.113 10.461 25.3748 13.6833 26.4142C16.9056 27.4537 22.2068 27.2458 22.4147 21.217L10.5649 21.113Z"
        fill="white" />
    <path
        d="M19.2222 25.3986C20.5018 24.8879 21.1595 23.523 20.6913 22.3501C20.2231 21.1772 18.8063 20.6404 17.5268 21.1512C16.2473 21.6619 15.5895 23.0268 16.0577 24.1997C16.5259 25.3726 17.9427 25.9094 19.2222 25.3986Z"
        fill="#080018" />
    <path
        d="M18.6714 23.9971C19.0415 23.8405 19.2508 23.4993 19.139 23.2349C19.0272 22.9706 18.6365 22.8832 18.2664 23.0398C17.8963 23.1963 17.6869 23.5376 17.7987 23.8019C17.9106 24.0663 18.3012 24.1537 18.6714 23.9971Z"
        fill="white" />
    <path
        d="M19.6732 22.7666C19.8318 22.6995 19.9241 22.5594 19.8794 22.4536C19.8346 22.3479 19.6698 22.3165 19.5112 22.3836C19.3526 22.4507 19.2602 22.5908 19.305 22.6966C19.3497 22.8023 19.5145 22.8337 19.6732 22.7666Z"
        fill="white" />
    <g opacity="0.33">
        <path opacity="0.33"
            d="M15.6582 26.8294C19.4003 27.0373 22.2068 24.7505 22.2068 21.3203C22.2068 21.1125 22.5186 21.2164 22.5186 21.4243C22.6226 22.4637 22.1028 27.3492 16.178 26.9334C16.074 26.9334 15.4504 26.8294 15.5543 26.8294H15.6582Z"
            fill="#231F20" />
    </g>
    <g opacity="0.33">
        <path opacity="0.33"
            d="M10.9807 21.5282C11.0847 21.3203 10.5649 21.3203 10.5649 21.5282C10.461 22.5677 11.1886 26.6215 14.9306 26.8294C11.8123 26.4137 10.6689 22.4637 10.9807 21.5282Z"
            fill="#231F20" />
    </g>
    <path opacity="0.58"
        d="M22.5186 21.5284C23.3502 16.7469 10.5649 18.2021 10.5649 21.5284C10.5649 21.7363 10.5649 22.256 10.6689 22.3599C10.6689 22.3599 22.4147 21.7363 22.5186 21.5284Z"
        fill="url(#paint15_linear)" />
    <g opacity="0.33">
        <path opacity="0.33"
            d="M12.332 23.919C12.332 23.919 12.332 23.815 12.332 23.919C12.332 23.815 12.332 23.815 12.332 23.815C12.332 23.815 12.332 23.815 12.332 23.7111C12.332 23.7111 12.332 23.7111 12.332 23.6071C12.332 23.5032 12.228 23.5032 12.1241 23.5032C12.0201 23.5032 12.0201 23.5032 11.9162 23.6071C11.9162 23.6071 11.9162 23.6071 11.9162 23.7111C11.9162 23.815 11.9162 23.7111 11.9162 23.815V23.919C12.0201 24.0229 12.1241 24.0229 12.332 23.919Z"
            fill="#E76F81" />
    </g>
    <g opacity="0.33">
        <path opacity="0.33"
            d="M11.9162 23.088C11.9162 22.9841 11.8123 22.9841 11.8123 22.8801C11.8123 22.7762 11.7083 22.6722 11.7083 22.5683C11.7083 22.4643 11.7083 22.3604 11.6044 22.2564C11.6044 22.1525 11.6044 21.9446 11.5004 21.8407C11.5004 21.7367 11.3965 21.7367 11.2925 21.8407C11.1886 21.9446 11.2925 22.1525 11.2925 22.2564C11.2925 22.3604 11.2925 22.5683 11.3965 22.6722C11.3965 22.7762 11.5004 22.8801 11.5004 22.9841C11.6044 23.088 11.6044 23.088 11.7083 23.1919H11.8123C11.9162 23.1919 12.0202 23.088 11.9162 23.088Z"
            fill="#E76F81" />
    </g>
    <path
        d="M22.6226 21.2162C22.6226 21.2162 22.8305 14.148 16.074 14.6677C13.6833 14.8756 10.5649 16.5387 9.52548 21.0084L22.6226 21.2162Z"
        fill="#580C48" />
    <path
        d="M22.6226 21.2162C22.6226 21.2162 22.8305 14.148 16.074 14.6677C13.6833 14.8756 10.5649 16.5387 9.52548 21.0084L22.6226 21.2162Z"
        fill="url(#paint16_linear)" />
    <path d="M22.7265 21.0086C22.7265 21.0086 9.62943 16.8508 9.52548 21.0086H22.7265Z" fill="url(#paint17_linear)" />
    <path
        d="M22.7265 21.3203C22.2068 21.3203 21.6871 21.4243 21.1673 21.3203C20.6476 21.3203 20.2318 21.3203 19.7121 21.3203C19.4003 21.3203 19.1924 21.3203 18.8805 21.3203C18.7766 21.3203 18.5687 21.3203 18.4648 21.3203C18.3608 21.3203 18.1529 21.3203 18.049 21.3203C17.4253 21.3203 16.8016 21.3203 16.2819 21.3203H14.5148C13.9951 21.3203 13.3714 21.3203 12.8517 21.3203C12.332 21.3203 11.9162 21.3203 11.3965 21.3203C10.8768 21.3203 10.2531 21.3203 9.73336 21.3203H9.62942C9.42153 21.3203 9.21364 21.1124 9.21364 20.9045C9.21364 20.6967 9.42153 20.4888 9.62942 20.4888C10.1491 20.4888 10.5649 20.4888 11.0847 20.4888C11.6044 20.4888 12.0202 20.4888 12.4359 20.5927C12.9557 20.5927 13.4754 20.5927 14.0991 20.6967C15.3464 20.6967 16.4898 20.6967 17.7371 20.8006C18.2569 20.8006 18.8805 20.9045 19.4003 20.9045C19.92 20.9045 20.4397 20.9045 20.8555 20.9045C21.4792 20.9045 22.1028 20.9045 22.7265 20.9045H22.8305C22.8305 21.2164 22.8305 21.3203 22.7265 21.3203Z"
        fill="#0B0018" />
    <path
        d="M20.1279 16.3313C20.024 16.7471 18.6727 16.3313 17.1135 16.1234C15.5543 15.9155 13.7872 16.2273 13.8912 15.8116C13.9951 15.3958 15.7622 14.7721 17.3214 14.98C18.8806 15.084 20.2318 15.9155 20.1279 16.3313Z"
        fill="#CB5474" />
    <path
        d="M34.9921 29.8438C35.096 31.403 35.096 32.4424 34.3684 32.8582C33.9526 33.0661 33.7447 33.378 33.4329 33.4819C32.9131 33.7937 32.2895 34.0016 31.6658 34.2095C21.4792 38.3673 13.2675 33.378 13.2675 33.378C12.332 32.9622 11.3965 32.0267 11.3965 31.403C11.3965 29.9478 11.0847 28.3886 10.357 27.0373C10.357 26.9334 10.357 26.9334 10.461 26.8294H10.5649C14.8267 28.2847 19.8161 28.9083 23.5581 28.7004C30.6264 28.2847 35.7197 26.1018 35.7197 26.1018C35.3039 27.8689 34.8881 28.2847 34.9921 29.8438Z"
        fill="#EF7D92" />
    <path
        d="M13.3714 33.4821C12.4359 33.0664 11.5004 32.1309 11.5004 31.5072C11.5004 30.0519 11.1886 28.4928 10.461 27.1415C10.461 27.0375 10.461 27.0375 10.5649 26.9336H10.6689C14.8267 28.4928 13.3714 33.4821 13.3714 33.4821Z"
        fill="#F9CDD4" />
    <path
        d="M34.6802 32.5466C34.5763 32.6506 34.4723 32.7545 34.3684 32.8585C34.4723 32.7545 34.5763 32.7545 34.5763 32.6506C34.5763 32.5466 34.6802 32.5466 34.6802 32.5466Z"
        fill="#F497A9" />
    <path
        d="M40.3972 22.5679C36.967 27.2455 22.3107 32.027 7.65445 25.7902C7.55051 25.6863 7.44656 25.2705 7.44656 25.2705C24.0778 32.5467 39.0459 24.7508 40.2932 22.2561C40.3972 22.36 40.3972 22.464 40.3972 22.5679Z"
        fill="#F3A095" />
    <path
        d="M40.3972 22.5677C38.942 24.4387 35.7197 26.4136 31.354 27.661C25.0133 29.428 28.3395 28.4925 34.3684 26.1018C37.6946 24.8544 39.8775 23.2953 40.2932 22.4637C40.3972 22.3598 40.3972 22.4637 40.3972 22.5677Z"
        fill="#F9CDD4" />
    <path
        d="M39.3577 23.6074C38.942 23.9192 38.5262 24.2311 38.1104 24.5429C37.6946 24.8547 37.2788 25.0626 36.8631 25.2705C36.4473 25.4784 35.9275 25.7902 35.5118 25.9981C33.0171 26.9336 21.8949 30.8835 10.9807 27.0376C10.9807 27.0376 9.8373 26.6218 9.31758 26.5178C9.10969 26.4139 8.79785 26.31 8.58996 26.206C8.38207 26.1021 8.07024 25.9981 7.86235 25.8942H7.7584H7.65445C7.55051 25.8942 7.55051 25.7902 7.55051 25.7902C7.44656 25.6863 7.44656 25.5823 7.44656 25.4784C7.44656 25.3744 7.44656 25.2705 7.44656 25.0626C7.44656 24.9587 7.44656 24.9587 7.55051 24.8547C7.55051 24.7508 7.55051 24.7508 7.65445 24.6468C7.65445 24.7508 7.55051 24.7508 7.55051 24.8547C7.55051 24.9587 7.55051 24.9587 7.44656 25.0626C7.44656 25.1666 7.44656 25.2705 7.44656 25.4784C7.44656 25.6863 7.44656 25.7902 7.55051 25.8942C7.55051 25.9981 7.65445 25.9981 7.65445 25.9981C8.27813 26.5178 10.8768 27.7652 11.0846 27.9731C11.2925 28.7007 11.6044 30.1559 11.7083 31.7151C11.7083 32.3388 12.332 32.8585 13.3714 33.3782C13.3714 33.3782 21.1673 31.7151 33.121 33.1703H33.225C34.2644 32.7545 34.5763 31.923 34.5763 31.0914C34.5763 31.0914 34.2644 28.3889 35.7197 26.5178C37.4867 25.6863 39.1498 24.2311 39.5656 23.9192C39.8775 23.6074 40.1893 23.0877 40.3972 22.6719C40.0854 22.8798 39.7735 23.2955 39.3577 23.6074Z"
        fill="#080018" />
    <path opacity="0.6"
        d="M34.0565 31.2991C34.0565 32.1307 34.4723 33.0662 33.4329 33.482C22.3107 32.2346 13.6833 33.5859 13.6833 33.5859C12.7478 33.1701 12.0202 32.6504 12.0202 32.0267C11.9162 29.9478 11.3965 27.765 11.3965 27.765C15.4503 29.2202 19.816 29.7399 24.0778 29.532C31.1461 29.1163 35.5118 27.0374 35.5118 27.0374C33.8486 29.2202 34.0565 31.2991 34.0565 31.2991Z"
        fill="url(#paint18_radial)" />
    <path
        d="M33.121 33.0664C33.121 33.0664 29.379 34.3137 27.7159 34.5216C19.4003 35.8729 13.2675 33.1703 13.2675 33.1703C15.6582 31.819 17.4253 31.0914 18.8805 30.7796C20.7516 30.3638 21.791 30.6756 22.3107 30.8835C22.6226 31.0914 22.9344 30.9875 23.1423 30.8835C23.662 30.5717 24.9094 30.2598 27.508 30.8835C29.0672 31.2993 30.8342 31.923 33.121 33.0664Z"
        fill="#4F0B31" />
    <path
        d="M35.1999 27.1414C35.096 27.5571 34.3684 28.2848 31.8737 29.0124C29.5869 29.636 24.9094 29.74 21.3752 29.74C17.3214 29.636 13.9951 29.4282 13.5793 29.4282C12.9557 29.3242 12.1241 28.3887 11.8123 27.9729C13.4754 28.5966 18.8805 29.3242 23.766 29.2203C26.3646 29.1163 29.379 28.4926 31.354 27.9729C33.3289 27.4532 34.7842 26.8295 35.096 26.7256C35.1999 26.7256 35.1999 26.9335 35.1999 27.1414Z"
        fill="white" />
    <path
        d="M35.1999 26.5178C35.096 26.5178 33.5368 27.1415 31.354 27.7652C29.379 28.2849 26.3646 29.0125 23.766 29.0125C23.5581 29.0125 23.2462 29.0125 23.0383 29.0125C18.1529 29.0125 12.9557 28.1809 11.6044 27.5573L11.2925 27.4533L11.5004 27.6612C11.6044 27.7652 12.7478 29.3243 13.5793 29.4283C13.8912 29.5322 15.4503 29.6362 17.6332 29.6362H17.7371C19.2963 29.7401 21.0634 29.7401 22.8305 29.7401C26.3646 29.7401 29.8987 29.5322 31.8737 29.0125L32.1855 28.9086C33.225 28.5967 33.9526 28.2849 34.4723 27.9731C34.8881 27.6612 35.1999 27.3494 35.3039 27.0375C35.4078 26.9336 35.3039 26.6218 35.1999 26.5178ZM35.1999 27.1415C35.096 27.3494 34.992 27.6612 34.4723 27.9731C34.4723 27.7652 34.4723 27.6612 34.3684 27.5573C34.2644 27.3494 34.0565 27.5573 34.1605 27.6612C34.2644 27.7652 34.2644 27.8691 34.2644 28.077V28.1809C33.6408 28.4928 33.0171 28.8046 32.2895 29.0125C32.3934 28.8046 32.3934 28.5967 32.3934 28.2849C32.3934 28.077 32.0816 28.077 32.0816 28.2849C32.0816 28.4928 32.0816 28.8046 31.8737 29.0125C31.8737 29.0125 31.8737 29.0125 31.8737 29.1164C29.5869 29.7401 24.9094 29.8441 21.3752 29.8441C20.1279 29.8441 18.8805 29.7401 17.8411 29.7401V29.6362C17.7371 29.5322 17.6332 29.4283 17.4253 29.3243C17.3214 29.3243 17.2174 29.3243 17.2174 29.4283C17.2174 29.5322 17.2174 29.5322 17.2174 29.6362C17.3214 29.6362 17.3214 29.7401 17.4253 29.7401C15.3464 29.6362 13.7872 29.5322 13.5793 29.5322C12.9557 29.4283 12.1241 28.4928 11.8123 28.077C13.4754 28.7007 18.8805 29.4283 23.766 29.3243C26.3646 29.2204 29.379 28.5967 31.354 28.077C33.3289 27.5573 34.7841 26.9336 35.096 26.8297C35.1999 26.7257 35.1999 26.9336 35.1999 27.1415Z"
        fill="#0B0018" />
    <path opacity="0.23"
        d="M11.6044 27.6612C11.6044 27.6612 12.8517 29.2203 13.6833 29.3243C14.5148 29.4282 27.3001 30.1558 31.6658 28.8046C35.096 27.7651 34.4723 26.8296 34.4723 26.8296C34.4723 26.8296 28.8593 28.8046 23.766 28.9085C18.6726 29.0124 12.8517 28.2848 11.6044 27.6612Z"
        fill="url(#paint19_radial)" />
    <g opacity="0.18">
        <path opacity="0.18"
            d="M31.7697 27.1413C31.8737 27.1413 31.8737 27.1413 31.7697 27.1413C31.8737 27.0374 31.7697 27.0374 31.7697 27.0374C31.7697 27.0374 31.7697 27.0374 31.7697 27.1413Z"
            fill="white" />
    </g>
    <path
        d="M33.121 33.0664C33.121 33.0664 29.379 34.3137 27.7159 34.5216C19.4003 35.8729 13.2675 33.1703 13.2675 33.1703C15.6582 31.819 17.4253 31.0914 18.8805 30.7796C20.7516 30.3638 21.791 30.6756 22.3107 30.8835C22.6226 31.0914 22.9344 30.9875 23.1423 30.8835C23.662 30.5717 24.9094 30.2598 27.508 30.8835C29.0672 31.2993 30.8342 31.923 33.121 33.0664Z"
        fill="url(#paint20_radial)" />
    <path
        d="M16.5937 32.3385C16.2819 33.17 20.5436 32.5464 21.2713 31.9227C21.9989 31.1951 20.2318 30.9872 19.0884 31.1951C17.5292 31.5069 16.6977 31.7148 16.5937 32.3385Z"
        fill="#E76F81" />
    <path
        d="M27.7159 31.9232C27.3001 32.8587 23.4541 32.6508 23.8699 31.7153C24.0778 31.0916 25.2212 30.7798 25.9488 30.8837C26.7804 31.0916 28.0277 31.2995 27.7159 31.9232Z"
        fill="#E76F81" />
    <path opacity="0.24"
        d="M27.6119 30.8835C26.5725 30.7796 23.5581 30.0519 23.0383 32.7545C22.5186 30.4677 20.8555 30.7796 18.8805 30.7796C20.7516 30.3638 21.791 30.6756 22.3107 30.8835C22.6226 31.0914 22.9344 30.9875 23.1423 30.8835C23.766 30.5717 25.0133 30.2598 27.6119 30.8835Z"
        fill="#541223" />
    <path
        d="M26.0528 35.7688C29.5869 35.7688 33.7447 34.0017 34.5763 32.6504C32.4974 34.2096 29.483 35.249 26.0528 35.7688Z"
        fill="#F9CDD4" />
    <path opacity="0.2"
        d="M32.8325 24.7406C32.9937 24.0119 32.1246 23.2001 30.8915 22.9274C29.6583 22.6548 28.528 23.0244 28.3669 23.7531C28.2058 24.4818 29.0748 25.2936 30.308 25.5662C31.5411 25.8389 32.6714 25.4692 32.8325 24.7406Z"
        fill="white" />
    <path opacity="0.2"
        d="M16.4652 25.5117C17.677 25.1559 18.489 24.287 18.2787 23.5709C18.0685 22.8549 16.9157 22.5628 15.7039 22.9186C14.4921 23.2743 13.6802 24.1432 13.8904 24.8593C14.1006 25.5754 15.2534 25.8674 16.4652 25.5117Z"
        fill="white" />
    <path opacity="0.75"
        d="M22.5186 21.2166C23.0383 23.9191 21.0634 26.6217 18.3608 27.1414C14.7227 27.7651 10.7728 26.9336 10.5649 21.5284L22.5186 21.2166Z"
        fill="url(#paint21_radial)" />
    <path opacity="0.75"
        d="M24.3896 21.113C23.8699 23.8156 25.8449 26.5182 28.5475 26.83C32.1855 27.2458 36.0315 26.6221 36.2394 21.3209L24.3896 21.113Z"
        fill="url(#paint22_radial)" />
    <defs>
        <radialGradient id="paint0_radial" cx="0" cy="0" r="1" gradientUnits="userSpaceOnUse"
            gradientTransform="translate(26.5167 30.6744) rotate(-1.55206) scale(28.2781 28.664)">
            <stop offset="0.37" stop-color="#BAD68E" />
            <stop offset="0.86" stop-color="#6DCDF6" />
        </radialGradient>
        <radialGradient id="paint1_radial" cx="0" cy="0" r="1" gradientUnits="userSpaceOnUse"
            gradientTransform="translate(27.2479 4.53609) scale(0.0649344)">
            <stop offset="0.24" stop-color="white" stop-opacity="0" />
            <stop offset="0.35" stop-color="#E7B9BB" stop-opacity="0.23" />
            <stop offset="0.47" stop-color="#D27D7F" stop-opacity="0.44" />
            <stop offset="0.59" stop-color="#C14D51" stop-opacity="0.6" />
            <stop offset="0.71" stop-color="#B52B2F" stop-opacity="0.71" />
            <stop offset="0.83" stop-color="#AE171C" stop-opacity="0.78" />
            <stop offset="0.96" stop-color="#AC1015" stop-opacity="0.8" />
        </radialGradient>
        <radialGradient id="paint2_radial" cx="0" cy="0" r="1" gradientUnits="userSpaceOnUse"
            gradientTransform="translate(27.3619 4.67297) scale(0.121933)">
            <stop offset="0.24" stop-color="white" stop-opacity="0" />
            <stop offset="0.35" stop-color="#E7B9BB" stop-opacity="0.23" />
            <stop offset="0.47" stop-color="#D27D7F" stop-opacity="0.44" />
            <stop offset="0.59" stop-color="#C14D51" stop-opacity="0.6" />
            <stop offset="0.71" stop-color="#B52B2F" stop-opacity="0.71" />
            <stop offset="0.83" stop-color="#AE171C" stop-opacity="0.78" />
            <stop offset="0.96" stop-color="#AC1015" stop-opacity="0.8" />
        </radialGradient>
        <radialGradient id="paint3_radial" cx="0" cy="0" r="1" gradientUnits="userSpaceOnUse"
            gradientTransform="translate(29.8727 21.1161) scale(21.4608)">
            <stop offset="0.48" stop-color="#D04C5E" stop-opacity="0.5" />
            <stop offset="0.57" stop-color="#C44860" stop-opacity="0.45" />
            <stop offset="0.73" stop-color="#A33F66" stop-opacity="0.31" />
            <stop offset="0.93" stop-color="#6F306F" stop-opacity="0.08" />
            <stop offset="1" stop-color="#5B2A73" stop-opacity="0" />
        </radialGradient>
        <radialGradient id="paint4_radial" cx="0" cy="0" r="1" gradientUnits="userSpaceOnUse"
            gradientTransform="translate(29.943 21.1178) scale(31.8952)">
            <stop offset="0.16" stop-color="white" stop-opacity="0" />
            <stop offset="0.24" stop-color="#DACBD3" stop-opacity="0.21" />
            <stop offset="0.42" stop-color="#9D778C" stop-opacity="0.56" />
            <stop offset="0.59" stop-color="#723B5A" stop-opacity="0.8" />
            <stop offset="0.76" stop-color="#58173B" stop-opacity="0.95" />
            <stop offset="0.95" stop-color="#4F0B31" />
        </radialGradient>
        <radialGradient id="paint5_radial" cx="0" cy="0" r="1" gradientUnits="userSpaceOnUse"
            gradientTransform="translate(23.4053 10.2044) rotate(90) scale(0.112691 0.348326)">
            <stop offset="0.06" stop-color="#FAAF40" stop-opacity="0.3" />
            <stop offset="0.1" stop-color="#CF9135" stop-opacity="0.39" />
            <stop offset="0.19" stop-color="#74521E" stop-opacity="0.57" />
            <stop offset="0.29" stop-color="#34240D" stop-opacity="0.7" />
            <stop offset="0.38" stop-color="#0D0903" stop-opacity="0.77" />
            <stop offset="0.48" stop-opacity="0.8" />
        </radialGradient>
        <radialGradient id="paint6_radial" cx="0" cy="0" r="1" gradientUnits="userSpaceOnUse"
            gradientTransform="translate(29.536 20.2372) scale(23.1652)">
            <stop offset="0.22" stop-color="#E4333D" />
            <stop offset="0.5" stop-color="#CC2D3D" />
            <stop offset="1" stop-color="#A5223D" />
        </radialGradient>
        <radialGradient id="paint7_radial" cx="0" cy="0" r="1" gradientUnits="userSpaceOnUse"
            gradientTransform="translate(30.5709 19.9715) scale(18.2275)">
            <stop offset="0.23" stop-color="#E63A42" />
            <stop offset="0.45" stop-color="#E03C4D" />
            <stop offset="0.83" stop-color="#D1416A" />
            <stop offset="1" stop-color="#CA4478" />
        </radialGradient>
        <radialGradient id="paint8_radial" cx="0" cy="0" r="1" gradientUnits="userSpaceOnUse"
            gradientTransform="translate(8.89422 38.1945) scale(2.90499 5.2818)">
            <stop offset="0.35" stop-color="#FCDACB" stop-opacity="0.5" />
            <stop offset="0.45" stop-color="#EECBC3" stop-opacity="0.46" />
            <stop offset="0.62" stop-color="#C9A2AF" stop-opacity="0.34" />
            <stop offset="0.84" stop-color="#8E618F" stop-opacity="0.16" />
            <stop offset="1" stop-color="#5B2A73" stop-opacity="0" />
        </radialGradient>
        <radialGradient id="paint9_radial" cx="0" cy="0" r="1" gradientUnits="userSpaceOnUse"
            gradientTransform="translate(24.2523 6.69089) scale(4.90468)">
            <stop offset="0.19" stop-color="white" stop-opacity="0" />
            <stop offset="0.8" stop-opacity="0.7" />
        </radialGradient>
        <linearGradient id="paint10_linear" x1="23.8844" y1="7.98466" x2="33.9831" y2="7.98466"
            gradientUnits="userSpaceOnUse">
            <stop offset="0.1" stop-color="#2D2B2C" stop-opacity="0.8" />
            <stop offset="0.22" stop-color="#544430" stop-opacity="0.7" />
            <stop offset="0.41" stop-color="#C18A3A" stop-opacity="0.44" />
            <stop offset="0.49" stop-color="#FAAF40" stop-opacity="0.3" />
            <stop offset="0.53" stop-color="#CF9135" stop-opacity="0.39" />
            <stop offset="0.64" stop-color="#74521E" stop-opacity="0.57" />
            <stop offset="0.74" stop-color="#34240D" stop-opacity="0.7" />
            <stop offset="0.85" stop-color="#0D0903" stop-opacity="0.77" />
            <stop offset="0.96" stop-opacity="0.8" />
        </linearGradient>
        <linearGradient id="paint11_linear" x1="30.2294" y1="18.4558" x2="30.1817" y2="22.3388"
            gradientUnits="userSpaceOnUse">
            <stop offset="0.41" stop-color="#231F20" stop-opacity="0.9" />
            <stop offset="0.71" stop-color="#312E2F" stop-opacity="0.84" />
            <stop offset="0.85" stop-color="#646162" stop-opacity="0.63" />
            <stop offset="0.95" stop-color="#BCBABB" stop-opacity="0.28" />
            <stop offset="1" stop-color="white" stop-opacity="0" />
        </linearGradient>
        <linearGradient id="paint12_linear" x1="24.1491" y1="17.9488" x2="37.2565" y2="17.9488"
            gradientUnits="userSpaceOnUse">
            <stop offset="0.01" stop-color="#6B134C" />
            <stop offset="0.07" stop-color="#73154D" />
            <stop offset="0.61" stop-color="#B52155" />
        </linearGradient>
        <linearGradient id="paint13_linear" x1="23.9639" y1="20.0959" x2="37.1903" y2="20.0959"
            gradientUnits="userSpaceOnUse">
            <stop offset="0.01" stop-color="#801951" stop-opacity="0.4" />
            <stop offset="0.34" stop-color="#AF1D4D" stop-opacity="0.71" />
            <stop offset="0.58" stop-color="#CE204A" stop-opacity="0.92" />
            <stop offset="0.7" stop-color="#DA2149" />
        </linearGradient>
        <radialGradient id="paint14_radial" cx="0" cy="0" r="1" gradientUnits="userSpaceOnUse"
            gradientTransform="translate(7.21817 25.2688) rotate(90) scale(5.05141 9.26092)">
            <stop offset="0.63" stop-color="#25A9E0" stop-opacity="0.2" />
            <stop offset="0.74" stop-color="#229ACC" stop-opacity="0.27" />
            <stop offset="0.85" stop-color="#186D90" stop-opacity="0.48" />
            <stop offset="0.96" stop-color="#07222D" stop-opacity="0.84" />
            <stop offset="1" />
        </radialGradient>
        <linearGradient id="paint15_linear" x1="16.512" y1="18.4558" x2="16.5598" y2="22.3388"
            gradientUnits="userSpaceOnUse">
            <stop offset="0.41" stop-color="#231F20" stop-opacity="0.9" />
            <stop offset="0.71" stop-color="#312E2F" stop-opacity="0.84" />
            <stop offset="0.85" stop-color="#646162" stop-opacity="0.63" />
            <stop offset="0.95" stop-color="#BCBABB" stop-opacity="0.28" />
            <stop offset="1" stop-color="white" stop-opacity="0" />
        </linearGradient>
        <linearGradient id="paint16_linear" x1="20.786" y1="23.3634" x2="12.2213" y2="16.1768"
            gradientUnits="userSpaceOnUse">
            <stop offset="0.01" stop-color="#6B134C" />
            <stop offset="0.07" stop-color="#73154D" />
            <stop offset="0.61" stop-color="#B52155" />
        </linearGradient>
        <linearGradient id="paint17_linear" x1="22.7711" y1="20.0959" x2="9.54471" y2="20.0959"
            gradientUnits="userSpaceOnUse">
            <stop stop-color="#801951" stop-opacity="0.2" />
            <stop offset="0.09" stop-color="#8F1A50" stop-opacity="0.33" />
            <stop offset="0.31" stop-color="#AF1D4D" stop-opacity="0.62" />
            <stop offset="0.49" stop-color="#C61F4B" stop-opacity="0.82" />
            <stop offset="0.62" stop-color="#D52149" stop-opacity="0.95" />
            <stop offset="0.7" stop-color="#DA2149" />
        </linearGradient>
        <radialGradient id="paint18_radial" cx="0" cy="0" r="1" gradientUnits="userSpaceOnUse"
            gradientTransform="translate(28.578 27.2447) scale(8.64281)">
            <stop offset="0.43" stop-color="#BE1E2D" stop-opacity="0.9" />
            <stop offset="0.49" stop-color="#B81D2C" stop-opacity="0.87" />
            <stop offset="0.57" stop-color="#A71A28" stop-opacity="0.79" />
            <stop offset="0.66" stop-color="#8B1621" stop-opacity="0.66" />
            <stop offset="0.75" stop-color="#641018" stop-opacity="0.47" />
            <stop offset="0.84" stop-color="#32080C" stop-opacity="0.24" />
            <stop offset="0.92" stop-opacity="0" />
        </radialGradient>
        <radialGradient id="paint19_radial" cx="0" cy="0" r="1" gradientUnits="userSpaceOnUse"
            gradientTransform="translate(28.1352 25.6521) scale(7.10409 9.68743)">
            <stop offset="0.39" stop-color="white" stop-opacity="0" />
            <stop offset="0.4" stop-color="#F6F6F6" stop-opacity="0.03" />
            <stop offset="1" />
        </radialGradient>
        <radialGradient id="paint20_radial" cx="0" cy="0" r="1" gradientUnits="userSpaceOnUse"
            gradientTransform="translate(23.2349 32.7362) scale(7.16785)">
            <stop offset="0.22" stop-color="#E4333D" />
            <stop offset="0.5" stop-color="#CC2D3D" />
            <stop offset="1" stop-color="#A5223D" />
        </radialGradient>
        <radialGradient id="paint21_radial" cx="0" cy="0" r="1" gradientUnits="userSpaceOnUse"
            gradientTransform="translate(17.5681 24.7254) scale(8.25075)">
            <stop stop-color="white" stop-opacity="0" />
            <stop offset="1" stop-color="#540C3C" stop-opacity="0.6" />
        </radialGradient>
        <radialGradient id="paint22_radial" cx="0" cy="0" r="1" gradientUnits="userSpaceOnUse"
            gradientTransform="translate(30.0202 25.335) scale(8.39077)">
            <stop stop-color="white" stop-opacity="0" />
            <stop offset="1" stop-color="#540C3C" stop-opacity="0.6" />
        </radialGradient>
    </defs>
</svg>