<svg viewBox="0 0 128 23" fill="none" xmlns="http://www.w3.org/2000/svg">
    <path fill-rule="evenodd" clip-rule="evenodd"
        d="M18.8562 13.1528C18.4724 13.3954 18.0204 13.4255 17.6768 13.2317C17.2403 12.9853 17.0003 12.4082 17.0003 11.6056V9.20425C17.0003 8.04466 16.5419 7.21952 15.7753 6.99673C14.4761 6.61826 13.499 8.20786 13.1318 8.80483L10.8406 12.5198V7.97916C10.8148 6.93446 10.4755 6.30957 9.83129 6.12113C9.40503 5.99659 8.76726 6.04651 8.14773 6.99459L3.0144 15.2373C2.32717 13.9327 1.96891 12.48 1.97077 11.0054C1.97077 6.04007 5.94988 2.00083 10.8406 2.00083C15.7312 2.00083 19.7098 6.04007 19.7098 11.0054C19.7098 11.014 19.712 11.0215 19.7125 11.0295C19.7125 11.0381 19.7109 11.0456 19.7114 11.0542C19.7576 12.0157 19.4462 12.7802 18.8562 13.1528ZM21.6806 11.0059V10.9807L21.68 10.956C21.6527 4.90893 16.8012 0 10.84 0C4.8633 0 0 4.93685 0 11.0054C0 17.0734 4.8633 22.0107 10.8406 22.0107C13.5833 22.0107 16.201 20.9682 18.2104 19.0758C18.6098 18.7 18.6334 18.0671 18.263 17.6623C18.1758 17.5661 18.0703 17.4884 17.9527 17.4335C17.8351 17.3787 17.7077 17.3478 17.578 17.3428C17.4483 17.3378 17.3189 17.3588 17.1974 17.4044C17.0759 17.45 16.9648 17.5195 16.8704 17.6086C15.2417 19.1509 13.0837 20.0103 10.8406 20.0099C8.22182 20.0099 5.8656 18.8509 4.24056 17.0127L8.86979 9.57951V13.0062C8.86979 14.6522 9.50811 15.1842 10.0433 15.3399C10.5791 15.4956 11.3978 15.3893 12.2573 13.9935L14.8036 9.86565C14.8852 9.73251 14.9603 9.61762 15.029 9.5183V11.6056C15.029 13.1442 15.6453 14.3746 16.7196 14.9807C17.688 15.5272 18.9056 15.4778 19.8977 14.8519C21.1003 14.0922 21.7482 12.6927 21.6806 11.0059ZM36.773 7.24583C37.0333 7.4042 37.2588 7.75637 37.2588 8.07365C37.2588 8.58419 36.8251 9.00669 36.3392 9.00669C36.2179 9.00669 36.0965 8.97179 35.9924 8.93636C35.4196 8.51386 34.6911 8.23202 33.9277 8.23202C32.1239 8.23202 30.8746 9.71103 30.8746 11.5422C30.8746 13.3739 32.1239 14.8352 33.9277 14.8352C34.8296 14.8352 35.6279 14.4654 36.2351 13.9022C36.3919 13.7894 36.5798 13.7279 36.773 13.7261C37.2588 13.7261 37.6405 14.1132 37.6405 14.6065C37.6405 14.9233 37.4494 15.2051 37.2067 15.3635C36.3392 16.1033 35.1597 16.5961 33.9454 16.5961C31.1699 16.5961 28.9141 14.307 28.9141 11.4896C28.9141 8.67223 31.1694 6.38312 33.9454 6.38312C34.9863 6.38312 35.9747 6.69986 36.773 7.24583ZM41.8483 9.37658C43.7391 9.37658 45.3352 10.9791 45.3352 12.9509C45.3352 14.9233 43.7391 16.5961 41.8483 16.5961C39.8706 16.5961 38.2225 14.9233 38.2225 12.9509C38.2225 10.9791 39.8706 9.37658 41.8483 9.37658ZM41.8306 14.8352C42.6638 14.8352 43.3746 14.0429 43.3746 12.9686C43.3746 11.8949 42.6638 11.2255 41.8306 11.2255C40.9287 11.2255 40.1825 11.8772 40.1825 12.9686C40.1825 14.0429 40.9287 14.8352 41.8306 14.8352ZM46.5243 15.5042V10.4685C46.5243 9.92255 46.958 9.46462 47.496 9.46462C48.0339 9.46462 48.4848 9.92255 48.4848 10.4685V15.5042C48.4848 16.0501 48.0339 16.5081 47.496 16.5081C46.958 16.5081 46.5243 16.0501 46.5243 15.5042ZM46.3686 7.56311C46.3686 6.91137 46.8711 6.38312 47.496 6.38312C48.1375 6.38312 48.6582 6.91137 48.6582 7.56311C48.6582 8.19659 48.1375 8.70767 47.496 8.70767C46.8711 8.70767 46.3686 8.19659 46.3686 7.56311ZM52.2417 12.7748V15.5042C52.2417 16.0501 51.7907 16.5081 51.2523 16.5081C50.7149 16.5081 50.2806 16.0501 50.2806 15.5042V10.2393C50.2806 9.81679 50.6279 9.46462 51.0445 9.46462C51.4606 9.46462 51.7907 9.81679 51.7907 10.2393C52.5885 9.50005 53.2821 9.37658 53.9414 9.37658C55.9019 9.37658 56.7695 10.8556 56.7695 12.5284V15.5042C56.7695 16.0501 56.3185 16.5081 55.7806 16.5081C55.2427 16.5081 54.8089 16.0501 54.8089 15.5042V12.7748C54.8089 11.9121 54.7048 11.19 53.4732 11.19C52.6057 11.19 52.2417 11.9121 52.2417 12.7748ZM63.1456 13.8142C62.9201 13.8142 62.7644 13.7084 62.6426 13.5672L60.3524 11.0848V15.5042C60.3524 16.0501 59.9014 16.5081 59.3635 16.5081C58.8256 16.5081 58.3918 16.0501 58.3918 15.5042V6.75354C58.4199 6.67982 58.47 6.61655 58.5353 6.57235C58.6006 6.52816 58.678 6.50519 58.7569 6.50659C58.9297 6.50659 59.0682 6.64778 59.1729 6.75354L62.816 10.8561C62.9201 10.9796 63.0586 11.0499 63.1284 11.0499C63.1977 11.0499 63.3362 10.9796 63.4403 10.8567L67.0839 6.75354C67.1881 6.64778 67.3266 6.50659 67.5 6.50659C67.6734 6.50659 67.8124 6.61235 67.8645 6.75354V15.5042C67.8645 16.0501 67.4307 16.5081 66.8928 16.5081C66.3549 16.5081 65.9039 16.0501 65.9039 15.5042V11.0848L63.6143 13.5672C63.4924 13.7084 63.3362 13.8142 63.1456 13.8142ZM72.5753 14.8352C73.4601 14.8352 74.2057 14.0429 74.2057 12.9686C74.2057 11.8949 73.4429 11.19 72.5753 11.19C71.7078 11.19 71.0136 11.9121 71.0136 12.9686C71.0136 14.0074 71.7078 14.8352 72.5753 14.8352ZM74.6572 15.7334L74.6218 15.5042C74.2406 16.2611 73.0257 16.5961 72.2452 16.5961C70.4059 16.5961 69.0531 14.9233 69.0531 12.9509C69.0531 10.9791 70.4408 9.37658 72.3493 9.37658C72.6789 9.37658 73.772 9.46462 74.6218 10.4685L74.6567 10.2393C74.6567 9.81679 74.9863 9.46462 75.4029 9.46462C75.819 9.46462 76.1658 9.81679 76.1658 10.2393V15.7334C76.1658 16.1559 75.819 16.5081 75.4024 16.5081C74.9863 16.5081 74.6562 16.1559 74.6562 15.7334H74.6572ZM81.6056 11.19H81.3979C80.1658 11.2609 79.9232 11.9653 79.9232 12.7748V15.5042C79.9232 16.0501 79.4722 16.5081 78.9343 16.5081C78.3964 16.5081 77.9626 16.0501 77.9626 15.5042V10.2393C77.9626 9.81679 78.3094 9.46462 78.726 9.46462C79.1426 9.46462 79.4722 9.81679 79.4722 10.2393C80.2007 9.55266 80.7907 9.41201 81.3979 9.37658H81.5885C82.0571 9.37658 82.4904 9.78136 82.4904 10.2924C82.4904 10.7675 82.0743 11.19 81.6056 11.19ZM89.1618 15.0468C89.2487 15.1874 89.3008 15.3458 89.3008 15.5219C89.3008 16.0324 88.8322 16.5081 88.3291 16.5081C87.9823 16.5081 87.6871 16.2439 87.4616 15.9621L85.2068 13.3385V15.5042C85.2068 16.0501 84.7553 16.5081 84.2174 16.5081C83.6795 16.5081 83.2457 16.0501 83.2457 15.5042V7.5105C83.2457 6.96398 83.6795 6.50659 84.2174 6.50659C84.7553 6.50659 85.2063 6.96398 85.2063 7.5105V12.4935L87.4616 9.99288C87.6871 9.72875 87.9646 9.46462 88.3119 9.46462C88.7978 9.46462 89.2487 9.92255 89.2487 10.4331C89.2487 10.5915 89.2138 10.7498 89.1269 10.891L87.3402 12.8451L89.1618 15.0468ZM93.0056 11.2255C92.4677 11.2255 91.6001 11.5073 91.6001 12.3346H94.4277C94.4277 11.4896 93.5263 11.2255 93.0056 11.2255ZM95.5728 13.5849H91.6001C91.6001 14.7649 92.7275 14.941 93.2305 14.941C93.5956 14.941 94.1158 14.8707 94.5147 14.6941C94.636 14.6065 94.8443 14.5357 95.0177 14.5357C95.4515 14.5357 95.8155 14.9061 95.8155 15.3463C95.8155 15.6453 95.6249 15.9095 95.3822 16.0501C94.775 16.4903 93.9939 16.5961 93.2482 16.5961C91.2705 16.5961 89.6224 15.5224 89.6224 13.039C89.6224 11.0848 90.6284 9.37658 92.9707 9.37658C94.8615 9.37658 96.3013 10.6092 96.3362 12.8103C96.3362 13.2328 95.9894 13.5849 95.5728 13.5849ZM101.03 16.5961H100.492C98.9995 16.5961 98.1325 15.9444 98.1325 13.6026V11.19H97.6295C97.1608 11.19 96.7447 10.7675 96.7447 10.2924C96.7447 9.78136 97.1608 9.37658 97.6295 9.37658H98.1325V7.50996C98.1325 6.96398 98.5663 6.50605 99.1042 6.50605C99.6416 6.50605 100.093 6.96398 100.093 7.50996V9.37658H100.908C101.377 9.37658 101.793 9.78136 101.793 10.2924C101.793 10.7675 101.377 11.19 100.908 11.19H100.093V13.215C100.093 14.5534 100.162 14.8352 100.752 14.8352H101.03C101.498 14.8352 101.897 15.2228 101.897 15.7157C101.897 16.1913 101.498 16.5961 101.03 16.5961ZM110.529 7.24583C110.789 7.4042 111.015 7.75637 111.015 8.07365C111.015 8.58419 110.581 9.00669 110.095 9.00669C109.974 9.00669 109.852 8.97179 109.748 8.93636C109.175 8.51386 108.447 8.23202 107.684 8.23202C105.88 8.23202 104.63 9.71103 104.63 11.5422C104.63 13.3739 105.879 14.8352 107.684 14.8352C108.585 14.8352 109.384 14.4654 109.991 13.9022C110.148 13.7894 110.336 13.7279 110.529 13.7261C111.015 13.7261 111.396 14.1132 111.396 14.6065C111.396 14.9233 111.205 15.2051 110.963 15.3635C110.095 16.1033 108.915 16.5961 107.701 16.5961C104.925 16.5961 102.67 14.307 102.67 11.4896C102.67 8.67223 104.925 6.38312 107.701 6.38312C108.742 6.38312 109.731 6.69986 110.529 7.24583ZM115.5 14.8352C116.385 14.8352 117.13 14.0429 117.13 12.9686C117.13 11.8949 116.367 11.19 115.5 11.19C114.632 11.19 113.938 11.9121 113.938 12.9686C113.938 14.0074 114.633 14.8352 115.5 14.8352ZM117.581 15.7334L117.547 15.5042C117.165 16.2611 115.951 16.5961 115.17 16.5961C113.331 16.5961 111.978 14.9233 111.978 12.9509C111.978 10.9791 113.366 9.37658 115.274 9.37658C115.604 9.37658 116.697 9.46462 117.547 10.4685L117.581 10.2393C117.581 9.81679 117.911 9.46462 118.328 9.46462C118.744 9.46462 119.091 9.81679 119.091 10.2393V15.7334C119.091 16.1559 118.744 16.5081 118.328 16.5081C117.911 16.5081 117.581 16.1559 117.581 15.7334ZM124.478 14.8352C125.346 14.8352 126.039 14.0074 126.039 12.9686C126.039 11.9121 125.346 11.19 124.478 11.19C123.611 11.19 122.847 11.8944 122.847 12.9686C122.847 14.0429 123.594 14.8352 124.478 14.8352ZM122.847 16.0152V18.5153C122.847 19.0613 122.396 19.5192 121.858 19.5192C121.321 19.5192 120.887 19.0613 120.887 18.5153V10.2393C120.887 9.81679 121.234 9.46462 121.651 9.46462C122.067 9.46462 122.397 9.81679 122.397 10.3096C123.125 9.55266 124.027 9.37658 124.704 9.37658C126.612 9.37658 128 10.9791 128 12.9509C128 14.9233 126.647 16.5961 124.808 16.5961C124.236 16.5961 123.385 16.42 122.847 16.0152Z"
        fill="white" />
</svg>