<svg width="24" height="24" viewBox="2 0 24 24" fill="none" xmlns="http://www.w3.org/2000/svg">
<g clip-path="url(#clip0)">
<path d="M17.5849 5.42539L4.15002 18.8603L5.56422 20.2745L18.9991 6.83959L17.5849 5.42539Z" fill="#FFAA29"/>
<path opacity="0.44" d="M10.21 10.5H9V8.49999C9 7.85999 9.205 7.23699 9.584 6.72199C9.963 6.20699 10.497 5.82599 11.108 5.63599C11.719 5.44599 12.374 5.45599 12.979 5.66399C13.459 5.82999 13.882 6.11699 14.22 6.48999L15.579 5.13099L15.628 5.05799C15.162 4.56399 14.6 4.16999 13.976 3.90199C13.352 3.63399 12.679 3.49699 12 3.49999C10.674 3.50199 9.404 4.02899 8.466 4.96599C7.529 5.90399 7.002 7.17399 7 8.49999V10.5H6C5.47 10.5 4.961 10.711 4.586 11.086C4.211 11.461 4 11.97 4 12.5V16.71L10.21 10.5Z" fill="#FFAA29"/>
<path opacity="0.44" d="M18 10.5H17.775L7.77502 20.5H18C18.53 20.5 19.039 20.289 19.414 19.914C19.789 19.539 20 19.031 20 18.5V12.5C20 11.97 19.789 11.461 19.414 11.086C19.039 10.711 18.53 10.5 18 10.5Z" fill="#FFAA29"/>
</g>
<defs>
<clipPath id="clip0">
<rect width="24" height="24" fill="white"/>
</clipPath>
</defs>
</svg>
