<svg id="Group_113" data-name="Group 113" xmlns="http://www.w3.org/2000/svg" width="22" height="15.813" viewBox="0 0 22 15.813">
  <g id="reply" transform="translate(0 0)">
    <g id="Group_420" data-name="Group 420" transform="translate(4.125)">
      <g id="Group_419" data-name="Group 419">
        <path id="Path_281" data-name="Path 281" d="M.227,146.814,7.1,140.627a.688.688,0,0,1,1.148.511V144.6c4.931.276,8.7,3.521,9.268,8.081l.352,2.813a.686.686,0,0,1-.452.733.669.669,0,0,1-.23.041.689.689,0,0,1-.583-.323l-.692-1.108c-1.372-2.195-4.118-4.756-7.343-4.756H8.25v3.438a.687.687,0,0,1-1.147.512L.228,147.837a.689.689,0,0,1,0-1.023Z" transform="translate(0 -140.45)" fill="#bcbcc4"/>
      </g>
    </g>
    <g id="Group_422" data-name="Group 422" transform="translate(0 0.001)">
      <g id="Group_421" data-name="Group 421">
        <path id="Path_282" data-name="Path 282" d="M624.508,146.867l6.875-6.188a.688.688,0,0,1,.921,1.023L626,147.378l6.309,5.676a.688.688,0,0,1-.921,1.023l-6.875-6.188a.69.69,0,0,1,0-1.023Z" transform="translate(-624.281 -140.504)" fill="#bcbcc4"/>
      </g>
    </g>
  </g>
</svg>
