<svg xmlns="http://www.w3.org/2000/svg" width="19.498" height="13.5" viewBox="0 0 19.498 13.5">
  <g id="Icon_Heart" data-name="Icon/Heart" transform="translate(-0.251 -0.25)">
    <path id="Retip" d="M13.75,13.5h-8A3.747,3.747,0,0,1,2.005,9.95L2,9.75V3.56l-.719.72A.75.75,0,0,1,.147,3.3L.22,3.219,2.232,1.208l.082-.067.081-.051L2.48,1.05,2.6,1.016,2.672,1c.02,0,.04,0,.06,0l.1,0,.122.023.093.032.077.038.082.054.079.068,2,2A.75.75,0,0,1,4.75,4.5.742.742,0,0,1,4.3,4.353L4.22,4.28,3.5,3.561V9.75A2.256,2.256,0,0,0,5.6,12l.154,0h8a.75.75,0,0,1,.1,1.493Zm2.981-1h0l-.074-.005-.075-.014-.08-.023-.1-.043a.743.743,0,0,1-.183-.134l-2-2A.75.75,0,0,1,15.2,9.147l.084.073.72.719V3.75A2.256,2.256,0,0,0,13.9,1.5l-.154,0h-8a.75.75,0,0,1-.1-1.493L5.75,0h8A3.747,3.747,0,0,1,17.5,3.55l0,.2V9.938l.72-.718a.751.751,0,0,1,1.061,0,.755.755,0,0,1,.072.977l-.072.085-2,2-.073.062-.052.039-.088.049-.118.043-.106.022-.041,0Zm-6.657-1.565h0L6.542,7.4A2.871,2.871,0,0,1,8.568,2.5a2.9,2.9,0,0,1,1.321.32l.184.1.059-.036a2.871,2.871,0,0,1,3.686,4.277l-.124.147L13.6,7.4l-3.53,3.53ZM8.572,4h0A1.371,1.371,0,0,0,7.5,6.232l.1.112,2.471,2.47,2.52-2.522A1.372,1.372,0,0,0,10.715,4.3l-.112.1-.517.517-.595-.567A1.366,1.366,0,0,0,8.572,4Z" transform="translate(0.25 0.25)" fill="#727278"/>
  </g>
</svg>
