<svg viewBox="0 0 12 12" fill="none" xmlns="http://www.w3.org/2000/svg">
    <path
        d="M0.857143 5.13227C0.383756 5.13227 0 5.51603 0 5.98941C0 6.4628 0.383756 6.84656 0.857143 6.84656L11.1429 6.84656C11.6162 6.84656 12 6.4628 12 5.98941C12 5.51603 11.6162 5.13227 11.1429 5.13227L0.857143 5.13227Z"
        fill="currentColor" />
    <path
        d="M5.39404 1.45261C5.23791 1.29095 5.15151 1.07443 5.15347 0.849695C5.15542 0.624955 5.24556 0.409973 5.40449 0.251051C5.56341 0.0921301 5.77839 0.00198533 6.00313 3.24022e-05C6.22787 -0.00192053 6.44438 0.0844747 6.60604 0.24061L11.7489 5.38347C11.9051 5.53967 11.995 5.75015 11.9998 5.97102C12.0046 6.19188 11.9239 6.40607 11.7746 6.5689L7.06033 11.7118C6.90528 11.8733 6.69317 11.9677 6.46937 11.9749C6.24558 11.9821 6.02787 11.9014 5.8628 11.7501C5.69774 11.5988 5.59843 11.3889 5.58611 11.1653C5.5738 10.9418 5.64945 10.7223 5.7969 10.5538L9.95661 6.01518L5.39404 1.45261Z"
        fill="currentColor" />
</svg>