<svg xmlns="http://www.w3.org/2000/svg" xmlns:xlink="http://www.w3.org/1999/xlink" width="296" height="33" viewBox="0 0 296 33"><defs><linearGradient id="a" x1="0.5" x2="0.5" y2="1" gradientUnits="objectBoundingBox"><stop offset="0" stop-color="#67f7b8"/><stop offset="1" stop-color="#00db66"/></linearGradient></defs><g transform="translate(-625 -533)"><rect width="2" height="20" transform="translate(625 546)" fill="url(#a)"/><rect width="2" height="21" transform="translate(628 545)" fill="url(#a)"/><rect width="2" height="20" transform="translate(631 546)" fill="url(#a)"/><rect width="2" height="20" transform="translate(634 546)" fill="url(#a)"/><rect width="2" height="25" transform="translate(637 541)" fill="url(#a)"/><rect width="2" height="23" transform="translate(640 543)" fill="url(#a)"/><rect width="2" height="20" transform="translate(643 546)" fill="url(#a)"/><rect width="2" height="23" transform="translate(646 543)" fill="url(#a)"/><rect width="2" height="20" transform="translate(649 546)" fill="url(#a)"/><rect width="2" height="20" transform="translate(652 546)" fill="url(#a)"/><rect width="2" height="20" transform="translate(652 546)" fill="url(#a)"/><rect width="2" height="20" transform="translate(655 546)" fill="url(#a)"/><rect width="2" height="21" transform="translate(658 545)" fill="url(#a)"/><rect width="2" height="22" transform="translate(661 544)" fill="url(#a)"/><rect width="2" height="20" transform="translate(664 546)" fill="url(#a)"/><rect width="2" height="21" transform="translate(667 545)" fill="url(#a)"/><rect width="2" height="22" transform="translate(670 544)" fill="url(#a)"/><rect width="2" height="23" transform="translate(673 543)" fill="url(#a)"/><rect width="2" height="22" transform="translate(676 544)" fill="url(#a)"/><rect width="2" height="23" transform="translate(679 543)" fill="url(#a)"/><rect width="2" height="20" transform="translate(682 546)" fill="url(#a)"/><rect width="2" height="20" transform="translate(685 546)" fill="url(#a)"/><rect width="2" height="22" transform="translate(685 544)" fill="url(#a)"/><rect width="2" height="20" transform="translate(688 546)" fill="url(#a)"/><rect width="2" height="20" transform="translate(688 546)" fill="url(#a)"/><rect width="2" height="20" transform="translate(691 546)" fill="url(#a)"/><rect width="2" height="20" transform="translate(694 546)" fill="url(#a)"/><rect width="2" height="20" transform="translate(697 546)" fill="url(#a)"/><rect width="2" height="22" transform="translate(700 544)" fill="url(#a)"/><rect width="2" height="22" transform="translate(703 544)" fill="url(#a)"/><rect width="2" height="23" transform="translate(706 543)" fill="url(#a)"/><rect width="2" height="21" transform="translate(709 545)" fill="url(#a)"/><rect width="2" height="20" transform="translate(712 546)" fill="url(#a)"/><rect width="2" height="20" transform="translate(715 546)" fill="url(#a)"/><rect width="2" height="20" transform="translate(715 546)" fill="url(#a)"/><rect width="2" height="20" transform="translate(718 546)" fill="url(#a)"/><rect width="2" height="21" transform="translate(721 545)" fill="url(#a)"/><rect width="2" height="26" transform="translate(724 540)" fill="url(#a)"/><rect width="2" height="20" transform="translate(727 546)" fill="url(#a)"/><rect width="2" height="20" transform="translate(730 546)" fill="url(#a)"/><rect width="2" height="20" transform="translate(733 546)" fill="url(#a)"/><rect width="2" height="21" transform="translate(736 545)" fill="url(#a)"/><rect width="2" height="23" transform="translate(739 543)" fill="url(#a)"/><rect width="2" height="21" transform="translate(742 545)" fill="url(#a)"/><rect width="2" height="20" transform="translate(745 546)" fill="url(#a)"/><rect width="2" height="20" transform="translate(748 546)" fill="url(#a)"/><rect width="2" height="22" transform="translate(748 544)" fill="url(#a)"/><rect width="2" height="20" transform="translate(751 546)" fill="url(#a)"/><rect width="2" height="23" transform="translate(754 543)" fill="url(#a)"/><rect width="2" height="22" transform="translate(757 544)" fill="url(#a)"/><rect width="2" height="27" transform="translate(760 539)" fill="url(#a)"/><rect width="2" height="21" transform="translate(763 545)" fill="url(#a)"/><rect width="2" height="23" transform="translate(766 543)" fill="url(#a)"/><rect width="2" height="20" transform="translate(769 546)" fill="url(#a)"/><rect width="2" height="20" transform="translate(772 546)" fill="url(#a)"/><rect width="2" height="21" transform="translate(775 545)" fill="url(#a)"/><rect width="2" height="20" transform="translate(778 546)" fill="url(#a)"/><rect width="2" height="20" transform="translate(781 546)" fill="url(#a)"/><rect width="2" height="18" transform="translate(781 548)" fill="url(#a)"/><rect width="2" height="20" transform="translate(784 546)" fill="url(#a)"/><rect width="2" height="20" transform="translate(784 546)" fill="url(#a)"/><rect width="2" height="20" transform="translate(787 546)" fill="url(#a)"/><rect width="2" height="25" transform="translate(790 541)" fill="url(#a)"/><rect width="2" height="22" transform="translate(793 544)" fill="url(#a)"/><rect width="2" height="21" transform="translate(796 545)" fill="url(#a)"/><rect width="2" height="20" transform="translate(799 546)" fill="url(#a)"/><rect width="2" height="26" transform="translate(802 540)" fill="url(#a)"/><rect width="2" height="22" transform="translate(805 544)" fill="url(#a)"/><rect width="2" height="20" transform="translate(808 546)" fill="url(#a)"/><rect width="2" height="20" transform="translate(811 546)" fill="url(#a)"/><rect width="2" height="30" transform="translate(811 536)" fill="url(#a)"/><rect width="2" height="21" transform="translate(814 545)" fill="url(#a)"/><rect width="2" height="20" transform="translate(817 546)" fill="url(#a)"/><rect width="2" height="31" transform="translate(820 535)" fill="url(#a)"/><rect width="2" height="20" transform="translate(823 546)" fill="url(#a)"/><rect width="2" height="23" transform="translate(826 543)" fill="url(#a)"/><rect width="2" height="20" transform="translate(829 546)" fill="url(#a)"/><rect width="2" height="21" transform="translate(832 545)" fill="url(#a)"/><rect width="2" height="22" transform="translate(835 544)" fill="url(#a)"/><rect width="2" height="22" transform="translate(838 544)" fill="url(#a)"/><rect width="2" height="21" transform="translate(841 545)" fill="url(#a)"/><rect width="2" height="20" transform="translate(844 546)" fill="url(#a)"/><rect width="2" height="33" transform="translate(844 533)" fill="url(#a)"/><rect width="2" height="21" transform="translate(847 545)" fill="url(#a)"/><rect width="2" height="20" transform="translate(850 546)" fill="url(#a)"/><rect width="2" height="20" transform="translate(853 546)" fill="url(#a)"/><rect width="2" height="20" transform="translate(856 546)" fill="url(#a)"/><rect width="2" height="21" transform="translate(859 545)" fill="url(#a)"/><rect width="2" height="24" transform="translate(862 542)" fill="url(#a)"/><rect width="2" height="21" transform="translate(865 545)" fill="url(#a)"/><rect width="2" height="22" transform="translate(868 544)" fill="url(#a)"/><rect width="2" height="23" transform="translate(871 543)" fill="url(#a)"/><rect width="2" height="20" transform="translate(874 546)" fill="url(#a)"/><rect width="2" height="20" transform="translate(877 546)" fill="url(#a)"/><rect width="2" height="22" transform="translate(877 544)" fill="url(#a)"/><rect width="2" height="20" transform="translate(880 546)" fill="url(#a)"/><rect width="2" height="22" transform="translate(880 544)" fill="url(#a)"/><rect width="2" height="23" transform="translate(883 543)" fill="url(#a)"/><rect width="2" height="22" transform="translate(886 544)" fill="url(#a)"/><rect width="2" height="23" transform="translate(889 543)" fill="url(#a)"/><rect width="2" height="20" transform="translate(892 546)" fill="url(#a)"/><rect width="2" height="23" transform="translate(895 543)" fill="url(#a)"/><rect width="2" height="20" transform="translate(898 546)" fill="url(#a)"/><rect width="2" height="20" transform="translate(901 546)" fill="url(#a)"/><rect width="2" height="28" transform="translate(904 538)" fill="url(#a)"/><rect width="2" height="20" transform="translate(907 546)" fill="url(#a)"/><rect width="2" height="22" transform="translate(907 544)" fill="url(#a)"/><rect width="2" height="22" transform="translate(910 544)" fill="url(#a)"/><rect width="2" height="23" transform="translate(913 543)" fill="url(#a)"/><rect width="2" height="22" transform="translate(916 544)" fill="url(#a)"/><rect width="2" height="23" transform="translate(919 543)" fill="url(#a)"/></g></svg>