<svg xmlns="http://www.w3.org/2000/svg" xmlns:xlink="http://www.w3.org/1999/xlink" width="150" height="150" viewBox="0 0 150 150">
  <defs>
    <clipPath id="clip-path">
      <path id="Path_11" data-name="Path 11" d="M75,0A75,75,0,1,1,0,75,75,75,0,0,1,75,0Z" transform="translate(860 175)" fill="#fff" stroke="#707070" stroke-width="1" opacity="0.4"/>
    </clipPath>
    <clipPath id="clip-path-2">
      <rect id="Rectangle_165" data-name="Rectangle 165" width="375" height="670" transform="translate(2923.159 2727.836)" fill="none"/>
    </clipPath>
    <clipPath id="clip-path-3">
      <rect id="Rectangle_56" data-name="Rectangle 56" width="35.091" height="26.229" fill="none"/>
    </clipPath>
  </defs>
  <g id="Mask_Group_4" data-name="Mask Group 4" transform="translate(-860 -175)" clip-path="url(#clip-path)">
    <g id="Group_103" data-name="Group 103" transform="translate(611 81)">
      <g id="Group_102" data-name="Group 102" transform="translate(-2776.159 -2701.836)" clip-path="url(#clip-path-2)">
        <g id="Group_3" data-name="Group 3">
          <path id="Path_25" data-name="Path 25" d="M2305,3225.121l806.434-386.348-756.54,572.546-49.89-186.2h0Z" fill="#383942"/>
          <path id="Path_26" data-name="Path 26" d="M2291.889,2932.823v192.765h0l819.539-286.815Z" fill="#383942"/>
          <path id="Path_27" data-name="Path 27" d="M2304.989,2833.289l806.436,5.484-756.536-191.681Z" fill="#383942"/>
          <path id="Path_28" data-name="Path 28" d="M2393.3,2554.34l718.125,284.433-621.739-451.368Z" fill="#383942"/>
          <path id="Path_29" data-name="Path 29" d="M2550.8,2307.753l560.628,531.02-424.32-667.324Z" fill="#383942"/>
          <path id="Path_30" data-name="Path 30" d="M2766.753,2110.332l344.677,728.441-177.736-824.822Z" fill="#383942"/>
          <path id="Path_31" data-name="Path 31" d="M3026.445,1975.531l84.984,863.243,101.212-913.131Z" fill="#383942"/>
          <path id="Path_32" data-name="Path 32" d="M3312.175,1912.535l-200.747,926.238,393.512-926.235Z" fill="#383942"/>
          <path id="Path_33" data-name="Path 33" d="M3604.475,1925.639l-493.047,913.134,679.243-863.241Z" fill="#383942"/>
          <path id="Path_34" data-name="Path 34" d="M3883.423,2013.949l-772,824.824,938.933-728.44Z" fill="#383942"/>
          <path id="Path_35" data-name="Path 35" d="M4130.01,2171.447,3111.428,2838.773l1154.885-531.019Z" fill="#383942"/>
          <path id="Path_36" data-name="Path 36" d="M4327.432,2387.4l-1216,451.373L4423.812,2554.34Z" fill="#383942"/>
          <path id="Path_37" data-name="Path 37" d="M4462.233,2647.091l-1350.8,191.682,1400.694-5.486Z" fill="#383942"/>
          <path id="Path_38" data-name="Path 38" d="M4525.228,2932.822l-1413.8-94.049,1413.8,286.813Z" fill="#383942"/>
          <path id="Path_39" data-name="Path 39" d="M4512.125,3225.121l-1400.7-386.348,1350.8,572.543Z" fill="#383942"/>
          <path id="Path_40" data-name="Path 40" d="M4423.815,3504.07l-1312.387-665.3L4327.43,3671Z" fill="#383942"/>
          <path id="Path_41" data-name="Path 41" d="M4266.317,3750.656,3111.428,2838.773,4130.01,3886.959Z" fill="#383942"/>
          <path id="Path_42" data-name="Path 42" d="M4050.364,3948.078l-938.936-1109.3,772,1205.684Z" fill="#383942"/>
          <path id="Path_43" data-name="Path 43" d="M3790.673,4082.88,3111.428,2838.773l493.049,1294Z" fill="#383942"/>
          <path id="Path_44" data-name="Path 44" d="M3504.942,4145.875l-393.514-1307.1,200.75,1307.1Z" fill="#383942"/>
          <path id="Path_45" data-name="Path 45" d="M3212.643,4132.772l-101.215-1294-84.977,1244.1Z" fill="#383942"/>
          <path id="Path_46" data-name="Path 46" d="M2933.694,4044.461l177.734-1205.688-344.672,1109.3Z" fill="#383942"/>
          <path id="Path_47" data-name="Path 47" d="M2687.108,3886.964l424.32-1048.191L2550.8,3750.658Z" fill="#383942"/>
          <path id="Path_48" data-name="Path 48" d="M2489.689,3671.011l621.742-832.238-718.124,665.3Z" fill="#383942"/>
          <g id="onboarding-2" transform="translate(3007.46 2808.345)">
            <g id="Group_139" data-name="Group 139" transform="translate(0)">
              <g id="Group_137" data-name="Group 137">
                <g id="Group_112" data-name="Group 112" transform="translate(42.691 6.852)">
                  <rect id="Rectangle_54" data-name="Rectangle 54" width="68.589" height="129.592" rx="10" transform="translate(0.523 0.523)" fill="#161620"/>
                  <path id="Path_29-2" data-name="Path 29" d="M1170.307,2769.079h-53.99a7.831,7.831,0,0,1-7.822-7.822V2646.264a7.831,7.831,0,0,1,7.822-7.823h53.99a7.831,7.831,0,0,1,7.823,7.823v114.993A7.831,7.831,0,0,1,1170.307,2769.079Zm-53.99-129.592a6.784,6.784,0,0,0-6.776,6.776v114.993a6.783,6.783,0,0,0,6.776,6.776h53.99a6.784,6.784,0,0,0,6.776-6.776V2646.264a6.784,6.784,0,0,0-6.776-6.776Z" transform="translate(-1108.494 -2638.441)" fill="#fff"/>
                </g>
                <g id="Group_113" data-name="Group 113" transform="translate(47.65 22.455)">
                  <path id="Path_30-2" data-name="Path 30" d="M1179.994,2778.294H1121.32a.521.521,0,0,1-.522-.521v-100.1a.522.522,0,0,1,.522-.522h58.674a.522.522,0,0,1,.521.522v100.1A.521.521,0,0,1,1179.994,2778.294Zm-58.152-1.043h57.631V2678.2h-57.631Z" transform="translate(-1120.798 -2677.154)" fill="#fff"/>
                </g>
                <g id="Group_124" data-name="Group 124" transform="translate(93.351 87.832)">
                  <g id="Group_123" data-name="Group 123">
                    <g id="Group_114" data-name="Group 114" transform="translate(30.494 2.754)">
                      <path id="Path_31-2" data-name="Path 31" d="M1313.282,2853.185c-4.407,0-7.993,4.111-7.993,9.165s3.586,9.165,7.993,9.165,7.992-4.111,7.992-9.165S1317.688,2853.185,1313.282,2853.185Z" transform="translate(-1305.289 -2853.185)" fill="#3bc3fa"/>
                    </g>
                    <g id="Group_115" data-name="Group 115" transform="translate(16.538 36.593)">
                      <path id="Path_32-2" data-name="Path 32" d="M1272.75,2944.181s5.842,1.8,9,0v-12.095h-6.82Z" transform="translate(-1272.75 -2932.085)" fill="#ee306f"/>
                    </g>
                    <g id="Group_116" data-name="Group 116" transform="translate(2.755 3.959)">
                      <path id="Path_33-2" data-name="Path 33" d="M1295.473,2900.725a1.377,1.377,0,0,1-1.377-1.377v-14.107a9.378,9.378,0,0,0-9.368-9.368h-16.148a25.528,25.528,0,0,0-6.291.787l-10.118,2.573a2.67,2.67,0,0,1-3.233-3.3l3.406-12.346a1.377,1.377,0,0,1,1.328-1.01h4.453a1.929,1.929,0,0,0,1.3-.524,3.08,3.08,0,0,0,.684-2.236,3.962,3.962,0,0,0-3.122-3.819,3.151,3.151,0,0,0-2.342.977c-1.42,1.42-4.233,4.163-4.939,4.851l-8.635,16.99a4.193,4.193,0,0,0,1.85,5.643l1.505.76a15.619,15.619,0,0,0,7,1.666h11.968a1.377,1.377,0,0,1,1.377,1.377v11.087a1.377,1.377,0,0,1-1.377,1.377Z" transform="translate(-1240.614 -2855.995)" fill="#161620"/>
                    </g>
                    <g id="Group_122" data-name="Group 122">
                      <g id="Group_117" data-name="Group 117" transform="translate(29.117 1.377)">
                        <ellipse id="Ellipse_22" data-name="Ellipse 22" cx="9.369" cy="10.541" rx="9.369" ry="10.541" fill="#161620"/>
                      </g>
                      <g id="Group_121" data-name="Group 121">
                        <g id="Group_119" data-name="Group 119">
                          <g id="Group_118" data-name="Group 118">
                            <path id="Path_34-2" data-name="Path 34" d="M1281.058,2867.848h-1.52a12.445,12.445,0,0,0,3.885-9.165c0-6.571-4.822-11.918-10.746-11.918s-10.746,5.347-10.746,11.918a12.445,12.445,0,0,0,3.884,9.165h-.9a28.345,28.345,0,0,0-6.97.872l-9.979,2.538,3.089-11.2h3.349a4.675,4.675,0,0,0,3.245-1.272,5.632,5.632,0,0,0,1.55-4.24,6.724,6.724,0,0,0-5.362-6.526c-.03-.006-.061-.012-.091-.016a5.878,5.878,0,0,0-4.712,1.752c-1.611,1.61-5.042,4.951-5.076,4.985a1.4,1.4,0,0,0-.267.363l-8.738,17.194a6.947,6.947,0,0,0,3.063,9.349l1.506.759a18.379,18.379,0,0,0,8.24,1.961h4.157a34.631,34.631,0,0,1-2.439,9.141,1.376,1.376,0,0,0,.684,1.823,1.361,1.361,0,0,0,.569.124,1.379,1.379,0,0,0,1.254-.808,37.517,37.517,0,0,0,2.712-10.28h3.654v9.71a1.377,1.377,0,0,0,2.754,0V2882.99a1.377,1.377,0,0,0-1.377-1.376h-11.968a15.616,15.616,0,0,1-7-1.666l-1.505-.759a4.194,4.194,0,0,1-1.85-5.643l8.634-16.99c.707-.688,3.519-3.431,4.939-4.852a3.152,3.152,0,0,1,2.343-.976,3.962,3.962,0,0,1,3.122,3.819,3.082,3.082,0,0,1-.683,2.236,1.929,1.929,0,0,1-1.3.524H1250a1.377,1.377,0,0,0-1.327,1.01l-3.406,12.346a2.67,2.67,0,0,0,3.233,3.3l10.118-2.573a25.533,25.533,0,0,1,6.291-.787h16.148a9.379,9.379,0,0,1,9.368,9.368v14.107a1.377,1.377,0,0,0,2.754,0V2879.97A12.136,12.136,0,0,0,1281.058,2867.848Zm-16.374-9.165c0-5.053,3.585-9.165,7.993-9.165s7.992,4.111,7.992,9.165-3.586,9.165-7.992,9.165S1264.684,2863.737,1264.684,2858.683Z" transform="translate(-1234.19 -2846.765)" fill="#d2d2d4"/>
                          </g>
                        </g>
                        <g id="Group_120" data-name="Group 120" transform="translate(48.513 34.848)">
                          <path id="Path_35-2" data-name="Path 35" d="M1348.678,2928.016a1.377,1.377,0,0,0-1.377,1.377v11.087a1.377,1.377,0,0,0,2.754,0v-11.087A1.377,1.377,0,0,0,1348.678,2928.016Z" transform="translate(-1347.301 -2928.016)" fill="#161620"/>
                        </g>
                      </g>
                    </g>
                  </g>
                </g>
                <circle id="Ellipse_23" data-name="Ellipse 23" cx="2.541" cy="2.541" r="2.541" transform="translate(57.598 12.05)" fill="#fff"/>
                <circle id="Ellipse_24" data-name="Ellipse 24" cx="1.971" cy="1.971" r="1.971" transform="translate(87.263 12.62)" fill="#fff"/>
                <rect id="Rectangle_55" data-name="Rectangle 55" width="12.885" height="2.367" rx="1.183" transform="translate(70.958 13.51)" fill="#fff"/>
                <circle id="Ellipse_25" data-name="Ellipse 25" cx="3.891" cy="3.891" r="3.891" transform="translate(73.509 126.129)" fill="#fff"/>
                <g id="Group_125" data-name="Group 125" transform="translate(56.538 74.864)">
                  <path id="Path_36-2" data-name="Path 36" d="M1181.636,2813.5h-35.63a3.155,3.155,0,1,1,0-6.311h35.63a3.155,3.155,0,1,1,0,6.311Z" transform="translate(-1142.851 -2807.189)" fill="#fff"/>
                </g>
                <g id="Group_129" data-name="Group 129" transform="translate(59.744 51.79)">
                  <g id="Group_128" data-name="Group 128" clip-path="url(#clip-path-3)">
                    <g id="Group_127" data-name="Group 127" transform="translate(0.006 0.643)">
                      <g id="Group_126" data-name="Group 126">
                        <circle id="Ellipse_26" data-name="Ellipse 26" cx="16.803" cy="16.803" r="16.803" transform="translate(0.736 0.736)" fill="#161620"/>
                        <path id="Path_37-2" data-name="Path 37" d="M1168.359,2786.612a17.539,17.539,0,1,1,17.539-17.539A17.559,17.559,0,0,1,1168.359,2786.612Zm0-33.605a16.067,16.067,0,1,0,16.066,16.066A16.084,16.084,0,0,0,1168.359,2753.006Z" transform="translate(-1150.82 -2751.534)" fill="#fff"/>
                      </g>
                      <circle id="Ellipse_27" data-name="Ellipse 27" cx="13.555" cy="13.555" r="13.555" transform="translate(3.985 3.984)" fill="#fff"/>
                      <path id="Heart" d="M1178.1,2784.343a4.114,4.114,0,0,1,5.669-.142l.152.145a4.114,4.114,0,0,1,5.962,5.666l-.145.151-5.817,5.818-5.818-5.818a4.115,4.115,0,0,1,0-5.819Z" transform="translate(-1166.386 -2770.395)" fill="#ee306f"/>
                    </g>
                  </g>
                </g>
                <g id="Group_132" data-name="Group 132" transform="translate(119.39)">
                  <g id="Group_130" data-name="Group 130">
                    <circle id="Ellipse_28" data-name="Ellipse 28" cx="16.803" cy="16.803" r="16.803" transform="translate(0.738 0.738)" fill="#161620"/>
                    <path id="Path_38-2" data-name="Path 38" d="M1316.3,2656.522a17.552,17.552,0,1,1,1.819-.093A17.881,17.881,0,0,1,1316.3,2656.522Zm.063-33.609a16.347,16.347,0,0,0-1.667.085,16.015,16.015,0,1,0,1.667-.085Z" transform="translate(-1298.796 -2621.441)" fill="#fff"/>
                  </g>
                  <g id="Group_131" data-name="Group 131" transform="translate(3.986 3.986)">
                    <circle id="Ellipse_29" data-name="Ellipse 29" cx="13.555" cy="13.555" r="13.555" fill="#fff"/>
                  </g>
                  <g id="Heart-2" data-name="Heart" transform="translate(10.407 11.955)">
                    <path id="Path_39-2" data-name="Path 39" d="M1325.541,2653.22a4.114,4.114,0,0,1,5.625-.718l.166.129a4.114,4.114,0,0,1,6.508,5.03l-.129.165-5.195,6.38-6.381-5.2a4.115,4.115,0,0,1-.6-5.788Z" transform="translate(-1324.617 -2651.102)" fill="#ee306f"/>
                  </g>
                </g>
                <g id="Group_133" data-name="Group 133" transform="translate(0 136.441)">
                  <path id="Path_40-2" data-name="Path 40" d="M1160.631,2961.019H1001a.526.526,0,1,1,0-1.052h159.631a.526.526,0,1,1,0,1.052Z" transform="translate(-1000.461 -2959.968)" fill="#fff"/>
                </g>
                <g id="Group_136" data-name="Group 136" transform="translate(80.408 16.961)">
                  <g id="Group_134" data-name="Group 134">
                    <circle id="Ellipse_30" data-name="Ellipse 30" cx="16.803" cy="16.803" r="16.803" transform="translate(0.746 0.737)" fill="#161620"/>
                    <path id="Path_41-2" data-name="Path 41" d="M1219.628,2698.612a17.575,17.575,0,1,1,7.039-1.486A17.529,17.529,0,0,1,1219.628,2698.612Zm.013-33.616a16.069,16.069,0,1,0,5.822,1.1A16.093,16.093,0,0,0,1219.642,2665Z" transform="translate(-1202.074 -2663.524)" fill="#fff"/>
                  </g>
                  <g id="Group_135" data-name="Group 135" transform="translate(3.994 3.985)">
                    <circle id="Ellipse_31" data-name="Ellipse 31" cx="13.555" cy="13.555" r="13.555" fill="#fff"/>
                  </g>
                  <g id="Heart-3" data-name="Heart" transform="translate(11.144 11.272)">
                    <path id="Path_42-2" data-name="Path 42" d="M1232.186,2691.839a4.113,4.113,0,0,1,5.332,1.93l.089.19a4.113,4.113,0,0,1,3.494,7.446l-.19.088-7.535,3.305-3.3-7.536a4.114,4.114,0,0,1,2.111-5.422Z" transform="translate(-1229.723 -2691.491)" fill="#ee306f"/>
                  </g>
                </g>
              </g>
            </g>
          </g>
        </g>
      </g>
    </g>
  </g>
</svg>
