<svg xmlns="http://www.w3.org/2000/svg" xmlns:xlink="http://www.w3.org/1999/xlink" width="150" height="150" viewBox="0 0 150 150">
  <defs>
    <clipPath id="clip-path">
      <path id="Path_1173" data-name="Path 1173" d="M75,0A75,75,0,1,1,0,75,75,75,0,0,1,75,0Z" transform="translate(860 175)" fill="#fff" stroke="#707070" stroke-width="1" opacity="0.4"/>
    </clipPath>
    <clipPath id="clip-path-2">
      <rect id="Rectangle_165" data-name="Rectangle 165" width="375" height="670" transform="translate(2923.159 2727.836)" fill="none"/>
    </clipPath>
    <clipPath id="clip-path-3">
      <rect id="Rectangle_56" data-name="Rectangle 56" width="35.091" height="26.229" fill="none"/>
    </clipPath>
  </defs>
  <g id="Mask_Group_5" data-name="Mask Group 5" transform="translate(-860 -175)" clip-path="url(#clip-path)">
    <g id="Group_103" data-name="Group 103" transform="translate(611 81)">
      <g id="Group_102" data-name="Group 102" transform="translate(-2776.159 -2701.836)" clip-path="url(#clip-path-2)">
        <g id="Group_3" data-name="Group 3">
          <path id="Path_25" data-name="Path 25" d="M2305,3225.121l806.434-386.348-756.54,572.546-49.89-186.2h0Z" fill="#383942"/>
          <path id="Path_26" data-name="Path 26" d="M2291.889,2932.823v192.765h0l819.539-286.815Z" fill="#383942"/>
          <path id="Path_27" data-name="Path 27" d="M2304.989,2833.289l806.436,5.484-756.536-191.681Z" fill="#383942"/>
          <path id="Path_28" data-name="Path 28" d="M2393.3,2554.34l718.125,284.433-621.739-451.368Z" fill="#383942"/>
          <path id="Path_29" data-name="Path 29" d="M2550.8,2307.753l560.628,531.02-424.32-667.324Z" fill="#383942"/>
          <path id="Path_30" data-name="Path 30" d="M2766.753,2110.332l344.677,728.441-177.736-824.822Z" fill="#383942"/>
          <path id="Path_31" data-name="Path 31" d="M3026.445,1975.531l84.984,863.243,101.212-913.131Z" fill="#383942"/>
          <path id="Path_32" data-name="Path 32" d="M3312.175,1912.535l-200.747,926.238,393.512-926.235Z" fill="#383942"/>
          <path id="Path_33" data-name="Path 33" d="M3604.475,1925.639l-493.047,913.134,679.243-863.241Z" fill="#383942"/>
          <path id="Path_34" data-name="Path 34" d="M3883.423,2013.949l-772,824.824,938.933-728.44Z" fill="#383942"/>
          <path id="Path_35" data-name="Path 35" d="M4130.01,2171.447,3111.428,2838.773l1154.885-531.019Z" fill="#383942"/>
          <path id="Path_36" data-name="Path 36" d="M4327.432,2387.4l-1216,451.373L4423.812,2554.34Z" fill="#383942"/>
          <path id="Path_37" data-name="Path 37" d="M4462.233,2647.091l-1350.8,191.682,1400.694-5.486Z" fill="#383942"/>
          <path id="Path_38" data-name="Path 38" d="M4525.228,2932.822l-1413.8-94.049,1413.8,286.813Z" fill="#383942"/>
          <path id="Path_39" data-name="Path 39" d="M4512.125,3225.121l-1400.7-386.348,1350.8,572.543Z" fill="#383942"/>
          <path id="Path_40" data-name="Path 40" d="M4423.815,3504.07l-1312.387-665.3L4327.43,3671Z" fill="#383942"/>
          <path id="Path_41" data-name="Path 41" d="M4266.317,3750.656,3111.428,2838.773,4130.01,3886.959Z" fill="#383942"/>
          <path id="Path_42" data-name="Path 42" d="M4050.364,3948.078l-938.936-1109.3,772,1205.684Z" fill="#383942"/>
          <path id="Path_43" data-name="Path 43" d="M3790.673,4082.88,3111.428,2838.773l493.049,1294Z" fill="#383942"/>
          <path id="Path_44" data-name="Path 44" d="M3504.942,4145.875l-393.514-1307.1,200.75,1307.1Z" fill="#383942"/>
          <path id="Path_45" data-name="Path 45" d="M3212.643,4132.772l-101.215-1294-84.977,1244.1Z" fill="#383942"/>
          <path id="Path_46" data-name="Path 46" d="M2933.694,4044.461l177.734-1205.688-344.672,1109.3Z" fill="#383942"/>
          <path id="Path_47" data-name="Path 47" d="M2687.108,3886.964l424.32-1048.191L2550.8,3750.658Z" fill="#383942"/>
          <path id="Path_48" data-name="Path 48" d="M2489.689,3671.011l621.742-832.238-718.124,665.3Z" fill="#383942"/>
        </g>
      </g>
    </g>
    <g id="Group_911" data-name="Group 911" transform="translate(-762 -31)">
      <g id="wallet" transform="translate(1669.045 285.75)">
        <g id="Group_912" data-name="Group 912" transform="translate(0 4)">
          <g id="Group_911-2" data-name="Group 911" transform="translate(0 0)">
            <path id="Path_1173-2" data-name="Path 1173" d="M45.942,24.956h-.806V4.806A.806.806,0,0,0,44.33,4H4.836A4.841,4.841,0,0,0,0,8.836V46.718a4.841,4.841,0,0,0,4.836,4.836H44.33a.806.806,0,0,0,.806-.806V39.464h.806a2.421,2.421,0,0,0,2.418-2.418V27.374A2.421,2.421,0,0,0,45.942,24.956ZM4.836,5.612H43.524V12.06H4.836a3.224,3.224,0,0,1,0-6.448Zm20.15,21.762a.806.806,0,1,1-.806-.806A.807.807,0,0,1,24.986,27.374ZM27.4,41.882a.806.806,0,1,1,.806-.806A.807.807,0,0,1,27.4,41.882Zm16.12,8.06H40.3v-4.03a2.421,2.421,0,0,0-2.418-2.418h-1.76a2.418,2.418,0,1,0,0,1.612h1.76a.807.807,0,0,1,.806.806v4.03H28.21v-6.6a2.418,2.418,0,1,0-1.612,0v6.6h-8.06V36.24a.807.807,0,0,1,.806-.806H21.91a2.418,2.418,0,1,0,0-1.612H19.344a2.421,2.421,0,0,0-2.418,2.418v13.7H4.836a3.227,3.227,0,0,1-3.224-3.224v-.806h9.014a2.418,2.418,0,1,0,0-1.612H1.612V39.464h8.06a2.421,2.421,0,0,0,2.418-2.418V34.48a2.418,2.418,0,1,0-1.612,0v2.566a.807.807,0,0,1-.806.806H1.612v-12.9H5.79a2.418,2.418,0,1,0,0-1.612H1.612V18.508H13.7a2.421,2.421,0,0,1,2.418,2.418V25.1a2.418,2.418,0,1,0,1.612,0V20.926A4.035,4.035,0,0,0,13.7,16.9H1.612V12.437c.014.012.03.021.044.032a4.848,4.848,0,0,0,.6.451c.034.022.068.042.1.062a4.773,4.773,0,0,0,.683.341c.033.014.068.024.1.037a4.778,4.778,0,0,0,.764.22c.024,0,.048.006.073.011a4.828,4.828,0,0,0,.855.081H23.374V25.1a2.418,2.418,0,1,0,1.612,0V13.672H43.524v1.612h-8.06a4.035,4.035,0,0,0-4.03,4.03v.954a2.418,2.418,0,1,0,1.612,0v-.954A2.421,2.421,0,0,1,35.464,16.9h8.06v8.06H37.882A7.26,7.26,0,0,0,31.1,29.67c-.008.021-.015.043-.023.064-.062.17-.119.343-.168.518-.024.085-.045.172-.067.259-.031.126-.06.252-.083.381s-.04.246-.056.371c-.015.109-.028.217-.038.326,0,.047-.013.093-.016.139-.006.084,0,.166,0,.249s-.013.154-.013.232c0,.044.006.086.006.13,0,.136.011.271.021.405.008.107.015.214.028.319.018.15.042.3.068.445.015.085.03.17.048.254.035.164.079.326.126.487.019.063.036.127.056.189.056.172.118.34.186.507.021.05.041.1.063.15.073.168.152.332.238.493q.039.074.08.147.128.23.274.451c.037.056.076.112.114.168.094.135.192.266.3.395.051.063.1.124.157.185.067.078.128.16.2.235.037.039.078.073.116.112.059.06.121.117.181.175.11.1.221.21.338.307.075.063.154.121.231.181.107.082.213.166.324.243s.235.15.354.222c.08.048.158.1.239.146.181.1.367.19.557.276.026.011.051.026.077.037a7.232,7.232,0,0,0,2.875.6h5.642ZM34.658,44.3a.806.806,0,1,1-.806-.806A.807.807,0,0,1,34.658,44.3ZM23.374,34.628a.806.806,0,1,1,.806.806A.807.807,0,0,1,23.374,34.628ZM12.09,45.106a.806.806,0,1,1,.806.806A.807.807,0,0,1,12.09,45.106Zm-1.612-12.9a.806.806,0,1,1,.806.806A.807.807,0,0,1,10.478,32.21ZM7.254,24.15a.806.806,0,1,1,.806.806A.807.807,0,0,1,7.254,24.15Zm9.672,2.418a.806.806,0,1,1-.806.806A.807.807,0,0,1,16.926,26.568Zm16.12-4.03a.806.806,0,1,1-.806-.806A.807.807,0,0,1,33.046,22.538Zm13.7,14.508a.807.807,0,0,1-.806.806h-8.06a5.613,5.613,0,0,1-3.527-1.245c-.026-.021-.052-.039-.077-.061-.1-.084-.2-.173-.289-.264-.044-.042-.089-.083-.132-.127-.084-.085-.164-.176-.243-.267-.043-.049-.086-.1-.127-.15-.079-.1-.154-.2-.226-.3-.031-.044-.062-.089-.092-.135q-.111-.169-.21-.347c-.023-.039-.044-.08-.065-.12q-.1-.185-.182-.377c-.018-.041-.035-.083-.052-.125-.052-.127-.1-.255-.141-.386-.017-.052-.032-.1-.047-.157-.035-.122-.068-.244-.1-.368-.015-.069-.027-.139-.04-.209-.02-.11-.038-.222-.051-.334-.01-.086-.016-.173-.023-.26s-.014-.2-.015-.305,0-.192,0-.288.006-.2.015-.3.019-.171.03-.256.027-.191.044-.285.043-.208.069-.311c.015-.06.03-.119.046-.178A5.836,5.836,0,0,1,38.1,26.568h7.839a.807.807,0,0,1,.806.806Z" transform="translate(0 -4)" fill="#d2d2d4"/>
          </g>
        </g>
        <g id="Group_914" data-name="Group 914" transform="translate(34.658 28.986)">
          <g id="Group_913" data-name="Group 913">
            <path id="Path_1174" data-name="Path 1174" d="M347.224,252a3.224,3.224,0,1,0,3.224,3.224A3.227,3.227,0,0,0,347.224,252Zm0,4.836a1.612,1.612,0,1,1,1.612-1.612A1.614,1.614,0,0,1,347.224,256.836Z" transform="translate(-344 -252)" fill="#d2d2d4"/>
          </g>
        </g>
      </g>
      <g id="Group_125" data-name="Group 125" transform="translate(1670.839 290.373)">
        <path id="Path_36-2" data-name="Path 36" d="M1181.636,2813.5h-35.63a3.155,3.155,0,1,1,0-6.311h35.63a3.155,3.155,0,1,1,0,6.311Z" transform="translate(-1142.851 -2807.189)" fill="#fff"/>
      </g>
      <g id="Group_129" data-name="Group 129" transform="translate(1674.045 267.298)">
        <g id="Group_128" data-name="Group 128" clip-path="url(#clip-path-3)">
          <g id="Group_127" data-name="Group 127" transform="translate(0.006 0.643)">
            <g id="Group_126" data-name="Group 126">
              <circle id="Ellipse_26" data-name="Ellipse 26" cx="16.803" cy="16.803" r="16.803" transform="translate(0.736 0.736)" fill="#161620"/>
              <path id="Path_37-2" data-name="Path 37" d="M1168.359,2786.612a17.539,17.539,0,1,1,17.539-17.539A17.559,17.559,0,0,1,1168.359,2786.612Zm0-33.605a16.067,16.067,0,1,0,16.066,16.066A16.084,16.084,0,0,0,1168.359,2753.006Z" transform="translate(-1150.82 -2751.534)" fill="#fff"/>
            </g>
            <circle id="Ellipse_27" data-name="Ellipse 27" cx="13.555" cy="13.555" r="13.555" transform="translate(3.985 3.984)" fill="#fff"/>
            <path id="Heart" d="M1178.1,2784.343a4.114,4.114,0,0,1,5.669-.142l.152.145a4.114,4.114,0,0,1,5.962,5.666l-.145.151-5.817,5.818-5.818-5.818a4.115,4.115,0,0,1,0-5.819Z" transform="translate(-1166.386 -2770.395)" fill="#ee306f"/>
          </g>
        </g>
      </g>
      <g id="Group_132" data-name="Group 132" transform="translate(1733.692 215.508)">
        <g id="Group_130" data-name="Group 130">
          <circle id="Ellipse_28" data-name="Ellipse 28" cx="16.803" cy="16.803" r="16.803" transform="translate(0.738 0.738)" fill="#161620"/>
          <path id="Path_38-2" data-name="Path 38" d="M1316.3,2656.522a17.552,17.552,0,1,1,1.819-.093A17.881,17.881,0,0,1,1316.3,2656.522Zm.063-33.609a16.347,16.347,0,0,0-1.667.085,16.015,16.015,0,1,0,1.667-.085Z" transform="translate(-1298.796 -2621.441)" fill="#fff"/>
        </g>
        <g id="Group_131" data-name="Group 131" transform="translate(3.986 3.986)">
          <circle id="Ellipse_29" data-name="Ellipse 29" cx="13.555" cy="13.555" r="13.555" fill="#fff"/>
        </g>
        <g id="Heart-2" data-name="Heart" transform="translate(10.407 11.955)">
          <path id="Path_39-2" data-name="Path 39" d="M1325.541,2653.22a4.114,4.114,0,0,1,5.625-.718l.166.129a4.114,4.114,0,0,1,6.508,5.03l-.129.165-5.195,6.38-6.381-5.2a4.115,4.115,0,0,1-.6-5.788Z" transform="translate(-1324.617 -2651.102)" fill="#ee306f"/>
        </g>
      </g>
      <g id="Group_136" data-name="Group 136" transform="translate(1694.709 232.469)">
        <g id="Group_134" data-name="Group 134">
          <circle id="Ellipse_30" data-name="Ellipse 30" cx="16.803" cy="16.803" r="16.803" transform="translate(0.746 0.737)" fill="#161620"/>
          <path id="Path_41-2" data-name="Path 41" d="M1219.628,2698.612a17.575,17.575,0,1,1,7.039-1.486A17.529,17.529,0,0,1,1219.628,2698.612Zm.013-33.616a16.069,16.069,0,1,0,5.822,1.1A16.093,16.093,0,0,0,1219.642,2665Z" transform="translate(-1202.074 -2663.524)" fill="#fff"/>
        </g>
        <g id="Group_135" data-name="Group 135" transform="translate(3.994 3.985)">
          <circle id="Ellipse_31" data-name="Ellipse 31" cx="13.555" cy="13.555" r="13.555" fill="#fff"/>
        </g>
        <g id="Heart-3" data-name="Heart" transform="translate(11.144 11.272)">
          <path id="Path_42-2" data-name="Path 42" d="M1232.186,2691.839a4.113,4.113,0,0,1,5.332,1.93l.089.19a4.113,4.113,0,0,1,3.494,7.446l-.19.088-7.535,3.305-3.3-7.536a4.114,4.114,0,0,1,2.111-5.422Z" transform="translate(-1229.723 -2691.491)" fill="#ee306f"/>
        </g>
      </g>
    </g>
  </g>
</svg>
