<svg xmlns="http://www.w3.org/2000/svg" width="18.2" height="18.2" viewBox="0 0 18.2 18.2">
  <g id="history_1_" data-name="history (1)" transform="translate(-187.359 -93.903)">
    <path id="Path_927" data-name="Path 927" d="M189.673,99.287a8.192,8.192,0,1,1,.6,6.9.91.91,0,1,1,1.575-.912,6.368,6.368,0,1,0-.623-4.884l1.594-.91a.91.91,0,0,1,.9,1.58l-3.185,1.82a.911.911,0,0,1-1.261-.375l-1.82-3.552a.91.91,0,0,1,1.62-.83Zm8.606,2.43,2.463,2.463a.91.91,0,1,1-1.287,1.287l-2.73-2.73a.909.909,0,0,1-.267-.643v-3.64a.91.91,0,0,1,1.82,0Z" fill="currentColor" fill-rule="evenodd"/>
  </g>
</svg>
