<svg xmlns="http://www.w3.org/2000/svg" xmlns:xlink="http://www.w3.org/1999/xlink" width="36" height="36" viewBox="0 0 36 36">
  <defs>
    <clipPath id="clip-path">
      <ellipse id="Ellipse_37" data-name="Ellipse 37" cx="18" cy="18" rx="18" ry="18" transform="translate(0 0)" fill="#cfcfcf"/>
    </clipPath>
  </defs>
  <g id="Group_911" data-name="Group 911" transform="translate(-181 -542)">
    <g id="Group_902" data-name="Group 902" transform="translate(181 542)">
      <ellipse id="Ellipse_36" data-name="Ellipse 36" cx="18" cy="18" rx="18" ry="18" fill="#cfcfcf"/>
    </g>
    <g id="Mask_Group_1" data-name="Mask Group 1" transform="translate(181 542)" clip-path="url(#clip-path)">
      <g id="Group_910" data-name="Group 910" transform="translate(4.064 4.646)">
        <g id="Group_904" data-name="Group 904" transform="translate(0)">
          <path id="Path_1168" data-name="Path 1168" d="M267.9,266.039a3.031,3.031,0,0,1-.1-2.839l1.928-3.978H268.1a40.871,40.871,0,0,0-16.874,3.553c-.078-.008-.157-.01-.236-.013a6.784,6.784,0,0,0,1.607-4.425c0-3.563-2.637-6.462-5.879-6.462s-5.879,2.9-5.879,6.462a6.784,6.784,0,0,0,1.607,4.425,4.613,4.613,0,0,0-3.424,1.722l-4.835,5.787a4.787,4.787,0,0,0,.468,6.643l5.278,4.763v12.061a2.508,2.508,0,0,0,2.507,2.556h.736a2.531,2.531,0,0,0,2.456-2.006l1.087-5.99,1.094,6.027a2.522,2.522,0,0,0,2.449,1.97h.736a2.508,2.508,0,0,0,2.507-2.536V281.676l.054-.049c1.7,1.858,5.045,5.146,7.49,5.146a2.325,2.325,0,0,0,.715-.107c.726-.234,1.629-.924,1.8-2.888.4-4.513,2.373-5.171,3.021-5.388a2.548,2.548,0,0,0,1.668-1.978l.3-.8-.83-.289c-.066-.041-.387-.286-.235-1.109a6.934,6.934,0,0,1,1.532-2.8l.2-.216.053-.288a5.23,5.23,0,0,0-.612-3.566Z" transform="translate(-233.06 -251.875)" fill="#fff"/>
        </g>
        <g id="Group_909" data-name="Group 909" transform="translate(0)">
          <g id="Group_905" data-name="Group 905" transform="translate(9.822 2.048)">
            <path id="Path_1169" data-name="Path 1169" d="M268.194,258.4a4.459,4.459,0,1,1-3.831,4.414A4.159,4.159,0,0,1,268.194,258.4Z" transform="translate(-264.363 -258.401)" fill="#fff"/>
          </g>
          <g id="Group_906" data-name="Group 906" transform="translate(2.05 12.923)">
            <path id="Path_1170" data-name="Path 1170" d="M255.935,302.172v19.867a.46.46,0,0,1-.459.469h-.736a.45.45,0,0,1-.442-.324L252.2,310.645a1.024,1.024,0,0,0-2.015,0l-2.087,11.5a.456.456,0,0,1-.449.361h-.736a.458.458,0,0,1-.328-.138.474.474,0,0,1-.131-.351V302.172a1.024,1.024,0,1,0-2.047,0v5.009l-3.905-3.525a2.746,2.746,0,0,1-.268-3.81l4.849-5.8a2.6,2.6,0,0,1,2.039-.981h8.143a2.608,2.608,0,0,1,2.053,1l4.834,5.786a2.746,2.746,0,0,1-.268,3.811l-3.9,3.524v-5.008a1.024,1.024,0,1,0-2.048,0Z" transform="translate(-239.594 -293.061)" fill="#fff"/>
          </g>
          <g id="Group_907" data-name="Group 907" transform="translate(20.771 9.43)">
            <path id="Path_1171" data-name="Path 1171" d="M312.718,290.908a8.669,8.669,0,0,0-1.819,3.554,3.225,3.225,0,0,0,.49,2.6l-.03.012c-2.585.862-4.069,3.268-4.413,7.149-.062.707-.241,1.072-.39,1.12-.858.277-3.57-1.751-6.057-4.462l3.7-3.34a4.788,4.788,0,0,0,.468-6.644l-4.82-5.769a4.691,4.691,0,0,0-.593-.609,40.423,40.423,0,0,1,12.614-2.588l-.486,1a5.076,5.076,0,0,0,.172,4.754l.754,1.308A3.188,3.188,0,0,1,312.718,290.908Z" transform="translate(-299.255 -281.927)" fill="#dd1800"/>
          </g>
          <g id="Group_908" data-name="Group 908">
            <path id="Path_1172" data-name="Path 1172" d="M267.9,266.039a3.031,3.031,0,0,1-.1-2.839l1.928-3.978H268.1a40.878,40.878,0,0,0-16.874,3.553c-.078-.007-.157-.01-.236-.013a6.784,6.784,0,0,0,1.607-4.425c0-3.563-2.637-6.462-5.879-6.462s-5.879,2.9-5.879,6.462a6.784,6.784,0,0,0,1.607,4.425,4.614,4.614,0,0,0-3.424,1.722l-4.835,5.787a4.787,4.787,0,0,0,.468,6.643l5.278,4.763v12.061a2.508,2.508,0,0,0,2.507,2.556h.736a2.532,2.532,0,0,0,2.456-2.006l1.087-5.99,1.094,6.027a2.522,2.522,0,0,0,2.449,1.97h.736a2.508,2.508,0,0,0,2.507-2.536V281.676l.054-.049c1.7,1.858,5.045,5.146,7.49,5.146a2.325,2.325,0,0,0,.715-.107c.726-.234,1.629-.924,1.8-2.888.4-4.513,2.373-5.171,3.021-5.388a2.548,2.548,0,0,0,1.668-1.978l.3-.8-.83-.289c-.066-.041-.388-.286-.235-1.109a6.934,6.934,0,0,1,1.532-2.8l.2-.216.053-.288a5.229,5.229,0,0,0-.612-3.565Zm-21.191-12.117a4.459,4.459,0,1,1-3.831,4.414A4.159,4.159,0,0,1,246.713,253.923Zm4.739,19.987v19.867a.459.459,0,0,1-.459.469h-.736a.45.45,0,0,1-.441-.324l-2.094-11.539a1.024,1.024,0,0,0-2.015,0l-2.087,11.5a.456.456,0,0,1-.449.361h-.736a.458.458,0,0,1-.328-.138.474.474,0,0,1-.132-.351V273.909a1.024,1.024,0,1,0-2.047,0v5.009l-3.905-3.525a2.746,2.746,0,0,1-.268-3.81l4.849-5.8a2.6,2.6,0,0,1,2.039-.981h8.143a2.608,2.608,0,0,1,2.053,1l4.835,5.786a2.746,2.746,0,0,1-.268,3.811l-3.9,3.524v-5.008a1.024,1.024,0,1,0-2.048,0Zm15.842-3.624a8.669,8.669,0,0,0-1.819,3.554,3.225,3.225,0,0,0,.49,2.6l-.03.012c-2.585.862-4.069,3.268-4.413,7.149-.062.707-.241,1.072-.39,1.12-.858.277-3.57-1.752-6.057-4.462l3.7-3.341a4.788,4.788,0,0,0,.468-6.644l-4.82-5.769a4.7,4.7,0,0,0-.593-.609,40.417,40.417,0,0,1,12.614-2.588l-.486,1a5.076,5.076,0,0,0,.172,4.754l.754,1.308A3.186,3.186,0,0,1,267.294,270.285Z" transform="translate(-233.06 -251.875)" fill="#231f20"/>
          </g>
        </g>
      </g>
    </g>
  </g>
</svg>
