<svg id="Group_26" data-name="Group 26" xmlns="http://www.w3.org/2000/svg" xmlns:xlink="http://www.w3.org/1999/xlink" width="50" height="50" viewBox="0 0 50 50">
  <defs>
    <clipPath id="clip-path">
      <circle id="Ellipse_1" data-name="Ellipse 1" cx="21.667" cy="21.667" r="21.667" transform="translate(0)" fill="#1d1d23"/>
    </clipPath>
  </defs>
  <path id="Path_13" data-name="Path 13" d="M25,0A25,25,0,1,1,0,25,25,25,0,0,1,25,0Z" fill="#121217"/>
  <g id="Mask_Group_1" data-name="Mask Group 1" transform="translate(3.333 6.667)" clip-path="url(#clip-path)">
    <g id="user" transform="translate(7.204 0.25)">
      <path id="Path_8" data-name="Path 8" d="M30.906,29.686V27.4H28.623V25.119H24.056V22.835h2.284V20.552h2.284V18.268h2.284V6.851H28.623V4.567H26.339V2.284H24.056V0H13.4V2.284H11.116V4.567H8.832V6.851H6.549V18.268H8.832v2.284h2.284v2.284H13.4v2.284H8.832V27.4H6.549v2.284H4.265V42.833H33.19V29.686Z" transform="translate(-4.265)" fill="#bcbcc4"/>
      <g id="Group_25" data-name="Group 25" transform="translate(6.829 7.351)">
        <path id="Path_9" data-name="Path 9" d="M29.014,12.648a.385.385,0,0,0-.258-.1H27.618V11.76a.353.353,0,0,0-.368-.336h-.887v-.792A.353.353,0,0,0,26,10.3h-2.51a.353.353,0,0,0-.368.336v.792h-.887a.36.36,0,0,0-.363.281h-.781a.359.359,0,0,0-.363-.281h-.887v-.792a.353.353,0,0,0-.368-.336H16.96a.353.353,0,0,0-.368.336v.792h-.887a.353.353,0,0,0-.368.336v.792H14.2a.353.353,0,0,0-.368.336V17.17a.353.353,0,0,0,.368.336h1.138v1.242a.353.353,0,0,0,.368.336h1.389v1.242a.353.353,0,0,0,.368.336H18.6V21.9a.353.353,0,0,0,.368.336h1.138v.566a.353.353,0,0,0,.368.336h2.008a.353.353,0,0,0,.368-.336v-.566h1.138a.353.353,0,0,0,.368-.336V20.661h1.138a.353.353,0,0,0,.368-.336V19.083H27.25a.353.353,0,0,0,.368-.336V17.505h1.138a.353.353,0,0,0,.368-.336V12.887A.319.319,0,0,0,29.014,12.648Z" transform="translate(-13.832 -10.298)" fill="#ff4784"/>
      </g>
      <path id="Path_10" data-name="Path 10" d="M0,0H.833V8.916H0Z" transform="translate(3.629 33.916)" fill="#121217"/>
      <path id="Path_11" data-name="Path 11" d="M0,0H.833V8.916H0Z" transform="translate(24.462 33.916)" fill="#121217"/>
    </g>
  </g>
  <g id="Path_12" data-name="Path 12" fill="none">
    <path d="M25,0A25,25,0,1,1,0,25,25,25,0,0,1,25,0Z" stroke="none"/>
    <path d="M 25 1 C 21.75958061218262 1 18.61661911010742 1.634418487548828 15.65842056274414 2.885631561279297 C 12.80064010620117 4.094371795654297 10.23387908935547 5.825000762939453 8.029441833496094 8.029441833496094 C 5.825000762939453 10.23387908935547 4.094371795654297 12.80064010620117 2.885631561279297 15.65842056274414 C 1.634418487548828 18.61661911010742 1 21.75958061218262 1 25 C 1 28.24041938781738 1.634418487548828 31.38338088989258 2.885631561279297 34.34157943725586 C 4.094371795654297 37.19935989379883 5.825000762939453 39.76612091064453 8.029441833496094 41.97055816650391 C 10.23387908935547 44.17499923706055 12.80064010620117 45.90563201904297 15.65842056274414 47.1143684387207 C 18.61661911010742 48.36558151245117 21.75958061218262 49 25 49 C 28.24041938781738 49 31.38338088989258 48.36558151245117 34.34157943725586 47.1143684387207 C 37.19935989379883 45.90563201904297 39.76612091064453 44.17499923706055 41.97055816650391 41.97055816650391 C 44.17499923706055 39.76612091064453 45.90563201904297 37.19935989379883 47.1143684387207 34.34157943725586 C 48.36558151245117 31.38338088989258 49 28.24041938781738 49 25 C 49 21.75958061218262 48.36558151245117 18.61661911010742 47.1143684387207 15.65842056274414 C 45.90563201904297 12.80064010620117 44.17499923706055 10.23387908935547 41.97055816650391 8.029441833496094 C 39.76612091064453 5.825000762939453 37.19935989379883 4.094371795654297 34.34157943725586 2.885631561279297 C 31.38338088989258 1.634418487548828 28.24041938781738 1 25 1 M 25 0 C 38.80712127685547 0 50 11.19287872314453 50 25 C 50 38.80712127685547 38.80712127685547 50 25 50 C 11.19287872314453 50 0 38.80712127685547 0 25 C 0 11.19287872314453 11.19287872314453 0 25 0 Z" stroke="none" fill="#bcbcc4"/>
  </g>
</svg>
