<svg xmlns="http://www.w3.org/2000/svg" width="26" height="26" viewBox="0 0 18.2 18.2">
  <g id="Icon_Trending" data-name="Icon/Trending" transform="translate(-0.9 -0.9)">
    <path id="User" d="M9.1,18.2a9.1,9.1,0,1,1,9.1-9.1A9.11,9.11,0,0,1,9.1,18.2Zm0-6.5a3.9,3.9,0,0,0-3.87,3.413,7.152,7.152,0,0,0,7.739,0A3.906,3.906,0,0,0,9.12,11.7Zm0-9.75a7.15,7.15,0,0,0-5.516,11.7,5.849,5.849,0,0,1,2.685-3.17,3.9,3.9,0,1,1,5.663,0,5.839,5.839,0,0,1,2.686,3.166A7.15,7.15,0,0,0,9.1,1.95Zm0,3.9a1.95,1.95,0,0,0-.018,3.9H9.1a1.95,1.95,0,1,0,0-3.9Z" transform="translate(0.9 0.9)" fill="#67b6f7"/>
  </g>
</svg>
