<svg xmlns="http://www.w3.org/2000/svg" width="45.345" height="37.252" viewBox="0 0 45.345 37.252">
  <g id="Group_111" data-name="Group 111" transform="matrix(0.966, 0.259, -0.259, 0.966, -38.697, 2.565)">
    <path id="Path_6" data-name="Path 6" d="M81.319-11.655l-1.815.3L74.184-9.5c.007-.088.026-.173.026-.263a3.252,3.252,0,0,0-3.252-3.252,3.422,3.422,0,0,0-3.252,3.252,2.914,2.914,0,0,0,.238,1.224L66.193-8.63l-5.748.907L57.571-3.185,57.824-.7,55.454,2.26l-8.622,8.32.6,1.664,2.42.453,3.177-2.268,4.084-2.874.453.907,2.269,1.21,5.748,1.664,1.21-1.059L67.4,7.706l.152-5.9,3.479-3.328,5.142-4.084,5.446-3.176.907-1.664Z" fill="#14151f"/>
    <g id="Group_107" data-name="Group 107">
      <path id="Path_7" data-name="Path 7" d="M58.378-7.381A24.727,24.727,0,0,0,53.14-5.646a9,9,0,0,1-7.543.375l-.383-.175.074.412a20.208,20.208,0,0,0,.98,3.517c1.272,3.255,3.227,5.327,5.809,6.159l.121.039L56.483.832,56.459-.414a6.81,6.81,0,0,1,.429-2.539l1.088-3.039L58-6.037a6,6,0,0,1,.6-1l.347-.468Z" fill="#ee306f"/>
      <g id="Group_106" data-name="Group 106">
        <g id="Group_105" data-name="Group 105">
          <g id="Group_104" data-name="Group 104">
            <path id="Path_8" data-name="Path 8" d="M50.826,5.619,47.089,8.988a2.628,2.628,0,0,0-.354,3.541,2.583,2.583,0,0,0,2.112,1.1,2.82,2.82,0,0,0,1.368-.374c.022-.022.044-.022.066-.044l5.743-4.027L64.8,11.89a2.745,2.745,0,0,0,.726.11,2.454,2.454,0,0,0,2.443-2.443V3.968a1.12,1.12,0,0,1,.243-.682l3.9-4.577a9.056,9.056,0,0,1,2.2-1.893l7.834-4.841c.022-.022.044-.022.044-.044a2.307,2.307,0,0,0,.531-3.219,2.308,2.308,0,0,0-2.431-.895L75.4-10.818a4.579,4.579,0,0,0-5.49-3.433A4.579,4.579,0,0,0,66.36-9.806a1.079,1.079,0,0,0,.022.266L61.805-9.1a21.419,21.419,0,0,0-9.219,2.2c-4.731,2.135-7.436-.177-7.547-.286a.768.768,0,0,0-.88-.11.788.788,0,0,0-.443.77,20.188,20.188,0,0,0,1.255,5.479A11.366,11.366,0,0,0,50.826,5.619Zm23.127-15.4a2.991,2.991,0,0,1-3,2.988,2.992,2.992,0,0,1-2.988-3,2.992,2.992,0,0,1,2.992-2.988,2.992,2.992,0,0,1,2.992,2.992h0ZM48.142,10.129l7.041-6.337L57.295,1.9h0l6.272-5.633a.8.8,0,0,0,.246-1.1.8.8,0,0,0-1.1-.245A.8.8,0,0,0,62.594-5a.973.973,0,0,0-.083.074L57.824-.7a5.6,5.6,0,0,1,.354-1.8l1.1-3.037a3.446,3.446,0,0,1,2.663-2h0l4.819-.461a4.573,4.573,0,0,0,6,2.4A4.573,4.573,0,0,0,75.5-9.183l5.193-1.474a.721.721,0,0,1,.815.418.672.672,0,0,1-.22.88L73.471-4.547a10.767,10.767,0,0,0-2.576,2.2L67,2.208a2.7,2.7,0,0,0-.638,1.7V9.492a.847.847,0,0,1-.354.683.91.91,0,0,1-.748.132l-7.61-2.329,1.012-.708h2.112a2.7,2.7,0,0,0,1.914-.792,2.652,2.652,0,0,0,.748-1.936l-.066-1.034V3.463a.192.192,0,0,0-.022-.11c0-.022,0-.022-.022-.044-.022-.044-.022-.066-.044-.11,0-.022-.022-.022-.022-.044-.022-.022-.022-.044-.044-.066l-.022-.022a.022.022,0,0,0-.02-.022h0a.79.79,0,0,0-1.056-.154L57.952,5.818h0L49.4,11.823a1.038,1.038,0,0,1-1.386-.308A.987.987,0,0,1,48.142,10.129ZM46.469-1.6A19.863,19.863,0,0,1,45.5-5.076c1.541.683,4.181,1.21,7.723-.375a23.992,23.992,0,0,1,5.192-1.716,5.368,5.368,0,0,0-.62,1.034.074.074,0,0,1-.022.044l-1.1,3.059A7.069,7.069,0,0,0,56.23-.411L56.252.733,53.876,2.868,52.139,4.43C49.615,3.617,47.724,1.592,46.469-1.6Z" fill="#d4d4d6"/>
          </g>
        </g>
      </g>
    </g>
  </g>
</svg>
