<svg xmlns="http://www.w3.org/2000/svg" width="105.729" height="17" viewBox="0 0 105.729 17">
  <g id="Brand_Aeternity_Logo" data-name="Brand/Aeternity Logo" transform="translate(0)">
    <g id="Brand_E_Mark" data-name="Brand/E Mark" transform="translate(0)">
      <path id="e" d="M27.1,17c-4.241,0-6.864-3.063-9.878-7.59S12.055,2.05,8.6,2.05A6.5,6.5,0,0,0,2.066,8.5,6.5,6.5,0,0,0,8.6,14.95c2.827,0,4.846-2.044,6.746-4.642l1.22,1.807C14.491,14.819,12.093,17,8.6,17A8.559,8.559,0,0,1,0,8.5,8.559,8.559,0,0,1,8.6,0c4.241,0,6.974,3.2,9.87,7.582S23.646,14.95,27.1,14.95a6.547,6.547,0,0,0,5.739-3.375h2.275a8.61,8.61,0,0,1-8,5.425ZM25.488,9.525V7.475H33.55A6.516,6.516,0,0,0,27.1,2.05c-2.828,0-4.847,2.045-6.748,4.645L19.126,4.9C21.2,2.188,23.6,0,27.1,0a8.559,8.559,0,0,1,8.6,8.5,8.671,8.671,0,0,1-.063,1.025Z" transform="translate(0)" fill="#f72a6e"/>
    </g>
    <path id="aeternity" d="M56.151,16.706V15.055l.4.026a2.064,2.064,0,0,0,1.21-.293,1.944,1.944,0,0,0,.643-.982l.306-.813-3.321-9.4h2.29l2,6.413L61.6,3.591h2.264L60.109,14.478q-.865,2.385-2.936,2.385A3.784,3.784,0,0,1,56.151,16.706ZM24.977,13.22A4.414,4.414,0,0,1,21.7,11.949a4.633,4.633,0,0,1-1.254-3.386V8.3A5.7,5.7,0,0,1,21,5.772a4.147,4.147,0,0,1,1.534-1.735,4.05,4.05,0,0,1,2.155-.62h.047a3.727,3.727,0,0,1,2.984,1.232,5.236,5.236,0,0,1,1.053,3.487v.856H22.592a2.859,2.859,0,0,0,.782,1.853,2.336,2.336,0,0,0,1.656.682H25.1a2.887,2.887,0,0,0,2.377-1.18l1.145,1.093A3.838,3.838,0,0,1,27.1,12.753a4.781,4.781,0,0,1-2.052.468ZM23.312,5.732a3.19,3.19,0,0,0-.686,1.7h4.046V7.278A2.6,2.6,0,0,0,26.1,5.666a1.787,1.787,0,0,0-1.381-.546h-.063A1.791,1.791,0,0,0,23.312,5.732ZM3.285,13.22a3.54,3.54,0,0,1-2.411-.769A2.7,2.7,0,0,1,0,10.319,2.486,2.486,0,0,1,1.039,8.187a5.257,5.257,0,0,1,3.076-.751H5.784v-.62A1.778,1.778,0,0,0,5.369,5.57a1.544,1.544,0,0,0-1.184-.45,2.065,2.065,0,0,0-1.3.389,1.18,1.18,0,0,0-.5.966L.271,6.309A2.487,2.487,0,0,1,1.376,4.225,4.689,4.689,0,0,1,4.2,3.416,3.6,3.6,0,0,1,7.121,4.578,3.811,3.811,0,0,1,9.962,3.416h.051a3.743,3.743,0,0,1,2.892,1.132,4.551,4.551,0,0,1,1.04,3.184v1.2H7.872a2.943,2.943,0,0,0,.743,1.905,2.438,2.438,0,0,0,1.835.69h.08a4.419,4.419,0,0,0,2.052-.508l.533-.3.638,1.451a4.5,4.5,0,0,1-1.525.769,6.421,6.421,0,0,1-1.874.28h-.027a4.326,4.326,0,0,1-3.434-1.407,3.7,3.7,0,0,1-1.5,1.04,5.7,5.7,0,0,1-2.02.368ZM2.639,9.328a1.266,1.266,0,0,0-.525,1.027,1.143,1.143,0,0,0,.407.913,1.775,1.775,0,0,0,1.175.346,2.763,2.763,0,0,0,1.1-.258,3.314,3.314,0,0,0,.987-.634V8.895H4.072A2.344,2.344,0,0,0,2.639,9.328Zm5.954-3.6A3.04,3.04,0,0,0,7.9,7.436h3.95V7.174a2.22,2.22,0,0,0-.476-1.52,1.734,1.734,0,0,0-1.359-.534H9.958A1.848,1.848,0,0,0,8.593,5.723Zm42.2,4.8V5.164H49.237V3.591h1.555v-2.3h2.123v2.3h1.669V5.164H52.916v5.278a1.161,1.161,0,0,0,.214.782.99.99,0,0,0,.764.24,3.336,3.336,0,0,0,.743-.087v1.642a5.252,5.252,0,0,1-1.4.2Q50.792,13.22,50.792,10.52Zm-34.8,0V5.164H14.433V3.591h1.555v-2.3h2.124v2.3h1.669V5.164H18.113v5.278a1.161,1.161,0,0,0,.214.782.99.99,0,0,0,.764.24,3.322,3.322,0,0,0,.742-.087v1.642a5.246,5.246,0,0,1-1.4.2Q15.989,13.22,15.989,10.52Zm31.823,2.525H45.689V3.591h2.123v9.454h0Zm-5.853,0V6.92a1.946,1.946,0,0,0-.389-1.332A1.634,1.634,0,0,0,40.3,5.155a2.047,2.047,0,0,0-1.913,1.162v6.728H36.262V3.591h2l.061,1.093a3.4,3.4,0,0,1,2.752-1.267q2.954,0,3.006,3.381v6.248Zm-11.756,0V3.591H32.23l.052,1.057a2.392,2.392,0,0,1,2.132-1.232,1.982,1.982,0,0,1,.751.122l-.009,1.993a5.16,5.16,0,0,0-.865-.07A1.946,1.946,0,0,0,32.326,6.58v6.466ZM45.868,1.935a1.1,1.1,0,0,1-.31-.8,1.131,1.131,0,0,1,.31-.813A1.18,1.18,0,0,1,46.756,0a1.2,1.2,0,0,1,.891.323,1.126,1.126,0,0,1,.314.813,1.1,1.1,0,0,1-.314.8,1.2,1.2,0,0,1-.891.32A1.182,1.182,0,0,1,45.868,1.935Z" transform="translate(41.863 0.076)" fill="#fff"/>
  </g>
</svg>
