<svg width="180" height="52" fill="none" xmlns="http://www.w3.org/2000/svg"><path d="M179 46.003c0 2.771-2.291 5.016-5.126 5.016H6.132C3.3 51.019 1 48.774 1 46.003v-40C1 3.234 3.3.982 6.132.982h167.741c2.836 0 5.126 2.253 5.126 5.022l.001 40z" fill="#000"/><path d="M173.333 1.042c3.087 0 5.599 2.449 5.599 5.458v39c0 3.01-2.512 5.458-5.599 5.458H6.667c-3.087 0-5.599-2.448-5.599-5.458v-39c0-3.01 2.512-5.458 5.599-5.458h166.666zm0-1.042H6.667C3.002 0 0 2.927 0 6.5v39C0 49.073 3.002 52 6.667 52h166.666c3.665 0 6.667-2.927 6.667-6.5v-39c0-3.573-3.002-6.5-6.667-6.5z" fill="#A6A6A6"/><path d="M40.17 25.72c-.038-4.19 3.52-6.23 3.682-6.324-2.015-2.864-5.137-3.255-6.235-3.286-2.622-.27-5.166 1.53-6.502 1.53-1.363 0-3.42-1.504-5.638-1.46-2.853.043-5.522 1.653-6.986 4.155-3.022 5.1-.768 12.594 2.126 16.716 1.448 2.02 3.14 4.273 5.355 4.194 2.167-.087 2.976-1.347 5.59-1.347 2.591 0 3.351 1.347 5.61 1.296 2.325-.036 3.79-2.028 5.187-4.065 1.673-2.314 2.345-4.593 2.372-4.71-.055-.018-4.516-1.678-4.56-6.7zM35.904 13.398c1.165-1.421 1.963-3.354 1.741-5.316-1.686.073-3.796 1.138-5.01 2.527-1.075 1.225-2.035 3.232-1.787 5.12 1.895.138 3.84-.932 5.056-2.331zM71.527 40.955h-3.028l-1.659-5.081h-5.765l-1.58 5.081h-2.948l5.712-17.3h3.528l5.74 17.3zm-5.187-7.213-1.5-4.518c-.159-.462-.456-1.548-.895-3.26h-.053a123.23 123.23 0 0 1-.843 3.26l-1.473 4.518h4.764zM86.216 34.564c0 2.122-.588 3.799-1.764 5.03-1.053 1.096-2.361 1.643-3.923 1.643-1.685 0-2.896-.59-3.633-1.77h-.053v6.571H74v-13.45c0-1.335-.036-2.704-.105-4.108h2.5l.158 1.978h.054c.948-1.49 2.386-2.234 4.317-2.234 1.51 0 2.77.581 3.777 1.745 1.011 1.165 1.515 2.696 1.515 4.595zm-2.896.102c0-1.214-.28-2.215-.843-3.003-.614-.822-1.44-1.233-2.474-1.233-.702 0-1.339.23-1.908.68a3.142 3.142 0 0 0-1.119 1.785 3.544 3.544 0 0 0-.132.845v2.08c0 .908.285 1.673.856 2.299.57.625 1.312.937 2.224.937 1.07 0 1.904-.403 2.5-1.206.597-.805.896-1.866.896-3.184zM100.932 34.564c0 2.122-.588 3.799-1.765 5.03-1.052 1.096-2.36 1.643-3.922 1.643-1.685 0-2.896-.59-3.632-1.77h-.053v6.571h-2.843v-13.45c0-1.335-.036-2.704-.105-4.108h2.5l.159 1.978h.053c.947-1.49 2.385-2.234 4.317-2.234 1.508 0 2.768.581 3.779 1.745 1.007 1.165 1.512 2.696 1.512 4.595zm-2.896.102c0-1.214-.281-2.215-.844-3.003-.615-.822-1.437-1.233-2.473-1.233-.703 0-1.339.23-1.91.68a3.14 3.14 0 0 0-1.117 1.785c-.087.343-.132.624-.132.845v2.08c0 .908.285 1.673.853 2.299.571.624 1.312.937 2.227.937 1.07 0 1.904-.403 2.5-1.206.597-.805.896-1.866.896-3.184zM117.385 36.104c0 1.471-.524 2.669-1.576 3.593-1.156 1.01-2.765 1.514-4.833 1.514-1.909 0-3.44-.358-4.599-1.077l.659-2.31c1.248.735 2.617 1.105 4.109 1.105 1.071 0 1.904-.237 2.503-.708.596-.47.893-1.102.893-1.89 0-.702-.245-1.293-.737-1.773-.489-.48-1.307-.926-2.448-1.338-3.107-1.13-4.659-2.784-4.659-4.96 0-1.423.544-2.589 1.634-3.496 1.085-.909 2.533-1.363 4.344-1.363 1.614 0 2.956.275 4.026.822l-.71 2.26c-1-.531-2.131-.796-3.396-.796-1 0-1.782.24-2.342.719-.473.427-.71.949-.71 1.566 0 .684.27 1.25.814 1.694.474.41 1.334.855 2.582 1.335 1.526.6 2.648 1.3 3.369 2.104.719.8 1.077 1.803 1.077 2.999zM126.784 30.56h-3.133v6.057c0 1.54.552 2.31 1.658 2.31.508 0 .93-.043 1.263-.129l.079 2.105c-.56.204-1.298.307-2.211.307-1.123 0-2-.334-2.633-1.001-.631-.668-.948-1.789-.948-3.363v-6.288h-1.867v-2.08h1.867v-2.284l2.792-.822v3.106h3.133v2.082zM140.921 34.615c0 1.918-.562 3.492-1.685 4.723-1.177 1.267-2.74 1.9-4.688 1.9-1.877 0-3.372-.608-4.487-1.822-1.114-1.214-1.672-2.747-1.672-4.594 0-1.933.574-3.517 1.724-4.748 1.148-1.232 2.698-1.848 4.646-1.848 1.877 0 3.388.607 4.528 1.822 1.09 1.18 1.634 2.702 1.634 4.567zm-2.949.09c0-1.15-.252-2.137-.763-2.96-.596-.996-1.448-1.493-2.552-1.493-1.142 0-2.01.498-2.606 1.493-.511.824-.763 1.826-.763 3.012 0 1.15.252 2.137.763 2.959.614.995 1.473 1.492 2.581 1.492 1.085 0 1.937-.507 2.552-1.518.524-.839.788-1.836.788-2.985zM150.161 30.918a5.054 5.054 0 0 0-.896-.077c-1 0-1.773.368-2.317 1.105-.473.65-.711 1.472-.711 2.464v6.545h-2.841l.027-8.546c0-1.438-.036-2.747-.107-3.927h2.476l.104 2.387h.079c.3-.82.773-1.481 1.421-1.977a3.495 3.495 0 0 1 2.055-.668c.262 0 .5.018.71.051v2.643zM162.875 34.128c0 .496-.034.915-.104 1.257h-8.528c.033 1.232.445 2.175 1.237 2.825.719.58 1.648.872 2.789.872 1.263 0 2.415-.196 3.451-.59l.445 1.924c-1.21.515-2.64.77-4.289.77-1.984 0-3.541-.569-4.675-1.706-1.13-1.138-1.697-2.665-1.697-4.581 0-1.882.527-3.448 1.581-4.697 1.104-1.334 2.596-2.001 4.474-2.001 1.844 0 3.24.667 4.188 2 .75 1.06 1.128 2.37 1.128 3.927zm-2.711-.72c.019-.82-.167-1.53-.552-2.13-.492-.77-1.248-1.156-2.265-1.156-.93 0-1.686.376-2.263 1.13-.473.6-.755 1.318-.841 2.155h5.921v.002zM65.4 13.012c0 1.53-.47 2.682-1.41 3.455-.871.714-2.109 1.071-3.711 1.071a17.64 17.64 0 0 1-2.044-.101v-8.36A15.46 15.46 0 0 1 60.64 8.9c1.527 0 2.678.324 3.454.97.869.733 1.305 1.78 1.305 3.142zm-1.473.037c0-.992-.27-1.752-.808-2.282-.539-.53-1.326-.795-2.362-.795-.44 0-.814.029-1.125.089v6.355c.172.026.487.038.944.038 1.07 0 1.895-.29 2.476-.87.581-.58.875-1.424.875-2.535zM73.212 14.348c0 .943-.276 1.715-.828 2.32-.579.623-1.345.934-2.303.934-.922 0-1.657-.298-2.205-.896-.547-.596-.82-1.35-.82-2.256 0-.95.281-1.728.847-2.333.565-.604 1.325-.907 2.282-.907.923 0 1.664.298 2.226.894.533.58.801 1.329.801 2.244zm-1.45.044c0-.565-.125-1.05-.374-1.454-.293-.49-.71-.734-1.253-.734-.562 0-.988.245-1.282.734-.25.404-.374.897-.374 1.479 0 .566.125 1.05.374 1.455.303.488.724.733 1.268.733.534 0 .952-.248 1.254-.746.258-.412.388-.901.388-1.467zM83.687 11.335l-1.967 6.128h-1.28l-.815-2.661a19.533 19.533 0 0 1-.505-1.98h-.025c-.122.673-.29 1.332-.506 1.98l-.865 2.66h-1.295l-1.849-6.127h1.436l.71 2.913c.173.689.314 1.346.427 1.967h.026c.104-.512.276-1.165.518-1.954l.892-2.925h1.139l.855 2.863c.206.698.374 1.37.504 2.017h.038c.095-.63.238-1.302.427-2.017l.763-2.863h1.372v-.001zM90.93 17.463h-1.397v-3.51c0-1.082-.421-1.622-1.266-1.622-.415 0-.75.148-1.01.445a1.559 1.559 0 0 0-.388 1.05v3.636h-1.397v-4.376c0-.538-.017-1.122-.05-1.754h1.227l.066.958h.038c.163-.297.406-.543.724-.74a2.407 2.407 0 0 1 1.267-.344c.587 0 1.075.185 1.463.555.482.454.724 1.131.724 2.03v3.672zM94.784 17.463h-1.396v-8.94h1.396v8.94zM103.011 14.348c0 .943-.276 1.715-.828 2.32-.579.623-1.347.934-2.303.934-.924 0-1.659-.298-2.205-.896-.547-.596-.82-1.35-.82-2.256 0-.95.281-1.728.846-2.333.566-.604 1.326-.907 2.282-.907.924 0 1.664.298 2.226.894.534.58.802 1.329.802 2.244zm-1.451.044c0-.565-.125-1.05-.375-1.454-.292-.49-.71-.734-1.252-.734-.562 0-.989.245-1.281.734-.25.404-.375.897-.375 1.479 0 .566.126 1.05.375 1.455.303.488.724.733 1.268.733.533 0 .951-.248 1.252-.746.26-.412.388-.901.388-1.467zM109.773 17.463h-1.254l-.104-.706h-.039c-.429.563-1.041.845-1.836.845-.593 0-1.073-.186-1.435-.555-.328-.335-.492-.753-.492-1.248 0-.749.32-1.32.964-1.715.643-.395 1.547-.589 2.711-.58v-.114c0-.807-.435-1.21-1.305-1.21-.62 0-1.167.152-1.639.453l-.284-.894c.584-.352 1.305-.53 2.156-.53 1.643 0 2.467.846 2.467 2.536v2.257c0 .612.03 1.1.09 1.46zm-1.45-2.106v-.945c-1.542-.026-2.312.386-2.312 1.235 0 .32.088.559.268.719.18.16.409.239.682.239.307 0 .594-.095.855-.284a1.157 1.157 0 0 0 .507-.964zM117.713 17.463h-1.24l-.065-.984h-.039c-.396.749-1.07 1.123-2.018 1.123-.758 0-1.388-.29-1.888-.87-.5-.58-.75-1.332-.75-2.256 0-.992.271-1.796.815-2.41.527-.571 1.172-.857 1.94-.857.844 0 1.435.277 1.771.832h.026V8.523h1.399v7.289c0 .597.016 1.147.049 1.65zm-1.448-2.585v-1.021c0-.177-.013-.32-.038-.43a1.544 1.544 0 0 0-.506-.825 1.393 1.393 0 0 0-.934-.334c-.522 0-.93.202-1.23.606-.297.404-.448.92-.448 1.55 0 .607.143 1.098.43 1.476.302.403.71.605 1.221.605.459 0 .825-.168 1.104-.505.269-.31.401-.685.401-1.121zM129.664 14.348c0 .943-.276 1.715-.828 2.32-.579.623-1.344.934-2.303.934-.921 0-1.656-.298-2.205-.896-.547-.596-.82-1.35-.82-2.256 0-.95.281-1.728.847-2.333.565-.604 1.325-.907 2.284-.907.921 0 1.664.298 2.224.894.533.58.801 1.329.801 2.244zm-1.448.044c0-.565-.125-1.05-.375-1.454-.294-.49-.71-.734-1.254-.734-.56 0-.987.245-1.282.734-.25.404-.374.897-.374 1.479 0 .566.125 1.05.374 1.455.303.488.724.733 1.268.733.534 0 .954-.248 1.255-.746.257-.412.388-.901.388-1.467zM137.177 17.463h-1.396v-3.51c0-1.082-.421-1.622-1.268-1.622-.414 0-.749.148-1.008.445a1.555 1.555 0 0 0-.388 1.05v3.636h-1.398v-4.376c0-.538-.016-1.122-.05-1.754h1.227l.065.958H133c.164-.297.407-.543.724-.74.38-.228.803-.344 1.268-.344.585 0 1.073.185 1.461.555.484.454.724 1.131.724 2.03v3.672zM146.581 12.355h-1.538v2.977c0 .757.273 1.135.814 1.135.251 0 .459-.02.623-.064l.036 1.034c-.276.101-.639.152-1.085.152-.552 0-.982-.164-1.292-.491-.312-.328-.467-.88-.467-1.653v-3.09h-.919v-1.02h.919V10.21l1.369-.402v1.524h1.539v1.022h.001zM153.979 17.463h-1.399v-3.484c0-1.099-.421-1.648-1.265-1.648-.648 0-1.091.318-1.334.955a1.684 1.684 0 0 0-.065.49v3.686h-1.396v-8.94h1.396v3.694h.027c.44-.672 1.07-1.007 1.888-1.007.578 0 1.057.184 1.437.555.473.461.711 1.148.711 2.055v3.644zM161.609 14.109c0 .244-.018.45-.052.617h-4.19c.018.606.218 1.068.606 1.387.355.287.812.43 1.372.43.62 0 1.186-.097 1.695-.29l.219.946c-.596.252-1.298.378-2.11.378-.973 0-1.74-.28-2.294-.838-.558-.56-.834-1.31-.834-2.25 0-.925.258-1.694.776-2.308.542-.655 1.274-.983 2.198-.983.904 0 1.59.328 2.054.983.375.52.56 1.164.56 1.928zm-1.333-.352c.011-.405-.081-.753-.271-1.047-.242-.378-.612-.568-1.112-.568-.456 0-.828.185-1.112.555a2.03 2.03 0 0 0-.414 1.06h2.909z" fill="#fff"/></svg>