<?xml version="1.0" encoding="UTF-8"?>
<svg width="18px" height="14px" viewBox="0 0 18 14" version="1.1" xmlns="http://www.w3.org/2000/svg" xmlns:xlink="http://www.w3.org/1999/xlink">
  <g id="Desktop" stroke="none" stroke-width="1" fill="none" fill-rule="evenodd">
    <g id="Home/Feed" transform="translate(-718.000000, -736.000000)" fill="#727278">
      <g id="Column/Center" transform="translate(330.000000, 0.000000)">
        <g id="Card/Post" transform="translate(0.000000, 368.000000)">
          <g id="Post/CTA/Default" transform="translate(387.000000, 365.000000)">
            <g id="Icon/Comments">
              <path d="M10,3 C14.6944204,3 18.5,5.73327226 18.5,9.10493446 C18.5,12.4765967 14.6944204,15.2098689 10,15.2098689 C9.38827534,15.2098689 8.79164355,15.1634569 8.2165585,15.0752681 L4.91718351,16.8709058 C4.40117383,17.1518601 3.7563569,16.9590015 3.4769446,16.4401442 C3.36747843,16.2368699 3.32653357,16.0033786 3.3602558,15.7747171 L3.73411551,13.2301837 C2.34674624,12.1437206 1.5,10.6953488 1.5,9.10493446 C1.5,5.73327226 5.30557963,3 10,3 Z M10,4.6025453 C6.09281787,4.6025453 3.09375,6.75655856 3.09375,9.10493446 C3.09375,10.057138 3.57968108,10.9997215 4.5077665,11.7972222 L4.71339366,11.9658452 L5.44657038,12.5400034 L5.09125,14.9539195 L7.92821061,13.4099756 L8.45683911,13.4910403 C8.95901332,13.5680483 9.47543086,13.6073236 10,13.6073236 C13.9071821,13.6073236 16.90625,11.4533104 16.90625,9.10493446 C16.90625,6.75655856 13.9071821,4.6025453 10,4.6025453 Z" id="Comments"></path>
            </g>
          </g>
        </g>
      </g>
    </g>
  </g>
</svg>
