<?xml version="1.0" encoding="UTF-8"?>
<svg width="160px" height="38px" viewBox="0 0 160 38" version="1.1" xmlns="http://www.w3.org/2000/svg" xmlns:xlink="http://www.w3.org/1999/xlink">
    <!-- Generator: sketchtool 63.1 (101010) - https://sketch.com -->
    <title>55261B66-CED3-4559-AF47-250B00E17D8B</title>
    <desc>Created with sketchtool.</desc>
    <g id="Desktop" stroke="none" stroke-width="1" fill="none" fill-rule="evenodd">
        <g id="Page/Home" transform="translate(-110.000000, -14.000000)" fill-rule="nonzero">
            <g id="Column/Left" transform="translate(110.000000, 14.000000)">
                <g id="Navigation/Primary">
                    <g id="Brand/Logo">
                        <g id="Group">
                            <path d="M11.1433892,25.5274194 L13.4376164,23.4129032 L16.566108,20.5322581 L16.5363128,18.9693548 C16.5065177,17.7435484 16.7150838,16.5483871 17.132216,15.4145161 L18.5921788,11.2774194 C18.5921788,11.2467742 18.6219739,11.216129 18.6219739,11.216129 C18.83054,10.7258065 19.1284916,10.2354839 19.4264432,9.83709677 C17.5791434,10.2354839 15.255121,10.9096774 12.5735568,12.166129 C7.9255121,14.3112903 4.40968343,13.6064516 2.38361266,12.6870968 C2.59217877,13.9435484 2.97951583,15.6596774 3.66480447,17.4064516 C5.33333333,21.6967742 7.83612663,24.4241935 11.1433892,25.5274194 Z" id="Path" fill="#EE306F"></path>
                            <path d="M35.9627561,0 C38.8528864,0 41.2364991,2.08387097 41.8621974,4.84193548 L41.8621974,4.84193548 L48.2979516,2.97258065 C49.7579143,2.60483871 51.1582868,3.30967742 51.7839851,4.71935484 C52.4096834,6.12903226 52.0223464,7.66129032 50.8007449,8.58064516 C50.7709497,8.61129032 50.7709497,8.64193548 50.7411546,8.64193548 L50.7411546,8.64193548 L40.4022346,15.2 C39.2998138,15.9048387 38.3165736,16.7629032 37.4823091,17.7741935 L37.4823091,17.7741935 L32.3575419,23.9645161 C32.1489758,24.2096774 32.0297952,24.5467742 32.0297952,24.883871 L32.0297952,24.883871 L32.0297952,32.483871 C32.0297952,33.5564516 31.5530726,34.5064516 30.7188082,35.15 C30.1527002,35.5790323 29.4972067,35.7935484 28.8119181,35.7935484 C28.4841713,35.7935484 28.1862197,35.7322581 27.858473,35.6403226 L27.858473,35.6403226 L16.2681564,31.9629032 L8.72998138,37.4177419 C8.70018622,37.4483871 8.67039106,37.4483871 8.6405959,37.4790323 C8.0744879,37.8467742 7.44878957,38 6.85288641,38 C5.78026071,38 4.76722533,37.4790323 4.05214153,36.4983871 C2.94972067,34.966129 3.12849162,33.0048387 4.4990689,31.6870968 L4.4990689,31.6870968 L9.41527002,27.1209677 C6.01862197,25.6193548 3.39664804,22.5548387 1.66852886,18.0806452 C0.238361266,14.25 0,10.7870968 0,10.633871 C0,10.1741935 0.208566108,9.77580645 0.595903166,9.59193548 C0.983240223,9.40806452 1.4301676,9.46935484 1.75791434,9.74516129 C1.90689013,9.86774194 5.48230912,12.9935484 11.7094972,10.1129032 C18.4134078,7.01774194 23.150838,7.10967742 23.8957169,7.14032258 L23.8957169,7.14032258 L29.9441341,6.55806452 C29.9143389,6.46612903 29.9143389,6.34354839 29.9143389,6.22096774 C29.9143389,2.78870968 32.6256983,0 35.9627561,0 Z M49.877095,5.60806452 C49.7877095,5.45483871 49.4897579,4.90322581 48.8044693,5.05645161 L48.8044693,5.05645161 L41.9515829,7.0483871 C41.5344507,10.0822581 39.0018622,12.4419355 35.9627561,12.4419355 C33.4897579,12.4419355 31.3445065,10.8790323 30.4208566,8.67258065 L30.4208566,8.67258065 L24.0744879,9.28548387 L23.8439255,9.32796573 C22.3956797,9.63292339 21.181378,10.6154839 20.5586592,12.0129032 L20.5586592,12.0129032 L19.0986965,16.1193548 C18.83054,16.916129 18.6815642,17.7435484 18.6517691,18.5709677 L18.6517691,18.5709677 L24.8789572,12.8709677 C25.2960894,12.4725806 25.9515829,12.533871 26.3389199,12.9629032 C26.726257,13.3919355 26.6666667,14.066129 26.2495345,14.4645161 L26.2495345,14.4645161 L17.9664804,22.1258065 L15.1955307,24.7 L5.89944134,33.2806452 C5.00558659,34.1387097 5.5716946,35.0580645 5.66108007,35.1193548 C5.81005587,35.3032258 6.46554935,36.1306452 7.50837989,35.5483871 L7.50837989,35.5483871 L18.8007449,27.3967742 L18.8007449,27.3967742 L24.283054,23.4435484 C24.7299814,23.1370968 25.3258845,23.2290323 25.6834264,23.6580645 C25.6834264,23.6580645 25.7132216,23.6580645 25.7132216,23.6887097 C25.7430168,23.7193548 25.7430168,23.7193548 25.7430168,23.7193548 C25.7728119,23.75 25.7728119,23.7806452 25.8026071,23.8112903 C25.8026071,23.8419355 25.8324022,23.8419355 25.8324022,23.8725806 C25.8621974,23.9032258 25.8621974,23.933871 25.8919926,23.9951613 C25.9217877,24.0258065 25.9217877,24.0258065 25.9217877,24.0564516 C25.9515829,24.1177419 25.9515829,24.1483871 25.9515829,24.2096774 L25.9515829,24.2096774 L25.9515829,24.2709677 L26.0409683,25.6806452 C26.0707635,26.6612903 25.7132216,27.5806452 25.0577281,28.2854839 C24.4022346,28.9903226 23.5083799,29.3887097 22.5549348,29.3887097 L22.5549348,29.3887097 L19.7541899,29.3887097 L18.443203,30.3387097 L28.4841713,33.5258065 C28.8417132,33.6177419 29.1992551,33.5564516 29.4972067,33.3419355 C29.7653631,33.1274194 29.9441341,32.7903226 29.9441341,32.4225806 L29.9441341,32.4225806 L29.9441341,24.8225806 C29.9441341,23.9951613 30.2420857,23.1677419 30.7783985,22.5241935 L30.7783985,22.5241935 L35.9031657,16.333871 C36.886406,15.1387097 38.018622,14.1580645 39.2998138,13.3306452 L39.2998138,13.3306452 L49.6089385,6.80322581 C50.1452514,6.37419355 49.9664804,5.79193548 49.877095,5.60806452 Z M51.7541899,16.6403226 C52.6480447,16.6403226 56.1042831,17.0693548 56.1042831,18.05 L56.1042831,20.2564516 C56.1042831,20.4403226 56.1042831,21.0532258 55.3594041,21.0532258 C55.0018622,21.0532258 54.405959,20.9 54.0484171,20.8080645 C53.3631285,20.6854839 52.707635,20.5629032 51.9925512,20.5629032 C50.5325885,20.5629032 50.2942272,21.1758065 50.3538175,21.4822581 C50.2942272,22.1564516 51.3668529,22.8 51.8137803,23.1370968 C54.4655493,24.883871 56.8789572,26.2016129 56.9087523,30.0016129 C56.8789572,33.4032258 54.3165736,35.5177419 50.2942272,35.5177419 C49.1918063,35.5177419 47.1359404,35.333871 46.2420857,34.966129 C45.556797,34.6903226 45.556797,34.4451613 45.556797,34.016129 L45.556797,31.6870968 C45.556797,30.9516129 46.1824953,30.8290323 46.3910615,30.8290323 C46.7486034,30.8290323 47.0465549,31.0741935 47.3445065,31.1354839 C47.9702048,31.2887097 49.310987,31.5032258 49.9366853,31.5032258 C51.396648,31.533871 52.0819367,30.8290323 52.0819367,30.0322581 C52.1117318,27.2435484 45.4972067,26.8758065 45.4972067,21.7274194 C45.4972067,18.2645161 48.0595903,16.6403226 51.7541899,16.6403226 Z M61.9143389,16.8854839 C62.2718808,16.8854839 62.5996276,17.1919355 62.5996276,17.5903226 L62.5996276,29.4806452 C62.5996276,30.4919355 62.689013,31.5645161 64.0595903,31.5645161 C65.4301676,31.5645161 65.5493482,30.4919355 65.5493482,29.4806452 L65.5493482,17.5903226 C65.5493482,17.1919355 65.877095,16.8854839 66.2346369,16.8854839 L69.273743,16.8854839 C69.6312849,16.8854839 69.9590317,17.1919355 69.9590317,17.5903226 L69.9590317,29.3887097 C69.9590317,31.35 69.4823091,35.5177419 64.0595903,35.5177419 C58.6368715,35.5177419 58.1899441,31.3806452 58.1899441,29.3580645 L58.1899441,17.5903226 C58.1899441,17.1919355 58.5176909,16.8854839 58.9050279,16.8854839 L61.9143389,16.8854839 Z M154.011173,16.7016129 C159.45411,16.7016129 159.896192,21.1652429 159.910245,23.5601683 L159.910615,28.5306452 C159.94041,28.8983871 159.94041,29.5419355 159.880819,30.2774194 C159.523277,33.4951613 157.675978,35.5177419 154.040968,35.5177419 C150.405959,35.5177419 148.588454,33.5258065 148.201117,30.2774194 C148.15004,29.6732719 148.142743,29.3393022 148.141701,28.8123483 L148.141527,23.6887097 C148.141527,22.3096774 148.230912,20.9 148.826816,19.6129032 C149.571695,18.0193548 151.061453,16.7016129 154.011173,16.7016129 Z M76.9013035,16.8854839 C81.1024209,16.8854839 83.4264432,18.6629032 83.4264432,22.9225806 C83.4562384,26.7532258 81.0428305,28.8064516 77.2290503,28.8064516 C76.603352,28.8064516 76.3054004,29.0516129 76.3054004,29.45 L76.3054004,34.6290323 C76.3054004,34.9967742 75.9776536,35.333871 75.6201117,35.333871 L72.5810056,35.333871 C72.1936685,35.333871 71.8659218,35.0580645 71.8659218,34.6290323 L71.8659218,17.5903226 C71.8659218,17.1919355 72.1936685,16.8854839 72.5810056,16.8854839 L76.9013035,16.8854839 Z M101.929236,16.8854839 C106.189944,16.8854839 107.769088,19.3064516 107.769088,22.1870968 C107.769088,24.7306452 106.636872,26.1709677 105.534451,26.783871 C105.445065,26.8451613 105.266294,26.9677419 105.534451,27.5806452 L108.513966,33.9548387 C108.811918,34.5677419 108.752328,35.3032258 107.947858,35.3032258 L105.147114,35.3032258 C104.312849,35.3032258 104.074488,34.966129 103.895717,34.5983871 L101.094972,28.2548387 C101.035382,28.1629032 100.67784,27.8870968 100.67784,28.4387097 L100.67784,34.6290323 C100.67784,35.0274194 100.320298,35.333871 99.9627561,35.333871 L96.9832402,35.333871 C96.5959032,35.333871 96.2681564,35.0580645 96.2681564,34.6290323 L96.2681564,17.5903226 C96.2681564,17.1919355 96.5959032,16.8854839 96.9832402,16.8854839 L101.929236,16.8854839 Z M140.662942,16.8854839 C144.92365,16.8854839 146.502793,19.3064516 146.502793,22.1870968 C146.502793,24.7306452 145.370577,26.1709677 144.268156,26.783871 C144.178771,26.8451613 144,26.9677419 144.268156,27.5806452 L147.217877,33.9548387 C147.575419,34.5677419 147.515829,35.3032258 146.681564,35.3032258 L143.880819,35.3032258 C143.046555,35.3032258 142.808194,34.966129 142.629423,34.5983871 L139.828678,28.2548387 C139.769088,28.1629032 139.411546,27.8870968 139.411546,28.4387097 L139.411546,34.6290323 C139.411546,35.0274194 139.054004,35.333871 138.696462,35.333871 L135.716946,35.333871 C135.329609,35.333871 135.001862,35.0580645 135.001862,34.6290323 L135.001862,17.5903226 C135.001862,17.1919355 135.329609,16.8854839 135.716946,16.8854839 L140.662942,16.8854839 Z M94.0931099,16.8854839 C94.4506518,16.8854839 94.7783985,17.1919355 94.7783985,17.5903226 L94.7783985,20.1645161 C94.7783985,20.5322581 94.4208566,20.8387097 94.0931099,20.8387097 L89.5642458,20.8387097 C89.3854749,20.8387097 89.2067039,20.9919355 89.2067039,21.1758065 L89.2067039,23.2290323 C89.2067039,23.4435484 89.3854749,23.6274194 89.5642458,23.6274194 L93.6461825,23.6274194 C94.0037244,23.6274194 94.3314711,23.9032258 94.3314711,24.3016129 L94.3314711,26.8451613 C94.3314711,27.2129032 94.0335196,27.5193548 93.6461825,27.5193548 L89.5046555,27.5193548 C89.3258845,27.5193548 89.1769088,27.7032258 89.1769088,27.8870968 L89.1769088,31.0741935 C89.1769088,31.2887097 89.3556797,31.4419355 89.5344507,31.4419355 L94.5102421,31.4419355 C94.8379888,31.4419355 95.0763501,31.6870968 95.0763501,32.0241935 L95.0763501,34.6596774 C95.1061453,34.9967742 94.8081937,35.3032258 94.4506518,35.3032258 L85.4823091,35.3032258 C85.0949721,35.3032258 84.7672253,35.0274194 84.7672253,34.5983871 L84.7672253,17.5903226 C84.7672253,17.1919355 85.0949721,16.8854839 85.4823091,16.8854839 L94.0931099,16.8854839 Z M113.400372,16.8854839 C113.757914,16.8854839 114.085661,17.1919355 114.085661,17.5903226 L114.085661,22.7387097 C114.085661,22.9532258 114.175047,23.1677419 114.383613,23.1677419 L116.707635,23.1677419 C116.945996,23.1677419 117.035382,22.9225806 117.035382,22.6774194 L117.035382,17.5903226 C117.035382,17.1919355 117.363128,16.8854839 117.750466,16.8854839 L120.729981,16.8854839 C121.087523,16.8854839 121.445065,17.1612903 121.445065,17.5903226 L121.445065,34.6290323 C121.47486,35.0274194 121.117318,35.3032258 120.729981,35.3032258 L117.750466,35.3032258 C117.363128,35.3032258 117.035382,35.0274194 117.035382,34.5983871 L117.035382,27.6725806 C117.035382,27.4887097 116.886406,27.3354839 116.707635,27.3354839 L114.383613,27.3354839 C114.234637,27.3354839 114.085661,27.4887097 114.085661,27.6419355 L114.085661,34.5983871 C114.085661,34.966129 113.728119,35.3032258 113.400372,35.3032258 L110.391061,35.3032258 C110.003724,35.3032258 109.675978,35.0274194 109.675978,34.5983871 L109.675978,17.5903226 C109.675978,17.1919355 110.003724,16.8854839 110.391061,16.8854839 L113.400372,16.8854839 Z M132.826816,16.8854839 C133.184358,16.8854839 133.512104,17.1919355 133.512104,17.5903226 L133.512104,20.1645161 C133.512104,20.5322581 133.154562,20.8387097 132.826816,20.8387097 L128.297952,20.8387097 C128.119181,20.8387097 127.94041,20.9919355 127.94041,21.1758065 L127.94041,23.2290323 C127.94041,23.4435484 128.119181,23.6274194 128.297952,23.6274194 L132.379888,23.6274194 C132.73743,23.6274194 133.065177,23.9032258 133.065177,24.3016129 L133.065177,26.8451613 C133.065177,27.2129032 132.767225,27.5193548 132.379888,27.5193548 L128.238361,27.5193548 C128.05959,27.5193548 127.910615,27.7032258 127.910615,27.8870968 L127.910615,31.0741935 C127.910615,31.2887097 128.089385,31.4419355 128.268156,31.4419355 L133.243948,31.4419355 C133.571695,31.4419355 133.810056,31.6870968 133.810056,32.0241935 L133.810056,34.6596774 C133.869646,34.9967742 133.571695,35.3032258 133.184358,35.3032258 L124.216015,35.3032258 C123.828678,35.3032258 123.500931,35.0274194 123.500931,34.5983871 L123.500931,17.5903226 C123.500931,17.1919355 123.828678,16.8854839 124.216015,16.8854839 L132.826816,16.8854839 Z M154.040968,20.5935484 C152.461825,20.5935484 152.581006,22.3096774 152.581006,23.7806452 L152.581006,28.316129 C152.581006,29.7870968 152.461825,31.533871 154.070764,31.533871 C155.649907,31.533871 155.500931,29.7870968 155.500931,28.3467742 L155.500931,23.7806452 C155.500931,22.3096774 155.620112,20.5935484 154.040968,20.5935484 Z M19.4562384,9.77580645 C17.6089385,10.1741935 15.2849162,10.8483871 12.603352,12.1048387 C7.9255121,14.25 4.43947858,13.5451613 2.41340782,12.6258065 C2.65176909,13.8822581 3.03910615,15.5677419 3.69459963,17.3451613 C5.33333333,21.6967742 7.83612663,24.4241935 11.1731844,25.466129 L11.1731844,25.466129 L13.4674115,23.3516129 L16.5959032,20.4709677 L16.566108,18.9080645 C16.566108,17.6822581 16.7746741,16.4870968 17.1620112,15.3532258 L17.1620112,15.3532258 L18.6219739,11.216129 C18.6219739,11.216129 18.6517691,11.1854839 18.6517691,11.1548387 C18.8603352,10.6645161 19.1284916,10.2048387 19.4562384,9.77580645 Z M77.1396648,20.5935484 C76.4841713,20.5935484 76.3054004,20.8693548 76.3054004,21.2983871 L76.3054004,24.4854839 C76.3054004,24.9145161 76.5437616,25.0983871 77.1396648,25.0983871 C78.5102421,25.0983871 78.867784,24.2403226 78.867784,22.8919355 C78.867784,21.6048387 78.3910615,20.5935484 77.1396648,20.5935484 Z M101.452514,20.5935484 C100.67784,20.5935484 100.67784,20.7774194 100.67784,21.2677419 L100.67784,23.7806452 C100.67784,24.1790323 100.67784,24.4548387 101.452514,24.4548387 C102.674115,24.4548387 103.329609,23.6580645 103.329609,22.5854839 C103.329609,21.3903226 102.733706,20.5935484 101.452514,20.5935484 Z M140.216015,20.5935484 C139.489758,20.5935484 139.444367,20.7551537 139.44153,21.1793678 L139.441341,23.7806452 C139.441341,24.1790323 139.441341,24.4548387 140.216015,24.4548387 C141.437616,24.4548387 142.09311,23.6580645 142.09311,22.5854839 C142.09311,21.3903226 141.497207,20.5935484 140.216015,20.5935484 Z M35.9627561,2.14516129 C33.7579143,2.14516129 32,3.95322581 32,6.22096774 C32,8.48870968 33.7579143,10.2967742 35.9627561,10.2967742 C38.1675978,10.2967742 39.9255121,8.45806452 39.9255121,6.22096774 C39.9255121,3.98387097 38.1675978,2.14516129 35.9627561,2.14516129 Z" id="Combined-Shape" fill="#FFFFFF"></path>
                        </g>
                    </g>
                </g>
            </g>
        </g>
    </g>
</svg>