<svg xmlns="http://www.w3.org/2000/svg" viewBox="0 0 196 31"><defs><clipPath id="a"><path d="M0 0h196v31H0z"/></clipPath></defs><g clip-path="url(#a)"><path d="M25.762 2.333a1 1 0 01.878.531l3.907 7.326a1.024 1.024 0 01-.176 1.2L17.383 24.418a.988.988 0 01-1.4.006l-.006-.006L2.991 11.391a1.024 1.024 0 01-.176-1.2l3.907-7.325a1 1 0 01.878-.531zm-8.364 2.582l-6.247 8.993a.3.3 0 00.069.407.285.285 0 00.167.053l4.872-.018a.29.29 0 01.289.291.283.283 0 010 .036l-.677 5.668a.291.291 0 00.251.325.286.286 0 00.275-.129l5.867-9.025a.3.3 0 00-.082-.4.283.283 0 00-.159-.048l-4.645.012a.29.29 0 01-.289-.291.28.28 0 010-.044l.827-5.615a.291.291 0 00-.242-.332.286.286 0 00-.281.12z" fill="#2a9cff"/><path d="M38.297 15.316a2.589 2.589 0 002.751 1.751c1.362 0 2.307-.584 2.307-1.64 0-.808-.528-1.167-1.612-1.417l-3.28-.695c-2.5-.556-4.391-1.862-4.391-4.752 0-3.335 2.779-5.531 6.559-5.531 4.169 0 6.531 2.279 7 5.225h-4.364a2.537 2.537 0 00-2.612-1.667c-1.278 0-2.14.556-2.14 1.5 0 .75.528 1.167 1.417 1.362l3.335.778c2.918.695 4.53 2.279 4.53 4.919 0 3.5-2.946 5.5-6.67 5.5-4.085 0-6.865-1.973-7.476-5.336zM60.755 20.373h-4.363v-1.084a4.469 4.469 0 01-3.335 1.361c-2.751 0-4.391-1.806-4.391-4.585v-8.2h4.339v7.17c0 1.056.5 1.806 1.612 1.806a1.829 1.829 0 001.779-1.39V7.862h4.363zM66.567 24.792h-4.363V7.867h4.363v1a4.348 4.348 0 013.084-1.278c3.613 0 5.586 2.946 5.586 6.531 0 3.557-1.973 6.531-5.586 6.531a4.348 4.348 0 01-3.084-1.278zm0-9.032a2.127 2.127 0 001.917 1.167c1.5 0 2.39-1.195 2.39-2.807s-.889-2.835-2.39-2.835a2.145 2.145 0 00-1.917 1.168zM87.74 16.011c-.445 2.89-2.613 4.641-5.864 4.641-3.835 0-6.364-2.64-6.364-6.531a6.17 6.17 0 016.281-6.531c3.835 0 6 2.557 6 6.281v1.084h-8.086c.139 1.5.917 2.307 2.168 2.307a1.733 1.733 0 001.834-1.25zm-7.948-3.224h3.78a1.746 1.746 0 00-1.779-1.806 2.019 2.019 0 00-2 1.806zM96.969 12.009a3.761 3.761 0 00-1.806-.389 2.046 2.046 0 00-2.223 1.417v7.34h-4.363V7.867h4.363v1.11a3.411 3.411 0 012.835-1.39 2.722 2.722 0 011.195.222zM97.831 2.309h4.363v6.642a4.534 4.534 0 013.363-1.362c2.779 0 4.419 1.806 4.419 4.585v8.2h-4.335v-7.142a1.572 1.572 0 00-1.64-1.779 1.791 1.791 0 00-1.806 1.362v7.559h-4.363zM122.927 16.011c-.445 2.89-2.613 4.641-5.865 4.641-3.835 0-6.364-2.64-6.364-6.531a6.17 6.17 0 016.281-6.531c3.835 0 6 2.557 6 6.281v1.084h-8.088c.139 1.5.917 2.307 2.168 2.307a1.733 1.733 0 001.834-1.25zm-7.949-3.224h3.778a1.746 1.746 0 00-1.779-1.806 2.018 2.018 0 00-2 1.806zM132.154 12.009a3.762 3.762 0 00-1.806-.389 2.046 2.046 0 00-2.224 1.417v7.34h-4.365V7.867h4.363v1.11a3.412 3.412 0 012.835-1.39 2.723 2.723 0 011.195.222z" fill="#fff"/><path d="M138.574 20.651a6.532 6.532 0 116.392-6.531 6.165 6.165 0 01-6.392 6.531zm0-9.477c-1.334 0-2.084 1.223-2.084 2.946s.75 2.918 2.084 2.918c1.362 0 2.112-1.2 2.112-2.918s-.751-2.946-2.112-2.946zM146.741 16.911a1.8 1.8 0 11-1.77 1.789 1.762 1.762 0 011.77-1.789zM155.089 7.589a5.411 5.411 0 015.808 4.919h-4.224a1.508 1.508 0 00-1.584-1.306c-1.223 0-2 1.139-2 2.918s.778 2.89 2 2.89a1.487 1.487 0 001.584-1.278h4.224a5.43 5.43 0 01-5.808 4.919c-3.752 0-6.309-2.668-6.309-6.531s2.557-6.531 6.309-6.531z" fill="#fff"/><path d="M167.456 20.651a6.532 6.532 0 116.393-6.531 6.165 6.165 0 01-6.393 6.531zm0-9.477c-1.333 0-2.084 1.223-2.084 2.946s.751 2.918 2.084 2.918c1.362 0 2.113-1.2 2.113-2.918s-.751-2.946-2.113-2.946zM189.55 7.589c2.613 0 4.224 1.779 4.224 4.585v8.2h-4.363v-7.142c0-1.056-.444-1.807-1.417-1.807a1.644 1.644 0 00-1.612 1.334v7.615h-4.335v-7.142c0-1.056-.445-1.807-1.417-1.807a1.622 1.622 0 00-1.612 1.334v7.615h-4.363V7.865h4.365v1.028a4.182 4.182 0 013.224-1.306 4.291 4.291 0 013.446 1.5 5.251 5.251 0 013.86-1.498z" fill="#fff"/><path d="M178.766 26.774c0 1.008-.7 1.552-1.838 1.552h-2.275v-5.478h2.1c1.142 0 1.847.508 1.847 1.49a1.181 1.181 0 01-.723 1.16 1.331 1.331 0 01.889 1.276zm-2.088-1.677c.545 0 .83-.214.83-.651s-.286-.633-.83-.633h-.928v1.284zm-.928 2.267h1.08c.535 0 .821-.269.821-.687s-.286-.687-.821-.687h-1.08zM183.308 22.848v1h-2.6v1.193h2.355v.974h-2.355v1.3h2.6v1.008h-3.72v-5.479zM183.901 22.848h4.675v1h-1.766v4.476h-1.151v-4.477h-1.758zM191.603 22.848l2.1 5.478h-1.159l-.491-1.321h-2.052l-.482 1.321h-1.142l2.1-5.478zm-1.249 3.194h1.338l-.669-1.82z" fill="#848484"/></g></svg>