<svg xmlns="http://www.w3.org/2000/svg" width="21" height="14.25" viewBox="0 0 21 14.25">
  <g id="Icon_Menu" data-name="Icon/Menu" transform="translate(-0.5 -0.5)">
    <path id="Menu" d="M19.913,14.25H12.672a1.128,1.128,0,0,1-.147-2.239L12.672,12h7.241a1.128,1.128,0,0,1,.148,2.24Zm0-6H6.827A1.128,1.128,0,0,1,6.68,6.01L6.827,6H19.913a1.128,1.128,0,0,1,.148,2.239Zm0-6H1.086A1.107,1.107,0,0,1,0,1.125,1.117,1.117,0,0,1,.939.01L1.086,0H19.913A1.107,1.107,0,0,1,21,1.125a1.117,1.117,0,0,1-.939,1.115Z" transform="translate(0.5 0.5)" fill="#fff"/>
  </g>
</svg>
