<svg id="Icon_Trending" data-name="Icon/Trending" xmlns="http://www.w3.org/2000/svg" width="26" height="26" viewBox="0 0 26 26">
  <path id="Trending" d="M7.979,20.8A7.9,7.9,0,0,1,0,12.814,5.517,5.517,0,0,1,1.078,9.239a3.423,3.423,0,0,1,1.237-.966.763.763,0,0,1,.266-.048.755.755,0,0,1,.433.135.736.736,0,0,1,.319.62A4.847,4.847,0,0,0,3.992,12a1.694,1.694,0,0,0,1.252.693A1.257,1.257,0,0,0,5.4,12.7a1.348,1.348,0,0,0,1.152-.659,2.227,2.227,0,0,0-.287-2.319,6.289,6.289,0,0,1,.427-6.716A12.653,12.653,0,0,1,9.23.16.758.758,0,0,1,9.66,0H9.7a.754.754,0,0,1,.588.28.74.74,0,0,1,.136.666c-.008.03-.755,3.018.2,4.9a7.349,7.349,0,0,0,1.925,2.336l.219.192a9.332,9.332,0,0,1,2,2.2,6.122,6.122,0,0,1,.815,3.572A6.286,6.286,0,0,1,14.77,17,7.925,7.925,0,0,1,7.979,20.8ZM1.965,12.379h0c-.008.137-.013.284-.013.434A6.025,6.025,0,0,0,13.11,15.977a4.412,4.412,0,0,0,.53-1.955,4.133,4.133,0,0,0-.532-2.431A5.724,5.724,0,0,0,12.1,10.384c-.2-.187-.4-.361-.832-.738A8.9,8.9,0,0,1,8.887,6.727a6.663,6.663,0,0,1-.655-2.375c0-.039-.008-.076-.011-.113a4.2,4.2,0,0,0-.285,4.487,4.109,4.109,0,0,1,.29,4.311A3.306,3.306,0,0,1,5.4,14.653a3.225,3.225,0,0,1-.39-.024,3.6,3.6,0,0,1-2.573-1.458A4.352,4.352,0,0,1,1.965,12.379Z" transform="translate(5.2 2.6)" fill="#fff"/>
</svg>
