<svg xmlns="http://www.w3.org/2000/svg" width="26" height="26" viewBox="0 0 26 26">
  <g id="Icon_Trending" data-name="Icon/Trending" transform="translate(3 3)">
    <path id="Help" d="M9.1,18.2a9.1,9.1,0,1,1,9.1-9.1A9.11,9.11,0,0,1,9.1,18.2Zm0-16.25A7.158,7.158,0,0,0,1.95,9.1l.006.312.005.113.028.333c.021.207.053.417.094.625l.055.255.049.193.1.338.1.289.156.391.133.288.149.289L3,12.83l.216.33.157.219.212.27A7.178,7.178,0,0,0,5.195,15.09l.035.023c.112.072.227.142.343.208l.3.159.361.17.135.058.166.066.336.12.408.121.134.034.21.047.352.066.169.024.365.04.265.017.332.008c.159,0,.318-.005.474-.016l.315-.027.172-.022.233-.035.363-.07L10.993,16l.146-.041.262-.083.361-.134.294-.126.13-.06.32-.164.212-.12.252-.155a7.191,7.191,0,0,0,1.624-1.435l.024-.03c.073-.089.149-.185.229-.293l.207-.3.154-.241.1-.176.158-.291.152-.317.085-.194.111-.283.113-.337.1-.365.084-.372.054-.311.05-.423.022-.311c.005-.111.008-.225.008-.339A7.158,7.158,0,0,0,9.1,1.95ZM9.085,13.99a1.286,1.286,0,0,1-.881-.314,1.088,1.088,0,0,1,0-1.6,1.393,1.393,0,0,1,1.762,0,1.086,1.086,0,0,1,0,1.6A1.283,1.283,0,0,1,9.085,13.99Zm.924-3.123H8.121l0-.267a3.92,3.92,0,0,1,.213-1.255,2.4,2.4,0,0,1,.707-.967,4.685,4.685,0,0,0,.743-.75,1.225,1.225,0,0,0,.255-.749c0-.662-.289-1-.859-1a.8.8,0,0,0-.64.291,1.132,1.132,0,0,0-.243.6l-.014.19H6.054L6.065,6.7a2.582,2.582,0,0,1,.822-1.8,3.33,3.33,0,0,1,2.3-.736,3.458,3.458,0,0,1,2.281.68,2.393,2.393,0,0,1,.809,1.934,2.263,2.263,0,0,1-.218,1,3.086,3.086,0,0,1-.517.731l-.183.187L10.6,9.4l-.149.156a1.643,1.643,0,0,0-.3.481,2.2,2.2,0,0,0-.125.589l-.013.238Z" transform="translate(0.9 0.9)" fill="#67F7B8"/>
  </g>
</svg>
