<svg id="Layer_1" xmlns="http://www.w3.org/2000/svg" width="156.1" height="16"><switch><g><path fill="rgb(205,165,100)" class="st0" d="M10.2 9.8L12 12l1.8-2.2L12 7.7l-1.8 2.1zm2.7 0l-.9 1.1-.9-1.1.9-1 .9 1z"/><path fill="rgb(205,165,100)" class="st0" d="M15.1.8L12 4.6 8.9.8H0l12 14.3L24 .8h-8.9zm4.6 2H16l-3.2 3.8 2.7 3.2L12 14 1.5 1.6h7l3 3.6-.8 1-2.8-3.4H4.3l5.1 6 6.1-7.3h7L16 9.3l-.8-1 4.5-5.5zm-5 4.9l-.9-1.1 2.6-3.1h1.8l-3.5 4.2zm-4.5-1l-.9 1-3.5-4.2h1.8l2.6 3.2zM37.9 12.7v-10h3.2c.6 0 1.1.1 1.6.2.4.1.8.3 1.1.5s.5.5.6.8c.1.3.2.7.2 1.1 0 .2 0 .5-.1.7-.1.2-.2.4-.4.6s-.3.4-.5.5c-.2.2-.5.3-.8.4.7.1 1.3.4 1.7.8.3.4.5.9.5 1.5 0 .4-.1.8-.2 1.2-.2.3-.4.7-.7.9-.3.3-.7.4-1.1.6-.4.1-.9.2-1.5.2h-3.6zm1.3-5.6H41c.4 0 .7 0 1-.1.3-.1.5-.2.7-.4.2-.1.3-.3.4-.5.1-.2.1-.4.1-.7 0-.6-.2-1-.5-1.3-.4-.3-.9-.4-1.7-.4h-1.8v3.4zm0 1v3.5h2.2c.4 0 .7 0 1-.1.3-.1.5-.2.7-.4s.3-.4.4-.6.1-.5.1-.7c0-.5-.2-.9-.5-1.2-.4-.3-.9-.5-1.7-.5h-2.2zM46.6 12.7V5.6h.7c.1 0 .2 0 .3.1.1.1.1.1.1.3l.1 1c.2-.5.5-.9.9-1.2.4-.3.8-.4 1.3-.4.2 0 .4 0 .5.1s.3.1.4.2l-.2.9c0 .1-.1.2-.2.2s-.2 0-.3-.1c-.1 0-.3-.1-.6-.1-.4 0-.8.1-1.1.4-.3.3-.5.6-.7 1.1v4.5h-1.2zM57.1 12.7h-.6c-.1 0-.2 0-.3-.1-.1 0-.1-.1-.1-.2l-.1-.7c-.2.2-.4.3-.5.5l-.6.3c-.2.1-.4.2-.6.2-.2 0-.5.1-.7.1-.3 0-.5 0-.8-.1l-.6-.3c-.2-.2-.3-.3-.4-.6-.1-.2-.2-.5-.2-.8 0-.3.1-.6.2-.8.2-.3.4-.5.7-.7s.8-.4 1.3-.5c.6-.1 1.2-.2 2-.2v-.7c0-.6-.1-1-.4-1.3-.2-.3-.6-.4-1-.4-.3 0-.6 0-.8.1-.2.1-.4.2-.5.3s-.3.2-.4.3c-.1.1-.2.1-.3.1-.1 0-.2 0-.2-.1S52.1 7 52 7l-.2-.4c.4-.4.8-.7 1.3-.8.5-.2 1-.3 1.5-.3.4 0 .7.1 1.1.2.3.1.6.3.8.5s.4.5.5.8c.1.3.2.7.2 1.1v4.6zm-3.3-.8c.2 0 .4 0 .6-.1.2 0 .4-.1.5-.2.2-.1.3-.2.5-.3.1-.1.3-.2.4-.4V9.5c-.6 0-1.1 0-1.5.1-.4.1-.7.2-1 .3s-.4.3-.5.4c-.1.2-.2.3-.2.5s0 .3.1.5c.1.1.1.2.2.3s.2.2.4.2c.2.1.4.1.5.1zM58.8 12.7V5.6h.7c.2 0 .3.1.3.3l.2.7c.3-.3.7-.6 1-.8.4-.2.8-.3 1.3-.3.4 0 .7.1 1 .2.3.1.5.3.7.5.2.2.3.5.5.9.1.3.2.7.2 1.1v4.5h-1.2V8.1c0-.5-.1-1-.4-1.2-.2-.3-.6-.4-1.1-.4-.4 0-.7.1-1 .3-.3.2-.6.4-.9.7v5.2h-1.3zM71.4 12.7c-.2 0-.3-.1-.3-.3l-.1-.9c-.3.4-.6.7-1 .9s-.8.3-1.3.3c-.4 0-.8-.1-1.1-.2-.3-.2-.6-.4-.8-.7-.2-.3-.4-.7-.5-1.1-.1-.5-.2-1-.2-1.6 0-.5.1-1 .2-1.5s.3-.8.6-1.2c.3-.3.6-.6 1-.8s.8-.3 1.3-.3c.4 0 .8.1 1.1.2s.6.4.8.6V2.3h1.2v10.3h-.9zm-2.4-1c.4 0 .8-.1 1.1-.3s.6-.5.8-.8V7.2c-.2-.3-.5-.5-.8-.6-.3-.1-.6-.2-.9-.2-.7 0-1.2.2-1.5.7-.4.5-.5 1.1-.5 2 0 .5 0 .9.1 1.2.1.3.2.6.3.8.2.2.3.4.6.5.3.1.5.1.8.1zM76.9 5.5c.4 0 .8.1 1.2.2.4.1.7.3.9.6.3.3.5.6.6 1 .1.4.2.8.2 1.3 0 .2 0 .3-.1.4s-.1.1-.2.1h-4.7c0 .4.1.8.2 1.2.1.3.3.6.5.8s.4.4.7.5c.3.1.6.2.9.2.3 0 .6 0 .8-.1s.4-.2.6-.2.3-.2.4-.2c.1-.1.2-.1.3-.1.1 0 .2 0 .2.1l.4.5c-.2.2-.3.3-.6.5s-.4.2-.7.3c-.2.1-.5.2-.8.2-.3 0-.5.1-.8.1-.5 0-.9-.1-1.4-.2-.4-.2-.8-.4-1.1-.7-.3-.3-.5-.7-.7-1.2-.2-.5-.3-1-.3-1.6 0-.5.1-1 .2-1.4.2-.4.4-.8.7-1.1s.6-.6 1-.7 1.1-.5 1.6-.5zm.1.9c-.6 0-1.1.2-1.4.5-.3.3-.6.8-.6 1.4h3.9c0-.3 0-.6-.1-.8l-.3-.6c-.2-.2-.3-.3-.6-.4s-.6-.1-.9-.1zM86.3 12.7c-.2 0-.3-.1-.3-.3l-.1-.9c-.3.4-.7.7-1 .9s-.8.3-1.3.3c-.4 0-.8-.1-1.1-.2-.3-.2-.6-.4-.8-.7-.2-.3-.4-.7-.5-1.1-.1-.5-.2-1-.2-1.6 0-.5.1-1 .2-1.5s.3-.8.6-1.2c.3-.3.6-.6 1-.8s.8-.3 1.3-.3c.4 0 .8.1 1.1.2.3.1.6.4.8.6V2.3h1.2v10.3h-.9zm-2.4-1c.4 0 .8-.1 1.1-.3.3-.2.6-.5.8-.8V7.2c-.2-.3-.5-.5-.8-.6-.3-.1-.6-.2-.9-.2-.7 0-1.2.2-1.5.7-.4.5-.5 1.1-.5 2 0 .5 0 .9.1 1.2.1.3.2.6.3.8.2.2.3.4.6.5s.5.1.8.1zM91.6 12.7V2.3h1.3v4.2c.3-.3.6-.6 1-.8.4-.2.8-.3 1.3-.3.4 0 .8.1 1.1.2.3.2.6.4.8.7.2.3.4.7.5 1.1s.2 1 .2 1.6c0 .5-.1 1-.2 1.5s-.3.8-.6 1.2c-.3.3-.6.6-1 .8-.4.2-.8.3-1.3.3s-.8-.1-1.2-.3c-.3-.2-.6-.4-.8-.7l-.1.6c0 .2-.1.3-.3.3h-.7zm3.2-6.3c-.4 0-.8.1-1.1.3-.3.2-.6.5-.8.8v3.4c.2.3.5.5.7.7.3.1.6.2.9.2.7 0 1.2-.2 1.5-.7.4-.5.5-1.1.5-2 0-.5 0-.9-.1-1.2-.1-.3-.2-.6-.4-.8-.2-.2-.3-.4-.6-.5-.1-.1-.3-.2-.6-.2zM101.2 14.7c0 .1-.1.2-.2.2-.1.1-.2.1-.3.1h-.9l1.3-2.8-2.9-6.7h1.1c.1 0 .2 0 .3.1.1.1.1.1.1.2l1.9 4.5c0 .1.1.2.1.3s.1.2.1.3c0-.1.1-.2.1-.3 0-.1.1-.2.1-.3l1.8-4.5c0-.1.1-.1.1-.2.1 0 .1-.1.2-.1h1l-3.9 9.2zM107.7 2.6h1.1c.1 0 .2 0 .3.1l.2.2 2.8 7.1c.1.2.1.3.2.5s.1.4.2.6c0-.2.1-.4.1-.6 0-.2.1-.4.2-.5l2.8-7.1c0-.1.1-.2.2-.2.1-.1.2-.1.3-.1h1.1l-4.1 10h-1.2l-4.2-10zM120 5.5c.4 0 .8.1 1.2.2.4.1.7.3.9.6.3.3.5.6.6 1 .1.4.2.8.2 1.3 0 .2 0 .3-.1.4s-.1.1-.2.1H118c0 .4.1.8.2 1.2.1.3.3.6.5.8.2.2.4.4.7.5.3.1.6.2.9.2.3 0 .6 0 .8-.1.2-.1.4-.2.6-.2s.3-.2.4-.2c.1-.1.2-.1.3-.1.1 0 .2 0 .2.1l.4.5c-.2.2-.3.3-.6.5-.2.1-.4.2-.7.3s-.5.2-.8.2c-.3 0-.5.1-.8.1-.5 0-.9-.1-1.4-.2-.4-.2-.8-.4-1.1-.7-.3-.3-.5-.7-.7-1.2-.2-.5-.3-1-.3-1.6 0-.5.1-1 .2-1.4.2-.4.4-.8.7-1.1.3-.3.6-.6 1-.7.6-.5 1-.5 1.5-.5zm.1.9c-.6 0-1.1.2-1.4.5-.3.3-.6.8-.6 1.4h3.9c0-.3 0-.6-.1-.8-.1-.2-.2-.4-.4-.6-.2-.2-.3-.3-.6-.4s-.5-.1-.8-.1zM124.4 12.7V5.6h.7c.2 0 .3.1.3.3l.1.8c.3-.3.7-.6 1-.8.4-.2.8-.3 1.3-.3.4 0 .7.1 1 .2.3.1.5.3.7.5.2.2.3.5.5.9.1.3.2.7.2 1.1v4.5H129V8.1c0-.5-.1-1-.4-1.2s-.6-.4-1.1-.4c-.4 0-.7.1-1 .3-.3.2-.6.4-.9.7v5.2h-1.2zM134.2 12.8c-.6 0-1-.2-1.3-.5-.3-.3-.5-.8-.5-1.4V6.6h-.9c-.1 0-.1 0-.2-.1-.1 0-.1-.1-.1-.2v-.5l1.2-.1.3-2.2c0-.1 0-.1.1-.2.1 0 .1-.1.2-.1h.6v2.4h2v.9h-2v4.3c0 .3.1.5.2.7s.3.2.6.2c.1 0 .2 0 .3-.1.1 0 .2-.1.2-.1.1 0 .1-.1.2-.1l.1-.1c.1 0 .1 0 .2.1l.4.6c-.2.2-.5.4-.8.5-.1.2-.5.3-.8.3zM138.2 5.6v4.5c0 .5.1 1 .4 1.2.2.3.6.4 1.1.4.4 0 .7-.1 1-.3.3-.2.6-.4.9-.7V5.6h1.2v7.1h-.7c-.2 0-.3-.1-.3-.3l-.1-.8c-.3.3-.7.6-1 .8-.4.2-.8.3-1.3.3-.4 0-.7-.1-1-.2-.3-.1-.5-.3-.7-.5-.2-.2-.4-.5-.5-.8s-.2-.7-.2-1.1V5.6h1.2zM144.8 12.7V5.6h.7c.1 0 .2 0 .3.1.1.1.1.1.1.3l.1 1c.2-.5.5-.9.9-1.2.4-.3.8-.4 1.3-.4.2 0 .4 0 .5.1.2 0 .3.1.4.2l-.1.9c0 .1-.1.2-.2.2s-.2 0-.3-.1c-.1 0-.3-.1-.6-.1-.4 0-.8.1-1.1.4-.3.3-.5.6-.7 1.1v4.5h-1.3zM153.1 5.5c.4 0 .8.1 1.2.2.4.1.7.3.9.6.3.3.5.6.6 1s.2.8.2 1.3c0 .2 0 .3-.1.4s-.1.1-.2.1H151c0 .4.1.8.2 1.2.1.3.3.6.5.8.2.2.4.4.7.5.3.1.6.2.9.2.3 0 .6 0 .8-.1s.4-.2.6-.2.3-.2.4-.2.2-.1.3-.1c.1 0 .2 0 .2.1l.3.5c-.2.2-.3.3-.6.5s-.4.2-.7.3-.5.2-.8.2c-.3 0-.5.1-.8.1-.5 0-.9-.1-1.4-.2-.4-.2-.8-.4-1.1-.7-.3-.3-.5-.7-.7-1.2-.2-.5-.3-1-.3-1.6 0-.5.1-1 .2-1.4.2-.4.4-.8.7-1.1.3-.3.6-.6 1-.7.7-.5 1.2-.5 1.7-.5zm0 .9c-.6 0-1.1.2-1.4.5-.3.3-.6.8-.6 1.4h3.9c0-.3 0-.6-.1-.8-.1-.2-.2-.4-.4-.6-.2-.2-.3-.3-.6-.4-.2-.1-.5-.1-.8-.1zM30.2 0h.5v16h-.5z"/></g></switch></svg>