<svg xmlns="http://www.w3.org/2000/svg" width="35.394" height="30.009" viewBox="0 0 35.394 30.009">
  <g id="quote" transform="translate(0 -36.547)" opacity="0.1">
    <g id="Group_110" data-name="Group 110" transform="translate(0 36.547)">
      <path id="Path_9" data-name="Path 9" d="M12.277,36.547H4.092a3.947,3.947,0,0,0-2.9,1.193A3.947,3.947,0,0,0,0,40.639v8.184a3.945,3.945,0,0,0,1.193,2.9,3.948,3.948,0,0,0,2.9,1.194H8.866a2.038,2.038,0,0,1,2.046,2.046v.682a5.257,5.257,0,0,1-1.6,3.858,5.258,5.258,0,0,1-3.858,1.6H4.092a1.312,1.312,0,0,0-.959.405,1.311,1.311,0,0,0-.4.959v2.728a1.312,1.312,0,0,0,.4.959,1.313,1.313,0,0,0,.959.405H5.456a10.633,10.633,0,0,0,4.231-.863,10.993,10.993,0,0,0,3.485-2.334,11,11,0,0,0,2.334-3.485,10.631,10.631,0,0,0,.863-4.231v-15a4.075,4.075,0,0,0-4.092-4.092Z" transform="translate(0 -36.547)" fill="#d2d2d4"/>
      <path id="Path_10" data-name="Path 10" d="M270.991,37.74a3.946,3.946,0,0,0-2.9-1.193h-8.184a4.074,4.074,0,0,0-4.092,4.092v8.184a4.075,4.075,0,0,0,4.092,4.092h4.774a2.038,2.038,0,0,1,2.046,2.046v.682a5.457,5.457,0,0,1-5.456,5.456h-1.364a1.384,1.384,0,0,0-1.364,1.364v2.728a1.384,1.384,0,0,0,1.364,1.364h1.364a10.634,10.634,0,0,0,4.231-.863,10.81,10.81,0,0,0,5.818-5.819,10.631,10.631,0,0,0,.863-4.231v-15A3.945,3.945,0,0,0,270.991,37.74Z" transform="translate(-236.792 -36.547)" fill="#d2d2d4"/>
    </g>
  </g>
</svg>
