<svg xmlns="http://www.w3.org/2000/svg" width="150" height="150"><defs><clipPath id="a"><path data-name="Path 1173" d="M75 0A75 75 0 110 75 75 75 0 0175 0z" transform="translate(860 175)" fill="#fff" stroke="#707070" opacity=".4"/></clipPath><clipPath id="b"><path data-name="Rectangle 165" transform="translate(2923.159 2727.836)" fill="none" d="M0 0h375v670H0z"/></clipPath><clipPath id="c"><path data-name="Rectangle 56" fill="none" d="M0 0h35.091v26.229H0z"/></clipPath></defs><g data-name="Mask Group 5" transform="translate(-860 -175)" clip-path="url(#a)"><g data-name="Group 103"><g data-name="Group 102" transform="translate(-2165.159 -2620.836)" clip-path="url(#b)"><g data-name="Group 3" fill="#383942"><path data-name="Path 25" d="M2305 3225.121l806.434-386.348-756.54 572.546-49.89-186.2z"/><path data-name="Path 26" d="M2291.889 2932.823v192.765l819.539-286.815z"/><path data-name="Path 27" d="M2304.989 2833.289l806.436 5.484-756.536-191.681z"/><path data-name="Path 28" d="M2393.3 2554.34l718.125 284.433-621.739-451.368z"/><path data-name="Path 29" d="M2550.8 2307.753l560.628 531.02-424.32-667.324z"/><path data-name="Path 30" d="M2766.753 2110.332l344.677 728.441-177.736-824.822z"/><path data-name="Path 31" d="M3026.445 1975.531l84.984 863.243 101.212-913.131z"/><path data-name="Path 32" d="M3312.175 1912.535l-200.747 926.238 393.512-926.235z"/><path data-name="Path 33" d="M3604.475 1925.639l-493.047 913.134 679.243-863.241z"/><path data-name="Path 34" d="M3883.423 2013.949l-772 824.824 938.933-728.44z"/><path data-name="Path 35" d="M4130.01 2171.447l-1018.582 667.326 1154.885-531.019z"/><path data-name="Path 36" d="M4327.432 2387.4l-1216 451.373 1312.38-284.433z"/><path data-name="Path 37" d="M4462.233 2647.091l-1350.8 191.682 1400.694-5.486z"/><path data-name="Path 38" d="M4525.228 2932.822l-1413.8-94.049 1413.8 286.813z"/><path data-name="Path 39" d="M4512.125 3225.121l-1400.7-386.348 1350.8 572.543z"/><path data-name="Path 40" d="M4423.815 3504.07l-1312.387-665.3L4327.43 3671z"/><path data-name="Path 41" d="M4266.317 3750.656l-1154.889-911.883L4130.01 3886.959z"/><path data-name="Path 42" d="M4050.364 3948.078l-938.936-1109.3 772 1205.684z"/><path data-name="Path 43" d="M3790.673 4082.88l-679.245-1244.107 493.049 1294z"/><path data-name="Path 44" d="M3504.942 4145.875l-393.514-1307.1 200.75 1307.1z"/><path data-name="Path 45" d="M3212.643 4132.772l-101.215-1294-84.977 1244.1z"/><path data-name="Path 46" d="M2933.694 4044.461l177.734-1205.688-344.672 1109.3z"/><path data-name="Path 47" d="M2687.108 3886.964l424.32-1048.191-560.628 911.885z"/><path data-name="Path 48" d="M2489.689 3671.011l621.742-832.238-718.124 665.3z"/></g></g></g><g data-name="Group 911"><g data-name="Group 912"><g data-name="Group 911"><path data-name="Path 1173" d="M952.987 279.706h-.806v-20.15a.806.806 0 00-.806-.806h-39.494a4.841 4.841 0 00-4.836 4.836v37.882a4.841 4.841 0 004.836 4.836h39.494a.806.806 0 00.806-.806v-11.284h.806a2.421 2.421 0 002.418-2.418v-9.672a2.421 2.421 0 00-2.418-2.418zm-41.106-19.344h38.688v6.448h-38.688a3.224 3.224 0 010-6.448zm20.15 21.762a.806.806 0 11-.806-.806.807.807 0 01.806.806zm2.414 14.508a.806.806 0 11.806-.806.807.807 0 01-.806.806zm16.12 8.06h-3.22v-4.03a2.421 2.421 0 00-2.418-2.418h-1.76a2.418 2.418 0 100 1.612h1.76a.807.807 0 01.806.806v4.03h-10.478v-6.6a2.418 2.418 0 10-1.612 0v6.6h-8.06V290.99a.807.807 0 01.806-.806h2.566a2.418 2.418 0 100-1.612h-2.566a2.421 2.421 0 00-2.418 2.418v13.7h-12.09a3.227 3.227 0 01-3.224-3.224v-.806h9.014a2.418 2.418 0 100-1.612h-9.014v-4.834h8.06a2.421 2.421 0 002.418-2.418v-2.566a2.418 2.418 0 10-1.612 0v2.566a.807.807 0 01-.806.806h-8.06v-12.9h4.178a2.418 2.418 0 100-1.612h-4.178v-4.832h12.088a2.421 2.421 0 012.418 2.418v4.174a2.418 2.418 0 101.612 0v-4.174a4.035 4.035 0 00-4.03-4.026h-12.088v-4.463c.014.012.03.021.044.032a4.848 4.848 0 00.6.451l.1.062a4.773 4.773 0 00.683.341c.033.014.068.024.1.037a4.778 4.778 0 00.764.22c.024 0 .048.006.073.011a4.828 4.828 0 00.855.081h18.543v11.428a2.418 2.418 0 101.612 0v-11.428h18.538v1.612h-8.06a4.035 4.035 0 00-4.03 4.03v.954a2.418 2.418 0 101.612 0v-.954a2.421 2.421 0 012.418-2.414h8.06v8.06h-5.642a7.26 7.26 0 00-6.782 4.71l-.023.064a7.11 7.11 0 00-.168.518c-.024.085-.045.172-.067.259a5.996 5.996 0 00-.139.752 7.23 7.23 0 00-.038.326c0 .047-.013.093-.016.139-.006.084 0 .166 0 .249s-.013.154-.013.232c0 .044.006.086.006.13 0 .136.011.271.021.405.008.107.015.214.028.319.018.15.042.3.068.445.015.085.03.17.048.254.035.164.079.326.126.487.019.063.036.127.056.189.056.172.118.34.186.507l.063.15c.073.168.152.332.238.493q.039.074.08.147.128.23.274.451l.114.168c.094.135.192.266.3.395.051.063.1.124.157.185.067.078.128.16.2.235.037.039.078.073.116.112.059.06.121.117.181.175.11.1.221.21.338.307.075.063.154.121.231.181.107.082.213.166.324.243s.235.15.354.222c.08.048.158.1.239.146.181.1.367.19.557.276.026.011.051.026.077.037a7.232 7.232 0 002.875.6h5.642zm-8.862-5.642a.806.806 0 11-.806-.806.807.807 0 01.806.806zm-11.284-9.672a.806.806 0 11.806.806.807.807 0 01-.806-.806zm-11.284 10.478a.806.806 0 11.806.806.807.807 0 01-.806-.806zm-1.612-12.9a.806.806 0 11.806.806.807.807 0 01-.806-.802zm-3.224-8.056a.806.806 0 11.806.806.807.807 0 01-.806-.806zm9.672 2.418a.806.806 0 11-.806.806.807.807 0 01.806-.806zm16.12-4.03a.806.806 0 11-.806-.806.807.807 0 01.806.806zm13.7 14.508a.807.807 0 01-.806.806h-8.06a5.613 5.613 0 01-3.527-1.245c-.026-.021-.052-.039-.077-.061a4.06 4.06 0 01-.289-.264c-.044-.042-.089-.083-.132-.127a5.617 5.617 0 01-.243-.267 5.927 5.927 0 01-.127-.15c-.079-.1-.154-.2-.226-.3a4.556 4.556 0 01-.092-.135q-.111-.169-.21-.347c-.023-.039-.044-.08-.065-.12q-.1-.185-.182-.377l-.052-.125a4.812 4.812 0 01-.188-.543 14.177 14.177 0 01-.1-.368c-.015-.069-.027-.139-.04-.209a5.27 5.27 0 01-.051-.334c-.01-.086-.016-.173-.023-.26s-.014-.2-.015-.305v-.288c0-.096.006-.2.015-.3s.019-.171.03-.256.027-.191.044-.285.043-.208.069-.311l.046-.178a5.836 5.836 0 015.655-4.129h7.839a.807.807 0 01.806.806z" fill="#d2d2d4"/></g></g><g data-name="Group 914"><g data-name="Group 913"><path data-name="Path 1174" d="M944.927 283.736a3.224 3.224 0 103.224 3.224 3.227 3.227 0 00-3.224-3.224zm0 4.836a1.612 1.612 0 111.612-1.612 1.614 1.614 0 01-1.612 1.612z" fill="#d2d2d4"/></g></g><g data-name="Group 125"><path data-name="Path 36" d="M947.624 265.684h-35.63a3.156 3.156 0 110-6.311h35.63a3.156 3.156 0 110 6.311z" fill="#fff"/></g><g data-name="Group 129"><g data-name="Group 128" clip-path="url(#c)" transform="translate(912.045 236.298)"><g data-name="Group 127" transform="translate(.006 .643)"><g data-name="Group 126"><circle data-name="Ellipse 26" cx="16.803" cy="16.803" r="16.803" transform="translate(.736 .736)" fill="#161620"/><path data-name="Path 37" d="M17.539 35.078a17.539 17.539 0 1117.539-17.539 17.559 17.559 0 01-17.539 17.539zm0-33.605a16.067 16.067 0 1016.066 16.066A16.084 16.084 0 0017.539 1.472z" fill="#fff"/></g><circle data-name="Ellipse 27" cx="13.555" cy="13.555" r="13.555" transform="translate(3.985 3.984)" fill="#fff"/><path d="M11.714 13.948a4.114 4.114 0 015.669-.142l.152.145a4.114 4.114 0 015.962 5.666l-.145.151-5.817 5.818-5.818-5.818a4.115 4.115 0 010-5.819z" fill="#ee306f"/></g></g></g><g data-name="Group 132"><g data-name="Group 130" transform="translate(971.692 184.508)"><circle data-name="Ellipse 28" cx="16.803" cy="16.803" r="16.803" transform="translate(.738 .738)" fill="#161620"/><path data-name="Path 38" d="M17.504 35.081a17.552 17.552 0 111.819-.093 17.881 17.881 0 01-1.819.093zm.063-33.609a16.347 16.347 0 00-1.667.085 16.015 16.015 0 101.667-.085z" fill="#fff"/></g><g data-name="Group 131"><circle data-name="Ellipse 29" cx="13.555" cy="13.555" r="13.555" fill="#fff" transform="translate(975.678 188.494)"/></g><g data-name="Heart"><path data-name="Path 39" d="M983.023 198.581a4.114 4.114 0 015.625-.718l.166.129a4.114 4.114 0 016.508 5.03l-.129.165-5.195 6.38-6.381-5.2a4.115 4.115 0 01-.6-5.788z" fill="#ee306f"/></g></g><g data-name="Group 136"><g data-name="Group 134" transform="translate(932.709 201.469)"><circle data-name="Ellipse 30" cx="16.803" cy="16.803" r="16.803" transform="translate(.746 .737)" fill="#161620"/><path data-name="Path 41" d="M17.554 35.088a17.575 17.575 0 117.039-1.486 17.529 17.529 0 01-7.039 1.486zm.013-33.616a16.069 16.069 0 105.822 1.1 16.093 16.093 0 00-5.821-1.096z" fill="#fff"/></g><g data-name="Group 135"><circle data-name="Ellipse 31" cx="13.555" cy="13.555" r="13.555" fill="#fff" transform="translate(936.703 205.454)"/></g><g data-name="Heart"><path data-name="Path 42" d="M946.316 213.089a4.113 4.113 0 015.332 1.93l.089.19a4.113 4.113 0 013.494 7.446l-.19.088-7.535 3.305-3.3-7.536a4.114 4.114 0 012.111-5.422z" fill="#ee306f"/></g></g></g></g></svg>