<svg xmlns="http://www.w3.org/2000/svg" xmlns:xlink="http://www.w3.org/1999/xlink" width="150" height="150" viewBox="0 0 150 150">
  <defs>
    <clipPath id="clip-path">
      <circle id="Ellipse_3" data-name="Ellipse 3" cx="75" cy="75" r="75" transform="translate(860 175)" fill="#fff" stroke="#707070" stroke-width="1" opacity="0.4"/>
    </clipPath>
    <clipPath id="clip-path-2">
      <rect id="Rectangle_165" data-name="Rectangle 165" width="375" height="670" transform="translate(2923.159 2727.836)" fill="none"/>
    </clipPath>
    <clipPath id="clip-path-3">
      <rect id="Rectangle_164" data-name="Rectangle 164" width="188" height="184" transform="translate(-0.112 -0.153)" fill="#fff" stroke="#707070" stroke-width="1"/>
    </clipPath>
  </defs>
  <g id="Mask_Group_3" data-name="Mask Group 3" transform="translate(-860 -175)" clip-path="url(#clip-path)">
    <g id="Group_103" data-name="Group 103" transform="translate(611 81)">
      <g id="Group_102" data-name="Group 102" transform="translate(-2776.159 -2701.836)" clip-path="url(#clip-path-2)">
        <g id="Group_3" data-name="Group 3">
          <path id="Path_25" data-name="Path 25" d="M2305,3225.121l806.434-386.348-756.54,572.546-49.89-186.2h0Z" fill="#383942"/>
          <path id="Path_26" data-name="Path 26" d="M2291.889,2932.823v192.765h0l819.539-286.815Z" fill="#383942"/>
          <path id="Path_27" data-name="Path 27" d="M2304.989,2833.289l806.436,5.484-756.536-191.681Z" fill="#383942"/>
          <path id="Path_28" data-name="Path 28" d="M2393.3,2554.34l718.125,284.433-621.739-451.368Z" fill="#383942"/>
          <path id="Path_29" data-name="Path 29" d="M2550.8,2307.753l560.628,531.02-424.32-667.324Z" fill="#383942"/>
          <path id="Path_30" data-name="Path 30" d="M2766.753,2110.332l344.677,728.441-177.736-824.822Z" fill="#383942"/>
          <path id="Path_31" data-name="Path 31" d="M3026.445,1975.531l84.984,863.243,101.212-913.131Z" fill="#383942"/>
          <path id="Path_32" data-name="Path 32" d="M3312.175,1912.535l-200.747,926.238,393.512-926.235Z" fill="#383942"/>
          <path id="Path_33" data-name="Path 33" d="M3604.475,1925.639l-493.047,913.134,679.243-863.241Z" fill="#383942"/>
          <path id="Path_34" data-name="Path 34" d="M3883.423,2013.949l-772,824.824,938.933-728.44Z" fill="#383942"/>
          <path id="Path_35" data-name="Path 35" d="M4130.01,2171.447,3111.428,2838.773l1154.885-531.019Z" fill="#383942"/>
          <path id="Path_36" data-name="Path 36" d="M4327.432,2387.4l-1216,451.373L4423.812,2554.34Z" fill="#383942"/>
          <path id="Path_37" data-name="Path 37" d="M4462.233,2647.091l-1350.8,191.682,1400.694-5.486Z" fill="#383942"/>
          <path id="Path_38" data-name="Path 38" d="M4525.228,2932.822l-1413.8-94.049,1413.8,286.813Z" fill="#383942"/>
          <path id="Path_39" data-name="Path 39" d="M4512.125,3225.121l-1400.7-386.348,1350.8,572.543Z" fill="#383942"/>
          <path id="Path_40" data-name="Path 40" d="M4423.815,3504.07l-1312.387-665.3L4327.43,3671Z" fill="#383942"/>
          <path id="Path_41" data-name="Path 41" d="M4266.317,3750.656,3111.428,2838.773,4130.01,3886.959Z" fill="#383942"/>
          <path id="Path_42" data-name="Path 42" d="M4050.364,3948.078l-938.936-1109.3,772,1205.684Z" fill="#383942"/>
          <path id="Path_43" data-name="Path 43" d="M3790.673,4082.88,3111.428,2838.773l493.049,1294Z" fill="#383942"/>
          <path id="Path_44" data-name="Path 44" d="M3504.942,4145.875l-393.514-1307.1,200.75,1307.1Z" fill="#383942"/>
          <path id="Path_45" data-name="Path 45" d="M3212.643,4132.772l-101.215-1294-84.977,1244.1Z" fill="#383942"/>
          <path id="Path_46" data-name="Path 46" d="M2933.694,4044.461l177.734-1205.688-344.672,1109.3Z" fill="#383942"/>
          <path id="Path_47" data-name="Path 47" d="M2687.108,3886.964l424.32-1048.191L2550.8,3750.658Z" fill="#383942"/>
          <path id="Path_48" data-name="Path 48" d="M2489.689,3671.011l621.742-832.238-718.124,665.3Z" fill="#383942"/>
        </g>
      </g>
      <g id="onboarding-1" transform="translate(240.112 79.013)">
        <g id="Mask_Group_2" data-name="Mask Group 2" transform="translate(0 -0.86)" clip-path="url(#clip-path-3)">
          <g id="Group_101" data-name="Group 101" transform="translate(-27.4 19.431)">
            <g id="Group_100" data-name="Group 100" transform="translate(7.042 8.148)">
              <g id="Web_1920_1" data-name="Web 1920 1" transform="translate(67.399 10.416)">
                <g id="Group_21" data-name="Group 21">
                  <g id="Group_20" data-name="Group 20" transform="translate(0 0)">
                    <path id="Path_60" data-name="Path 60" d="M603.541,428.3c0-5.95,4.2-10.79,9.365-10.79s9.366,4.841,9.366,10.79-4.2,10.791-9.366,10.791S603.541,434.255,603.541,428.3Z" transform="translate(-574.416 -412.507)" fill="#161620"/>
                    <path id="Path_61" data-name="Path 61" d="M611.531,464.358a2.5,2.5,0,0,0-2.5,2.5v51.407a1.125,1.125,0,0,1-1.1,1.146h-1.818a1.114,1.114,0,0,1-1.079-.792l-5.119-28.208a2.5,2.5,0,0,0-4.925,0l-5.1,28.118a1.129,1.129,0,0,1-1.1.882h-1.8a1.12,1.12,0,0,1-.8-.337,1.158,1.158,0,0,1-.322-.858V466.862a2.511,2.511,0,0,0-.726-1.764l-9.018-9.079a10.725,10.725,0,0,1-2.5-4.047l-9.536-23.715a1.619,1.619,0,0,1,2.845-1.506l11.522,17.178c.029.044.061.086.091.127a8.639,8.639,0,0,0,6.825,3.372H607.4a6.377,6.377,0,0,1,5.019,2.437l14.053,16.827a3.1,3.1,0,0,1-.3,4.3l-12.136,10.952V466.862A2.5,2.5,0,0,0,611.531,464.358Z" transform="translate(-558.956 -415.836)" fill="#161620"/>
                    <path id="Path_62" data-name="Path 62" d="M647.88,447.119l-1.844-3.2a7.405,7.405,0,0,1-.25-6.939l2.969-6.133a2.5,2.5,0,0,0-2.255-3.6,99.962,99.962,0,0,0-41.253,8.687c-.19-.018-.383-.024-.575-.033a16.582,16.582,0,0,0,3.928-10.817c0-8.711-6.447-15.8-14.371-15.8s-14.371,7.086-14.371,15.8a16.586,16.586,0,0,0,3.9,10.79h-1.617a3.6,3.6,0,0,1-2.8-1.355l-11.474-17.105a6.623,6.623,0,0,0-11.645,6.161l9.5,23.6a15.581,15.581,0,0,0,3.633,5.818l8.291,8.349v50.28a6.13,6.13,0,0,0,6.012,6.246h1.914a6.188,6.188,0,0,0,6-4.9l2.658-14.644,2.674,14.733a6.167,6.167,0,0,0,5.987,4.815h1.8a6.129,6.129,0,0,0,6.128-6.129v-29.6l.133-.122c4.15,4.544,12.333,12.58,18.31,12.58a5.7,5.7,0,0,0,1.749-.261c1.775-.572,3.981-2.26,4.406-7.061.975-11.033,5.8-12.642,7.386-13.17a6.229,6.229,0,0,0,4.078-4.835,2.121,2.121,0,0,0-1.291-2.666c-.161-.1-.948-.7-.575-2.712.518-2.793,2.88-5.881,3.743-6.833a2.5,2.5,0,0,0,.614-1.232A12.8,12.8,0,0,0,647.88,447.119Zm-63.011-22.025c0-5.95,4.2-10.79,9.365-10.79s9.366,4.841,9.366,10.79-4.2,10.791-9.366,10.791S584.869,431.045,584.869,425.094Zm23.452,32.723a2.5,2.5,0,0,0-2.5,2.5v51.407a1.125,1.125,0,0,1-1.1,1.146H602.9a1.114,1.114,0,0,1-1.079-.792L596.7,483.873a2.5,2.5,0,0,0-4.925,0l-5.1,28.118a1.13,1.13,0,0,1-1.1.882h-1.8a1.12,1.12,0,0,1-.8-.337,1.157,1.157,0,0,1-.322-.857V460.323a2.51,2.51,0,0,0-.726-1.764L572.9,449.48a10.724,10.724,0,0,1-2.5-4.047l-9.536-23.715a1.619,1.619,0,0,1,2.845-1.506l11.522,17.178c.029.044.061.086.091.127a8.639,8.639,0,0,0,6.825,3.372h22.032a6.377,6.377,0,0,1,5.019,2.437l14.053,16.827a3.1,3.1,0,0,1-.3,4.3l-12.136,10.952V460.323a2.5,2.5,0,0,0-2.5-2.5Zm36.224-3.517c-1.133,1.38-3.742,4.889-4.448,8.687a7.879,7.879,0,0,0,1.2,6.348.54.54,0,0,1-.073.029c-6.318,2.108-9.948,7.989-10.789,17.479-.152,1.728-.589,2.62-.953,2.737-2.089.67-8.726-4.284-14.807-10.907l11.638-10.5a8.089,8.089,0,0,0,.792-11.225l-14.021-16.782a11.483,11.483,0,0,0-1.45-1.487,98.816,98.816,0,0,1,30.837-6.327l-1.187,2.453a12.408,12.408,0,0,0,.418,11.623l1.844,3.2a7.771,7.771,0,0,1,1,4.682Z" transform="translate(-555.744 -409.297)" fill="#d2d2d4"/>
                    <path id="Path_63" data-name="Path 63" d="M680.372,469.083c-1.133,1.381-3.742,4.889-4.448,8.688a7.88,7.88,0,0,0,1.2,6.348.534.534,0,0,1-.073.029c-6.318,2.108-9.948,7.988-10.788,17.478-.152,1.727-.589,2.62-.953,2.737-2.089.67-8.726-4.284-14.807-10.907l11.639-10.5a8.088,8.088,0,0,0,.792-11.224l-14.021-16.782a11.565,11.565,0,0,0-1.45-1.487,98.851,98.851,0,0,1,30.837-6.327l-1.187,2.453a12.409,12.409,0,0,0,.418,11.624l1.845,3.195A7.781,7.781,0,0,1,680.372,469.083Z" transform="translate(-591.572 -424.077)" fill="#ee306f"/>
                  </g>
                </g>
              </g>
            </g>
          </g>
        </g>
      </g>
    </g>
  </g>
</svg>
