<svg xmlns="http://www.w3.org/2000/svg" width="150" height="150"><defs><clipPath id="a"><circle data-name="Ellipse 3" cx="75" cy="75" r="75" transform="translate(860 175)" fill="#fff" stroke="#707070" opacity=".4"/></clipPath><clipPath id="b"><path data-name="Rectangle 165" transform="translate(2923.159 2727.836)" fill="none" d="M0 0h375v670H0z"/></clipPath><clipPath id="c"><path data-name="Rectangle 164" transform="translate(-.112 -.153)" fill="#fff" stroke="#707070" d="M0 0h188v184H0z"/></clipPath></defs><g data-name="Mask Group 3" transform="translate(-860 -175)" clip-path="url(#a)"><g data-name="Group 103"><g data-name="Group 102" transform="translate(-2165.159 -2620.836)" clip-path="url(#b)"><g data-name="Group 3" fill="#383942"><path data-name="Path 25" d="M2305 3225.121l806.434-386.348-756.54 572.546-49.89-186.2z"/><path data-name="Path 26" d="M2291.889 2932.823v192.765l819.539-286.815z"/><path data-name="Path 27" d="M2304.989 2833.289l806.436 5.484-756.536-191.681z"/><path data-name="Path 28" d="M2393.3 2554.34l718.125 284.433-621.739-451.368z"/><path data-name="Path 29" d="M2550.8 2307.753l560.628 531.02-424.32-667.324z"/><path data-name="Path 30" d="M2766.753 2110.332l344.677 728.441-177.736-824.822z"/><path data-name="Path 31" d="M3026.445 1975.531l84.984 863.243 101.212-913.131z"/><path data-name="Path 32" d="M3312.175 1912.535l-200.747 926.238 393.512-926.235z"/><path data-name="Path 33" d="M3604.475 1925.639l-493.047 913.134 679.243-863.241z"/><path data-name="Path 34" d="M3883.423 2013.949l-772 824.824 938.933-728.44z"/><path data-name="Path 35" d="M4130.01 2171.447l-1018.582 667.326 1154.885-531.019z"/><path data-name="Path 36" d="M4327.432 2387.4l-1216 451.373 1312.38-284.433z"/><path data-name="Path 37" d="M4462.233 2647.091l-1350.8 191.682 1400.694-5.486z"/><path data-name="Path 38" d="M4525.228 2932.822l-1413.8-94.049 1413.8 286.813z"/><path data-name="Path 39" d="M4512.125 3225.121l-1400.7-386.348 1350.8 572.543z"/><path data-name="Path 40" d="M4423.815 3504.07l-1312.387-665.3L4327.43 3671z"/><path data-name="Path 41" d="M4266.317 3750.656l-1154.889-911.883L4130.01 3886.959z"/><path data-name="Path 42" d="M4050.364 3948.078l-938.936-1109.3 772 1205.684z"/><path data-name="Path 43" d="M3790.673 4082.88l-679.245-1244.107 493.049 1294z"/><path data-name="Path 44" d="M3504.942 4145.875l-393.514-1307.1 200.75 1307.1z"/><path data-name="Path 45" d="M3212.643 4132.772l-101.215-1294-84.977 1244.1z"/><path data-name="Path 46" d="M2933.694 4044.461l177.734-1205.688-344.672 1109.3z"/><path data-name="Path 47" d="M2687.108 3886.964l424.32-1048.191-560.628 911.885z"/><path data-name="Path 48" d="M2489.689 3671.011l621.742-832.238-718.124 665.3z"/></g></g><g data-name="Mask Group 2" transform="translate(851.112 159.153)" clip-path="url(#c)"><g data-name="Group 101"><g data-name="Group 100"><g data-name="Web 1920 1"><g data-name="Group 21"><g data-name="Group 20"><path data-name="Path 60" d="M76.166 53.788c0-5.95 4.2-10.79 9.365-10.79s9.366 4.841 9.366 10.79-4.2 10.791-9.366 10.791-9.365-4.836-9.365-10.791z" fill="#161620"/><path data-name="Path 61" d="M99.616 86.517a2.5 2.5 0 00-2.5 2.5v51.407a1.125 1.125 0 01-1.1 1.146h-1.818a1.114 1.114 0 01-1.079-.792L88 112.57a2.5 2.5 0 00-4.925 0l-5.1 28.118a1.129 1.129 0 01-1.1.882h-1.8a1.12 1.12 0 01-.8-.337 1.158 1.158 0 01-.322-.858V89.021a2.511 2.511 0 00-.726-1.764l-9.018-9.079a10.725 10.725 0 01-2.5-4.047l-9.536-23.715a1.619 1.619 0 012.845-1.506L66.54 66.088c.029.044.061.086.091.127a8.639 8.639 0 006.825 3.372h22.029a6.377 6.377 0 015.019 2.437l14.053 16.827a3.1 3.1 0 01-.3 4.3l-12.136 10.952V89.021a2.5 2.5 0 00-2.505-2.504z" fill="#161620"/><path data-name="Path 62" d="M139.177 75.817l-1.844-3.2a7.405 7.405 0 01-.25-6.939l2.969-6.133a2.5 2.5 0 00-2.255-3.6 99.962 99.962 0 00-41.253 8.687c-.19-.018-.383-.024-.575-.033a16.582 16.582 0 003.928-10.817c0-8.711-6.447-15.8-14.371-15.8s-14.371 7.086-14.371 15.8a16.586 16.586 0 003.9 10.79h-1.617a3.6 3.6 0 01-2.8-1.355L59.164 46.112a6.623 6.623 0 00-11.645 6.161l9.5 23.6a15.581 15.581 0 003.633 5.818l8.291 8.349v50.28a6.13 6.13 0 006.012 6.246h1.914a6.188 6.188 0 006-4.9l2.658-14.644 2.674 14.733a6.167 6.167 0 005.987 4.815h1.8a6.129 6.129 0 006.128-6.129v-29.6l.133-.122c4.15 4.544 12.333 12.58 18.31 12.58a5.7 5.7 0 001.749-.261c1.775-.572 3.981-2.26 4.406-7.061.975-11.033 5.8-12.642 7.386-13.17a6.229 6.229 0 004.078-4.835 2.121 2.121 0 00-1.291-2.666c-.161-.1-.948-.7-.575-2.712.518-2.793 2.88-5.881 3.743-6.833a2.5 2.5 0 00.614-1.232 12.8 12.8 0 00-1.492-8.712zM76.166 53.792c0-5.95 4.2-10.79 9.365-10.79s9.366 4.841 9.366 10.79-4.2 10.791-9.366 10.791-9.365-4.84-9.365-10.791zm23.452 32.723a2.5 2.5 0 00-2.5 2.5v51.407a1.125 1.125 0 01-1.1 1.146h-1.821a1.114 1.114 0 01-1.079-.792l-5.121-28.205a2.5 2.5 0 00-4.925 0l-5.1 28.118a1.13 1.13 0 01-1.1.882h-1.8a1.12 1.12 0 01-.8-.337 1.157 1.157 0 01-.322-.857V89.021a2.51 2.51 0 00-.726-1.764l-9.027-9.079a10.724 10.724 0 01-2.5-4.047l-9.536-23.715a1.619 1.619 0 012.845-1.506l11.522 17.178c.029.044.061.086.091.127a8.639 8.639 0 006.825 3.372h22.032a6.377 6.377 0 015.019 2.437l14.053 16.827a3.1 3.1 0 01-.3 4.3l-12.136 10.952V89.021a2.5 2.5 0 00-2.5-2.5zm36.224-3.517c-1.133 1.38-3.742 4.889-4.448 8.687a7.879 7.879 0 001.2 6.348.54.54 0 01-.073.029c-6.318 2.108-9.948 7.989-10.789 17.479-.152 1.728-.589 2.62-.953 2.737-2.089.67-8.726-4.284-14.807-10.907l11.638-10.5a8.089 8.089 0 00.792-11.225l-14.021-16.782a11.483 11.483 0 00-1.45-1.487 98.816 98.816 0 0130.837-6.327l-1.187 2.453a12.408 12.408 0 00.418 11.623l1.844 3.2a7.771 7.771 0 011 4.682z" fill="#d2d2d4"/><path data-name="Path 63" d="M135.841 83.001c-1.133 1.381-3.742 4.889-4.448 8.688a7.88 7.88 0 001.2 6.348.534.534 0 01-.073.029c-6.318 2.108-9.948 7.988-10.788 17.478-.152 1.727-.589 2.62-.953 2.737-2.089.67-8.726-4.284-14.807-10.907l11.639-10.5a8.088 8.088 0 00.792-11.224l-14.021-16.782a11.565 11.565 0 00-1.45-1.487 98.851 98.851 0 0130.837-6.327l-1.187 2.453A12.409 12.409 0 00133 75.131l1.845 3.195a7.781 7.781 0 01.996 4.675z" fill="#ee306f"/></g></g></g></g></g></g></g></g></svg>