<svg xmlns="http://www.w3.org/2000/svg" width="150" height="150"><defs><clipPath id="a"><path data-name="Path 11" d="M75 0A75 75 0 110 75 75 75 0 0175 0z" transform="translate(860 175)" fill="#fff" stroke="#707070" opacity=".4"/></clipPath><clipPath id="b"><path data-name="Rectangle 165" transform="translate(2923.159 2727.836)" fill="none" d="M0 0h375v670H0z"/></clipPath></defs><g data-name="Mask Group 4" transform="translate(-860 -175)" clip-path="url(#a)"><g data-name="Group 103"><g data-name="Group 102" transform="translate(-2165.159 -2620.836)" clip-path="url(#b)"><g data-name="Group 3" fill="#383942"><path data-name="Path 25" d="M2305 3225.121l806.434-386.348-756.54 572.546-49.89-186.2z"/><path data-name="Path 26" d="M2291.889 2932.823v192.765l819.539-286.815z"/><path data-name="Path 27" d="M2304.989 2833.289l806.436 5.484-756.536-191.681z"/><path data-name="Path 28" d="M2393.3 2554.34l718.125 284.433-621.739-451.368z"/><path data-name="Path 29" d="M2550.8 2307.753l560.628 531.02-424.32-667.324z"/><path data-name="Path 30" d="M2766.753 2110.332l344.677 728.441-177.736-824.822z"/><path data-name="Path 31" d="M3026.445 1975.531l84.984 863.243 101.212-913.131z"/><path data-name="Path 32" d="M3312.175 1912.535l-200.747 926.238 393.512-926.235z"/><path data-name="Path 33" d="M3604.475 1925.639l-493.047 913.134 679.243-863.241z"/><path data-name="Path 34" d="M3883.423 2013.949l-772 824.824 938.933-728.44z"/><path data-name="Path 35" d="M4130.01 2171.447l-1018.582 667.326 1154.885-531.019z"/><path data-name="Path 36" d="M4327.432 2387.4l-1216 451.373 1312.38-284.433z"/><path data-name="Path 37" d="M4462.233 2647.091l-1350.8 191.682 1400.694-5.486z"/><path data-name="Path 38" d="M4525.228 2932.822l-1413.8-94.049 1413.8 286.813z"/><path data-name="Path 39" d="M4512.125 3225.121l-1400.7-386.348 1350.8 572.543z"/><path data-name="Path 40" d="M4423.815 3504.07l-1312.387-665.3L4327.43 3671z"/><path data-name="Path 41" d="M4266.317 3750.656l-1154.889-911.883L4130.01 3886.959z"/><path data-name="Path 42" d="M4050.364 3948.078l-938.936-1109.3 772 1205.684z"/><path data-name="Path 43" d="M3790.673 4082.88l-679.245-1244.107 493.049 1294z"/><path data-name="Path 44" d="M3504.942 4145.875l-393.514-1307.1 200.75 1307.1z"/><path data-name="Path 45" d="M3212.643 4132.772l-101.215-1294-84.977 1244.1z"/><path data-name="Path 46" d="M2933.694 4044.461l177.734-1205.688-344.672 1109.3z"/><path data-name="Path 47" d="M2687.108 3886.964l424.32-1048.191-560.628 911.885z"/><path data-name="Path 48" d="M2489.689 3671.011l621.742-832.238-718.124 665.3z"/></g></g></g><g data-name="Group 174"><g data-name="Group 909"><g data-name="Group 905"><path data-name="Path 1169" d="M934.789 202.676c8.5 0 15.421 7.968 15.421 17.765s-6.918 17.764-15.421 17.764-15.416-7.97-15.416-17.764 6.915-17.765 15.416-17.765z" fill="#14151f"/></g><g data-name="Group 906"><path data-name="Path 1170" d="M953.861 283.114v79.954a1.851 1.851 0 01-1.849 1.888h-2.96a1.809 1.809 0 01-1.777-1.306l-8.428-46.438a4.121 4.121 0 00-8.11 0l-8.4 46.29a1.836 1.836 0 01-1.806 1.454h-2.961a1.843 1.843 0 01-1.32-.555 1.906 1.906 0 01-.529-1.412v-79.875a4.12 4.12 0 10-8.24 0v20.159l-15.717-14.187a11.05 11.05 0 01-1.08-15.334l19.516-23.36a10.447 10.447 0 018.2-3.946h32.773a10.5 10.5 0 018.263 4.018l19.464 23.288a11.05 11.05 0 01-1.08 15.336L962.1 303.27v-20.156a4.121 4.121 0 10-8.241 0z" fill="#14151f"/></g><g data-name="Group 907"><path data-name="Path 1171" d="M1017.618 268.529c-1.865 2.271-6.163 8.048-7.321 14.3-.884 4.775.3 8.208 1.973 10.45a1.079 1.079 0 01-.12.047c-10.4 3.469-16.377 13.151-17.762 28.772-.251 2.845-.969 4.313-1.568 4.507-3.453 1.114-14.369-7.049-24.378-17.959l14.9-13.444a19.27 19.27 0 001.883-26.738l-19.4-23.217a18.884 18.884 0 00-2.387-2.45 162.686 162.686 0 0150.764-10.414l-1.956 4.038a20.43 20.43 0 00.693 19.133l3.036 5.263a12.828 12.828 0 011.643 7.712z" fill="#ee306f"/></g><g data-name="Group 908"><path data-name="Path 1172" d="M1020.076 251.441a12.2 12.2 0 01-.415-11.425l7.757-16.011h-6.575c-35.881 0-62.1 11.516-67.909 14.3-.314-.029-.633-.039-.95-.053a27.3 27.3 0 006.466-17.808c0-14.34-10.614-26.007-23.66-26.007s-23.658 11.667-23.658 26.007a27.3 27.3 0 006.466 17.808 18.569 18.569 0 00-13.78 6.929l-19.457 23.289a19.267 19.267 0 001.881 26.735l21.24 19.169v48.538a10.1 10.1 0 0010.089 10.286h2.961a10.189 10.189 0 009.886-8.074l4.375-24.108 4.4 24.256a10.152 10.152 0 009.856 7.927h2.96a10.092 10.092 0 0010.09-10.206v-48.62l.217-.2c6.832 7.479 20.305 20.71 30.144 20.709a9.358 9.358 0 002.879-.431c2.922-.941 6.554-3.72 7.255-11.624 1.606-18.163 9.549-20.811 12.159-21.683a10.255 10.255 0 006.715-7.961l1.215-3.222-3.34-1.164c-.265-.164-1.56-1.15-.946-4.462.853-4.6 4.743-9.686 6.164-11.253l.8-.87.213-1.159a21.044 21.044 0 00-2.462-14.348zm-85.285-48.764c8.5 0 15.421 7.968 15.421 17.765s-6.918 17.764-15.421 17.764-15.417-7.97-15.417-17.764 6.915-17.765 15.416-17.765zm19.071 80.437v79.954a1.849 1.849 0 01-1.849 1.888h-2.96a1.809 1.809 0 01-1.777-1.305l-8.428-46.437a4.121 4.121 0 00-8.11 0l-8.4 46.29a1.835 1.835 0 01-1.806 1.453h-2.961a1.844 1.844 0 01-1.319-.554 1.906 1.906 0 01-.529-1.412v-79.877a4.12 4.12 0 10-8.24 0v20.158l-15.717-14.185a11.05 11.05 0 01-1.08-15.334l19.516-23.36a10.447 10.447 0 018.2-3.946h32.773a10.5 10.5 0 018.263 4.018l19.457 23.286a11.051 11.051 0 01-1.08 15.336l-15.712 14.183v-20.156a4.121 4.121 0 10-8.242 0zm63.757-14.585c-1.865 2.272-6.162 8.048-7.32 14.3-.884 4.774.3 8.208 1.973 10.45a.983.983 0 01-.12.047c-10.4 3.469-16.378 13.151-17.762 28.772-.251 2.845-.97 4.314-1.569 4.507-3.452 1.113-14.368-7.049-24.378-17.959l14.9-13.444a19.269 19.269 0 001.883-26.738l-19.4-23.217a18.917 18.917 0 00-2.387-2.45 162.657 162.657 0 0150.764-10.415l-1.956 4.039a20.429 20.429 0 00.69 19.14l3.036 5.263a12.823 12.823 0 011.645 7.705z" fill="#d2d2d4"/></g></g></g></g></svg>