<svg xmlns="http://www.w3.org/2000/svg" width="150" height="150"><defs><clipPath id="a"><path data-name="Path 11" d="M75 0A75 75 0 110 75 75 75 0 0175 0z" transform="translate(860 175)" fill="#fff" stroke="#707070" opacity=".4"/></clipPath><clipPath id="b"><path data-name="Rectangle 165" transform="translate(2923.159 2727.836)" fill="none" d="M0 0h375v670H0z"/></clipPath><clipPath id="c"><path data-name="Rectangle 56" fill="none" d="M0 0h35.091v26.229H0z"/></clipPath></defs><g data-name="Mask Group 4" transform="translate(-860 -175)" clip-path="url(#a)"><g data-name="Group 103"><g data-name="Group 102" transform="translate(-2165.159 -2620.836)" clip-path="url(#b)"><g data-name="Group 3"><path data-name="Path 25" d="M2305 3225.121l806.434-386.348-756.54 572.546-49.89-186.2z" fill="#383942"/><path data-name="Path 26" d="M2291.889 2932.823v192.765l819.539-286.815z" fill="#383942"/><path data-name="Path 27" d="M2304.989 2833.289l806.436 5.484-756.536-191.681z" fill="#383942"/><path data-name="Path 28" d="M2393.3 2554.34l718.125 284.433-621.739-451.368z" fill="#383942"/><path data-name="Path 29" d="M2550.8 2307.753l560.628 531.02-424.32-667.324z" fill="#383942"/><path data-name="Path 30" d="M2766.753 2110.332l344.677 728.441-177.736-824.822z" fill="#383942"/><path data-name="Path 31" d="M3026.445 1975.531l84.984 863.243 101.212-913.131z" fill="#383942"/><path data-name="Path 32" d="M3312.175 1912.535l-200.747 926.238 393.512-926.235z" fill="#383942"/><path data-name="Path 33" d="M3604.475 1925.639l-493.047 913.134 679.243-863.241z" fill="#383942"/><path data-name="Path 34" d="M3883.423 2013.949l-772 824.824 938.933-728.44z" fill="#383942"/><path data-name="Path 35" d="M4130.01 2171.447l-1018.582 667.326 1154.885-531.019z" fill="#383942"/><path data-name="Path 36" d="M4327.432 2387.4l-1216 451.373 1312.38-284.433z" fill="#383942"/><path data-name="Path 37" d="M4462.233 2647.091l-1350.8 191.682 1400.694-5.486z" fill="#383942"/><path data-name="Path 38" d="M4525.228 2932.822l-1413.8-94.049 1413.8 286.813z" fill="#383942"/><path data-name="Path 39" d="M4512.125 3225.121l-1400.7-386.348 1350.8 572.543z" fill="#383942"/><path data-name="Path 40" d="M4423.815 3504.07l-1312.387-665.3L4327.43 3671z" fill="#383942"/><path data-name="Path 41" d="M4266.317 3750.656l-1154.889-911.883L4130.01 3886.959z" fill="#383942"/><path data-name="Path 42" d="M4050.364 3948.078l-938.936-1109.3 772 1205.684z" fill="#383942"/><path data-name="Path 43" d="M3790.673 4082.88l-679.245-1244.107 493.049 1294z" fill="#383942"/><path data-name="Path 44" d="M3504.942 4145.875l-393.514-1307.1 200.75 1307.1z" fill="#383942"/><path data-name="Path 45" d="M3212.643 4132.772l-101.215-1294-84.977 1244.1z" fill="#383942"/><path data-name="Path 46" d="M2933.694 4044.461l177.734-1205.688-344.672 1109.3z" fill="#383942"/><path data-name="Path 47" d="M2687.108 3886.964l424.32-1048.191-560.628 911.885z" fill="#383942"/><path data-name="Path 48" d="M2489.689 3671.011l621.742-832.238-718.124 665.3z" fill="#383942"/><g data-name="Group 139"><g data-name="Group 137" transform="translate(3007.46 2808.345)"><g data-name="Group 112" transform="translate(42.691 6.852)"><rect data-name="Rectangle 54" width="68.589" height="129.592" rx="10" transform="translate(.523 .523)" fill="#161620"/><path data-name="Path 29" d="M61.813 130.638H7.823a7.831 7.831 0 01-7.822-7.822V7.823A7.831 7.831 0 017.823 0h53.99a7.831 7.831 0 017.823 7.823v114.993a7.831 7.831 0 01-7.823 7.822zM7.823 1.046a6.784 6.784 0 00-6.776 6.776v114.993a6.783 6.783 0 006.776 6.776h53.99a6.784 6.784 0 006.776-6.776V7.823a6.784 6.784 0 00-6.776-6.776z" fill="#fff"/></g><g data-name="Group 113"><path data-name="Path 30" d="M106.846 123.595H48.172a.521.521 0 01-.522-.521v-100.1a.522.522 0 01.522-.522h58.674a.522.522 0 01.521.522v100.1a.521.521 0 01-.521.521zm-58.152-1.043h57.631V23.501H48.694z" fill="#fff"/></g><g data-name="Group 124"><g data-name="Group 123"><g data-name="Group 114"><path data-name="Path 31" d="M131.838 90.586c-4.407 0-7.993 4.111-7.993 9.165s3.586 9.165 7.993 9.165 7.992-4.111 7.992-9.165-3.586-9.165-7.992-9.165z" fill="#3bc3fa"/></g><g data-name="Group 115"><path data-name="Path 32" d="M109.889 136.521s5.842 1.8 9 0v-12.095h-6.82z" fill="#ee306f"/></g><g data-name="Group 116"><path data-name="Path 33" d="M150.965 136.521a1.377 1.377 0 01-1.377-1.377v-14.107a9.378 9.378 0 00-9.368-9.368h-16.148a25.528 25.528 0 00-6.291.787l-10.118 2.573a2.67 2.67 0 01-3.233-3.3l3.406-12.346a1.377 1.377 0 011.328-1.01h4.453a1.929 1.929 0 001.3-.524 3.08 3.08 0 00.684-2.236 3.962 3.962 0 00-3.122-3.819 3.151 3.151 0 00-2.342.977 719.936 719.936 0 01-4.939 4.851l-8.635 16.99a4.193 4.193 0 001.85 5.643l1.505.76a15.619 15.619 0 007 1.666h11.968a1.377 1.377 0 011.377 1.377v11.087a1.377 1.377 0 01-1.377 1.377z" fill="#161620"/></g><g data-name="Group 122"><g data-name="Group 117"><ellipse data-name="Ellipse 22" cx="9.369" cy="10.541" rx="9.369" ry="10.541" fill="#161620" transform="translate(122.468 89.209)"/></g><g data-name="Group 121"><g data-name="Group 119"><g data-name="Group 118"><path data-name="Path 34" d="M140.219 108.915h-1.52a12.445 12.445 0 003.885-9.165c0-6.571-4.822-11.918-10.746-11.918s-10.746 5.347-10.746 11.918a12.445 12.445 0 003.884 9.165h-.9a28.345 28.345 0 00-6.97.872l-9.979 2.538 3.089-11.2h3.349a4.675 4.675 0 003.245-1.272 5.632 5.632 0 001.55-4.24 6.724 6.724 0 00-5.362-6.526 1.445 1.445 0 00-.091-.016 5.878 5.878 0 00-4.712 1.752c-1.611 1.61-5.042 4.951-5.076 4.985a1.4 1.4 0 00-.267.363l-8.738 17.194a6.947 6.947 0 003.063 9.349l1.506.759a18.379 18.379 0 008.24 1.961h4.157a34.631 34.631 0 01-2.439 9.141 1.376 1.376 0 00.684 1.823 1.361 1.361 0 00.569.124 1.379 1.379 0 001.254-.808 37.517 37.517 0 002.712-10.28h3.654v9.71a1.377 1.377 0 002.754 0v-11.087a1.377 1.377 0 00-1.377-1.376h-11.968a15.616 15.616 0 01-7-1.666l-1.505-.759a4.194 4.194 0 01-1.85-5.643l8.634-16.99c.707-.688 3.519-3.431 4.939-4.852a3.152 3.152 0 012.343-.976 3.962 3.962 0 013.122 3.819 3.082 3.082 0 01-.683 2.236 1.929 1.929 0 01-1.3.524h-4.462a1.377 1.377 0 00-1.327 1.01l-3.406 12.346a2.67 2.67 0 003.233 3.3l10.118-2.573a25.533 25.533 0 016.291-.787h16.148a9.379 9.379 0 019.368 9.368v14.107a1.377 1.377 0 002.754 0v-14.108a12.136 12.136 0 00-12.121-12.122zm-16.374-9.165c0-5.053 3.585-9.165 7.993-9.165s7.992 4.111 7.992 9.165-3.586 9.165-7.992 9.165-7.993-4.111-7.993-9.165z" fill="#d2d2d4"/></g></g><g data-name="Group 120"><path data-name="Path 35" d="M143.241 122.68a1.377 1.377 0 00-1.377 1.377v11.087a1.377 1.377 0 002.754 0v-11.087a1.377 1.377 0 00-1.377-1.377z" fill="#161620"/></g></g></g></g></g><circle data-name="Ellipse 23" cx="2.541" cy="2.541" r="2.541" transform="translate(57.598 12.05)" fill="#fff"/><circle data-name="Ellipse 24" cx="1.971" cy="1.971" r="1.971" transform="translate(87.263 12.62)" fill="#fff"/><rect data-name="Rectangle 55" width="12.885" height="2.367" rx="1.183" transform="translate(70.958 13.51)" fill="#fff"/><circle data-name="Ellipse 25" cx="3.891" cy="3.891" r="3.891" transform="translate(73.509 126.129)" fill="#fff"/><g data-name="Group 125"><path data-name="Path 36" d="M95.323 81.175h-35.63a3.156 3.156 0 110-6.311h35.63a3.156 3.156 0 110 6.311z" fill="#fff"/></g><g data-name="Group 129"><g data-name="Group 128" clip-path="url(#c)" transform="translate(59.744 51.79)"><g data-name="Group 127" transform="translate(.006 .643)"><g data-name="Group 126"><circle data-name="Ellipse 26" cx="16.803" cy="16.803" r="16.803" transform="translate(.736 .736)" fill="#161620"/><path data-name="Path 37" d="M17.539 35.078a17.539 17.539 0 1117.539-17.539 17.559 17.559 0 01-17.539 17.539zm0-33.605a16.067 16.067 0 1016.066 16.066A16.084 16.084 0 0017.539 1.472z" fill="#fff"/></g><circle data-name="Ellipse 27" cx="13.555" cy="13.555" r="13.555" transform="translate(3.985 3.984)" fill="#fff"/><path d="M11.714 13.948a4.114 4.114 0 015.669-.142l.152.145a4.114 4.114 0 015.962 5.666l-.145.151-5.817 5.818-5.818-5.818a4.115 4.115 0 010-5.819z" fill="#ee306f"/></g></g></g><g data-name="Group 132"><g data-name="Group 130" transform="translate(119.39)"><circle data-name="Ellipse 28" cx="16.803" cy="16.803" r="16.803" transform="translate(.738 .738)" fill="#161620"/><path data-name="Path 38" d="M17.504 35.081a17.552 17.552 0 111.819-.093 17.881 17.881 0 01-1.819.093zm.063-33.609a16.347 16.347 0 00-1.667.085 16.015 16.015 0 101.667-.085z" fill="#fff"/></g><g data-name="Group 131"><circle data-name="Ellipse 29" cx="13.555" cy="13.555" r="13.555" fill="#fff" transform="translate(123.376 3.986)"/></g><g data-name="Heart"><path data-name="Path 39" d="M130.721 14.073a4.114 4.114 0 015.625-.718l.166.129a4.114 4.114 0 016.508 5.03l-.129.165-5.195 6.38-6.381-5.2a4.115 4.115 0 01-.6-5.788z" fill="#ee306f"/></g></g><g data-name="Group 133"><path data-name="Path 40" d="M160.17 137.492H.539a.526.526 0 110-1.052H160.17a.526.526 0 110 1.052z" fill="#fff"/></g><g data-name="Group 136"><g data-name="Group 134" transform="translate(80.408 16.961)"><circle data-name="Ellipse 30" cx="16.803" cy="16.803" r="16.803" transform="translate(.746 .737)" fill="#161620"/><path data-name="Path 41" d="M17.554 35.088a17.575 17.575 0 117.039-1.486 17.529 17.529 0 01-7.039 1.486zm.013-33.616a16.069 16.069 0 105.822 1.1 16.093 16.093 0 00-5.821-1.096z" fill="#fff"/></g><g data-name="Group 135"><circle data-name="Ellipse 31" cx="13.555" cy="13.555" r="13.555" fill="#fff" transform="translate(84.402 20.946)"/></g><g data-name="Heart"><path data-name="Path 42" d="M94.015 28.581a4.113 4.113 0 015.332 1.93l.089.19a4.113 4.113 0 013.494 7.446l-.19.088-7.535 3.305-3.3-7.536a4.114 4.114 0 012.111-5.422z" fill="#ee306f"/></g></g></g></g></g></g></g></g></svg>