<?xml version="1.0" encoding="UTF-8"?>
<svg width="20px" height="20px" viewBox="0 0 20 20" version="1.1" xmlns="http://www.w3.org/2000/svg" xmlns:xlink="http://www.w3.org/1999/xlink">
    <!-- Generator: Sketch 63.1 (92452) - https://sketch.com -->
    <title>Icon/Placeholder</title>
    <desc>Created with Sketch.</desc>
    <g id="Icon/Placeholder" stroke="none" stroke-width="1" fill="none" fill-rule="evenodd">
        <circle id="Oval" fill="#F3F3F3" cx="10" cy="10" r="10"></circle>
        <path d="M10,4 C12.5773288,4 14.6666667,6.12908067 14.6666667,8.75543478 C14.6666667,10.1814718 14.0506908,11.4609033 13.07508,12.3325123 C14.9864839,13.2862631 16.4082404,15.1016313 16.8532532,17.2818968 C16.3288551,17.7760211 15.7517681,18.2132517 15.1310014,18.5850619 L15.1333333,18.7418478 C15.1333333,15.8528583 12.8350617,13.5108696 10,13.5108696 C7.21658055,13.5108696 4.95057343,15.7683141 4.86894377,18.5845294 C4.2490578,18.2138449 3.67180749,17.7765749 3.1477833,17.2833855 C3.59174869,15.1016221 5.01345447,13.2862114 6.92457316,12.3322211 C5.94930919,11.4609033 5.33333333,10.1814718 5.33333333,8.75543478 C5.33333333,6.12908067 7.42267117,4 10,4 Z M10,5.90217391 C8.4536027,5.90217391 7.2,7.17962232 7.2,8.75543478 C7.2,10.3312472 8.4536027,11.6086957 10,11.6086957 C11.5463973,11.6086957 12.8,10.3312472 12.8,8.75543478 C12.8,7.17962232 11.5463973,5.90217391 10,5.90217391 Z" id="Shape" fill="#253449" fill-rule="nonzero"></path>
    </g>
</svg>